/* XPM */
static char *blackstone_wip[] = {
/* columns rows colors chars-per-pixel */
"64 64 16 1 ",
"  c #160F10",
". c #1F121B",
"X c #27221C",
"o c #312C36",
"O c #3C3947",
"+ c #4E4B54",
"@ c black",
"# c black",
"$ c black",
"% c black",
"& c black",
"* c black",
"= c black",
"- c black",
"; c black",
": c black",
/* pixels */
"XoOOOOoo.................X. .. .XXXoooooooooooOOOOOOoX.ooooooooX",
"XooOoooo................X.    XXXooooooooooooooOOOOOOoXXoooooooX",
"oXoooXXX..............XX   . XoXooooooooooooooOOOOOOOOoXXooooooo",
"oXoXXoooXX..........XX.  .. XoooooooXXoXoooooooOOOOOOOOoX.oooooo",
"ooXXooooooXX......XX.  ... XoXoooooXoXXooooooOoOOOOOOOOOoX ooooo",
"ooXoooooooooXXXXXX.. .. .. XooooooooXXooooooOoOOOOOOOOOOOX. oooo",
"oooooooo...         .....  XoooooooXoooooooOOOOoOOOOOOOOOXX. ooo",
"ooooo ..     ......     .. XXoooooooooooooOoOOoOOOOOOO++oX.. ooo",
"ooo...   ....XXXXXXX..     XXooooooooooooooOOOOOOOOOO++oX.... oo",
"oo.    ...XXXoXXoXooXX. . XXooooooooooOooOOOOOOOOOO+oOXXXX  . oo",
"..   ...XXXXooooXoooooX.  XXoooooooOOooOOOoOOOOOOO+O....XX.  . o",
"..  ..XXXXooXooooooOoOoX. XoooooooooOOOoOOOOOOOO+OO....X.XX   . ",
".  ..XoXXoooooooOOooOOooX.XXoooooooOoOOOOOOOOO++++.......XX .  .",
" ...XooooooooOOOOooOOooXX.XooooooooooOOOOOOOO++O..........X .. .",
"...XoXooooOoooOOoOOOOOoX.XXoooooooooOOOOOOO+++............X. . .",
"..XXoooooooOOOOOOOOOOOoX.XooooooooooOOOOO++OX.............X.....",
". XoooOooOOOOOOOOOOOOOOo.XoooooooOoOO++++OXX.X............X.....",
". ooOooOOOOOOOOOOOOOOOOo.XOoOoooooO++++XXXXXXXX.........X.X.....",
" oOOoOOOOOOOOOOOOOOOOOOoX.XOoooOO+++XXXXXXXXXX..........XX......",
"oOOOOOOOOOOOOOOOOOOOOOOOX.XOOO+++OXXXXXXXXXXXX.........X.X......",
"OOOOOOOOOOOOOOOOOOOOO+ooX..XoXXXXXXXXXXXXXXXXXX..........X......",
"OOOOOOOOOOOOOOOOOOO++ooXo ..oXXXXXXXXXXXXXXXXXo.........X.......",
"OOOOOOOOOOOOOOO+++++oOOoX. ..oXoXXXXXXXXXXXXXXo.........X.......",
"OOOOOOOOOOOOO++++oO+OooX.. ..ooXXXXXXXXXXXXXXo..........X.......",
"OOOOOOOOOOO+++oOOOooooXX..   .oXXoXXXXXXXXXXX..........X.X.....o",
"OOOOOOOO+++O+OooooXoXXXXX. .  .oXXooXoXXXXXXX..........XX......o",
"oOOoOOo++OOoOoooXXXXoXXX. .XXX..ooXooXXXXXXoX.........XXX......o",
"XoOOo++ooooooooXoXXXXXX.X.XXXoXX..oooXXXXXXXo......X.XX....... o",
"XXoooooooXXoooooXXXXXXXX.XoXoXooXX..oooXXoXX.X......XX......  Xo",
"XoXoooXXXoXXoXoXXXXXXXX..oXoooooooXX. oooXXX......XX....... XXXo",
".XXXXooXXXXXXXXXXXXXXX. XoooooOOooXX .  oooX...XXX......   XXXXo",
"....XXXXXXXXXXXXXXXXX. .ooooOooOOooXo  ....ooXXX......  XXXXXXXo",
"......XXXXXXXXXXXXXX.o.XoooOOOOOOoooXo    .........   XXXXXXXXo ",
"........XXXXXXXXXXXXoXoooooOOOOOOOoooX   .  ...... XXXXXXXXXXXo ",
".........XXXXXXoXXoo oXoooooOoOOOOOooX ..... ..   XXXXXXXXXXXXo ",
".........XXXXoXXoooX. oooooooOOOOOOOoo .....   XXXXXXXXXXXXXXo .",
"..........XXooooo  ...XXooXoooOOOOOoo.. ..  XXXXXXXXXXXXXXXXXo .",
".........XooooX..   ...XXXoXoooOOOoo..    ooooooXXXXXXXXXXXXXo .",
"X.....XooooX...... . ...XXXXXooXXXX.  ooOOOOOOOOooXXXXXXXXXXX ..",
"oX.XoooXX.......... .....XXXXXXXXX. ooOOOOOOOOOOOOooXXXXXXXXX ..",
"XooooX....  ooooXXXX  ....XXXXXX.. oOOOOOOOOOOOOOOOOoooXXXXXX ..",
".XX.....  ooooooooooXX  . ..XX..  oOOOOO+OOOOOOOOOOOOOOoooXXX ..",
".   ..XXooooooooooooooXX . .... ooOOOOOOO+++OOOOOOOOOOOOOOoXX ..",
"   .XXooooooooooooooOOOOX   .. ...ooOOOOOOO+++OOOOOOOOOOOOOo ...",
". .XooooooooooooooOOOOOOOO    X.....ooOOOOOOO++OOOOOOOOOOOOo ...",
"..XoooooooooooooOOOOOOOOOOO. .X.......ooOOOOOOO+OOOOOOOOOOo ....",
".XooooooooooooOOOOOOOOOOOOOO. X.........ooOOOOOOOOOOOOOOOo......",
"XoooooooooooOOOOOOOOOOOOOOOO. X...........ooOOOOOOOOOOOOo.......",
"ooooooooooOOOOOOOOOOOOOOOOOO.  X............oOOOOOOOOOOo.......X",
"ooooooooOOOOOOOOOOOOOOOOOOOO.  X.............oOOOOOOOOo........X",
"ooooooOOOOOOOOOOOOOOOOOOOOOo.. .X.............ooOOOOoo........Xo",
"ooooOOOOOOOOOOOOOOOO+OOOOOo .. ..X..............oooo..........Xo",
"ooOOOOOOOOOOOOOOOO++OOOOOoXX   .. XX..........X.............. oO",
"oOOOOOOOOOOOOOOO+++OOOOOo...XX . ...XX......XX............... oO",
"OOOOOOOOOOOOOO++++OOOOOo......X ......XXXXXX................ oOO",
"OOOOOOOOOOOOO+++OOOOOOo.......X ...... .................    .oOO",
"OOOOOOOOOOO++++OOOOOoo.........X ..... .............  XXXXX..oOO",
"OOOOOOOOOO+++OOOOOoo...........X .... ............  XXoooooXX.oO",
"OOOOOOOO+++OOOOOoo.............X ..  ..........  XXXoooooooooX.o",
"OOOOO++++OOOOOoo...............X   ..........  XXoooooooooooooX.",
"OO+++++OOOOOOo................X  .........  XXXOoooooooooooooooX",
"OOOOOOOOOOOOo.................X ........  XXooXXOOoooooooooooooX",
"oOOOOOOOOOoo.................X .....   XXXooooooXXOOoooooooooooX",
"ooOOOOOOoo..................X ....XXXXooooooooooooXXXooooooooooX"
};
