/* XPM */
static char *conduit[] = {
/* columns rows colors chars-per-pixel */
"64 64 11 1 ",
"  c None",
". c #342B19",
"X c #403621",
"o c #4F4225",
"O c #615331",
"+ c #685A3D",
"@ c #807252",
"# c #B4886B",
"$ c #B0A280",
"% c #BAAD96",
"& c #C4BDB5",
/* pixels */
"                                                                ",
"                                                                ",
"                                                                ",
"                                                                ",
"                                                                ",
"                                                                ",
"                                                                ",
"                                                                ",
"        $##$##$$%$%%$$#%%%$$$%#$$##$#$###%$%##$$$%%%##%#        ",
"        #%##$%%%$$%###$#%$$%%$##$$##$%$#%#$$%%#$#$%$%##%        ",
"        %$$%%$%##$#$###$$%%$%%%#%##$%%%$%$%%%$%###$$%%%%        ",
"        $$%%$$#%#####$$$%$%%$%#%#$$#$%$%$$$%$$$$#$%$$%%$        ",
"        #$#$@@@@@@@@@@@@@@@@%##$$%%$@@@@@@@@@@@@@@@@$$$%        ",
"        ##$#&..............@$%$#%%$#@.......ooooooo@$$%%        ",
"        $##$@.XXXXXXXXXXXX.@$%$$$##$@.XXXXXXOOOOOOo%%$#$        ",
"        ##%$@.XXXXXXXXXXXX.@%$$$$%##@.XXXXXXXXXXXOo%%%##        ",
"        %%%#@.XXXXXXXXXXXX.@$%$$%#$#@.XXXXXXXXXXXOo%$#%$        ",
"        %$%$@.XXXXXXXXXXXX.@$%$$###$@.XXXXXXXXXXXOo%$$%%        ",
"        $$$%@.XXXXXXXXXXXX.@%%$%##%$@.XXXXXXXXXXXOo%$%$%        ",
"        $%$$@.XXXXXXXXXXXX.@%$%%$#%%@.XXXXXXXXXXXOo%$$%$        ",
"        $%%#@.XXXXXXXXXXXX.@$%%$%%$#@.XXXXXXXXXXXX.%$#%%        ",
"        %##%@.XXXXXXXXXXXOo@$%$$$##$@.XXXXXXXXXXXX.%$#$%        ",
"        $$#$@oOXXXXXXXXXXOo@$$#$$$##&.XXXXXXXXXXXX.%##$$        ",
"        $%$$@oOXXXXXXXXXXOo%$#$$%$$#&.XXXXXXXXXXXX.%%##$        ",
"        %$%%@oOXXXXXXXXXXOo&##%%%%$$%.XXXXXXXXXXXX.%$%#$        ",
"        $$$%@oOOOOOOOOOOOOo&$#$%%$%$%.XXXXXXXXXXXX.%$#$#        ",
"        #$#$@oooooooooooooo&#$$##$$$%..............@%$$$        ",
"        ##$#@@@@@@@@@@%%%&&&$##$##$#%%%%&&@@@@@@@@@@$%$$        ",
"        #$##%$##%#%%##$%$$###$##OO##$$###%%$%$$$###$##$%        ",
"        %##$%%###$%##%%$##$$###OO$OO$O$#%%%%$#%$$#$$#%#%        ",
"        $%%%$%$#$##$%%%$%##$O#OO$OOOOO$$##$##$%%$$#$%#%%        ",
"        $$%$%$$$##$$$%$%##$##OO$$$$OO$OO$###$%%#$##$$#%#        ",
"        $$#$##$#$$$#%$##$#$%%$$#$$$#%%$$$%%%#$$$##$$$%#$        ",
"        ####$$#%%###%##%$%%%$%#$$$#%%%%$$$%%%#######$$%$        ",
"        $##%%$%$%%#$##$#%%$$####%$%##$$%$##%##$%$##$$%##        ",
"        #$#$%%$%%#$##$#$%$####$%%$%$#$#$####$%%%%$$$%##%        ",
"        $%%$@@@@@@@@@@&&&&%%%$#$$$$$@@@@@@@@@@&&&&%%#%%#        ",
"        %$%%@.......ooooooo%$%$$%$%$@.......ooooooo%%$%$        ",
"        %$##@.XXXXXXOOOOOOo&%$%$%%%#@.XXXXXXOOOOOOo&%%$$        ",
"        #%$#@.XXXXXXXXXXXOo&%#$#$%%#@.XXXXXXXXXXXOo&%#%$        ",
"        ###%@.XXXXXXXXXXXOo&%##$$$%#@.XXXXXXXXXXXOo&$%#$        ",
"        %#%#@.XXXXXXXXXXXOo&%$##$%##@.XXXXXXXXXXXOo&%%#%        ",
"        $$%$@.XXXXXXXXXXXOo&%#$#%%%#@.XXXXXXXXXXXOo&$%##        ",
"        %$$%@.XXXXXXXXXXXOo&%$$$#%##@.XXXXXXXXXXXOo&$%##        ",
"        %#%#@.XXXXXXXXXXX@+&%$$$$#$$@.XXXXXXXXXXXX.&$##%        ",
"        $%##@.XXXXXXXXXXX@+&%$#$#%#$@.XXXXXXXXXXXX.&%#%$        ",
"        #$$#&.XXXXXXXXXXX@+&$#$#%%##%.XXXXXXXXXXXX.&##%#        ",
"        %#%$&.XXXXXXXXXXX@+&$$##%$$#%.XXXXXXXXXXXX.&####        ",
"        $%%$&.XXXXXXXXXXX@+&%##$$$$$%.XXXXXXXXXXXX.&$##$        ",
"        $%$#&.XXXXXX@@@@@@+&##%$#$$$%.XXXXXXXXXXXX.&%#$#        ",
"        #$$##.......+++++++&%##%%#$#%..............@%%##        ",
"        ###$#$##%%%##%%%#%&&#%###%##%%%%%%%%%%%%&&@@$%#$        ",
"        #$$$$$$$##%%##%%%###%##$$###%%%%%$###$#%%$#$#$%$        ",
"        O#$#$$%##$%%###%##$$$%$$#$%%$%##$###$###$%##$$##        ",
"        %O#%$$$%%#$$$#$###$$#$#$##$%%$$%##%%#%$##$$##$#%        ",
"        %%##%$%%#%$%$$$$#$#$$######$$$##%#%#$$$$$$$$##%%        ",
"                                                                ",
"                                                                ",
"                                                                ",
"                                                                ",
"                                                                ",
"                                                                ",
"                                                                ",
"                                                                "
};
