/* XPM */
static char *daylight_detector_inverted_top[] = {
/* columns rows colors chars-per-pixel */
"64 64 17 1 ",
"  c #2E2717",
". c #332B1B",
"X c #3C3322",
"o c #473D29",
"O c #2A3850",
"+ c #303D53",
"@ c #354359",
"# c #445876",
"$ c #5B6E8C",
"% c #8B9AB1",
"& c #91A1B7",
"* c #97A7BD",
"= c #9EADC2",
"- c #A5B3C7",
"; c #ABB8CB",
": c #B0BDCE",
"> c #C3CCD9",
/* pixels */
"                                                                ",
" .............................................................. ",
" .                                                            . ",
" . OO++@@@@@@@@@@++OOoXOO++@@@@@@@@@@++OOoXOO++@@@@@@@@@@++OO . ",
" . O+@@@#$%%&&$#@@@+OoXO+@@@#$%%&&$#@@@+OoXO+@@@#$%%&&$#@@@+O . ",
" . +@@@$%&&&****$@@@+oX+@@@$%&&&****$@@@+oX+@@@$%&&&****$@@@+ . ",
" . +@@#&&&**=====#@@+oX+@@#&&&**=====#@@+oX+@@#&&&**=====#@@+ . ",
" . @@$&&**=====---$@@oX@@$&&**=====---$@@oX@@$&&**=====---$@@ . ",
" . @#%&**===---;;;-#@oX@#%&**===---;;;-#@oX@#%&**===---;;;-#@ . ",
" . @$&&*==---;;;;:;$@oX@$&&*==---;;;;:;$@oX@$&&*==---;;;;:;$@ . ",
" . @%&*==---;;;:::::@oX@%&*==---;;;:::::@oX@%&*==---;;;:::::@ . ",
" . @%&*==--;;::::::>@oX@%&*==--;;::::::>@oX@%&*==--;;::::::>@ . ",
" . @&*==--;;:::::::>@oX@&*==--;;:::::::>@oX@&*==--;;:::::::>@ . ",
" . @&*==-;;:::::::>>@oX@&*==-;;:::::::>>@oX@&*==-;;:::::::>>@ . ",
" . @$*==-;;:::::::>$@oX@$*==-;;:::::::>$@oX@$*==-;;:::::::>$@ . ",
" . @#*=-;;:::::::>>#@oX@#*=-;;:::::::>>#@oX@#*=-;;:::::::>>#@ . ",
" . @@$=-;;::::::>>$@@oX@@$=-;;::::::>>$@@oX@@$=-;;::::::>>$@@ . ",
" . +@@#-;::::::>>#@@+oX+@@#-;::::::>>#@@+oX+@@#-;::::::>>#@@+ . ",
" . +@@@$-;::::>>$@@@+oX+@@@$-;::::>>$@@@+oX+@@@$-;::::>>$@@@+ . ",
" . O+@@@#$:>>>$#@@@+OoXO+@@@#$:>>>$#@@@+OoXO+@@@#$:>>>$#@@@+O . ",
" . OO++@@@@@@@@@@++OOoXOO++@@@@@@@@@@++OOoXOO++@@@@@@@@@@++OO . ",
" . oooooooooooooooooooXoooooooooooooooooooXoooooooooooooooooo . ",
" . XXXXXXXXXXXXXXXXXXXXXXXXXXXXXXXXXXXXXXXXXXXXXXXXXXXXXXXXXX . ",
" . OO++@@@@@@@@@@++OOoXOO++@@@@@@@@@@++OOoXOO++@@@@@@@@@@++OO . ",
" . O+@@@#$%%&&$#@@@+OoXO+@@@#$%%&&$#@@@+OoXO+@@@#$%%&&$#@@@+O . ",
" . +@@@$%&&&****$@@@+oX+@@@$%&&&****$@@@+oX+@@@$%&&&****$@@@+ . ",
" . +@@#&&&**=====#@@+oX+@@#&&&**=====#@@+oX+@@#&&&**=====#@@+ . ",
" . @@$&&**=====---$@@oX@@$&&**=====---$@@oX@@$&&**=====---$@@ . ",
" . @#%&**===---;;;-#@oX@#%&**===---;;;-#@oX@#%&**===---;;;-#@ . ",
" . @$&&*==---;;;;:;$@oX@$&&*==---;;;;:;$@oX@$&&*==---;;;;:;$@ . ",
" . @%&*==---;;;:::::@oX@%&*==---;;;:::::@oX@%&*==---;;;:::::@ . ",
" . @%&*==--;;::::::>@oX@%&*==--;;::::::>@oX@%&*==--;;::::::>@ . ",
" . @&*==--;;:::::::>@oX@&*==--;;:::::::>@oX@&*==--;;:::::::>@ . ",
" . @&*==-;;:::::::>>@oX@&*==-;;:::::::>>@oX@&*==-;;:::::::>>@ . ",
" . @$*==-;;:::::::>$@oX@$*==-;;:::::::>$@oX@$*==-;;:::::::>$@ . ",
" . @#*=-;;:::::::>>#@oX@#*=-;;:::::::>>#@oX@#*=-;;:::::::>>#@ . ",
" . @@$=-;;::::::>>$@@oX@@$=-;;::::::>>$@@oX@@$=-;;::::::>>$@@ . ",
" . +@@#-;::::::>>#@@+oX+@@#-;::::::>>#@@+oX+@@#-;::::::>>#@@+ . ",
" . +@@@$-;::::>>$@@@+oX+@@@$-;::::>>$@@@+oX+@@@$-;::::>>$@@@+ . ",
" . O+@@@#$:>>>$#@@@+OoXO+@@@#$:>>>$#@@@+OoXO+@@@#$:>>>$#@@@+O . ",
" . OO++@@@@@@@@@@++OOoXOO++@@@@@@@@@@++OOoXOO++@@@@@@@@@@++OO . ",
" . oooooooooooooooooooXoooooooooooooooooooXoooooooooooooooooo . ",
" . XXXXXXXXXXXXXXXXXXXXXXXXXXXXXXXXXXXXXXXXXXXXXXXXXXXXXXXXXX . ",
" . OO++@@@@@@@@@@++OOoXOO++@@@@@@@@@@++OOoXOO++@@@@@@@@@@++OO . ",
" . O+@@@#$%%&&$#@@@+OoXO+@@@#$%%&&$#@@@+OoXO+@@@#$%%&&$#@@@+O . ",
" . +@@@$%&&&****$@@@+oX+@@@$%&&&****$@@@+oX+@@@$%&&&****$@@@+ . ",
" . +@@#&&&**=====#@@+oX+@@#&&&**=====#@@+oX+@@#&&&**=====#@@+ . ",
" . @@$&&**=====---$@@oX@@$&&**=====---$@@oX@@$&&**=====---$@@ . ",
" . @#%&**===---;;;-#@oX@#%&**===---;;;-#@oX@#%&**===---;;;-#@ . ",
" . @$&&*==---;;;;:;$@oX@$&&*==---;;;;:;$@oX@$&&*==---;;;;:;$@ . ",
" . @%&*==---;;;:::::@oX@%&*==---;;;:::::@oX@%&*==---;;;:::::@ . ",
" . @%&*==--;;::::::>@oX@%&*==--;;::::::>@oX@%&*==--;;::::::>@ . ",
" . @&*==--;;:::::::>@oX@&*==--;;:::::::>@oX@&*==--;;:::::::>@ . ",
" . @&*==-;;:::::::>>@oX@&*==-;;:::::::>>@oX@&*==-;;:::::::>>@ . ",
" . @$*==-;;:::::::>$@oX@$*==-;;:::::::>$@oX@$*==-;;:::::::>$@ . ",
" . @#*=-;;:::::::>>#@oX@#*=-;;:::::::>>#@oX@#*=-;;:::::::>>#@ . ",
" . @@$=-;;::::::>>$@@oX@@$=-;;::::::>>$@@oX@@$=-;;::::::>>$@@ . ",
" . +@@#-;::::::>>#@@+oX+@@#-;::::::>>#@@+oX+@@#-;::::::>>#@@+ . ",
" . +@@@$-;::::>>$@@@+oX+@@@$-;::::>>$@@@+oX+@@@$-;::::>>$@@@+ . ",
" . O+@@@#$:>>>$#@@@+OoXO+@@@#$:>>>$#@@@+OoXO+@@@#$:>>>$#@@@+O . ",
" . OO++@@@@@@@@@@++OOoXOO++@@@@@@@@@@++OOoXOO++@@@@@@@@@@++OO . ",
" .                                                            . ",
" .............................................................. ",
"                                                                "
};
