/* XPM */
static char *end_portal_frame_eye[] = {
/* columns rows colors chars-per-pixel */
"64 64 20 1 ",
"  c None",
". c #06170E",
"X c #001214",
"o c #00181A",
"O c #0C2B1B",
"+ c #001C20",
"@ c #002A30",
"# c #183439",
"$ c #1D3E3F",
"% c #3A593F",
"& c #224744",
"* c #264E4B",
"= c #295552",
"- c #3E6B45",
"; c #39654A",
": c #41875C",
"> c #6AA573",
", c #83BA73",
"< c #99C693",
"1 c #B4D2B4",
/* pixels */
"                XXXXXo++@@###$&**&$###@@++oXXXXX                ",
"                XXXo+++@@##&&*====*&&##@@+++oXXX                ",
"                XXo++++@@##$&&&**&&&$##@@++++oXX                ",
"                Xo+++++@@@###$&&&&$###@@@+++++oX                ",
"                Xo++++++@@@##########@@@++++++oX                ",
"                X++++++++@@@@######@@@@++++++++X                ",
"                X++++++++++@@@@##@@@@++++++++++X                ",
"                Xo+++++++++++@@@@@@+++++++++++oX                ",
"                Xo++++++++++++++++++++++++++++oX                ",
"                XXo++++++++++++++++++++++++++oXX                ",
"                XXXo++++++++++++++++++++++++oXXX                ",
"                XXXXXo++++++++++++++++++++oXXXXX                ",
"                XXXXXXXo+++++++++++++++oXXXXXXXX                ",
"                XXXXXXXXXXoooooooooooXXXXXXXXXXX                ",
"                XXXXXXXXXXXXXXXXXXXXXXXXXXXXXXXX                ",
"                XXXXXXXXXXXXXXXXXXXXXXXXXXXXXXXX                ",
"                XXXXo++++@@@########@@@++++oXXXX                ",
"                XXo+++@@@##############@@@+++oXX                ",
"                Xo++@@@######&&&&&&######@@@++oX                ",
"                X++@@######&&======&&######@@++X                ",
"                o+@@#####&&------;;%%&&#####@@+o                ",
"                ++@####&=%-:::::--;;%%%=&####@++                ",
"                +@@###&%::::::::::;%%;;:%&###@@+                ",
"                +@###&%::>:>>::>:-%%;::::%&###@+                ",
"                +@###=%:>:>>>1<::->-<>::-:=###@+                ",
"                @###&%;::>><<>:>-::><<>::-%&###@                ",
"                @###&%:::><1>%%OO%%>::<>:--&###@                ",
"                @##&%;::><1>%OOOOOO%>::>----&##@                ",
"                ###&;::>><>%OO....OO%>::;---&###                ",
"                ##&=;::><1%OO......OO%::;;--=&##                ",
"                ##&=;::><1%O........O%:-;;--=&##                ",
"                ##&=;-:>11OO........OO:;;;--=&##                ",
"                ##&=;->>11OO........OO-;;--%=&##                ",
"                ##&=-:>><1%O........O%;;;-:%=&##                ",
"                ##&=-->>><%OO......OO%-;-:-%=&##                ",
"                ###&--:>><>%OO....OO%:;--::%&###                ",
"                @##&;-::>><>%OOOOOO%:---:>:%&##@                ",
"                @###&-:>:>>><%%OO%%:--->>,%&###@                ",
"                @###&;-::>>>:>>>>----->-,,-&###@                ",
"                +@###=:-::::::>::>:--:>>,-=###@@                ",
"                +@###&--:::;;::;;:::>::,--&###@+                ",
"                +@@###&--:;:;;;;:::%>>::-&###@@+                ",
"                ++@####&=-;;;;;;;;;;%%-=&####@++                ",
"                o+@@#####&&;;;;;%%%%%&&#####@@+o                ",
"                X++@@######&&======&&######@@++X                ",
"                Xo++@@@######&&&&&&######@@@++oX                ",
"                XXo+++@@@##############@@@+++oXX                ",
"                XXXXo++++@@@########@@@++++oXXXX                ",
"                                                                ",
"                                                                ",
"                                                                ",
"                                                                ",
"                                                                ",
"                                                                ",
"                                                                ",
"                                                                ",
"                                                                ",
"                                                                ",
"                                                                ",
"                                                                ",
"                                                                ",
"                                                                ",
"                                                                ",
"                                                                "
};
