/* XPM */
static char *lime_wool[] = {
/* columns rows colors chars-per-pixel */
"64 64 62 1 ",
"  c #59A517",
". c #5AA617",
"X c #5BA717",
"o c #5CA817",
"O c #5DA817",
"+ c #5EA917",
"@ c #5EAA17",
"# c #5FAB17",
"$ c #5EA918",
"% c #5FAA18",
"& c #60AB17",
"* c #62AD17",
"= c #63AE17",
"- c #64AF17",
"; c #60AB18",
": c #61AC18",
"> c #62AC18",
", c #62AD18",
"< c #63AE18",
"1 c #64AF18",
"2 c #65AF18",
"3 c #65B017",
"4 c #66B117",
"5 c #66B217",
"6 c #68B317",
"7 c #68B417",
"8 c #6BB617",
"9 c #6CB817",
"0 c #6DB917",
"q c #6EB917",
"w c #6FBB17",
"e c #66B018",
"r c #67B118",
"t c #68B218",
"y c #69B318",
"u c #6AB418",
"i c #6BB518",
"p c #6CB618",
"a c #6DB618",
"s c #6EB718",
"d c #6EB818",
"f c #70B918",
"g c #71BA18",
"h c #70BB18",
"j c #72BB18",
"k c #71BC18",
"l c #74BC18",
"z c #74BF19",
"x c #77BF19",
"c c #75C01A",
"v c #76C01A",
"b c #76C11B",
"n c #78C019",
"m c #7AC21A",
"M c #7BC31B",
"N c #7CC31B",
"B c #78C21C",
"V c #7CC41C",
"C c #7EC51D",
"Z c #7FC61E",
"A c #80C924",
"S c #86CC26",
/* pixels */
"&=++tk,ekx;1t4++,p#epk,,wv%,a4;+%,%%6k==xx&=9i++et,edk,,kv,,77++",
"70AA1%nk1;hN;+04pwSZ,,B7e,7v ;aa79AA=+nk=>hx;&de7kSZ,$B71,0v.+9a",
"xx4aCBdpxNxxAAk0vveeBBpekvdwNChxvve0ANhaxxhxNAhakxe7Vx7ehv00nAwk",
"d6vNppdB1anN94Sv7e0CdeeB34vvf6Snd7vv7taN=9ANarSxp3wVde7B,evvapSB",
"ka1pBB%.hxe,xx=&xp1dxx&.7ve,vn=&xir9xx+.kx4=nn,;ka1pBB$X6x==nn,,",
",%cd, dp;Xtt=6et==Bae;xhe+ea,4=6;&f9&+h4++=9,eet,%bb1$xdr;691e,t",
"ZZe;pppdxA0aSSxhAN==aa99nS04SSxhANr&aa0hvAdaSSnhZZ1:psssxS04SSxh",
",eZZ$pBB&&hxvdxxe,CA+4Nv,=kv00Ax==NA=tNx+,0xxkvv,eZZ,,Cb=1kx06AN",
"xhX=x9>==9e,de%%sgO=nw===6=X6=X&nd%,v0=4=a11a4++wwO=x9>==ttX64++",
"r96fXX69=hSZewZZ*87w..401xSSfhAAtaad..=0=kSA70AA-47gXX69thSSahAA",
"xx&=Axxfnx1p07%ixx&*Nv00xxuh96&6vB%eAvvdnh=904+7nn&-Axfhxhaa96&6",
"&=9966xlr;,a..50o&su44kk;1=9XX=9%,pat6xv4>>9+.=0O=7s--lf;1,0XX=0",
"it;;NA&&axdxSSwer6&&xA&&axfxSSl;73#%VZ,%9xaxSSk,74+=NA&&9xhxSSh>",
"hhAS=6h6%9vCppBSxxASr6h9;ixxi9NSkcCSeeaa;axCaaNSxwCS=6f6&9xx99NS",
"Nx9aNhhxSv,edB7eAN6=NfhxSxtrlx6=BvdpVdwvSNtthx6eCC74NffxSxrrhxu=",
"X=x6&6NAa7xVeeBBX>x9&=NAa4xN==xNo,B9%7ZZa1xx,enN+=v7&=NAf6xN&rhA",
"==+=4k==vx%,dh%o#=%3ew3,xx&1at&Xe4++6k&&hx,,dd+++=++pd#3kn;166&+",
"axSS4#v7%%hx.+de70AZ,#vw=&hx;;h6dkSS=;x0&,kv.+0470AA,%Bd,,hn;;96",
"hneeCnkpwBhhnSndvv44ABwpxNxxAShhxv44Nvhthvh0MSxdwx44ZZhtvBxxNSxl",
"a=0v=t0veexNaeSV74vM6aaB=9Nn96SN7=kvetaNe4vNaeSN7pnNtpaV1pNNatSN",
"d1esvx;%hxt,xx,;hi1fxx&&gx8=hl>&041dvx;;hxt,nn1,xp,pBB,,hxr;xh1;",
",%Bwe;xh1;tt,t1t1;xhr&xh-&&-&>=6,%xhe,xh1;tt;11t,%cBe%kk1;=6X,1t",
"AAp,daadxC01SSxhAA=&6r9ixAsrASlgAAt,ddadnA04SSxhCZe,eppdxAh1ASxh",
",1AZetvx==hNxhxx==AA1iNNo-hxllAx==AA,tvx+=kNxdxxe,ZZe4Vn&&hxxkNN",
"k0+=xd=4=4=+66X&xf&rNg48=u6&uf&&k0+=x0=====&66&&xh+1nxt6=9=>f6>&",
"1e0d.X47ekSC6hAA>ufx&&8l=lSSflAA=60k..74=nSA69AA=ahx;;ahrhSS9xAA",
"xA1eSNv0NBadhaX6xx=6SNxwNxuhhh=hNC=tSNxxNn6hxaX7xx1tSNx0Aluflu=f",
"=ekk19nxe,pk;&ux;&9h87lx&&>9&X=h,ekhptxk==6k&;th&;0kttxx&&=9> rh",
"9=&&xN+,an0vSSx;trO*mNoo6h7hAAhode%%nN+%gxsxSSh>1t;;NNX.6h90AAxo",
"hxxA;t7eXevM90NSxxAA&-84X6hx66xAkkVC;174o-xnf9NSxhAA&=76X69v-3lA",
"An76xddkAv1ehx61AA33lsggAx==9x6-CCp1xh0kAx>rhx9=NA6rxhhhAx==7xs-",
"X&n01tNCe,dvX=nN >l88-NA6=hx==nAX%va,anCr=9x&=Nxo=x6&9NA4=kN=-NN",
"&=+&tk==hx&=77++1p,edk&=kv#,77+;%e#%eB%3xx%1ap%Xee,eaw,,kx,,77++",
"60AA4%nd1=hn%+0e7kSC=+x0,,dv.X097dCCe#Vw1,hn%.de7kSC,%Bp3%7v.%0p",
"xx=hZChaxNxxAAhdkv44Nv74kvddCC0kvvedCVdpxvkxCCkawBe7BBs,dvdwVZkk",
"04vBpeaN1aNN06Svd,kCae7v,evv0aSCdevVpedV3aCVapSB7ewVpepc3evvdpSn",
"ha1axx.Xhx1;xn,;waednv,.pxe,vve%k9edBv..kve,nn,;kdepbB%$7ve,Bv,#",
"1;h0,.kp&Xtt,e1t,%xke%xde%ep,eee,%wa#.k7%%ep,eet,%bbe%cwp%ep,e,p",
"AA=&aaahxAh0SSx9AA,%daadvS94SSxdZAe%aaawvCdaSSxhZZ1;pdpdxSdeSSxd",
"==AA%axx&&hxxhvxe,AZ+4Nv,=kvdpCNeeAC,anv+,0xxkvveeZZ$eZk==kvddMC",
"x0+=v0===tr,a4+&wdX,v93==tt+64;%Bd$,x0&==tt;a4++kwo=x9===ep.44++",
"1a7k..40rhSA60AA3epwo 391hSSa0AC,p9d..401xSA70AA=47gXX69ekSSa0AA",
"xx%=Zvx0xx6604+6BB%3Zvd9xx6h04+6cB$eAxx0nx=794+7nnO4Axhhvkpd04+7",
"&=d9pexx===6+.40X,993eww&&=9+.40%39966xx,&=0+.40+#ss>=hh%=,0+.40",
"t1;;BZ,%ixhxSSh=te%%VZ%%axhxSSh=37%%VZ=&dndxSSk,77+&nA=&axdxSSk,",
"xxCS1pap;fxN99NSvxCSe9dp;axNaaNSxwCS#pht;axNaaNSnwCS=6h6%axCpaMS",
"nN0aNhdvSxtrhx74CA7eVkwBSntthx6=BBapBdkxSntedn7eNA74NhxxSvetkkp,",
"%;v6&6NAatlN1=nNX+x9%,VZatlN1=xN%%v9,pBAaenN,enN+=v7&=xAa6vneenn",
",=+=pw,,vx%,kd+++=+&6h,=hx;,66&X33+#7k+4nv;ehh+++=+&7l&=lx&199X&",
"akSS,%kd%%kv.+046fAA4&xh1;hN+=h4dwSS4+n4+,dv.+0e70AA=&xh=&hNX;f=",
"vv=4Cxhtdvw0NSv0xx=6CNhaxNxxASxhxve4nnha0vd0NSxdxv44AnhtxNxlASxl",
"7=kvetaVeevC06Sv6txNaeaN1aNnatSN7,dBepaNe4vNaeSn76vNataN=0NN9tSx",
"04ednv#%hxe,xx1;x91axx;;hxe,kk1;d4edvv&&hxe,xx1;k91dnx;;hxr;lh=&",
",;vke%xh1%ta111t;;xht+xh1%=4+=16,%vwe%xhe;ea111t,&xh1;xh1;=6X=1i",
"AAaeddadxAdeSSxhAA=&t6ahxA04ASvhZZp,daadvA04SSxfAA=+66ahxAf=ASxh",
"==CC1tvB+,hNhxvx==AA1tNN+=hvxdNN1eZZ,avv+eknxhxx==AA1tNN&=hxllNN",
"hh+=v0=====+44++xdXevv1t3pe,pp,,bpXecpee===+64&XxfX1Nl=91ar>9u=&",
"==0h..40ekSA40AA%pwv%,9heBSSpBZC11pd..3i=xSA60AA>fhx;&901hSSuxAA",
"NN1tSNxhCvaaka+7BBepSNvhVcppkp,dBZ,7SVcwNn6kx9X6xx1tSNxhAh99h9>f",
";rhh66vveeex,%akX3pwttxx%%,p,.ekeewceeBB4=6w+&6xX&9hitvn&>>s&.=x",
"a6;;vC+%0n0xSSx+ep%%vV%Xek7wCCv%ep%,nMo%sngxSSg-ar;;nM+.8g8gAAhX",
"xhNA+474.4xNaanSvkCZ#e7e%3dB44BCBwZZ,47e.4xnssNShxAA+474.-gl66xA",
"Av6=vddkZB=ehxp,CC7eBwkkZB,,pxp,CB74vd0kAx=-gxg-AA6=n0wgCv**6x6=",
"+=n63tCCe,0x&4vC%#cp,pVZe,wVeevV.,v7,pVC-=wx&-llO=x6-sNA4=lA=uxN"
};
