/* XPM */
static char *melon_side[] = {
/* columns rows colors chars-per-pixel */
"64 64 16 1 ",
"  c #32691C",
". c #34791E",
"X c #52811C",
"o c #6F9323",
"O c #A7AC1D",
"+ c black",
"@ c black",
"# c black",
"$ c black",
"% c black",
"& c black",
"* c black",
"= c black",
"- c black",
"; c black",
": c black",
/* pixels */
"ooooooooO.......X.OooooooooO.X.....XXoOoooooooooOX.X.X.XOXoooXoo",
"ooooooXXOXX......XOoooXXooXOX.......XXOoooooooooO.X.....OoXXoXXo",
"oXooooXOoX......XXOooooXoXXO..X......XOXXooooooOo.....X.OXXoXXoo",
"oXXooooOX.XX..XXXXOoXoooXoOo.XX.....XXOoXXoooooOX...X.XXOoXXoXXo",
"XXoooooOXXXXX.XXXXOXXoXoooOXXX....X.XXOXXooooooOXX.X.X.XOoXXXXoo",
"oXXXoooOXXXXXXXXXXoOXXooooOoX....XXXXXOXoXooooOoX.X..XXoOooXXooo",
"XoXooooOXXXXXXXXXXXOoXooooOoXXX.X.XXXXOoXoooooOXXX..XXXOooXooooo",
"XXXXXooOXXXXXXXXXXXOXoooooOoXX.X.X.XXXOoooooooOXXX.X.X.Ooooooooo",
"oXoXoooOXXXXXXXXXXXOoooooooOXXX...XXXXoOooooooOXXXXX..XOoooooooo",
"ooXooooOXXXXXXXXXXXOoooooooOXXX.X..XXXoOooooooOXXXXXX.XOoooooooo",
"oooooooOXXXXXXXXXXXOoooooooOXXXXX.XXXXoOooooooOXXXXXX.XOoooooooo",
"ooooooOoXXXXXXXXXXXOoooooooOoXXXXXXXXXXOooooooOXXXXXXXXOoooooooo",
"ooooooOoXXXXXXXXXXXoOoooooooOXXXXXXXXXXoOoooooOXXXXXXXXoOooooooo",
"ooooooOXXXXXXXXXXXXoOoooooooOXXXXXXXXXXXOoooooOXXXXXXXXoOooooooo",
"oooooOoXXXXXXXXXXXXXOoooooooOoXXXXXXXXXXOoooXoOXXXXXXXXXOooooooo",
"oooooOXXXXXXXXXXXXXXoOoooooooOXXXXXXXXXXOoooXXOXXXXXX.XXoOoooooo",
"oooooOXXXXXXXXXXXXXXXOoooooooOoXXXXXXXXXoOoXoXOXXXXXXX.XoOoooooo",
"ooooOoXXXXXXXXXXXXXXXOoooooooOoXXXXXXXXXoOooXXOXXXXXXX..XOoooooo",
"ooooOoXXXXXXXXXXXXXXXoOoooooooOXXXXXXXXXXOooXOoXXXXXXXX.XoOooooo",
"ooooOXXXXXXXXXXXXXXXXXOoooooooOXXXXXXXXXXOoooOXXXXXXXX.X.XOooooo",
"oooOoXXXXXXXXXXXXXXXXXOXooooooOXXXXXXXXXXOoooOXXXXXXXXXX..Oooooo",
"oooOXXXXXXXXXXXXXXXXXXoOXoooooOoXXXXXXXXXOoooOXXXXXXXXXXX.Oooooo",
"oXoOXXXXXXXXXXXXXXXXXXXOXooooooOoXXXXXXXXOoooOXXXXXXXXXXXXOoXooo",
"XXXOXXXXXXXXXXXXXXXXXXXOoooooooOXXXXXXXXoOoooOXXXXXXXXXXXXOooXoo",
"oXXOoXXXXXXXXXXXXXXXXXoOoXoooooOXXXXXXXXoOoooOXXXXXXXXXXXXOXXXoo",
"oXoOoXXXXXXXXXXXXXXXXXoOXooooooOXXXXXXX.oOoooOXXXXXXXXXXXXOoXoXo",
"ooXoOXXXXXXXXXXXXX.XXXOoXXoooooOXXXXXX.XOooooOXXXXXXXXXXXXOooXXo",
"ooooOXXXXXXXXXXXX..XXoOoXooooooOXXXXXXXoOooooOXXXXXXXXXXXXOXXXoo",
"ooooOoXXXXXXXXXX.X..XOoXoooooooOXXXXXXXoOooooOXXXXXXXXXXXXOXXXoX",
"oooooOXXXXXXXXXXX..XoOXXoooooooOXXXXXXXoOooooO.XXXXXXXXXXXOoXoXX",
"oooooOoXXXXXXXXX..XXOoXoXoooooOoXXXXXXXOoooooO..XXXXXXXXXXOoXXXo",
"oooooOoXXXXXXX.X..XoOXooooooooOoXXXXXXXOoooooO..XXXXXXXXXXOXoXXo",
"ooooooOXXXXX.XX..oXOoXXoooooooOXXXXXXXXOoXoooO.X.XXXXXXXXXOoXoXX",
"ooooooOXXXXX... .oXOoXooooooooOXXX.X.XoOXooooOX..XXXXXXXX.OoXXXX",
"ooooooOXXXXXX..  .oOoooooooooOoXXX..XXoOXXoooOo.XXXXXXXXX.oOXoXo",
"ooooooOXXXXX..  . oOoooooooooOXXX. .XXOXXooooOo.XXXXXXXX.XoOoooo",
"ooooooOXX.X...    oOoooooooooOXXX .XXXOoXoooooO.X.XXXXXX.XXOoooo",
"ooooooOXXX. .    .oOooooooooOoXX..XXXXOXooooooOX..X.XXXXXXXOoooo",
"ooooooO.X...     .OoooooooooOXXX.XXXXXOXoXooooOoX...XXX.X.XoOooo",
"ooooooOX... .   .XOXooooooooOXXXXXXXXoOXXXooooOoXX.X.XXX..XoOooo",
"ooooooO....      .OXoXoooooOoXXX.XXXXOooXooooooOX..XXX.X.X.oOooo",
"ooooooOX.X      .oOXXXoooooOXXXX..XXXOoXoooooooO.X..XX...XXoOooo",
"ooooooO. .    . .oOXXoXooooOXXX...XXoOXXoooooooOXXX.X.X.XXXXOooo",
"ooooooO..      . oOoXXoXoooOXX...XXXoOXooooooooOo.X.. ..XXXXOooo",
"ooooooOX.      ..OooXXXXXoOoXXX.XXXXOooooooooXooO.. . .X.XXXOooo",
"ooooooO.      .XXOoXXXXXooOoX.X..X.XOooooooooXooOX.  ...X.XXOooo",
"ooooooO       .X.OoXoXXXXoO.XX....XXOoooooooooXoO. . . ..XXXOXoo",
"ooXoooO .     ...OoooXXXooO..X. ..XXOooooooooXXoOX...   .XXXOXoo",
"oooXXoO.       . OooXXXXoOoX..  .XX.OooooooXoXXoO.. .  .XXXXOXXo",
"XoooXXO.        .OXoXXXooOXXX..  ...OoooXoooXXooOX..  .XXXXoOooX",
"oXoXooO.       .XOoXXXXooOXX... .X.oOoXXoXoooXooO. . ...X.XOXoXX",
"XXoXXoOX.       .OoXXXXoXOX... .X.XoOooXXoooooXoO.    . ..XOXXoX",
"XoXXooO..       .OoXXXoooOXX.  ..XXoOoXXXoXXooooOX.    ..XoOoXXo",
"XoXooXOX.      .XOXXXXoooOX.  . ..XoOXoXoXXooXooOX.   ....oOoXXo",
"XXoXoXOX..    ..XOXXXXXooO...  ...XXOXXooXXXXoXXOoX.   . .OoXXoo",
"oXXooXOXX.     ..OXXXXXooOo.    . .XOooXXXoXXXXoXO...   .oOooXXo",
"oXXXXoOo. .   ..XOXXXXoXoOo..    .XXoOXXXoXXoXoooO. . . .oOoXXoo",
"oXXXooOoX..    .XOXXXXoooOo.     ...oOoXoooXXooooOX.   . oOXoXoX",
"XXooXooOX.    . .OXXXooooXO. .  . .XoOoXXoXXooXooOX.     OoXXoXX",
"XXXooooOX.     ..OXXXXoooXOX.     .XXOoooXXoXXoooO.     XOooXXoX",
"oXoooooOo..   .X.OXoXXXoooOoX.   . .XoOoXXXXXXXXoO. .   oOXoXXXX",
"ooXooooOoX.  ..XXOoXoXXooooOX..  ..XXXOoooXXXoXooO..  . OXXXXoXo",
"ooooooooOXX. .X.XOooooXooooOX.  . XXXXOooXXXXXoooO.   ..OoXoXXoo",
"ooooooooOXX....XXOoooXoooooOXX. .XXXXXOooooXXooooOX. .X.OooXXooo"
};
