/* XPM */
static char *oak_door_bottom[] = {
/* columns rows colors chars-per-pixel */
"64 64 256 2 ",
"   c #43341D",
".  c #513D24",
"X  c #524024",
"o  c #624C2A",
"O  c #64502C",
"+  c #685732",
"@  c #735E37",
"#  c #7A5F34",
"$  c #7D6336",
"%  c #79613E",
"&  c #7F6740",
"*  c #727782",
"=  c #816C3E",
"-  c #8F7544",
";  c #967441",
":  c #97794D",
">  c #997A44",
",  c #A47F45",
"<  c #9F854C",
"1  c #9F844D",
"2  c #9E8050",
"3  c #A88448",
"4  c #AF8849",
"5  c #AF8F55",
"6  c #AD9153",
"7  c #B18949",
"8  c #B48D4D",
"9  c #B09053",
"0  c #B8945F",
"q  c #BB965E",
"w  c #BB995B",
"e  c #B99B58",
"r  c #BA9B59",
"t  c #C49A54",
"y  c #C09D5B",
"u  c #C29D62",
"i  c #C59E65",
"p  c #CBA367",
"a  c #CAA961",
"s  c #CDA861",
"d  c #CFA869",
"f  c #D4AC6B",
"g  c #DAAE6E",
"h  c #E1B86A",
"j  c #E4B972",
"k  c #EDBF78",
"l  c #F8C97D",
"z  c #808B95",
"x  c #89959F",
"c  c black",
"v  c black",
"b  c black",
"n  c black",
"m  c black",
"M  c black",
"N  c black",
"B  c black",
"V  c black",
"C  c black",
"Z  c black",
"A  c black",
"S  c black",
"D  c black",
"F  c black",
"G  c black",
"H  c black",
"J  c black",
"K  c black",
"L  c black",
"P  c black",
"I  c black",
"U  c black",
"Y  c black",
"T  c black",
"R  c black",
"E  c black",
"W  c black",
"Q  c black",
"!  c black",
"~  c black",
"^  c black",
"/  c black",
"(  c black",
")  c black",
"_  c black",
"`  c black",
"'  c black",
"]  c black",
"[  c black",
"{  c black",
"}  c black",
"|  c black",
" . c black",
".. c black",
"X. c black",
"o. c black",
"O. c black",
"+. c black",
"@. c black",
"#. c black",
"$. c black",
"%. c black",
"&. c black",
"*. c black",
"=. c black",
"-. c black",
";. c black",
":. c black",
">. c black",
",. c black",
"<. c black",
"1. c black",
"2. c black",
"3. c black",
"4. c black",
"5. c black",
"6. c black",
"7. c black",
"8. c black",
"9. c black",
"0. c black",
"q. c black",
"w. c black",
"e. c black",
"r. c black",
"t. c black",
"y. c black",
"u. c black",
"i. c black",
"p. c black",
"a. c black",
"s. c black",
"d. c black",
"f. c black",
"g. c black",
"h. c black",
"j. c black",
"k. c black",
"l. c black",
"z. c black",
"x. c black",
"c. c black",
"v. c black",
"b. c black",
"n. c black",
"m. c black",
"M. c black",
"N. c black",
"B. c black",
"V. c black",
"C. c black",
"Z. c black",
"A. c black",
"S. c black",
"D. c black",
"F. c black",
"G. c black",
"H. c black",
"J. c black",
"K. c black",
"L. c black",
"P. c black",
"I. c black",
"U. c black",
"Y. c black",
"T. c black",
"R. c black",
"E. c black",
"W. c black",
"Q. c black",
"!. c black",
"~. c black",
"^. c black",
"/. c black",
"(. c black",
"). c black",
"_. c black",
"`. c black",
"'. c black",
"]. c black",
"[. c black",
"{. c black",
"}. c black",
"|. c black",
" X c black",
".X c black",
"XX c black",
"oX c black",
"OX c black",
"+X c black",
"@X c black",
"#X c black",
"$X c black",
"%X c black",
"&X c black",
"*X c black",
"=X c black",
"-X c black",
";X c black",
":X c black",
">X c black",
",X c black",
"<X c black",
"1X c black",
"2X c black",
"3X c black",
"4X c black",
"5X c black",
"6X c black",
"7X c black",
"8X c black",
"9X c black",
"0X c black",
"qX c black",
"wX c black",
"eX c black",
"rX c black",
"tX c black",
"yX c black",
"uX c black",
"iX c black",
"pX c black",
"aX c black",
"sX c black",
"dX c black",
"fX c black",
"gX c black",
"hX c black",
"jX c black",
"kX c black",
"lX c black",
"zX c black",
"xX c black",
"cX c black",
"vX c black",
"bX c black",
"nX c black",
"mX c black",
"MX c black",
"NX c black",
"BX c black",
"VX c black",
"CX c black",
"ZX c black",
"AX c black",
"SX c black",
"DX c black",
"FX c black",
"GX c black",
"HX c black",
"JX c black",
"KX c black",
"LX c black",
"PX c black",
"IX c black",
"UX c black",
/* pixels */
"* z u u u 0 u u 5 5 5 & u u u u 0 0 0 5 5 1 1 2 2 2 : : j u u 5 5 u u & 2 u 0 u 0 0 u u 0 . . . . & . : j 0 9 u u u u u u 1 1 # ",
"* z 0 u 0 u u 0 0 5 0 % 2 u : 0 0 0 : 0 0 : : : : @ - - s 5 0 0 u u 0 % : 5 - 5 : : 0 0 0 . . . & % . - s 9 u u u u 0 0 u 0 5 # ",
"i 5 5 0 0 0 0 5 5 0 5 % % - % : - : % - - - @ - % % @ : g 0 0 0 0 5 5 % : : % : % % - 5 : + . . . . % : g 9 9 u 0 0 0 0 0 0 5 + ",
"i 0 5 5 5 5 0 0 0 5 0 % @ @ @ @ : % @ @ + + + + + % % @ a 1 5 5 0 0 0 @ % % @ @ @ @ % : % : @ + @ % : % g 1 0 0 0 5 5 0 5 1 5 + ",
"e 0 1 0 5 5 5 0 1 5 1 - a a t a g s r r r s s s s s s s h p 1 q 9 q - = h h h h s s r r g g g s s s r r a q q q 9 9 6 6 6 6 6 o ",
"e 0 0 0 0 5 5 0 5 5 1 1 1 > ; > 1 1 0 0 1 1 1 5 0 0 0 5 1 1 1 1 0 0 0 5 1 1 1 1 1 1 1 5 5 5 5 5 0 0 0 5 5 1 1 0 0 0 5 5 5 5 1 o ",
"g 5 5 5 1 0 0 5 5 5 5 5 5 5 > 1 5 5 0 0 0 1 1 1 1 1 0 0 5 5 1 5 1 1 1 1 1 1 0 0 0 5 5 1 1 1 1 1 0 0 0 0 5 5 5 5 5 5 5 1 1 1 ; o ",
"e 5 1 1 0 5 5 1 1 1 0 0 0 0 5 5 0 0 0 0 1 1 5 5 5 5 0 0 0 5 5 5 5 5 1 1 0 0 5 5 5 5 1 1 0 0 0 0 0 5 5 5 5 5 0 0 1 1 1 1 1 1 1 o ",
"e 0 0 1 1 1 1 1 0 0 0 1 1 0 0 0 0 1 1 1 5 5 0 0 0 0 0 5 5 5 1 5 1 5 5 1 1 1 1 1 5 5 5 5 1 1 1 0 0 0 0 1 > 1 1 1 1 1 5 5 1 5 5 o ",
"e 0 0 0 0 1 0 0 0 0 0 0 0 0 1 1 1 0 0 1 1 1 1 1 1 0 0 0 5 5 5 0 0 0 1 5 5 5 5 1 1 1 0 0 0 0 0 0 1 1 1 > ; > 1 5 5 0 0 0 5 1 1 + ",
"s 0 0 5 5 0 0 1 1 0 0 0 0 0 5 5 5 0 5 5 5 0 5 5 0 0 0 5 1 1 0 0 5 5 5 5 5 1 1 5 5 5 5 0 0 0 5 5 5 5 5 1 > 5 5 1 1 1 5 5 5 0 1 o ",
"e 5 0 0 5 5 5 0 0 0 0 1 5 0 0 0 5 5 0 0 0 0 0 1 1 1 5 5 0 0 0 0 1 1 1 5 5 0 0 0 1 1 0 0 5 5 5 5 5 0 1 1 1 1 5 5 0 5 5 5 0 1 ; o ",
"i 5 5 5 5 1 1 1 0 1 0 0 u u 1 u 5 5 5 0 5 5 5 5 1 5 1 1 1 1 0 0 0 0 0 1 1 0 1 0 0 1 0 0 0 1 1 5 1 1 5 0 0 1 1 1 5 5 1 5 5 0 ;   ",
"i 1 5 5 0 0 5 0 5 u u 1 u 1 1 1 0 0 5 5 1 1 5 5 u u 0 0 0 u 0 0 0 0 0 u 0 u 0 0 0 0 u u 5 5 u 5 5 1 0 1 u u 0 0 u 0 5 5 u 0 1 o ",
"i 0 0 5 5 5 5 0 0 0 0 u u u 0 0 0 0 0 0 5 0 0 0 5 5 5 5 5 5 0 0 u u 0 0 0 5 5 5 0 5 5 5 5 5 5 0 u 0 0 5 5 0 u u 5 5 5 0 5 0 5 . ",
"i 0 0 0 0 u u u 0 u u . . . . . . % % @ @ @ . . . . . . 5 q 0 0 0 0 5 . % % % % % % @ @ % + + + + @ % % q q p 0 5 p q q q p y . ",
"i 0 5 5 5 5 u u u 0 0 . y y y y p p y y 6 6 6 6 6 p p y a 1 5 5 0 0 0 @ p p y y y y p p p p y 6 y p p p k 1 0 0 0 5 5 0 5 1 5 = ",
"i 0 0 u u 0 5 5 u 5 5 . 6 6 3 6 p y 6 1 6 y y y 5 y 5 5 h 0 0 0 5 0 5 + y y y 5 y 5 1 6 p p 0 5 y y 1 1 a 0 0 0 5 5 1 1 1 1 1 # ",
"i u u u 0 0 0 0 5 5 1 . 6 3 , > 6 1 0 0 1 6 6 5 0 0 0 - a 1 1 5 0 0 0 @ 6 6 6 1 1 1 1 5 y 5 5 5 0 0 0 5 h 1 1 0 0 0 5 5 5 5 1 o ",
"i u 5 5 1 0 0 5 5 5 5 . y y 3 1 5 5 0 0 0 1 6 1 1 1 0 : h 5 1 > 1 1 1 + 6 6 0 0 0 5 5 1 1 1 1 1 0 0 0 : h 5 5 5 5 5 5 1 1 1 5 o ",
"i 5 1 1 0 5 5 1 1 1 0 . p p 5 5 0 0 0 0 1 1 5 5 5 5 : : g 5 > ; > 5 1 + p 0 5 5 5 5 1 1 0 0 : 0 0 5 - - s 5 0 0 1 1 1 1 1 1 1 o ",
"w 0 0 1 1 1 1 1 0 0 0 . 6 0 0 0 0 1 1 1 5 5 0 0 : 0 : - s 5 1 > 1 5 5 + 6 1 1 1 5 5 5 5 1 1 = : 0 : : = 8 1 1 1 1 1 5 5 1 5 5 o ",
"w 0 0 0 0 1 0 0 0 0 0 . 0 0 1 1 1 0 0 1 1 1 1 1 = : : : s 5 5 5 5 0 1 @ 5 5 5 1 1 1 0 0 0 : : : = = = $ 7 > 1 5 5 0 0 0 5 1 1 + ",
"g 0 0 5 5 0 0 1 1 1 0 . 0 0 5 5 5 0 5 5 5 : 5 - : : % - r 1 0 5 5 5 5 @ 5 1 1 5 5 5 5 0 0 : % - - - - = 8 5 5 1 1 1 0 5 5 0 1 o ",
"g 0 0 0 5 5 5 0 0 0 1 . - 0 : 0 5 5 0 0 0 : : = = = @ @ g 5 5 0 0 0 1 @ - 0 0 0 1 1 0 : 5 - @ @ - - + = r 1 5 5 0 5 5 0 0 1 1 o ",
"g 0 5 5 5 1 1 1 1 1 1 . = = = - 5 5 - 0 - + = = + = + + r 5 5 5 0 1 0 + = 1 = 1 1 = 1 = = + + + + - @ @ r 1 0 5 5 0 1 1 1 0 1   ",
"e 0 0 5 5 0 0 1 0 0 5 . @ = + - - - % : % % - @ @ + + @ s 5 1 6 5 5 5 @ @ = @ = = + = @ % % @ + + - @ @ s 5 5 5 0 0 5 5 0 0 0 + ",
"e 5 5 0 5 5 5 0 0 5 0 % % @ @ @ % % % @ @ @ + + @ @ @ % g 0 1 1 1 5 5 @ @ @ @ @ : % @ + @ @ @ % % % @ + g 0 1 u u 5 5 1 0 5 5 @ ",
"e 9 9 9 0 1 1 1 1 9 9 = a a a h s s r r r r r r r s s s h 6 1 6 < 9 - = a a h h s r r r r s s s r r r r a 6 u u 0 0 5 5 9 < < + ",
"g u u 1 1 1 9 u u u 1 9 9 0 1 u 1 u u u 0 9 9 9 0 0 0 0 0 9 9 9 1 1 1 9 9 u u 5 5 u 5 5 5 0 6 6 0 6 6 6 u u < 0 0 1 1 0 5 u u o ",
"g 9 u u 9 9 u u u u u u u 9 9 9 u u 0 0 9 9 9 9 9 9 9 u 9 0 9 u 0 1 1 1 1 9 u u u 0 5 5 u 0 u u 6 6 0 0 0 0 u u 0 0 0 0 u u 5 . ",
"e 5 5 5 0 9 0 0 9 9 9 9 u u u 5 5 5 9 9 0 0 0 5 5 0 0 0 0 0 0 9 9 9 9 0 0 5 5 0 0 u u u 0 5 5 5 0 0 5 0 0 0 5 5 5 5 0 0 0 0 5 . ",
"g 0 0 0 5 5 5 5 0 0 5 5 5 5 5 0 9 9 9 5 5 5 5 1 1 1 1 5 5 1 1 1 5 9 0 5 5 0 0 0 0 0 0 5 5 0 0 0 5 5 0 0 5 5 0 0 0 0 5 1 5 0 1 # ",
"e 0 1 1 1 5 0 0 1 1 1 0 0 0 5 5 5 5 0 0 0 0 1 1 1 0 0 1 1 1 1 0 0 5 1 1 5 5 5 0 5 5 5 0 0 1 1 0 1 > 5 5 5 5 5 0 5 5 0 0 0 0 1 # ",
"e 5 5 5 5 5 1 1 1 5 5 5 1 5 5 5 1 1 1 5 5 5 5 0 1 1 5 5 0 0 1 1 5 0 5 0 1 1 5 5 1 1 1 1 5 5 5 5 > > ; 5 1 1 0 5 5 5 5 1 1 1 5 + ",
"s 0 5 5 0 0 5 5 5 5 1 1 1 1 > 1 5 5 5 1 1 1 0 5 5 5 5 5 5 0 0 0 0 0 0 5 5 5 5 5 0 5 5 1 1 1 1 5 1 ; 1 1 1 1 1 1 5 5 1 1 5 5 5 + ",
"i 0 5 5 1 1 1 5 0 0 0 0 5 > ; > 1 1 5 5 5 5 5 1 1 0 0 5 5 5 0 5 5 1 1 0 0 5 1 1 1 1 1 1 1 5 5 5 5 5 5 5 1 1 1 5 5 1 5 5 1 1 5 o ",
"i 1 0 0 5 5 1 1 1 1 1 5 5 1 > 1 5 5 5 1 1 1 1 1 5 5 1 > 1 5 1 1 1 1 5 5 1 5 5 5 5 5 5 5 5 5 5 5 0 1 1 1 1 0 5 0 0 5 5 0 0 0 1 o ",
"d 5 1 1 1 1 1 5 5 5 5 0 0 0 5 5 1 1 5 5 5 5 1 1 1 1 > > ; 5 5 5 5 5 5 0 5 5 5 1 1 5 0 1 1 1 1 1 1 1 0 5 1 1 0 p 5 5 5 5 5 0 ; o ",
"w u 5 1 u 1 y y y 0 y @ @ % % @ % @ @ @ % % @ @ + @ @ o + 6 p p q < y % + + . . . . . . . . . . . . . . % q p p y p y p 5 y < o ",
"w 5 5 u u 0 0 0 1 5 5 . y y p p y 6 6 6 p p y 5 y y y y h 5 5 1 1 1 1 @ p y y 6 6 6 6 y y y y 6 6 6 6 p h 5 5 p p y 5 0 y y 5 + ",
"i 5 5 0 y 5 0 1 5 1 5 . p p y y 5 p p 5 5 u 5 5 0 0 0 0 h 5 1 1 5 1 0 . y y y p p p y y 5 y y 5 p 0 0 5 a 5 0 y 0 0 1 1 1 5 1 o ",
"x z 0 1 1 0 1 1 5 5 5 . 6 p p 0 0 0 5 5 u u 0 0 1 1 1 1 a 0 1 0 5 5 1 . p f f f y y y 5 5 6 6 y 6 0 0 5 h y 5 0 1 1 5 5 y y 1 X ",
"* z 5 0 u 5 5 5 u u u . p p u u 0 0 5 p p u u u u 2 u u l u u 5 5 5 0 . f f f u f u u u 0 0 u u 0 0 u u l u 0 0 0 u y y y u u & ",
"* z 0 0 0 0 0 0 u u 0 . p 0 0 0 0 0 0 p p 0 0 0 : : u u l 0 0 0 0 5 5 . p p 0 0 u u 0 0 0 0 0 0 0 0 0 0 g 0 0 0 0 0 u u u 0 0 % ",
"* z 0 1 0 0 1 1 1 1 1 . y 5 0 0 0 1 5 0 0 0 5 = : : 0 = a 1 0 0 1 0 0 . p 0 1 1 1 1 1 5 5 5 0 : 0 1 5 : g 0 5 1 0 u u 1 1 1 0 % ",
"e 0 5 5 1 1 1 5 5 0 5 . 5 5 0 1 1 1 1 5 5 = 1 - = = = : h 5 0 1 1 0 5 . 1 1 1 5 5 0 5 > 5 5 0 = 1 = 1 - s 1 1 5 1 1 1 0 5 5 0 . ",
"s 1 1 1 1 5 5 5 1 1 > . $ 5 1 = 5 5 0 0 1 - 1 = : : : : r 1 1 5 5 1 1 . 1 5 5 5 1 1 > ; $ 5 = = 5 - 0 : r 5 1 1 0 u u 0 1 1 1 . ",
"s 5 5 5 0 0 0 0 0 1 1 . = 5 - - 1 : 0 5 5 - : : @ - = = s 5 1 5 5 5 5 . 0 : 0 0 0 = 1 > = - - @ = : : - s 5 0 0 5 u 1 1 5 5 1 - ",
"g 5 5 0 1 1 1 5 1 1 5 . - 5 : % : : 1 = = - - % % : @ - g 0 5 5 0 5 5 . = + = 5 = = 5 - - - : % % : = + r 5 5 0 0 0 5 5 u 0 5 - ",
"s 1 1 0 0 0 5 1 1 1 1 . @ - + + = + : : - + - O @ + + : g 0 0 1 5 1 1 . % % - = + = = + - - + + + = % % s 1 5 > 5 u 1 u u u 0 + ",
"e 5 0 1 1 1 0 0 5 1 5 . % % % % @ + = @ @ + O o O + % % s 5 5 0 1 5 0 . + + : % @ - @ @ : % % % @ + + @ s 1 - u u 1 u 0 5 5 5 % ",
"s 5 5 5 5 1 1 5 1 5 5 % s r r s s g g g g s r 5 r g g g k p < < y p q : k k k k g g g g s r r s s g g g k 9 < u < u p p q q < + ",
"g 0 5 5 1 1 1 1 1 - 5 1 5 5 5 1 5 5 1 1 1 1 1 5 5 5 1 1 1 5 5 1 0 0 5 5 5 5 1 1 1 1 5 1 5 5 5 1 5 5 1 1 1 1 1 5 5 5 - 1 1 5 5 + ",
"e 0 1 1 5 1 5 - 5 - - 1 1 1 0 0 5 5 5 5 5 5 1 1 1 - 5 5 1 1 1 5 1 0 1 1 5 5 5 5 5 1 1 1 1 1 0 0 5 5 5 5 1 5 1 1 1 ; - - 1 1 1 @ ",
"4 1 5 5 5 5 5 1 1 1 1 1 5 5 5 1 1 1 1 1 1 1 5 5 - - - 1 5 5 5 5 - 1 5 5 5 0 5 1 1 1 1 1 5 5 5 1 1 1 1 1 1 1 5 5 > ; - 1 - 5 @ @ ",
"i 1 1 1 5 5 5 5 5 5 5 5 1 5 1 1 5 5 5 5 5 5 1 1 5 5 5 1 1 1 1 1 = 1 1 1 0 0 0 1 1 1 1 0 1 1 1 1 5 1 1 5 5 1 1 1 1 > 1 1 = = + + ",
"i 1 u u u 2 5 5 u 2 2 u u u u 5 5 5 0 0 u u u u u u 0 0 u u u 2 2 2 u 2 u u 0 0 1 1 u u 0 0 u 5 5 u u 0 5 5 5 5 2 u u 2 2 2 + o ",
"i 0 0 0 : 2 2 : : : : : u u 5 5 0 0 0 0 0 0 0 0 0 5 5 5 - - : : 2 2 : : 0 - 5 5 0 0 0 0 0 5 : 0 u 0 0 5 - 0 u u & : : : & : @ o ",
"i - 5 : : : : - - : % : 0 - 0 0 5 : 0 5 5 5 5 5 0 0 5 : : : : : % - - : 0 : : 0 0 0 5 - 0 1 = 1 1 - 0 : : : 0 2 % % : : % : @ + ",
"- % - - - - % : : % % : - - - 5 : % - - 1 1 = 1 1 0 : - + = - @ % % : - : : @ - 5 5 : % : : @ = 5 : % : % = : : % @ - % @ = @ + ",
". % % : % % @ @ - @ @ @ = + $ = % @ + = = - @ - - - @ @ @ % % % @ % @ = - @ @ - - - + + % % % @ - @ + + + : : % @ @ + + + + + o ",
". % % % % % % % @ @ + + + O o O + + % % + + + @ % % % @ + + + @ % % % @ + + + + + + + @ @ @ @ @ % % % @ @ + + % % % @ @ @ @ + . ",
". . . . . . . . . . . . . . . . . . . . . . . . . . . . . . . . . . . . . . . . . . . . . . . . . . . . . . . . . . . . . . . . "
};
