/* XPM */
static char *oxeye_daisy[] = {
/* columns rows colors chars-per-pixel */
"64 64 11 1 ",
"  c None",
". c #177C04",
"X c #529A2E",
"o c #55AB2D",
"O c #F19D25",
"+ c #F5BA27",
"@ c #FED639",
"# c #FFEC4F",
"$ c #9BBDBD",
"% c #D6E8E8",
"& c gray97",
/* pixels */
"                                                                ",
"                                                                ",
"                                                                ",
"                                                                ",
"                                                                ",
"                                                                ",
"                                                                ",
"                                                                ",
"                            %&&&%%                              ",
"                          %%&%&&&&%%                            ",
"                         %&%%&&&&&&%%                           ",
"                        %&&%&&&&&&%&&%                          ",
"                      %%&%&&&&&&&&&&&&$                         ",
"                    %%%&%&&&&&%&&&&&&%%                         ",
"                   %&%&%%&&&&%&%%&&&&&%$                        ",
"                  %&&&&&%%&%%%%%&&&&&&&%                        ",
"                 %&&&&&&&&%%+@@+%%&&&&%%$                       ",
"                 &%&&%&&&%+@@@+@@+%&&%%&%$                      ",
"                %&&&%&&&%+@#@#@@#@+%&&&&&%$                     ",
"                &&%%&&&%%+@@###@@#+%%&&&&%%                     ",
"                &&&%&%&%+@@#@#@@#@@+%&%&&&%                     ",
"                %&&&&&%%@@#@#@@@@@++%%&&&&%$                    ",
"                %&&&&%&%@@@@@#@+@+++%&&&%&&%                    ",
"                $%&&&&%%+@+@#@@@+@+O%&&&&&%$                    ",
"                 %%&&&&&%+@@@@+@++O%%&&&%&%$                    ",
"                 $%&%&&%&++@@+@++OO%&&&%%%%$                    ",
"                  $%&&&%%%+++@++OO%%&&&&%%$                     ",
"                   $%%&&%&&%+OOO%%&&&&%%&%$                     ",
"                    %&&&&&%&&%%%&&&&&&&%%$                      ",
"                    $%&&&&&%%&&&&&&%&%%%$                       ",
"                     %%&%&&&%%&&&%%$%%$$                        ",
"                     $$%&&&%&&&%&&%%$$                          ",
"                      $%&&&&&%&&%&%$                            ",
"                       $%%&&&&%$%%$                             ",
"                        $%%%&%$$$$                              ",
"                          $%%$$$                                ",
"                             o.                                 ",
"                             ..  X                              ",
"                             X. .                               ",
"                             oX..                               ",
"                             o..                                ",
"                             X.                                 ",
"                             Xo                                 ",
"                             o.                                 ",
"                     X       o.                                 ",
"                      .XX    XX                                 ",
"                       .XXX  X.                                 ",
"                        .oX. .X                                 ",
"                         XoX..o                                 ",
"                         .Xo.XX                                 ",
"                          .XoXo       X                         ",
"                          ..Xoo     .X                          ",
"                           .XoX. .X.X                           ",
"                            .ooX.X..                            ",
"                             XXoooX                             ",
"                             .oXoX.                             ",
"                             .oXX.                              ",
"                             oX...                              ",
"                             ooX.                               ",
"                             Xo.                                ",
"                             oX                                 ",
"                             X.                                 ",
"                             X.                                 ",
"                             ..                                 "
};
