/* XPM */
static char *purple_concrete[] = {
/* columns rows colors chars-per-pixel */
"64 64 7 1 ",
"  c #66219F",
". c #67219F",
"X c #6721A0",
"o c #6921A1",
"O c #6A21A1",
"+ c #6921A2",
"@ c #6A22A2",
/* pixels */
"oooo.o.o   ..o.oooX ooXoo  o.ooooooooo o o.oooooooooo o..o.o ..o",
"oooooo.oooo.o. o X oooooX ooooooooooooXoo o. oXooooX oo o  o.o..",
"XXooo o o.oo.oo.Xo o XXXooo@oo. oo oooXoXooooXXoXXXoo..o. ooo...",
"o oo.o oo  o..ooooooooXo@oooo@.o@oo XXoo oo.ooXoooXX.ooooo.o .oo",
"oXXooXX ooooo oXo.o o ooooX@oX ..  XoXXoo ooooooooXXXXo.o oXoo o",
"oXoXXoXooo XoooXo oo o.oo oooo Xo oXXooXo. oX oooooX o.o oo  oo.",
"oooooXoX o ooXXo ooo oooXXoXoXoX .XooXXo.o o  XoXooooo ..oXo ooo",
"oooXXoXo ooX oXooo .o.oooXoooXoX.ooXoXoX  oo. oooooX o o oXXXXo ",
"oo oo.o.o...oooo oo.o.o.o.o.ooo ooooooooooooX ooo.oo...o.oooo oo",
"oXoo.o o oo  ooooo.o.o.o.ooo  Xo.o o.oo ..ooXooooo ..o. oo ooooX",
"ooooo.oo.o.oXoooooo o.o oo.o..o  oooo.o.o. ooXoXooooooo oo oXoXo",
"oXo oooooooooXo oooo.oooo  o.o ooooo....oo.o@oXXooo.ooo o o oooo",
"ooXo oooooo. o.o oo o   o o o.ooooooooooo.X@o@oXoo oo oooo.oo oo",
"XooXoo o .ooo o.oooooooooooo ooooo o oo..oo X@ o oo o  o..o.Xoo ",
"oooXo..oo.o.oo oo o oooo.oo.o XooXooo.ooo ooXoooX ooooo.oo o o.o",
"XXoo oo oo.o. o  oo o.ooo.ooXoX o Xooooo.oooooooXooooo.o.oo o...",
"oo .oo oo o.o. ooo oXoXoo.oooooooX o.oo X ooooo.ooooooo oo.oo.o ",
"oXo ooo.o. oooo.o oooooXooo. oo XXooo. ooooo  oo oXoo  oo o..oo.",
"Xoooooo  ooXoo o  o.XoXo oooo.oooXo o.o.XXooo ooooXooooo.ooo.o.o",
"oo oooooo oo.oo.ooooXoo oo...ooooXo.ooo.oX.o.oooooo .o  o..ooo.o",
"oooooooXXoXo oXXXoooXoXoo.o o.o o o.oooooooo.oo  oooo oo ooo o .",
"ooXoo ooooooo oooXooooo .ooo.o.   o.o oooXoooo o o o.oooo o..ooo",
"ooooooooo@oo oo Xoo oo ...o.o  oooooooooooo .o.  oooo.o ooooo ..",
" oXoXXXoooooooooXXoo .o. oo. ooo..o o.oo oooooooo. o.ooo o.o.ooo",
"oooooooo oo oooooXoXo oXoo oo   .oo.ooooo.ooooo.... o o .o.oooo ",
"oo X.oo.oooo.. .XXXoooXX oooo.oo.o o...  oooooo o..oooooo. oo oo",
"o. o.o.o oo o oo XoXoo o...oo o.oo .o@@@oo o o o.o .o oooo  oo.o",
"oo. ..o.oo o o  oXXoooo . o.o.. o  o o.ooooo .o.o.  oooooooo..o ",
"oooo  ooooo ooo   oooooo.oooo .oooo.o o@o.o.o. oooo  oo.ooooo.oo",
"o oo o.ooXooo. ooooooo oo.ooXo.ooooo.o oooo.  o ...  o oX ooooo ",
"..o.o.oo ooooooo oooXoXXoo.oooo o ooo o ooo o o o ..o oXXo oooo ",
"...o.oooooooo.ooooooXXXoo.oooo o.oo.oo ooooo o o.o.o oXoXooooo o",
"o oo oo ooo XoXooooXoooXoo.ooo.oo.oo..o oo.o.oo o o.XXX oo.ooooo",
" oX o ooooo XoXXXXooXXooo.ooooo oo oo..o oooo. o oooXoXoo ooooo ",
"oXooXoooo. oo XoXoXooooXo.o.ooooo.o.oXo  oo . o o .o Xoooo ooooo",
"Xoo o o ooo ooooXoooXoXoooooo. o o o  oo o ooo.oXoooooXX oo oooo",
"oo oooooo ooooo XooXoXXXooXoo.oo  oooo oooo o  ooXooXoooXXoX ooo",
"oXoo.ooooo. o  ooo oXoXoo oX.oo Xo o ooooo oooooX@ooooooXXoooXoo",
"o XXoooooooooooooooooXoXoXXoo.o oXo.o o .o o..oooooXoooooooXoooo",
"XoXooo .ooo..o.o oXXooXoXooX.o oXo o.o ooooooo.oXXXoooXoooooXoXo",
"ooo o.o.oo o.o.ooooo ooooooo.o.oo o..o.o.oooo.oo.oooooo.oX.o.ooo",
"  .o.oo.ooo ooo.ooooo oo.o oooo. o.oo.o.o.o..oo.o.o.o.oo oo.oo.o",
"o.o o .ooooXooooo .. o   o o.o.o.oooo .o.oo.o.o..o.o.oo.oo.oo.oo",
"  .o o oXooo oooooo.o ooo ooo.o.oo.o.o..ooooo..oo.o.o...  o..o.o",
"ooo ooooo oo oooo.oo o.oXoXXXXXo.ooo.oo.ooooo.o..o o .o.o..ooo.o",
" oo   ooooXXoo.ooo..o.ooooXXoooX.oo.o..oo.oo.@@ooo. o o . ooooo.",
"o  o oooooooooooo o..o .XXXXXoXoo ooo .oooooo.@oo o. o..ooo.o. .",
" oooo oooo  oooo oo.o..ooXoXoXoXoooo.oo..o.oooo.oo..oooo.o.o.o..",
"oXo o o.oooo.ooo.oooooooooXoXoooo  o o oXoo@@o@o.o . o o ..o.o.o",
" Xoooooooooooo.o.ooo ooX oXoooXX oooo.oooXXX@Xo@o ooo o.o.o.o. o",
" ooooooooo .o.o..o oooooXooooXooo  o ..oXoXoXXoX o ooo.o..ooo .o",
"oooo.oooo .o.o.oo.oo oooooooXoXXo  oo.oooX@XoooXXo ooooooo . o.o",
"Xooo.ooooo.ooo oo.oooXooXoooXoXo oo o o oXooooo o o.o.o o. ooooo",
"Xo.oo..oooooo o..oooX o XooXooooooo...ooXooXoooooX o.o.o.oo.oo o",
"oXo .o.o.oo.o..oo.o oXoooXooooXoooooo.oo ooXooo Xo oo.o oo.o ooX",
"oo oo.ooo.o.o o..o.o o oXooXXXoXoooo.o   XXXooooooo  o oo o.o oX",
"oo ooo.o. .oo.oo.o  o o  oooo.o. oooXoXo ooo.oo .oo oo o.oXooXXo",
".ooo..o..oo  oo.oooo.o oXo ooo oooooooXoooo oo.oo.oo ooooooXXoXX",
"oo oo..ooo.oo o.ooo.oooooX.o  oo oooooooooooo o.o  oo ooooooooXX",
".ooo.oo.o.o. .oo.o..o. oXo ooooooooooo o.o ooo.o oooooooooo   oX",
"o.o. o o.ooo.  ooo oXoXXoXoXoo.oooo. ..o.ooo o oo.o..o.oo oooo.o",
".oo.ooo o.o.oo. . ..XXooXooo.oooooooo ..oooooXoo.o.oooo.Xooo ooo",
"o ooo  o@.@o. o  oXXoXoXoX@o@oo.o.oo.oo.oo.o o oo o.o.oooooooo.o",
" o o oo.o@.o.o.o o oXXXoXooX@ooo.o.o..o.o.o oooooo.o o o ooo.ooo"
};
