/* XPM */
static char *red_mushroom[] = {
/* columns rows colors chars-per-pixel */
"64 64 13 1 ",
"  c None",
". c #A9121A",
"X c #E21212",
"o c #C41D26",
"O c #FE2A2A",
"+ c #A9A065",
"@ c #CFC47F",
"# c #8CA1A3",
"$ c #96ADAF",
"% c #D6D0AC",
"& c #93C1C4",
"* c #9ACCD0",
"= c #EDE8CA",
/* pixels */
"                                                                ",
"                                                                ",
"                                                                ",
"                                                                ",
"                                                                ",
"                                                                ",
"                                                                ",
"                                                                ",
"                                                                ",
"                                                                ",
"                                                                ",
"                                                                ",
"                                                                ",
"                                                                ",
"                                                                ",
"                                                                ",
"                                                                ",
"                                                                ",
"                                                                ",
"                                                                ",
"                                                                ",
"                                                                ",
"                                                                ",
"                                                                ",
"                                                                ",
"                                                                ",
"                                                                ",
"                                                                ",
"                                                                ",
"                                                                ",
"                                                                ",
"                                                                ",
"                            XXXXXXXX                            ",
"                          XXOOOOOXXXXX                          ",
"                        XXOOOOOOOOOXXXXX                        ",
"                      XXOO*&OOOOOOOOXXXXXX                      ",
"                    XXOOOO&*OOOOOOOOOXXXXXXX                    ",
"                  XXXOOOOOOOOOOOOOOOOXXXXXXXXX                  ",
"                 XXXOOOOOOOOOOOOOOOOOOXXXXXXXoX                 ",
"                .XXXOOOOOOOOOOOOOOOOOOXXXXXXXXo.                ",
"                .XXXOOOOOOOOOOOOOOOOOOXXXXXXXXX.                ",
"                .XXXOOOOOOOOOOOOOOOOOOXXXXXXXXo.                ",
"                .oX$#OOOOOOOOOOOOOOOOXXXXXXXXXo.                ",
"                .oX#$OOOOOOOOOOOOOOXXXXXX$#XXXo.                ",
"                 .XoXXOOOOOOOOOOXXXXXXXXX#$XXo.                 ",
"                 .oXoXXXOOOOOXXoXXXXXXXXXXoXoo.                 ",
"                  .oooXoXXXXoooXooXoXXXXXoooo.                  ",
"                   .oooooo.o...oo...oooooooo.                   ",
"                             @@++@@                             ",
"                            @@++++@@                            ",
"                           @++%%%%++@                           ",
"                          @@+ =%%% +@@                          ",
"                          @+  ==%%  +@                          ",
"                          @   %=%%   @                          ",
"                              %%%%                              ",
"                              %=%=                              ",
"                              =%=%                              ",
"                              ===%                              ",
"                              ===%                              ",
"                              ===%                              ",
"                              ==%%                              ",
"                              =%=%                              ",
"                              ==%%                              ",
"                              ==%%                              "
};
