/* XPM */
static char *scaffolding_top[] = {
/* columns rows colors chars-per-pixel */
"64 64 13 1 ",
"  c None",
". c #684526",
"X c #7B5735",
"o c #8C6847",
"O c #AB7341",
"+ c #A2894A",
"@ c #AF825B",
"# c #C18958",
"$ c #CBAC5A",
"% c #D3BB50",
"& c #E6C775",
"* c #EDD58C",
"= c #F3DA90",
/* pixels */
"&=&=&=&=&%%$%X$X%X$X$X$X&X$X$X$X&X$X%X$X&X$X$X$X%X$%$%&*&=&=&=&=",
"=&=&=&=&%+%$%X$X%X$X$X$X&X$X$X$X&X$X%X$X&X$X$X$X%X$%$%+%=&=&=&=&",
"&=&=&=&=%$%$%O$X+X$O$X$X$X$X+X$O$X$X$X$X+X$X$X$O$X$%$%$%&=&=&=&=",
"=&=&=&=&%$%$%O$O+O$O$X$o$X$X+O$O$X$X$O$X+O$X$O$O$O$%$%$%=&=&=&=&",
"&=&=&=&=%$%$%O$O+O$O$o$o+X$o$O$O$O$o$O$o+O$O+o$o$O$%$%$%&=&=&=&=",
"=&=&=&=&%$%$%o$O+O$O$O$O+o$o$O$O$O$o$O$o+O$O+o$o$o$%$%$%=&=&=&=&",
"&=&=&=&=%$%$%o$O$O$o$O$O+o$o$O$o$o$O$O$o$o$o$o$o$o$%$%$%&=&=&=&=",
"=&=&=&=&%$%$%o$O$o$o$O$O+o$o$O$o$o$O$O$o$o$o$O$o$o$%$%$%=&=&=&=&",
"*%%%%%%%.XoXoXoXoXoXoXoXoXoXoXoXoXoXoXoXoXoXoXoXoXoXoXo.%%%%%%%&",
"%+$$$$$$XO#O#O#O#O#O#O#O#O#O#O#O#O#O#O#O#O#O#O#O#O#O#O#o$$$$$$+&",
"%%%%%%%%o# # # # # # # # # # # # # # # # # # # # # # # X%%%%%%%%",
"$$$$$$$$XO#O#O#O#O#O#O#O#O#O#O#O#O#O#O#O#O#O#O#O#O#O#O#o$$$$$$$$",
"%%%%%%%%o# # @ # @ # @ # # # @ # # # @ # # # @ # @ # @ X%%%%%%%%",
"XXOOOoooXO#O@O#O@O#O@O#O#O#O@O#O#O#O@O#O#O#O@O#O@O#O@O#o$$$$$$$$",
"$$$$$$$$o# # # @ # # # # # @ # # # # # @ # # # # # @ # XoooOOXXX",
"XXXOOOOOXO#O#O@O#O#O#O#O#O@O#O#O#O#O#O@O#O#O#O#O#O@O#O#o$$$$$$%%",
"%%++++$$o# # # # @ # # # @ # @ # @ # # # # # # # @ # # XooooOOXX",
"XXXOOOOoXO#O#O#O@O#O#O#O@O#O@O#O@O#O#O#O#O#O#O#O@O#O#O#o$$$$$$$$",
"$$$$$$$$o# @ # # # @ # # # # # # # # # # # # # # # @ # XOoooOXXX",
"XXOOOOooXO@O#O#O#O@O#O#O#O#O#O#O#O#O#O#O#O#O#O#O#O@O#O#o$$++$$$$",
"$$$$$$$$o# # # # # # # # @ # @ # # # # # @ # @ # # # @ XooOOXXXX",
"XXXXoOOOXO#O#O#O#O#O#O#O@O#O@O#O#O#O#O#O@O#O@O#O#O#O@O#o$$$$$$$$",
"$$$$$$$$o# # # # # # # # # # # @ # # # @ # # # @ # # # XooOOOXXX",
"XXXooOOOXO#O#O#O#O#O#O#O#O#O#O@O#O#O#O@O#O#O#O@O#O#O#O#o$$++++&&",
"&&$$++++o# # # # # # # # # # # # # # # # # # # # # # # XooooXXXX",
"XXXXXoooXO#O#O#O#O#O#O#O#O#O#O#O#O#O#O#O#O#O#O#O#O#O#O#o$$$$$$$$",
"$$$$$$$$o# @ # @ # # # # # @ # @ # # # @ # # # @ # # # XOOOOOXXX",
"XXXXooooXO@O#O@O#O#O#O#O#O@O#O@O#O#O#O@O#O#O#O@O#O#O#O#o$$$$$$%%",
"$$++$$$$o# # # # # # @ # @ # # # # # # # # # @ # # # @ XOOooXXXX",
"XXXOOOOOXO#O#O#O#O#O@O#O@O#O#O#O#O#O#O#O#O#O@O#O#O#O@O#o$$$$$$$$",
"$$$$$$$$o# # # # # @ # # # # # # # # # # # # # # # @ # XooOOXXXX",
"XXOOOOooXO#O#O#O#O@O#O#O#O#O#O#O#O#O#O#O#O#O#O#O#O@O#O#o$$$$$$&&",
"&&$$$$$$o# # # # # # # # @ # @ # # # # # @ # # # # # # XooOOOOXX",
"XXXXOOooXO#O#O#O#O#O#O#O@O#O@O#O#O#O#O#O@O#O#O#O#O#O#O#o$$$$$$$$",
"$$$$$$$$o# # # # # @ # # # # # # # # # # # # # # # # # XOOOOOXXX",
"XXXXooOOXO#O#O#O#O@O#O#O#O#O#O#O#O#O#O#O#O#O#O#O#O#O#O#o$$$$++$$",
"%%$$$$$$o# # # # # # # # # # @ # @ # @ # # # @ # # # # XooooXXXX",
"XXXOOOOOXO#O#O#O#O#O#O#O#O#O@O#O@O#O@O#O#O#O@O#O#O#O#O#o$$$$$$$$",
"$$$$$$$$o# @ # @ # # # @ # # # # # @ # # # @ # # # @ # XoooXXXXX",
"XXXXooooXO@O#O@O#O#O#O@O#O#O#O#O#O@O#O#O#O@O#O#O#O@O#O#o++++$$&&",
"&&++++$$o# # # # @ # # # # # @ # # # # # @ # # # # # # XOOOooXXX",
"XXXOOOooXO#O#O#O@O#O#O#O#O#O@O#O#O#O#O#O@O#O#O#O#O#O#O#o$$$$$$$$",
"$$$$$$$$o# # # # # @ # @ # # # @ # @ # # # # # @ # # # XOOOoXXXX",
"XXXXOOooXO#O#O#O#O@O#O@O#O#O#O@O#O@O#O#O#O#O#O@O#O#O#O#o$$$$$$$$",
"$$$$++$$o# # @ # # # # # # # @ # @ # # # # # @ # @ # @ XooOOOOXX",
"XXXOoooOXO#O@O#O#O#O#O#O#O#O@O#O@O#O#O#O#O#O@O#O@O#O@O#o$$$$$$$$",
"$$$$$$$$o# # # # # @ # # # # # # # @ # # # @ # # # # # XoOOOOXXX",
"XXOOooooXO#O#O#O#O@O#O#O#O#O#O#O#O@O#O#O#O@O#O#O#O#O#O#o$$++++%%",
"%%$$$$$$o# # # # @ # @ # @ # # # # # @ # @ # # # @ # # XOOOOOXXX",
"XXXOOoooXO#O#O#O@O#O@O#O@O#O#O#O#O#O@O#O@O#O#O#O@O#O#O#o$$$$$$$$",
"$$$$$$$$o# @ # @ # # # # # # # # # # # # # # # # # # # XoooOOOXX",
"%%%%%%%%XO@O#O@O#O#O#O#O#O#O#O#O#O#O#O#O#O#O#O#O#O#O#O#o%%%%%%%%",
"$$$$$$$$o# # @ # # # @ # # # # # # # @ # @ # @ # # # # X$$$$$$$$",
"%%%%%%%%XO#O@O#O#O#O@O#O#O#O#O#O#O#O@O#O@O#O@O#O#O#O#O#o%%%%%%%%",
"&+$$$$$$o# # # # # # # # # # # # # # # # # # # # # # # X$$$$$$+%",
"*%%%%%%%.oXoXoXoXoXoXoXoXoXoXoXoXoXoXoXoXoXoXoXoXoXoXoX.%%%%%%%&",
"&=&=&=&=%$%$%$o$o$O$o$o$o$O$O$o$o$O$o$o+O$O$o$o$O$o%$%$%&=&=&=&=",
"=&=&=&=&%$%$%$o$o$o$o$o$o$O$O$o$o$O$o$o+O$O$o$O$O$o%$%$%=&=&=&=&",
"&=&=&=&=%$%$%$o$o$o+O$O+o$O$o$O$O$O$o$o+O$O$O$O+O$o%$%$%&=&=&=&=",
"=&=&=&=&%$%$%$O$o$o+O$O+o$O$o$O$O$O$o$X+o$o$O$O+O$O%$%$%=&=&=&=&",
"&=&=&=&=%$%$%$O$O$O$X$O+X$O$X$X$O$O+X$X$o$X$O$O+O$O%$%$%&=&=&=&=",
"=&=&=&=&%$%$%$X$O$X$X$X+X$X$X$X$O$X+X$X$X$X$O$X+X$O%$%$%=&=&=&=&",
"&=&=&=&=%+%$%$X%X$X$X$X&X$X%X$X&X$X$X$X&X$X$X$X%X$X%$%+%&=&=&=&=",
"=&=&=&=&*&%$%$X%X$X$X$X&X$X%X$X&X$X$X$X&X$X$X$X%X$X%$%%&=&=&=&=&"
};
