/* XPM */
static char *warped_roots_pot[] = {
/* columns rows colors chars-per-pixel */
"64 64 5 1 ",
"  c None",
". c #16615B",
"X c #167E86",
"o c #119B85",
"O c #14B485",
/* pixels */
"                                                                ",
"                                                                ",
"                                                                ",
"                                                                ",
"                                                                ",
"                                ooo                             ",
"                              ooOoOoo                           ",
"                             ooOoOOOOo                          ",
"                             oOOOOOOOOo                         ",
"                            oOOOOOOOOOX       ooo               ",
"                            oOOOOOOOOOX     ooOoOoo             ",
"                            XoOOOOOOOX     ooOoOOOoo            ",
"                             XOoOOOoX     ooOOOOOOOOo           ",
"                              ..ooo.X     oOOOOOOOOoX           ",
"                               X.o.X      oOOOOOOOooX           ",
"             ooo                 X         .OOOOo.oX            ",
"            oooOooo       O      o          ..o..oX             ",
"           oOoOOOOoo      OO     Xo          X..XX              ",
"          oOoOOOOOOOo    oO       X           OX                ",
"          oOOOOOOOOOX     Oo     oXo           OX               ",
"          oOOOOOOOOX      oO    oOX            oX               ",
"          oOOOOOOOoX       O     OO             oO              ",
"           oOOOOOoX    o  XO     XO              O              ",
"           .oOOOo.X    oXoXo     Xo              oX             ",
"            ..o..o      oXX     Xo              ooX             ",
"             ..ooX       X      O               OXX             ",
"               oX       oXo    oOo            O XO              ",
"                o      oX      XO           O XXO               ",
"                XO     oX     oOo        o  XXo                 ",
"                .       .    oo         oo XXo                  ",
"               O.       .o   Xo          XXO  O                 ",
"                o      Xo    X           oX                     ",
"                Xo  o  Xo  oXXo           o                     ",
"               XXXoo  oOo   XOo         X o                     ",
"                 X ..o.O    OX           .X                     ",
"                    ..O    oX            o.                     ",
"                     oX     o            o                      ",
"                     O      oX           o                      ",
"                    oO       Xo         .XX                     ",
"                    oo       oX o       o.                      ",
"                   oXO        Xo        X.                      ",
"                   oO         Xo        .                       ",
"                   oO         oX       X.                       ",
"                    O          o       X                        ",
"                   oX         oo      X.                        ",
"                    .o         oX      .                        ",
"                    Xo          X     X.                        ",
"                    X           o     Oo                        ",
"                    oX          o     O                         ",
"                    oX           o   Xo                         ",
"                    oX          oo   O                          ",
"                     Xo          o  oo                          ",
"                      o          .o O                           ",
"                      o           o O                           ",
"                      Xo          .oO                           ",
"                      .X           .X                           ",
"                     XX.X         X.                            ",
"                     Xo..       X X     X                       ",
"                      X.        oX.Xo  oX                       ",
"                     X..       oX.X.XooX.o                      ",
"                     X.XX   XXo..X  ..X.X                       ",
"                    X.X     oX. X    ...o                       ",
"                    X.     o..X      X ..o                      ",
"                    .     ..XX          X.X                     "
};
