/* XPM */
static char *white_concrete[] = {
/* columns rows colors chars-per-pixel */
"64 64 5 1 ",
"  c #D0D6D7",
". c #D1D6D7",
"X c #D1D7D7",
"o c #D1D6D8",
"O c #D1D7D8",
/* pixels */
"OXXO            XXX   ..oXXO..oo..XXXXXO..  ..XXXXXX. .        O",
"XXOOO   XO     O..XO  .o..OOo.ooX.XXXOXX  . ..X.OXXX .          ",
"  XXX   XXX  OO .o.  .X.OOOOoo  .XXXo XO    ....  XX .Xo X O    ",
"OXXX    O  O  OOooo .o  OO Ooo  OXXXX  oXo  oo..OX   XOoo. O  O ",
"O XXO    O O  oXo.. ..oo  .ooX  XX..XXX oXoooOOXXO    X XXo  O  ",
"O X     OO XO O o XX...o  ooOX   X..XX       XOO Oo   .o o.  O  ",
"XXOXOX   o o X O  XX...o..o.XXO   ..o X       XOoooX  X      .  ",
"OOO OO OXo   o     XXXo.. o.OXX   .   X       o O oX o       ...",
"oooo....X    oo. o X   ...o. oXX .o.XO  O OO  OoXOXo  XX o.o..o.",
"o o ....   X o..ooXX    ..oo  XX.oXX      OO OO oXX..  ..o. .oXX",
"o.X XXoo   . X.oO O  . XXX .X .. OXO   XO   XXXXooo.ooo..     Xo",
"o.XXXOoooXo  XXXO     o.oX    ..O OO   XOX oooXXOXo..o. XX   OOX",
".......oXo..     oX OXXXX     .oOOoooooo  ooooXXOX  oX o.o  o O ",
".o..  .oX.o     XoOOXXOOOOo  ..oXO.oX.XX  o.ooXXXO      X.  X   ",
"OXo.X     . .o .  O O .X..o      X oOXOO  ...oXX   o XXXo       ",
"XXOo.o      X     O   ooo..o   X    XOOX  .oooOX OX o  ..o      ",
"XO  O      .   o.X   .....oXOX oX.o     ..o   o oO    ..o. oX . ",
"XX  O       oo  . XX.o..oo..XO   . Oo   X.oX  X XO.o    X. X  ..",
"X oOoo    OX.OX ...X..X .oo X o . O X X X o.  O   .X  o   oo  .o",
"XOXO o   XX..X   o....o     X XOo  Xo oX      O oOO       X  OX.",
"ooXOoo..X  o . .... XX     X    oXOXOOXOoo.o.o.XX O o O   OX X  ",
"oXXO .o.XXo.. .....oX      o    ..O OXOOo.oo..XX  XX  OOo O. ooo",
" oOOXX.oXOoo.o..o.  .           OO OOOOOOXo.       X  O ooo.  XX",
"  XOXXXXXooo.oo ..OX.     O    O  O XXOOXOOOO O   .o   O. ..  OO",
"o O o.o..XX OO o.XO .....XXOXXX  Oo.X ooXXXOOOX     o XX...oX...",
"oO.  o..XO      XX Ooo..XOOXOXO  O    XXXoXOOOo     o OoOX..X ..",
"OX..X ..  oX      O oo    XXOXo.     OOOooXX O       Xo.X  .o ..",
"Oo.....  X        oo.oo.    XXX.       Oo oo        OX. X  o....",
"XXoX   oo   O X   ooooo   o.....o      oO  .OX  ..      o. o.XXX",
"XX    XXOX  O XO Oo o   o o.....oooO  XoOOo. .o   .     X.  oo  ",
"X O   oXX OO  oX  OoXXX .X oo...o.OOO X OOO O           X  OOXo.",
"X     ooO OO  ooOOO XXX oX.ooo....     OO O            X oXOOo..",
"...o  XXooo  O XOXXX oo o.  oX  ..ooX    O                XOOOX ",
"X...X OOo.o. O o XOo.X. o..Oo.o o.  X  OXoOO       o O     oOO  ",
"XX  X OO...     XO..oo  o.oXXXO OXX             oooo  OXo  oOO  ",
" X    X oo. .  O  o...  ..  O  OXXXX        O   ..o  O XXO  OOXo",
"O    O  o..X  oXOO  ... Xoo    X      . oXO   ....OOXXooXXOX ooo",
"   o Ooo.oXX     O  ..XOXX    o.   .  ...oX oXX .oXOOOXOXXOX  .o",
"  X OOOXXOOX  OO O oo. Xooo .   ...   ..  Xo .oo..oXOOOOOOOXoooo",
"     OXXOOOXXXXO   X o o. o .. .    ....OOXo X O..XXOOXOOOo....o",
" o      oo....XX  XXX  oXO      . ... . .o.o  o   Xooo. XX   ooo",
" X   .. o...OoXX..OXX  X   OOO .  .   . . XX XX . O X.o  X    Xo",
"        ooo.OXOOo..X     O      ..oo      O ... ..  XX        OO",
"     . ...ooXOOOooXX   X   O    .o..    OOOOo . ..           XXX",
"OXOX  ooO O X  oO O    OX    X  .Xoo  X  OOOO  X ..X   XO  X o  ",
" OOX  .o    O  oOO    O .o   o  XO  o. o  OO Oo oo X  o.   oooX ",
"O XX..ooOOOOOOoo  oX     .  X  XO oO.X  OOOOO OOO   X    O    XX",
"  XXo.o.OOXXXXo     O    . Xo   X XOXX     OOOO O   o    O      ",
"    ..o..ooo o o   oXOXOO   ..oXX..o  X   OOOOOO       .     . o",
"  O  o.oOo Oo  o OooXOo   .o.oXX ..    o   XOOOOO o  X         .",
"  O ooOOXXX  XXXX .oXOO .ooo..o       XXX XX  O  O   o O .X    o",
"OO O  OOXXXX XXXXXX. O O.o.o...       o.OXXXOO     o OO  o   oo ",
" OoX   OOO O      o..   .oOXXO   XOX   .  o OOOX   .X       ooo.",
"       OOO        oo  . ..OXo OOooO   o X o OXOOO  o      O o.XX",
"  X    O  O             .XOXoXX Xo        XXOOo  O            XX",
"ooX   oX                XXXX X  XoooXo     XXoo  O              ",
"ooXX.o    .X X OXXX     ..      XO   oXXXXOOXO    O O...   ooX  ",
" oXo..    o  o  ooO       . o  XXOOXooXOXOOXOO     XXoo.ooO XO  ",
"oo...X   .....O o.  O oO..  X OO OOOooX XOooXXXXX XXXX.ooXO O   ",
"XX        ..X.    .   X ..Xo OOOOOOX.  O....XXXX  OXOOoo XOX    ",
"X        X. X    oX   O ....OXXOo.o...XX..oo              OO o o",
"XXX      ..XX            .ooXOOOXo.o..XXoooo        Xo   OOO  . ",
"   X    oXo.          OXX.o.oXoXXX o    oo             OOO OOO.o",
"         O .          XXXoo.oooXXX       X.  oO O         OOXXOX"
};
