/* XPM */
static char *cake_inner[] = {
/* columns rows colors chars-per-pixel */
"16 16 9 1 ",
"  c None",
". c #671700",
"X c #742000",
"o c #7A2200",
"O c #812600",
"+ c #97491A",
"@ c gray76",
"# c #DFDFDF",
"$ c #EAE9EB",
/* pixels */
"                ",
"                ",
"                ",
"                ",
"                ",
"                ",
"                ",
"                ",
" @#####o..####@ ",
" +o$oooooooooo+ ",
" +oOOooOooOOOo+ ",
" +....OoOO....+ ",
" +oooX.....Xoo+ ",
" +oOOooOOooOOo+ ",
" +OOOOOXOOOOXO+ ",
" +............+ "
};
