/* XPM */
static char *chain_command_block_side[] = {
/* columns rows colors chars-per-pixel */
"16 64 43 1 ",
"  c #22322B",
". c #263930",
"X c #32463E",
"o c #4E6C32",
"O c #334D42",
"+ c #3E5249",
"@ c #46554E",
"# c #4E7363",
"$ c #822523",
"% c #A42E2B",
"& c #A22E2C",
"* c #CD3A36",
"= c #9B6C32",
"- c #864341",
"; c #A84B49",
": c #A85451",
"> c #C85452",
", c #F3605C",
"< c #CE7A77",
"1 c #62873E",
"2 c #749258",
"3 c #5C8A76",
"4 c #C2873E",
"5 c #88AD64",
"6 c #E8AD64",
"7 c #777480",
"8 c #649781",
"9 c #699E87",
"0 c #6FA88F",
"q c #74A28E",
"w c #76B297",
"e c #918F99",
"r c #8CAA9D",
"t c #9F9DA7",
"y c #86B7A2",
"u c #90BCA9",
"i c #A8A5AF",
"p c #B3B0B9",
"a c #A1C3B4",
"s c #C5C2CD",
"d c #CDCAD5",
"f c #D2CFDA",
"g c #D5D2DD",
/* pixels */
"www3#ywwwww3#yww",
"ww3#a#0www3#a#0w",
"w3#aaa#0O3#aaa#0",
"3#aaaaa d aaaaa#",
"#aaaaa@fps@aaaau",
"y#aaa@gppps@aau#",
"ww#a@gpp>ppt@u#y",
"www fpppppppe yw",
"www.dp4p-p,p7Xww",
"ww3 dppppppp7 0w",
"w3#@sp>p-p1p7@#0",
"3#a@sppppppp7@a#",
"#aa@site77777@au",
"y#ar@@+ X @@@ru#",
"w0#aau#q98#aau#y",
"ww0#u#ywww0#u#yw",
"www3#ywwwww3#yww",
"ww3#a#0www3#a#0w",
"w3#aaa#0O3#aaa#0",
"3#aaaaa d aaaaa#",
"#aaaaa@fps@aaaau",
"y#aaa@gppps@aau#",
"ww#a@gpp&ppt@u#y",
"www fpppppppe yw",
"www.dp4p-p*p7Xww",
"ww3 dppppppp7 0w",
"w3#@sp$p<p5p7@#0",
"3#a@sppppppp7@a#",
"#aa@site77777@au",
"y#ar@@+ X @@@ru#",
"w0#aau#q98#aau#y",
"ww0#u#ywww0#u#yw",
"www3#ywwwww3#yww",
"ww3#a#0www3#a#0w",
"w3#aaa#0O3#aaa#0",
"3#aaaaa d aaaaa#",
"#aaaaa@fps@aaaau",
"y#aaa@gppps@aau#",
"ww#a@gpp;ppt@u#y",
"www fpppppppe yw",
"www.dp=p<p,p7Xww",
"ww3 dppppppp7 0w",
"w3#@sp&p:pop7@#0",
"3#a@sppppppp7@a#",
"#aa@site77777@au",
"y#ar@@+ X @@@ru#",
"w0#aau#q98#aau#y",
"ww0#u#ywww0#u#yw",
"www3#ywwwww3#yww",
"ww3#a#0www3#a#0w",
"w3#aaa#0O3#aaa#0",
"3#aaaaa d aaaaa#",
"#aaaaa@fps@aaaau",
"y#aaa@gppps@aau#",
"ww#a@gpp$ppt@u#y",
"www fpppppppe yw",
"www.dp6p:p%p7Xww",
"ww3 dppppppp7 0w",
"w3#@sp&p<p2p7@#0",
"3#a@sppppppp7@a#",
"#aa@site77777@au",
"y#ar@@+ X @@@ru#",
"w0#aau#q98#aau#y",
"ww0#u#ywww0#u#yw"
};
