/* XPM */
static char *clay[] = {
/* columns rows colors chars-per-pixel */
"16 16 42 1 ",
"  c #828893",
". c #888F9A",
"X c #8D939E",
"o c #9197A2",
"O c #9297A7",
"+ c #9298A3",
"@ c #9298A4",
"# c #949AA5",
"$ c #969DA7",
"% c #979BAB",
"& c #979DA8",
"* c #999FAA",
"= c #9AA0AB",
"- c #9BA2AC",
"; c #9DA3AD",
": c #9EA4AF",
"> c #9CA0B1",
", c #9EA2B2",
"< c #9FA5B0",
"1 c #A0A7B2",
"2 c #A0A4B5",
"3 c #A2A6B6",
"4 c #A3A7B7",
"5 c #A2A8B3",
"6 c #A3AAB5",
"7 c #A4AAB5",
"8 c #A5ACB7",
"9 c #A4A7B8",
"0 c #A5A9B9",
"q c #A7ABBB",
"w c #A8ACBB",
"e c #A8AEBA",
"r c #A9ADBD",
"t c #AEB4BF",
"y c #ACB0C1",
"u c #ADB1C1",
"i c #AFB6C1",
"p c #AFB5C6",
"a c #AFB7C8",
"s c #AFB8C8",
"d c #AFB9CE",
"f c #AFB9D6",
/* pixels */
" 11:;<-<6<;;--&<",
"1:30O---@3d<-<;6",
"3wu;;;<<5630&*-u",
"*;;1=5-*-;<6<<;O",
"6;0;00000--0<@5*",
"*1*f-8<3;r<@*-<@",
"o3%<@6;-;;0p<3<<",
"1;9<<-7u3*;<<0=0",
"13093-03ra$<:,-<",
"@X9<<33;<<<7<3&0",
"13.9&0;:rt6;<-;<",
"*96%<;1;6:-i---o",
"r<-w3*6O&<;-34*;",
"p0=X---r3y436;4>",
"6::=4-<6X<o;4%-3",
"*6:+s<&q<r--<<;&"
};
