/* XPM */
static char *cocoa_stage_1[] = {
/* columns rows colors chars-per-pixel */
"16 16 69 1 ",
"  c None",
". c #4C3412",
"X c #513A13",
"o c #543618",
"O c #543818",
"+ c #553919",
"@ c #58391A",
"# c #583A1C",
"$ c #5F3D21",
"% c #4F411C",
"& c #584514",
"* c #574019",
"= c #50411D",
"- c #5F491B",
"; c #60481E",
": c #624B1E",
"> c #624C1E",
", c #69561B",
"< c #6A571C",
"1 c #604C20",
"2 c #644A24",
"3 c #6C4E24",
"4 c #675121",
"5 c #6C5720",
"6 c #6C5426",
"7 c #675428",
"8 c #69572A",
"9 c #6B582A",
"0 c #715B25",
"q c #775F2B",
"w c #795E2F",
"e c #785E30",
"r c #7B6031",
"t c #806C33",
"y c #8E763E",
"u c #957539",
"i c #987738",
"p c #9A7638",
"a c #9A7B3E",
"s c #A67F3C",
"d c #8B7443",
"f c #957841",
"g c #9C7D40",
"h c #977F4B",
"j c #A17F43",
"k c #94803D",
"l c #C2913C",
"z c #C3933F",
"x c #96804A",
"c c #A68648",
"v c #B18A45",
"b c #B88D42",
"n c #B98E43",
"m c #B89E47",
"M c #BC934C",
"N c #BA9652",
"B c #B6965E",
"V c #C39545",
"C c #C69B48",
"Z c #CC9E4E",
"A c #C49D5A",
"S c #CDA051",
"D c #CDA053",
"F c #CDA455",
"G c #CAA058",
"H c #CAA25C",
"J c #C1A76F",
"K c #D5AB61",
"L c #D3B175",
/* pixels */
"o,iiwO        k8",
",ugCz,       mt=",
"eaFNj<      mt7 ",
",zvvzw      97% ",
"2szlpw   o<r0$$ ",
",,3*3o   <SHfn- ",
"         >ALxS& ",
"         :KJhZX ",
"         4GByV- ",
"         5Mdcn. ",
"         @q16O# ",
"                ",
"                ",
"                ",
"                ",
"                "
};
