/* XPM */
static char *cocoa_stage_2[] = {
/* columns rows colors chars-per-pixel */
"16 16 117 2 ",
"   c None",
".  c #351F0E",
"X  c #450C07",
"o  c #470D07",
"O  c #451007",
"+  c #4E1408",
"@  c #4C1D08",
"#  c #531009",
"$  c #511609",
"%  c #531709",
"&  c #591509",
"*  c #511A09",
"=  c #531A09",
"-  c #551909",
";  c #5C1F0A",
":  c #631D0B",
">  c #422911",
",  c #553916",
"<  c #67210B",
"1  c #67270B",
"2  c #65290B",
"3  c #672B0B",
"4  c #652F0B",
"5  c #672E0B",
"6  c #692A0B",
"7  c #6E2C0C",
"8  c #65330B",
"9  c #67320B",
"0  c #65370B",
"q  c #67360B",
"w  c #653A0B",
"e  c #6E3A0C",
"r  c #70340C",
"t  c #703B0C",
"y  c #76390C",
"u  c #763E0C",
"i  c #7F3D0D",
"p  c #7F3E0F",
"a  c #5E4319",
"s  c #7F410F",
"d  c #604419",
"f  c #7E4110",
"g  c #7E4212",
"h  c #7D4513",
"j  c #7E4512",
"k  c #794813",
"l  c #86330E",
"z  c #82340E",
"x  c #89310F",
"c  c #823A0E",
"v  c #823C0E",
"b  c #804210",
"n  c #804312",
"m  c #814413",
"M  c #964F16",
"N  c #9A4C12",
"B  c #975317",
"V  c #96571A",
"C  c #9B581D",
"Z  c #9D5A1F",
"A  c #B94F15",
"S  c #B84F16",
"D  c #A05218",
"F  c #B75819",
"G  c #B35C1D",
"H  c #B8591A",
"J  c #9E5E20",
"K  c #926E2D",
"L  c #9A742F",
"P  c #9A762F",
"I  c #A56023",
"U  c #A76123",
"Y  c #AB6527",
"T  c #AF6727",
"R  c #AE682A",
"E  c #AF692B",
"W  c #B56A27",
"Q  c #B56C25",
"!  c #B86B26",
"~  c #B16C29",
"^  c #B9702F",
"/  c #B46E30",
"(  c #BA7532",
")  c #B97335",
"_  c #BD7937",
"`  c #BB7639",
"'  c #CB681F",
"]  c #C26D22",
"[  c #CA6D22",
"{  c #C96E25",
"}  c #C77627",
"|  c #CB7027",
" . c #CB7529",
".. c #CA752A",
"X. c #CC762A",
"o. c #CA792A",
"O. c #CC7C2E",
"+. c #C17531",
"@. c #C27836",
"#. c #C27B36",
"$. c #CB7D31",
"%. c #CC7E32",
"&. c #CB7F35",
"*. c #CF843B",
"=. c #CF883B",
"-. c #CE893E",
";. c #CF8741",
":. c #D38F47",
">. c #D4924C",
",. c #CB8D51",
"<. c #CB8E53",
"1. c #CD9055",
"2. c #D49D68",
"3. c #DCA060",
"4. c #DDA263",
"5. c #DEA466",
"6. c #E2B17C",
/* pixels */
"- 5 p g c 6 %               K d ",
"5 B ! O...N 3             L , > ",
"n %.` ,.~ X.v           L , >   ",
"m ;.2.6.<.&.n           a > .   ",
"s $.) ,./ W w # < 2 8 q p z :   ",
"v M Q $.o.V 8 < A u +.k t F x   ",
"= 5 w h g c % % { ~ 4._ J G 2   ",
"              ; ..) 5.>.Y [ =   ",
"              y } ~ 2.:.U | 5   ",
"              s } T =.*.D ' @   ",
"              v ] I -.^ Z H O   ",
"              7 G h @.#.u A o   ",
"              & l r D e 5 + X   ",
"                                ",
"                                ",
"                                "
};
