/* XPM */
static char *double_plant_rose_bottom[] = {
/* columns rows colors chars-per-pixel */
"16 16 52 1 ",
"  c None",
". c #033700",
"X c #033900",
"o c #033A00",
"O c #053B00",
"+ c #043C00",
"@ c #043E00",
"# c #202600",
"$ c #212700",
"% c #313600",
"& c #313700",
"* c #373D00",
"= c #383E00",
"- c #064700",
"; c #074B00",
": c #064F00",
"> c #065100",
", c #075300",
"< c #045700",
"1 c #075600",
"2 c #0A5500",
"3 c #055D00",
"4 c #055E00",
"5 c #0D5C00",
"6 c #3E4400",
"7 c #086800",
"8 c #096B00",
"9 c #096C00",
"0 c #106300",
"q c #0C7200",
"w c #0F7900",
"e c #0F7A00",
"r c #127200",
"t c #137700",
"y c #107A00",
"u c #157900",
"i c #127F00",
"p c #910205",
"a c #BA050B",
"s c #D10609",
"d c #F7070F",
"f c #F74540",
"g c #138000",
"h c #148200",
"j c #148400",
"k c #168700",
"l c #1F8A00",
"z c #218B00",
"x c #248F00",
"c c #249000",
"v c #2A9600",
"b c #309C00",
/* pixels */
"  pp0  c+2&+ r  ",
"   k6 +q62++k0  ",
"   b +z;+y0fsds ",
"  k0+b&+++bdsss ",
"6k+k+k+O+2vpspp ",
" k+62+x9.8e6kp  ",
" fd02+2saas2kdd ",
"sssp+2sdspp2dsss",
" fss+2dappkhpsp ",
" dsp2+spph&+kpp ",
"  ph&+=e51+260r ",
"    2+2u,$2++0  ",
"   *2+2t1+2oi06 ",
"     l&8+1+&e   ",
"     e+<$;,7-   ",
"      e4o4o+    "
};
