/* XPM */
static char *flower_dandelion[] = {
/* columns rows colors chars-per-pixel */
"16 16 7 1 ",
"  c None",
". c #106300",
"X c #168700",
"o c #8E9300",
"O c #B6BC01",
"+ c #CCD302",
"@ c #F1F902",
/* pixels */
"                ",
"                ",
"                ",
"                ",
"                ",
"                ",
"                ",
"                ",
"     +@ @O@     ",
"      ++@o      ",
"     @@Ooo+     ",
"       XX       ",
"       X.X.     ",
"     .XX..      ",
"      .X.       ",
"       X.       "
};
