/* XPM */
static char *glass_cyan[] = {
/* columns rows colors chars-per-pixel */
"16 16 2 1 ",
"  c None",
". c #4C7F99",
/* pixels */
"................",
".         .    .",
".        .     .",
".    .  .    . .",
".   .  .    .  .",
".  .       .   .",
". .            .",
".    .         .",
".   .      .   .",
".  .          ..",
".        .   . .",
".       .   .  .",
".      .   .   .",
".     .   .    .",
".    .         .",
"................"
};
