/* XPM */
static char *grass_side_overlay[] = {
/* columns rows colors chars-per-pixel */
"16 16 34 1 ",
"  c None",
". c gray44",
"X c #777777",
"o c gray50",
"O c #808080",
"+ c #818181",
"@ c gray51",
"# c #848484",
"$ c #868686",
"% c gray53",
"& c #888888",
"* c #898989",
"= c gray54",
"- c #8B8B8B",
"; c gray55",
": c #8D8D8D",
"> c gray56",
", c #909090",
"< c gray57",
"1 c #939393",
"2 c gray58",
"3 c #959595",
"4 c gray59",
"5 c #979797",
"6 c gray60",
"7 c gray62",
"8 c #9F9F9F",
"9 c #A0A0A0",
"0 c gray64",
"q c gray65",
"w c gray66",
"e c #A9A9A9",
"r c gray68",
"t c #B2B2B2",
/* pixels */
"222%%:O:72=%=O.:",
"2:026 =OOee,O:==",
"0 t%= , 27er Xo ",
"    ,   o :     ",
"                ",
"                ",
"                ",
"                ",
"                ",
"                ",
"                ",
"                ",
"                ",
"                ",
"                ",
"                "
};
