/* XPM */
static char *ice[] = {
/* columns rows colors chars-per-pixel */
"16 16 3 1 ",
"  c #77A9FF",
". c #8EBFFF",
"X c white",
/* pixels */
"                ",
"       .        ",
"   X  .         ",
"  X           . ",
" X       X   .  ",
"        X   .   ",
"       .        ",
"  .   .         ",
" .              ",
"        X       ",
"       X     X  ",
"      .     X   ",
" .         X    ",
".         .     ",
"                ",
"                "
};
