/* XPM */
static char *iron_trapdoor[] = {
/* columns rows colors chars-per-pixel */
"16 16 15 1 ",
"  c None",
". c gray73",
"X c #BBBBBB",
"o c #BCBCBC",
"O c gray74",
"+ c #C0C0C0",
"@ c #C1C1C1",
"# c #C5C5C5",
"$ c #C6C6C6",
"% c gray78",
"& c gray80",
"* c #CDCDCD",
"= c gray81",
"- c gray83",
"; c gray84",
/* pixels */
"ooooXooooooXXXoo",
"+*&*********%**+",
"o%o+++%**++++%%o",
"+*%   -%*%   ;*+",
"+*+   -**%   ;&o",
"+*%   -&%%   ;*+",
"o*%;;;;*&*;-;;*o",
"+******%*******+",
"o&***&*********o",
"+&%%%%*&%%%+%&*+",
"+*%   ;*&%   ;*+",
"o%+   *%&o   *%o",
"+*&   ;**%   **+",
"+*%;;;-&%*;-;-*+",
"+*&&***********+",
"ooooXXoXXXoXXooo"
};
