/* XPM */
static char *planks_big_oak[] = {
/* columns rows colors chars-per-pixel */
"16 16 7 1 ",
"  c #1E1309",
". c #291A0C",
"X c #2D1D0D",
"o c #301E0E",
"O c #3E2912",
"+ c #462D15",
"@ c #492F17",
/* pixels */
"@OOOO@@+O@@@@@@O",
"@@+X++OOOOO+O+@O",
"@@OOOO++X@@+@@@O",
"...XXXXXXX....XX",
"@OOOO@@O@OOX+++@",
"OOX+++@O++++OOOO",
"@@@+@@@OOOX@@@@@",
"XX.....XXX....XX",
"@@@@@XO@@+++@@@O",
"OOOOO@++OOOX@OOO",
"@+++@@OOOO+++++O",
"X.XX...XXXXX...X",
"@@@@@O@OOXOO+@@@",
"+OX@@@@O@++OOOO+",
"@@OOO@@O@@O+@@@@",
"XXXo..o.XXX. ..X"
};
