/* XPM */
static char *quartz_block_chiseled_top[] = {
/* columns rows colors chars-per-pixel */
"16 16 19 1 ",
"  c #DDD8CC",
". c #E1DCD2",
"X c #E1DCD3",
"o c #E1DDD3",
"O c #E2DDD3",
"+ c #E3DFD5",
"@ c #E8E4DC",
"# c #E9E5DD",
"$ c #EAE7E0",
"% c #EBE7E0",
"& c #ECE8E2",
"* c #ECEAE2",
"= c #EDEBE5",
"- c #EEEBE4",
"; c #EFEDE7",
": c #F0EEE7",
"> c #F1EEE9",
", c #F1EFE9",
"< c #F2F0EA",
/* pixels */
",,,-*+-+-+-+-;,,",
",+++-+;+*+#+  ++",
", <+@ ,+&+#-,,++",
";+,,;;- &++ -+ X",
"++;++++ &--+,+%+",
":*,+,,@-*-;+,+  ",
"+++ ,##-;;;+;;;+",
",,%*##@@*;,  ++ ",
"+ +++%@@&====;=+",
";-,;+*@@&&=;++  ",
"X++;+&-%++++ ;&+",
"-% - -<<+>>>;%+ ",
"-+ & ++,+;++ %+X",
"-+%%-;+; ;+;++++",
"&@++ *@; %+@@%%X",
"XXXX o + X XXXXX"
};
