/* XPM */
static char *rail_golden[] = {
/* columns rows colors chars-per-pixel */
"16 16 20 1 ",
"  c None",
". c #280000",
"X c #4B0000",
"o c #540200",
"O c #4C3D25",
"+ c #5B4625",
"@ c #524328",
"# c #644F2A",
"$ c #6D532F",
"% c #715D35",
"& c #686868",
"* c #8E733C",
"= c #816740",
"- c #876D45",
"; c #C9901F",
": c #DDB82C",
"> c #F5CC2D",
", c #A4804A",
"< c #AC8852",
"1 c #A4A4A4",
/* pixels */
"  1&;      ;&1  ",
" =1&;X%,<-X;&1= ",
" @1&:.@##O.:&1@ ",
"  1&:  .X  :&1  ",
"  1&:  .X  :&1  ",
" =1&:X-<*#X:&1= ",
" @1&>.O+#+.>&1@ ",
"  1&>  .X  >&1  ",
"  1&>  X.  :&1  ",
" =1&>o-**,X>&1= ",
" @1&>.O+##.:&1@ ",
"  1&:  X.  :&1  ",
"  1&:  ..  ;&1  ",
" =1&;X-<<*X:&1= ",
" @1&;.O$##.:&1@ ",
"  1&;      ;&1  "
};
