/* XPM */
static char *red_sandstone_bottom[] = {
/* columns rows colors chars-per-pixel */
"16 16 24 1 ",
"  c #944B15",
". c #974C16",
"X c #9A501A",
"o c #9F521A",
"O c #9E501C",
"+ c #A0521B",
"@ c #A1521B",
"# c #A0511C",
"$ c #A3541D",
"% c #A7561D",
"& c #A4541E",
"* c #A7541E",
"= c #A8551F",
"- c #AC571F",
"; c #AB581F",
": c #AD581F",
"> c #AF5A1F",
", c #AC5820",
"< c #AE5820",
"1 c #AE5920",
"2 c #B05921",
"3 c #B15A22",
"4 c #B45B21",
"5 c #B45C22",
/* pixels */
"4=X ,,< #,-= %,%",
"2 == ,# ,,##%  <",
"X:=  #o+ +o- 5< ",
"X= 2, %,OO% 5,=O",
"% ,,#O55 XX2:,%%",
"% #,:+  ;:= #%O#",
" =%2Oo , %:+XX2 ",
": 2o  OO ,=,,2 2",
"++ =,,X&#  =2 %#",
"&&O#&< #<#o  o==",
"+ +#,= &,= 5%X:=",
" 44-&-, #2 5% %:",
"2O :XX O+ 2%&= X",
"-=4  #, +X=%, 2=",
"::%4 ,o + X% 2%=",
",%% %,, :%; ===:"
};
