/* XPM */
static char *redstone_dust_line0[] = {
/* columns rows colors chars-per-pixel */
"16 16 4 1 ",
"  c None",
". c gray85",
"X c gray92",
"o c #FEFEFE",
/* pixels */
"        X       ",
"                ",
"        o       ",
"       X.       ",
"       X .      ",
"         .      ",
"        Xo      ",
"       X        ",
"        o       ",
"       o        ",
"       .o       ",
"      o         ",
"       .o       ",
"        o       ",
"        o       ",
"       o        "
};
