/* XPM */
static char *repeater_on[] = {
/* columns rows colors chars-per-pixel */
"16 16 24 1 ",
"  c gray47",
". c #AB0301",
"X c #B10300",
"o c #B10002",
"O c #D40102",
"+ c #D70304",
"@ c #D60006",
"# c #DB0207",
"$ c red",
"% c #FD0300",
"& c #FB0006",
"* c #808080",
"= c gray51",
"- c gray53",
"; c #8F888D",
": c #929292",
"> c #979797",
", c #9D9D9D",
"< c gray64",
"1 c #A8A0A6",
"2 c gray66",
"3 c gray69",
"4 c #C5C5C5",
"5 c #CDCDCD",
/* pixels */
"-****-:: :-****-",
"-2333333<333,22*",
"-,<<,<<<3<22232-",
"-3222,2322<<<<<-",
"-33<<<::::33333 ",
"*<222:*  *42<<,-",
" *222::$&35233  ",
"-:*<:*:$O3<4< --",
":-4,:*:$.3,53*-:",
"44<:*<:+@3<,5<44",
"-23:*,:@o3<<522-",
" 2:*<,:%#3<,<53 ",
"-<:*,<:$X3,1<4<-",
"-3<3,<>+o315523:",
"-22<<33444532<<-",
"**** :;***-***--"
};
