/* XPM */
static char *sponge[] = {
/* columns rows colors chars-per-pixel */
"16 16 131 2 ",
"   c #7D7C31",
".  c #787939",
"X  c #787A3C",
"o  c #7B7C3C",
"O  c #7F803C",
"+  c #8B8C2E",
"@  c #93942E",
"#  c #828337",
"$  c #858636",
"%  c #878B31",
"&  c #878836",
"*  c #888931",
"=  c #888937",
"-  c #8C8B36",
";  c #87873B",
":  c #878838",
">  c #8C8D39",
",  c #8F9032",
"<  c #919337",
"1  c #999537",
"2  c #989A32",
"3  c #9C9D37",
"4  c #94973F",
"5  c #9D9A39",
"6  c #9A9D3B",
"7  c #9EA13D",
"8  c #A0A339",
"9  c #ACB03C",
"0  c #B3B537",
"q  c #B2B343",
"w  c #BCBD43",
"e  c #B9BD47",
"r  c #B4B549",
"t  c #B5B64C",
"y  c #B5B44F",
"u  c #B7B84A",
"i  c #BEBF4B",
"p  c #B9BA4C",
"a  c #B8BA4E",
"s  c #BBBC4E",
"d  c #B5B650",
"f  c #BDB953",
"g  c #BBBC52",
"h  c #BEBF53",
"j  c #B9BA54",
"k  c #BFC056",
"l  c #C2C349",
"z  c #C7C649",
"x  c #C2C34D",
"c  c #C3C44C",
"v  c #C4C54F",
"b  c #C7C84C",
"n  c #C9CA4E",
"m  c #C8CD4D",
"M  c #CBCD4D",
"N  c #C9CE4C",
"B  c #D0CE4C",
"V  c #CFD14D",
"C  c #D1D24E",
"Z  c #D9DA4E",
"A  c #C2C353",
"S  c #C6C753",
"D  c #C1C357",
"F  c #C2C456",
"G  c #C5C757",
"H  c #C6C856",
"J  c #CDCF53",
"K  c #C9CA56",
"L  c #CACB57",
"P  c #CCCE56",
"I  c #C0C35B",
"U  c #C0C458",
"Y  c #C4C55B",
"T  c #C6C25C",
"R  c #C5C65C",
"E  c #C4C55F",
"W  c #C9C559",
"Q  c #C8C45E",
"!  c #C9C65F",
"~  c #C6C85A",
"^  c #C7C85E",
"/  c #CCCB5A",
"(  c #CBCC5A",
")  c #CDCF59",
"_  c #C8CB5F",
"`  c #CECA5E",
"'  c #CACE5E",
"]  c #CCCE5E",
"[  c #D0CF52",
"{  c #D0CE5C",
"}  c #D1CF5F",
"|  c #CFD058",
" . c #CFD05A",
".. c #CDD15F",
"X. c #D1D250",
"o. c #D5D353",
"O. c #D0D155",
"+. c #D3D555",
"@. c #DAD952",
"#. c #D5D759",
"$. c #D1D25E",
"%. c #D5D65E",
"&. c #D7D95B",
"*. c #D8D95F",
"=. c #DCDE5E",
"-. c #E1DF5F",
";. c #E1E35F",
":. c #ECEE5C",
">. c #C9CA62",
",. c #CCC960",
"<. c #CCCD61",
"1. c #D1CE63",
"2. c #D2CE64",
"3. c #D0D163",
"4. c #D1D264",
"5. c #D7D862",
"6. c #DCDD61",
"7. c #DBDC64",
"8. c #DDDC67",
"9. c #D0D46A",
"0. c #D7D969",
"q. c #DAD868",
"w. c #DDDF6D",
"e. c #DFE066",
"r. c #DEE06E",
"t. c #DFE074",
"y. c #E6E26A",
"u. c #E4E56B",
"i. c #E6E570",
"p. c #E9EA70",
"a. c #E8EA78",
/* pixels */
"_ Y a ( 8 O./ / 9.R   $.9.! C ! ",
"D - -.I F w.= u C ) / W ) <.X _ ",
"<.B _ } X.) a i +.! A 5.> U p.} ",
") U ) ; y ) *.- #.K D # 0 c ~ ] ",
"D X.,.i 3 ) l k / j c m %.) :.! ",
"/ f K / $.h C _ O L _ / @ 2.<.7 ",
"2.$ ) 8.* Y _ ! &.L Y e y.6./ W ",
"x 1 i.) *.3.A C n ! >.3.9 O.3.m ",
"H +.o.P .._ D $ 8.u = Y l W q.<.",
"z ~ J & m R 3.R _ + u H 7.$ 5 t ",
"~ ' K y.Y J X %.t.] y.=.G a.r v ",
": J / w.~ F #...~ ~ Y o ..^ &.( ",
"2 u.K > y / Y r.= y ] K $.w - &.",
"&.Z ! k j =.H < g 3.y ~ P ` ~ ~ ",
"~ T 4 q =.y 5.) 3.h 7.b % =.L F ",
"8.S p v 6 { Y ~ u.8.@.%.%.Y ~ 7 "
};
