/* XPM */
static char *wool_colored_lime[] = {
/* columns rows colors chars-per-pixel */
"16 16 30 1 ",
"  c #348D2D",
". c #358E2E",
"X c #37902E",
"o c #39932F",
"O c #379630",
"+ c #389731",
"@ c #389931",
"# c #399A32",
"$ c #3A9C32",
"% c #3A9D33",
"& c #3D9F33",
"* c #3BA034",
"= c #3EA234",
"- c #3CA434",
"; c #3DA535",
": c #3EA836",
"> c #3FAA36",
", c #42AB37",
"< c #43AE38",
"1 c #41B038",
"2 c #44B139",
"3 c #42B43A",
"4 c #44B73B",
"5 c #44B93B",
"6 c #45BC3C",
"7 c #49BD3D",
"8 c #48C13F",
"9 c #4FC246",
"0 c #50C244",
"q c #53C347",
/* pixels */
"*;$&<5*;15o$31$+",
"13qq63,:*+*, +;1",
"67::871,57359q51",
"1;57,:<7*,77>;q7",
"3,*155+.;1-$55$O",
"#o=7*X-;* -,o-*:",
"0965,,,1693>qq5>",
";;0q5377*;573388",
"35+;63*:;,-o>:$$",
":,:5Xo,3*1qq16q9",
"7755974,96>33,$1",
"$*33;:55$*=3oo:3",
":;XO78#.,515qq3o",
"5399752,o,58,189",
"88>>7136q5==15:=",
"o*73=:78,=17=*57"
};
