/* XPM */
static char *brown_concrete_powder[] = {
/* columns rows colors chars-per-pixel */
"64 64 35 1 ",
"  c #66452B",
". c #6B482D",
"X c #6F4B2F",
"o c #714D30",
"O c #734E30",
"+ c #754F31",
"@ c #765032",
"# c #775133",
"$ c #785233",
"% c #795234",
"& c #7A5334",
"* c #7B5334",
"= c #7B5434",
"- c #7C5435",
"; c #7D5535",
": c #7F5636",
"> c #805736",
", c #815737",
"< c #815837",
"1 c #835938",
"2 c #845A38",
"3 c #865B39",
"4 c #875B39",
"5 c #895D3A",
"6 c #8C5F3B",
"7 c #8C5F3C",
"8 c #8E603C",
"9 c #8F613D",
"0 c #90623D",
"q c #95653F",
"w c #976640",
"e c #996841",
"r c #9A6941",
"t c #9F6C44",
"y c #A77147",
/* pixels */
"11;+17191=;+O33O=*=+3*:*3==1::*#11;#:739:=:OO33O=**O3*:*3*:1:-#-",
">;1;+r1+51***;>;= ;;3;#***=.3t=*::1;#r1O8:**=-:=: ::1:#*=*=.5t=*",
"X*>3;;+*;O3;;3>*1=*=*=#::::1:33*X=:4;=O*=@4::3:*1****=#:=::1=57#",
";;;1*7*3*O3*,9;t44;3**==1*==3=1;;;;1;7*3=O4=:9:t31:3*==*:===3-1*",
"0150;;;**1;37;;=1*;=*.;4::*5#=3=9189;;;=#=:58=**1=:*=.=5;==7*=5=",
"O5>3>*;39=*,;*;=73O;*3y;11.=*:#=O7=4:=,3w=#:::=*53#==1y:31.=*-+*",
"#1;3;333.*9;9*;4;=73;*>+33=:5:w:#4;4;431.=9=w#:5:*71=*:O71=:4:w-",
"+q=3y;4,1;;111;3*3t*333;=1w*==::Ow=4y;4;3:=1:1=3=3t*533:;19:=:=1",
";;1*=+13=71;;3O;;.1;O;1>37;*;O#>==4=*O13=71*-5O:;.1=O;3;37;=;++,",
"5;13;;;19X;=7t1*;;#9;;33**;;*,1;4=14:==3w.=*8t:=;=#9;;33##;;;,3;",
"t;5#*13,;*;O:;X:** *;1>==*r;;**1t:4#*13:=*-@:=X:=* =;11*;*r;***1",
";;;1;*;1=5;15:4;*3133*=.;;3,;;w*===4:=:1=7=15:5:*3444#=.;13;;;w*",
";,*=3*;1:;9;=;4;;5*.;7*1**;#;;3X:1**1=::=:8=:=1=;3*.;7=1*=;#;;1X",
"t*3;;.;;41=;w=44O;;1;;;;1;O*9;O3t=5=:.=:11:=w:33O,*3;;;;1;O=0;O7",
";7,*79==9;;=;1:=;7397;11;;1==1*1=7::79*=w-:==1:*;5397;11=;1;=1*1",
";r,;XO*;;:9111=4;=3*,=*;;,=;7*=3:r:=XO*=*:9111=5;*3=,**;;,=;4**3",
"31;;;1,e3X13O1;.3,;+,739,*;OO33+=*=O3*=*3=;1:;##1;;;;1;;1*13;3#$",
";y1*+r37;,7;,*;0,;1*+r1+9;***;;=; :;1;**;**.4t;*#*1=;r,15y7*;;;;",
"; ,;;;;;3;1;;;;*O=:3;=O*;#4;;5;*1**=*=*;;;;3;43*;;1;;>;*;*;;;7**",
"5*113+;w3O31;;3+**;3;7*3=O4;,9;t71:3*=;*1*==5;1;,9;1*+;;;0,t>r>$",
"+;70,1;*::7=44*39370;=;**;147;**,*;=*X*3;>=3#=3;3;;9;;*;333*3.>*",
"1O;*,*1*:=;y===9O5;31*:39=#;;;;;7,O:*3y;3>.;#1+*,3*=,3+>3;;;>5**",
"r**0*3;3:=;==4;1*1*3;37;.;9=0;;4:#71*;;+33=;7=w1>;*O;3,+;35*3;>7",
";*;*y75;11;;==*3Ow;3y*313;;1,1;3=7t=343;>30;;;=;;33*7**,>;*;;*3;",
";O,*;#>#5;;*9*;;=*1**O13=7:==4#;=.1=O,1,37===+*=X9*3;77>;;1;;;#7",
"3;13;;0=;>;,r1;*5;13;;;39X:;8t;=:;#9;;33**==*,1;5=w35;**,3X*19;<",
";;3;*O**13*+=;1,t13**13;=*;+;;X1=* *=1,=;=r;=**11;*;;31;;37;><++",
"3#;;;;1* ;5;5**,*=;1;=:1*7;17;3;*3113*=.;,3=,;w*+59*;,3,;>*1t;>1",
";,44,34;*7;3*;>*;1**3*;1;;9;;;1;;3=.=7*:**;*,;1X*;33#;5>X3>;;>3;",
"+,4;;4+33*;;w*1;t*3;*X=;13;=w;44+,=1;;;;3;O*9=O3;>;3#O>**351*;*3",
";7>;*,33O7;;*;>r;7;;79**9;;*;1;=;7395131;;3;*1=1O8=;;**7;;#X;*;*",
";1;;03;**O*y*3;;;r;;XO=;;191,1;4;*3*,*==;;*;5**7;43**+*;;>5<61;3",
"11;#17191*;OO33O11,;;>>r>X13O1;.1;;;=1;1>*33*3##***O3*:*3*:1::*#",
";;3;Or1#7,***;;;>y1*+r37>>7;,*;9#=1=;r1:5y6**;;;; ;;1:*#**=.3t=*",
"O*;4;;O**O3;;3,*; ,;>;;;3>,,;;;*;;,;;;;=>*;;;7;*,**;*=*;=-:1:37#",
";=;1=7*3;O3;,0;t3;,,3+;e3+31;;3O;9;3;+=**0>t>r,*33>3**;;1===3=1=",
"9159;;;**,:37;;=+,79,3;*;,3;33;34;;9;;;;3;5;3.;*3*;==.;4;;=5*=3;",
"O5>3;*,37**,;*;;,O;*,*>*,*;y=*;714;;,3+13;;;>5;=53O=;1y;31.;#:+*",
"#3;3;331.;9;0;;3r=*9*3;3;*;;;3;1;;*X;3,O;37*3;45;*71=*;O53=;5;w:",
"Ow*3y;311;;1,,;3;*=*y73,13*>*==1;41*7**,1>$>;*<;*5t*534>;19;;;=1",
";*1;*O13*7,;;3O;;O,*;O,*7;;*7;;1O9=4:95:::1=;1#7;.1;O;1>37;=;++,",
"3;13;;=39O;;7t,*3;13,;9*;,*>r1*=3=w43==*:3O=;9;<;;+9;;33#**;;,3;",
"t13#=13;;*;+>;O1>;3>=O**,3*+;;1;5==*:31-:17:;3O#=* *;11*;=r;***1",
"*;;3;;;1*3>>5;3*3+;;;;;* ;3>5**1O89*=111=:=:t;;1*3333*=.;;41;;w*",
";,**3*;>;>7;;;3;;333137=*5*3;;;***53*=5-X1;;;13;;3*.;7=1**;#;;1X",
"t*3;;.;;3,;;w*33O>4;;3O33#,;w=1;=:;1*O1*=371*==3O,*3;;;;1;O=9;O5",
",7,;59;*0;;*;3;*;5,;*,31O7>;*;,r#7**=**7::#X;***;5397;11=;1;=1*1",
";w>;XO*;;,01,,;3;3;;03;=;O*y*3;=:71**O*==:7;91;3;*3*,**;;,=;5*=3",
"13;;;1,r,X13+1;X3;;;*1;;1;13;3**11,;;,>r>o33O1;.1;;;;1;;1=13;3#$",
";y1=+r37:;7;,*;9+*3*;r,15y5*;;=;;y3*+r37>;7;,*;9#*1=>r,15y7*;;;;",
"; ,;:;;*3;,,;;;*;,,*;;>;;*;;;7*#; ,;>;;;3>,,;;;*;;1;;;;*;*;;;7**",
"4=113+;w3+3,;*3O>7,3=+**;01t>r>*3;,,3+*e3+31;;3O,9;1*+;;;0,t>r>$",
"#;59;1;*;>3;53;34;;0;;=;3>3*3.;;+>79,3;*;,3;33;33;;9;;*;313*3.>*",
"1+**,=,=1;;y**;5,3;;,3O13;>;>5**,+;*,*>*>*;y=*;7,3*;,3+>3;;;>5**",
"r*=w=3;4;;;*;3;3;;*X;3,O;35;3;,7r**9*3;3;*;;;3;1>;*O;3,+;37*3;>7",
";*=*y741,1;>**;1;31*7;*11>*;**,>;*==y73,13*>*==1;31*7**,>>*;;*1;",
";O,*;+;#5;;;7;;1X9=3;77;*;,>;>*7;O,*;O,*7;;*7;;1X9*3;77>;;1;;;#7",
"3;13;;0=;,*,r,*=3;w33;**13O*>7;,4;13,;9*;,*>r1*=5;w35;**>3X*19;<",
";;3>;+**13*+;;;,1;==;31<=17;>3++>;3,=O**>3*#;;1;1;*;;31;;37;><++",
"3+;;;;1* ;3>5=*1O79*;11;;;;>t*;33O;;;;;* ;3;5**1+59*;,3,;>*1t;>1",
";,33;45;*7;3;=;=;;55*;5,X1;;*,3;;333137=*4=3*;;=*;44#;5>X3>;;>3;",
"+>4;;3#33*,;w*1;;;;1*O,*=553*;=3O>4;;3O33*,;w;1;;;;4#O>**351*;*3",
"*7,;=131O5;;*,>r#5=****7;>#X;***;51**,31O7;;*;;r@8=;;**7;;#X;*;*",
";3>;01;*=O*y*3;;;73#*O*;;,5>71;3;3;;03;=;O;y*31;=54#*+*;;>5<61;3"
};
