/* XPM */
static char *crafting_table_front[] = {
/* columns rows colors chars-per-pixel */
"64 64 20 1 ",
"  c #19140C",
". c #1B160D",
"X c #281E0B",
"o c #262012",
"O c #382116",
"+ c #41230E",
"@ c #4B2B18",
"# c #5A2E17",
"$ c #733920",
"% c #67502C",
"& c #7E6237",
"* c #967441",
"= c #997A44",
"- c #9F844D",
"; c #AF8F55",
": c #B8945F",
"> c #C29D62",
", c gray71",
"< c #D8D8D8",
"1 c white",
/* pixels */
" ->>>>>>>>>>>>>>O##$$$$$$$$$@@@@@@@@$$$$$$$$$##O>>>:>>>>>>>>>>- ",
" ::::>>:::::>>:::O##$$$$$$$$@@@@@@@@$$$$$$$$##O:>::;;:>>>:::>:; ",
" ;;::::;;::::;::;:O##$$$$$$$@@@@@@@@$$$$$$$##O---;:::::>::::::; ",
" :;;;;::::::;;;;::;O##$$$$$$@@@@@@@@$$$$$$##O:;-;::::-:::;;:;-; ",
" :::::;;;;;;--=-:;--O##$$$$$@@@@@@@@$$$$$##O:::;;;---:::;;----- ",
" :::::::;;---=*=--::-O##$$$$@@@@@@@@$$$$##O;;;;;:::;;--:::;;;;- ",
" ;;;-::;;;;;;;=-;;:::-O##$$$@@@@@@@@$$$##O;-----::::;;;;;;;---* ",
" ;--:;;---::::;;::::--;O##$$@@@@@@@@$$##O;--:::::;;;;;::------- ",
" ::-----:::--::::---;;::O##$@@@@@@@@$##O;;;;---::::-=-----;;-;; ",
" ::::-::::::::---::------O##@@@@@@@@##O---::::::---=*=-;;:::;-- ",
" ::;;::---::::;;;:;;;:;;::O#@@@@@@@@#O-;;;;::::;;;;-=;;---:;;:- ",
" ;::;;;:::--;:::;;:::::---;O@@@@@@@@O:::--::;;;;;;----;;:::::-* ",
" ;;;;----------;;;;:;-------OOOOOOOO-------------;;;----------* ",
" ----*****-***---------*****OOOOOOOO--***----**++++++-****--**& ",
" ****&&&****&&**&&*&****&&&&oooooooo&&&&****&&++++++++&&&&**&&% ",
" &%%&&&&%%&&%%%%%%&&&&&&%%%%........%%&&%%%%&++++++++++%&&&&%%% ",
" ;:>>>>>>>>>>:::>>>>>>>>:;;:@@@@@@@@::>>>>>>++++>>::++++>>>>>>> ",
" :::>>>::::::;;;::::>>:::::;OOOOOOOO;;;;;:>:+++>:::;;+++>>>:::: ",
" ;;;:;;::;;;:++;;;;:::::;;--OOOOOOOO;--:::;;+X:;;;;-::X+;:::::; ",
" ---;::;;;:;++++::::;;:;::;;OOOOOOOO-::-::::+X;--;-;--X+::;;;-- ",
" :;;;;--::::++++---;::;---;-OOOOOOOO:::;;--;+X-:::;;;;X+-::---: ",
" -::--;;;;;:X+++;;;-=-;;;;--OOOOOOOO;;;---;:+XXXXXXXXXXX:;;;;:- ",
" ----;-----;X+++---**=;;--;-OOOOOOOO----;;;;XXXXXXXXXXXX;---;;: ",
" -;;;;;-=;;;XX++::--*---;;::OOOOOOOO;::---::XXXXXXXXXXXX-;;;=-; ",
" ------=**--XXX+;;::;;;----:OOOOOOOO--:;;;;;,,,,,,,,,,,,---=*=- ",
" :--:::-=-::XXXX:;;---;;::::OOOOOOOO-::::;--1<<<<<<<<<<<;-:-*-; ",
" -;;;---::;;XXXX;;::::;;;--;OOOOOOOO;-;----;1<<<<<<<<<<<::;;::: ",
" ;;:;;;;:;::XXXX:::;;;--;;;:OOOOOOOO;;;;::;-1<<<<<<<<<<<;;---;; ",
" ::-----;;;-XXXX;;-------;;;OOOOOOOO--;;;---1<<<<<<<<<<<-;;;;-- ",
" ---******--XXXX-*--*****---OOOOOOOO**----**1<<<<<<<<<<<----*** ",
" *&&&&&&&&&&XXXX&&***&&*&&**oooooooo&&&&***&1<<<<<<<<<<<***&&&& ",
" %%%%%%%&&%%XXXX%%%%&&&&%%&&  ....  &&%%&&%%1<<<<<<<<<<<&&&&&&% ",
" :>>::>>>>>>XXXX>>::::::>>>>@@@@@@@@::>>>>>>>1<<<<<<<<<<::::>>; ",
" ;;;:::::::>XXXX;;:::::;;:::OOOOOOOO:;;::>>>;1<<<<<<<<<<;;::::; ",
" :::;;;;::;;XXXX:::;;;;----;OOOOOOOO;::::::;;1<<<<<<<<<<::;-;:- ",
" :---;::---:XXXX;;::::---::-OOOOOOOO;;;:;;;::-1<<<<<<<<<;;::::- ",
" ;;;;;--,<<<<<<<<<<<;;;:--;;OOOOOOOO--;;----;;1<<<<<<<<<;;;---; ",
" :;;::;;,<<<<<<<<<<<--:;;;;;OOOOOOOO;;;;:;;---1<<<<<<<<<;;--;;; ",
" :;;---;,<<<<<<<<<<1;;;--::;OOOOOOOO:;-------;;1<<<<<<<<;-;;--; ",
" :::;;--,<<<<<<<<<<1----;;-=OOOOOOOO-;;;;;;;;;;1<<<<<<<<;:::::- ",
" :-----;,<<<<<<<<<<1;;----==OOOOOOOO;;;--;:-----1<<<<<<<;;;;;:* ",
" :;;;---,<<<<<<<<<11::;;-;;*OOOOOOOO----;;;;;:-:1<<<<<<<::::;;- ",
" ;;;::::,,<<<<<<<11<::;;;;;;OOOOOOOO:;;----;;;;--1<<<<<<;;;:::; ",
" ;;:;;--,,,,,,<<11<<;;;;::::OOOOOOOO;;;:::;;;;;;:1<<<<<<::---;- ",
" ::----------:::::-----:----OOOOOOOO-----;;;;-----1<<<<<-;;;-;- ",
" ---**********----****--****OOOOOOOO****----******1<<<<<------* ",
" &***&&&&&&&***&&&&&***&&&**oooooooo&&&&&***&&&&&&&1<<<<*&&**&* ",
" %%%&&%%&&%%&&%%%%%%&&&&%%&&........&&%%&&%%%%%%%%&1<<<<&&%%&&% ",
" :>>::::::>>>>>>>>>>>>::>>>>@@@@@@@@>>>>>>>>::>>::>>1<<<>>>>>>> ",
" :::::::::::::::>>>::::::::;OOOOOOOO::::>>::::::::::1<<<::>>>:: ",
" ;;:--;;---;;:;;:---;;;;:;;;OOOOOOOO::-----;;;:::-;::1<<:::---: ",
" ---;;::;;---;;--:;;----;;--OOOOOOOO---;;:;=;;:----;;1<<---:;;: ",
" :;;:-:----:::;;;;:::::----;OOOOOOOO-;;;--=*=;--;;::-;1<::::--- ",
" ;---;;;;-::=::----:----;-;-OOOOOOOO:::::--=-;;;-::;;;:1;;--;;- ",
" -:::---;;-=*=---;;;;;-::;:;OOOOOOOO---;--;;;;::::---;;:::;;::; ",
" :--;;;;;;;;=-:::--;::;;;=::OOOOOOOO::;-----;;----::;-;=;--:::: ",
" ;;:::;---::-:::;::;;---**=-OOOOOOOO--::;;;;::::;--;;-=*=-::;;; ",
" -:-----::::::-::----;;:-*-;OOOOOOOO::::::::;--;;::::;-*-:::::- ",
" :;;;:------;---:::;;--;::::OOOOOOOO;;----;-;;;-;;-----;;;---;; ",
" ::--;:::;;;;;;--;--;::;;;;:OOOOOOOO;;;;;-----::;;;;;;---*;;--- ",
" ;;;;;--------;;::-------;;;OOOOOOOO;;;-----;;;-------;;=*=-;;; ",
" -**--*******-----*******---OOOOOOOO********----******---=----- ",
" **&&&*****&&*****&&***&&***oooooooo&&&&&&&***&&&&&&&***&&&&&&& ",
" %%%&&&&&&%%&&%%%%%%&&%%&&&&    ... %%&&%%%%&&%%%%&&%%%%%%%%%%% "
};
