/* XPM */
static char *dark_oak_trapdoor[] = {
/* columns rows colors chars-per-pixel */
"64 64 16 1 ",
"  c #291A0C",
". c #32210F",
"X c #3E2813",
"o c #3F2A13",
"O c #472F17",
"+ c #483015",
"@ c #4F3218",
"# c #54371C",
"$ c #624224",
"% c #724A24",
"& c black",
"* c black",
"= c black",
"- c black",
"; c black",
": c black",
/* pixels */
"++++++++++++++++@@@@++++++@@++++++++++@@@@++@@+++++@++++++++++++",
"@@@@@++@@@@@++@@@@@@@@@@@#####@@++@@@###@@@@@#@@+@@##@+++@@@+@#+",
"+##@@@@##@@@@#@@#@@#####@@#@@@@@@##@@@@@@@##@++++#@@@@@+@@@@@@#+",
"#@####@@@@@@####@@##+++++@@#++##@@@#@@####@@@@#+#@@@@+@@@##@#+#+",
"+@@@@@######++++@#+++########@@@#@#+######++@@@###+++@@@##++++++",
"+@@@@@@@##++++++++@@+++#@@@#+++#@@@#+++++++#####@@@##++@@@####++",
"@###+@                   .@@##++++++++                   .#+++++",
"+#++@#...................$@@@#+#+#++@@...................$++++++",
"+@@+++.X@@@oo@@@@oooOO@@%$@########+++.XOOOOooo@@@@ooooo%$##+##+",
"+@@@@+.X@@@@@@ooo@@ooooo%$@@###@@@+###.Xoo@@@@@@oooooooO%$@@#+++",
"#@@##@.Xoo@@@@OOO@OOO@OO%$@#++@@#####+.XOOO@@@@OOOOoOOOo%$@##@++",
"+#@@##.X@@ooO@@@OO@@@@@o%$##@@@@+++##@.Xoo@@OOOOOOooooOO%$@@@+++",
"+####+.XoooooooOOOO@Oooo%$+++++@@@@+++.XoooooooooOOOoooo%$+++++#",
"++++++.Xoooooooooooooooo%$++++++++++++.Xoooooooooooooooo%$++++@#",
"@++++@.Xoooo@@oo@@o@oooo%$@@@@@+++@@@@.Xoooo@@oo@@ooo@@@%$++@@##",
"#@##@@.XOO@@OOOOOO@@@@@@%$##@@##@@####.XOOOO@@@@OO@@OOOO%$@@###@",
"##@+++.Xooooo@@@oooooooo%$#@@@####@@@@.Xoooooooooo@@@@oo%$++++++",
"@@@@++.X@@@@@OOO@@@@oo@@%$@##@##@@@@##.XO@o@@@oo@@@OOOO@%$+@@@@@",
"@###@#.X@OOO@@@OOOO@@@@@%$+++#####@##+.X@@OOO@@OOOOo@@@O%$@@@@##",
"#+++#@.XOO@OOOOO@@@@OO@O%$#######@#++@.X@@@@OOOooOoOooo@%$###++#",
"@@####.X@@@@ooOooooO@@Oo%$#+@++++###@@.XOooOooo@@@OOOOOo%$@+++@@",
"++@@++.XOOO@OOooOOOoooOO%$++@@++#@####.XooO@@@@oo@OOooo@%$###@++",
"#++++#.XoooO@@@@ooo@@oOO%$#+++++@@@@++.XOOOOoooooooo@oOO%$++##@#",
"++####.XoOOOooOO@@oo@ooo%$@@###+@####@.Xoo@@@@oooo@@@@Oo%$##++#+",
"@+++++.X%%%%%%%%%%%%%%%%%$+@@@###+@@++.X%%%%%%%%%%%%%%%%%$++++++",
"#@++@@X$$$$$$$$$$$$$$$$$$$@@#####@+++@X$$$$$$$$$$$$$$$$$$$@@@+##",
"++###+++@@###++###@@@@###++##@#######+#++++#@@#++#####@@@@##@@@+",
"###@####@#@@@###@@@###++###@@@#++#######@@#+###@@@#+@@++##+++###",
"#@@+++++###++++###+++++++####++#+##+++###++++###+++++++++####+++",
"++++++++++++++++++++++++++++++@#@+++++++++++++++++++++++++++++++",
"++@@@@@@@@@@@+++@@+++@@+@@+++@@#@@@@@@@@+++@@@+++@@@@@+++++@@@@+",
"########@@####@@####@@@@##@@####@@##@@##@@######@@####@@@@@@@@##",
"@@++@@++++++++++++@@@@@@++++@@++@@++@@++++++++++@@@@++++@@@@++#+",
"@###@@@@@@@++++###@@@@@##@@@@@@@@@@@@##@@+++####@@#@@@####@@@@#+",
"@@@@####@@#####@@@@####++++##+++#@@##@@@@@@##@@@##@@##@@@@#+#@++",
"+@+++#@@+++@@@####@@@@+++@@++++@@#++###@###@@++@++#####@##@@@@++",
"+#####+++###+###+++####@++##@@++#@#@++##++++#####++#++@####+++#+",
"#@##@@####++++++###+++@######@@@@@@#####@##++++#++++++++##++###+",
"@@##++                   .@###@##++@@#                   .##++#+",
"+@@@##...................$+++#++++##+#...................$@@@@++",
"+@++++.XOOO@@@OOooOOOOoo%$++#######@##.XoO@ooooooo@Ooooo%$###@++",
"+@###+.Xoo@OO@@O@OOO@@OO%$#+++@@@+#@++.XOOOOO@o@OOO@@@O@%$@@##++",
"####@@.X@OOOOO@@Oooo@@OO%$#####++++#@#.XoooOOOOoooo@OOOO%$#@@@#+",
"+##@##.Xo@OO@@OOO@@OOOOO%$@@######@@##.X@@OOOOOO@@@OoO@@%$+++#++",
"+@@+++.Xooooo@@@@@ooooo@%$+++@@@#+++++.XoOOOOooooooOOOOo%$##+#+@",
"++++++.Xoooooooooooooooo%$++++++++++++.Xoooooooooooooooo%$+++++#",
"@@+++@.X@@@@ooo@@@@@ooo@%$++++@+++@@@@.X@ooo@@@@@@@@@ooo%$@++@+#",
"####@@.X@@OO@@OOOOOO@@@@%$@@@@######@@.X@@OOOOOOOO@@OO@@%$##@@##",
"@@++@@.X@@oooooooooooo@@%$++@@##@@@@++.Xoooo@@oo@@oooooo%$++++++",
"@@@@@@.X@@@@@@@@ooo@@@@@%$@#####@@@@@@.Xoo@@@@@@@@@@@@@@%$+++@@@",
"@##@++.XoooOO@OO@oooOOOO%$##@@#++@@+@@.XoooOOO@@@oO@@@Oo%$@+++@@",
"@+++##.XOOoooOOoo@OOoooo%$+++++++@##++.XO@OoOO@ooooOOooO%$+@##@+",
"@@##@+.Xooo@@@OOOO@@@@@o%$+###+##++++#.XoooooOooOO@@oOoo%$@@+++#",
"##+++#.XOo@@o@@oooo@oooo%$#++#######@@.X@ooOOOOOo@@OOO@@%$++##+#",
"++@@@+.XOOoooooooOOOOOo@%$@#@@##@##@++.XooOOOO@@@@oooOO@%$##@@##",
"#@++##.XOOOOoo@@@ooO@@OO%$@@#####++@@@.XooooOOoooo@@OoOo%$+@@@@+",
"@##@@@.X%%%%%%%%%%%%%%%%%$+++#####@+++.X%%%%%%%%%%%%%%%%%$@@###@",
"++@+++X$$$$$$$$$$$$$$$$$$$##@@###@@@@@X$$$$$$$$$$$$$$$$$$$@@@@++",
"@@###@++++++#+++@@@##++#@@@@####@@####++++#+###+##+++++###+++##+",
"@@@++#@@@######++#++#@@####@@@+++@++#####+++++@@######++++##+++#",
"+#####++++++++##@@+++++++####+++++#####+++++###+++++++##++++####",
"+++++++++++++++++++++++++++++++@++++++++++++++++++++++++++++++++",
"+++@@@+++++@@+++++@@+++@@++++@@@@@@@@@@@@@@+++@@@@@@@+++@@@@@@@+",
"####@@@@@@##@@######@@##@@@@######@@##@@####@@####@@############"
};
