/* XPM */
static char *enchanting_table_side[] = {
/* columns rows colors chars-per-pixel */
"64 64 17 1 ",
"  c None",
". c #000001",
"X c #100C1C",
"o c #271E3D",
"O c #6B002F",
"+ c #7F0728",
"@ c #3B2754",
"# c #951C29",
"$ c #9D2429",
"% c #A22929",
"& c #2CCDB1",
"* c #4AEDD1",
"= c #80F3DF",
"- c #A2F6E7",
"; c #AFF7EA",
": c #C3FBF1",
"> c white",
/* pixels */
"                                                                ",
"                                                                ",
"                                                                ",
"                                                                ",
"                                                                ",
"                                                                ",
"                                                                ",
"                                                                ",
"                                                                ",
"                                                                ",
"                                                                ",
"                                                                ",
"                                                                ",
"                                                                ",
"                                                                ",
"                                                                ",
">>>>>>>>>>>>>>&&O+#$%%%%%%%%%%%%%%%%%%%%%%%%$#+O&&>>>>>>>>>>>>>>",
">:::::::::::::*&O+#$%%%%%%%%%%%%%%%%%%%%%%%%$#+O&*:::::::::::::>",
">:=============*O+#$%%%%%%%%%%%%%%%%%%%%%%%%$#+O*=============:>",
">:=-----------;*O+#$%%%%%%%%%%%%%%%%%%%%%%%%$#+O*;-----------=:>",
">:=-----------;*O+#$%%%%%%%%%%%%%%%%%%%%%%%%$#+O*;-----------=:>",
">:=-----------;*O+#$%%%%%%%%%%%%%%%%%%%%%%%%$#+O*;-----------=:>",
">:=-----------;*O+#$%%%%%%%%%%%%%%%%%%%%%%%%$#+O*;-----------=:>",
">:=-----------;*O+#$%%%%%%%%%%%%%%%%%%%%%%%%$#+O*;-----------=:>",
">:=-----------;*XO+#$%%%%%%%%%%%%%%%%%%%%%%$#+Oo*;-----------=:>",
">:=-----------;*.XO+#$%%%%%%%%%%%%%%%%%%%%$#+OXo*;-----------=:>",
">:=-----------;*o@@O+#$%%%%%%%%%%%%%%%%%%$#+OXXX*;-----------=:>",
">:=-----------;*@@@@O+#$%%%%%%%%%%%%%%%%$#+OXXXX*;-----------=:>",
">:=----------;*o@ooo@O+#$%%%%%%%%%%%%%%$#+O.X.X..*;----------=:>",
">:=---------;;*@o@XoooO+#$%%%%%%%%%%%%$#+OXX.X...*;;---------=:>",
"&*=;;;;;;;;;**@oXXo@ooXO+#$%%%%%%%%%%$#+O...X.....**;;;;;;;;;=*&",
"&&**********@@oXXo@XoX..O+#$%%%%%%%%$#+O.........XXo**********&&",
"XX...X.XX.o@ooX.X.XoX....O+#$$$$$$$$#+O.........XooXXo@@XoX..XXX",
"X...X.XX.X@ooXXX.ooXX..X.XO+########+O..X.......XXooXXo@@X..XX..",
"...XoX.XX.oXoX.XooXX..XXX.XO++++++++O.XX.........oXo.oXXo@XX....",
"..XXooX.XXXoXXX.oXXXX..X.XoXOOOOOOOOX..X..........ooo.oXoX......",
".XoooXoXoo..X..oXX.X....XoXo@@ooXo.X.X.........X.X.XooXo........",
"XoX@XoXooXX..X.XXXX.....XX@o@oXXoX............XXXX..XX..........",
"@@@@oXoX.X....XXXX.....XXo@@oXXX.XX.....X....XooX............X.X",
"o@@oooX.X......X......XXX@ooXXX...X.X.XX.X.XXXX@oX.........X.oXX",
"@oo@XXX...............X.ooXXoX...X.X...XXoXo.X.X@@XX........XXoX",
"ooXX.X...............X..oXX.XX........X.oooX...o@o@oX........Xoo",
".Xo.X.................XoXX....X......XXXXoo..Xo@@oXX..........XX",
"X...........X.........XX.X...X.....XX.XoXX..Xo@@oXo............X",
".........X.XX.X..X.X...X.........XX.XXoo@@ooXXoooX.......XX.....",
".......X..XX.X..XXX...............XXXoo@@o@XXXXoXo...XX.XXoX....",
"....X.X.XXoXooXoXX............X.XXoXo@@o@@oX.X.oo...XX.XooXXX.X.",
"..XX..XXoXX@o@oXXo..........XX.XXooo@@o@@oXoX.ooX.X..XXoXooX.X..",
"...XXXoo@o@@@XoooX.........XXoXooXo@oo@ooX..ooXX...XXo@o@@ooXXX.",
"..XoXoX@@@o@XoXoX...........oooXoooooXooXX.ooXX...XXooo@@oooXX..",
".Xoooo@@o@oXoXXX......X....oXXX.oXoXXooXX.X......X.Xo@@o@@oX....",
"XoXoo@o@@oooooXXX....XXX..XX.X.XXoXoXXooXX........Xo@@o@ooXX....",
".XoooXooooX.oX.X..X.XX......X.X.XXooooXXX.......XXX@ooXXXX..X...",
"X.ooXoooX..oXXX..XXX.........XXX.oXXoXX.....X....XoooXXX..X.XX..",
"XoXXooXX..XXXX....X.X......X.XX.XXX.X..X...XoX....XXX.X.XXoo..X.",
"X.XooXoX.XXX..............X...X.X.XXX....XoooXX....X.X.oXooXX.XX",
"..XXXoX.....X..........X.XoXX..XXXoX...X..XoX..........XoooX.X.X",
"...XXXXXX..........X.XX.oo@oXX..Xo......XXXX........XX.Xo.XoX...",
"...XXX.X....X..X....X.XX@@oooX...X....X..X.......X...XXX........",
".X..XX.....XXXX.X.XXXXo@@oXXooX......XXXX.X.X...Xo..X.XX..X.....",
"..XX.X.......XXX.X.Xoo@@ooo.XX..........XXXX...oo....XX.XX....X.",
".XXXX...oo..XX....Xo@@@o@o.XX..........X..X...ooX...XX.oXXXo.ooX",
"X..X...XXoo......XXoo@oXoXX...........X.XX...XoX.....XXXooXXooX.",
"XX....XXoX.......Xoo@oooXX...........XXXX.....X.......XooX..Xooo"
};
