/* XPM */
static char *furnace_front[] = {
/* columns rows colors chars-per-pixel */
"64 64 16 1 ",
"  c #111111",
". c gray13",
"X c #3C3B3B",
"o c #504E4E",
"O c #5D5B5B",
"+ c #686868",
"@ c #777777",
"# c gray50",
"$ c gray52",
"% c gray54",
"& c gray57",
"* c gray58",
"= c #9D9D9D",
"- c gray66",
"; c gray69",
": c #C5C5C5",
/* pixels */
"XXXXXXXXXXXXXXXXXXXXXXXXXXXXXXXXXXXXXXXXXXXXXXXXXXXXXXXXXXXXXXXX",
"XooooooooooooooOooooOOooooOoOOoooooooooooooooooOOoOoooooooooOOoX",
"XoOOO++@%%$$%@++@$$@@$$@$$$$$@$@@$@@++++++$$@$$$$@$@@$$+++++++OX",
"XoOO+@$%%**%$%%@++@$@@$$@@$$$$@@$@++@@%%$$++$@@$$$@$+++@%%$$@+oX",
"XoO+@$%**%%$%%$$$@++@$@@@$$$@$$@++@@$****%%$++@@@$++%%****%$$@oX",
"XoO@$%**%$$%%$$$@$@@+@$@$$@$$@++@@$$@%%%%***$%++@+$%**%%%%%$%$oX",
"Xo+$%**%*%$%$%$$$@@$@+@$@@$@++@@$@@$$$%$%%%%**$@+@%*%%$%%$$%$@OX",
"Xo+%%*%%%$%$$$$$@$$@$@O@$@@+@@@$@$$$$$$$%$$$%%*$@+@%%%%$%%$%$@OX",
"Xo@%*$%$$$$$$$$$$$$$$@@O+@+@$@$$$$$$$$$%$$$%$%%*%@+$%$$%$$%$$$OX",
"Xo%$*%$$%$$$$$$$$$$$@$@@O+O@$$$$$$$$$$$$$$$$$$%%*$@+$%$$$$$$$$oX",
"Xo$$%$%$$$$$$$$$$$$$$$$@@O@$$$$$$$$$$$$$$$$$%$$%*%$+@$$$$$$$$$OX",
"Xo$%$$$$$$@$$$$$$$$@$$@$@O@$@$$$$$$$$$$$$$$$$$%$%*%@+@$@$$$$@$OX",
"Xo$$$$$$$$$$$$$$$$$$$$....................$$$%$%%*%$+@@$$$$$$@oX",
"Xo$$@$$$$$$$$$$$$$$XXX                    XXX$$%$*%$@+@$$@$@$@oX",
"Xo$@$@@$@$$$$$$$$XX                          XX$%%$@@O$$$$$@@@oX",
"XO@$@@$@$$$$$$@$X                              X$%$$@O$$@$$$@$oX",
"XO@@$@$$@@$@$$$X                                X$$@$O@@$$$$$@oX",
"XoO@@@@$@@@$@$X                                  X$@$O$@@$$$$$oX",
"Xo@OO@@@$$@@@@X                                  X@$@+@$$@$@$@oX",
"Xo$@$OO@@@@@@X                                    X$$+@@@$@@@@oX",
"Xo$$@+@O+++@@X                                    X@+$+@@@@@@+oX",
"Xo$@+@@$%$$+X                                      X$%$++@@+oooX",
"Xo@@+@$@$%$%X          ..................          X%$$$@oooOOoX",
"Xo@+@@$$$$%%X         ...XXXXXXXXXXXXXX...         X*%%$$@$@@OoX",
"Xo+@@$@$$%$$X        ..XXXXXXXXXXXXXXXXXX..        X%%$$$$@@$@oX",
"Xo@@$$$$$$$$X        .XXXXXXXXXXXXXXXXXXXX.        X$$$$$$$$@$oX",
"Xo@@@$$$$$$$X       .XXXXXXXXXXXXXXXXXXXXXX.       X%$$$$$$$$$oX",
"Xo@$$$$$$$$%X       .XXXXXXXXXXXXXXXXXXXXXX.       X$$$$$$$@@@oX",
"Xo$$$@$$$$$$--------;;;;;;;;;;;;;;;;;;;;;;;;--------$$$$$@$$@@oX",
"Xo$@$$@$$$$$$$%@%$%$%*@*%%$%*%%%$$$$$$$$$%*%$%@$$$$$$$$$$$$$@$oX",
"Xo@$@$$$$$$$$$@%$$%%**@%$$$$$%$$$$$$$$$%%*%*%$@$$$$$$$$$$$$$$@oX",
"Xo$@@@$$$$@$$$@$$%$%*%*@%$$$%$$$$$$$$$$$%*%%%$@$$$$$$$$$@$@@$$OX",
"Xo@@@$@$@$$@$$@%$$$%%%*@$$$$$$$$$$$$$$$%$%$$$%$@$$$$$$$$$@@$@@oX",
"Xo@$@@$$$@@$$$$@$$$$%%*$@$$$$$$$$$$$$$%%%%$$$$$@$$$$$@$$$$@@@@oX",
"Xo+@$@@$@@@$$@$@$$$%$$%%+$$$$$$$$$$$$%%$%$$$$$$$+@$@@$$@$@@$@@oX",
"Xo++@@@@$@@@@$@@@$$$$$$$$+$$$$$$$$$$%$$$$$$$@@@$@++@@@@$@@@@@@oX",
"Xo::::::::::::::::::::::::::::::::::::::::::::::::::::::::::::oX",
"Xo;;;;;;;;;;;;;;;;;;;;;;;;;;;;;;;;;;;;;;;;;;;;;;;;;;;;;;;;;;;-oX",
"Xo=----------------------------------------------------------=oX",
"Xo==---------------------------------------------------------=oX",
"XO===--------------------------------------------------------=oX",
"Xo==-==------------------------------------------------------=oX",
"Xo====-------------------------------------------------------=oX",
"XO====-=-------------------OOOOOOOOOO------------------------=oX",
"XO======----------------OOO.        .OOO--------------------=&oX",
"XO=====-=-------------OO.              .OO------------------=&OX",
"Xo&======-----------OO.                  .OO----------------=&OX",
"Xo=&====----------OO.                      .OO--------------=&OX",
"Xo&&=====--------O.                          .O-------------=&OX",
"Xo&=======-=----O.                            .O------------=&oX",
"Xo&==&=====----O.                              .O-----------=&oX",
"XO&&========---O                                O-----------=&oX",
"XO&&==========O                                  O---------=&=oX",
"XO&&=&========O                                  O--------===&OX",
"Xo&&&=&&=====O                                    O------====&oX",
"Xo&&&&&&&====O              ........              O-----====&&oX",
"XO&&&&&==&==O            ..............            O--=====&&#oX",
"XO&&&&&&====O         ....................         O===&=&=&##oX",
"Xo&&&&&&&&==O       ........................       O&&==&=&&##oX",
"Xo&&&&&&&&&&O     ............................     O&#&##&&###OX",
"XO&&&&&&&&&&O    ..............................    O##########OX",
"Xo++++++++@+O   ................................   O++++++++++OX",
"XoOOOoooooooooooooOOOoooOOOooooooooooooooooooooooooooOoOOooooOOX",
"XXXXXXXXXXXXXXXXXXXXXXXXXXXXXXXXXXXXXXXXXXXXXXXXXXXXXXXXXXXXXXXX"
};
