/* XPM */
static char *grass_path_side[] = {
/* columns rows colors chars-per-pixel */
"64 64 18 1 ",
"  c None",
". c #593D29",
"X c #68462F",
"o c #79553A",
"O c #7C6334",
"+ c #7E6356",
"@ c gray39",
"# c #757373",
"$ c gray49",
"% c #876041",
"& c #966C4A",
"* c #907540",
"= c #937C42",
"- c #AB7B56",
"; c #9E8245",
": c #AA8D4A",
"> c #B9855C",
", c gray53",
/* pixels */
"                                                                ",
"                                                                ",
"                                                                ",
"                                                                ",
"*=:*;*;*==*=;=;=;;*:=;=:;;==*;*;::;=;=;===;=;;;=;*;=;=;*;;=;;;*=",
"*=:*;*;*=**=;==:;*=:=;=:;*=*=;*;:;*=;=:;=;=*;;=*;**=;==*;;=;*=*=",
";:**:**=;*=*=*:;;*::;==*=*:*=*==;;*;::;*;*=*;*=;*;*==;*:;*==*=O*",
"=:*;;:*=;*=:;*:;*;:=:;=***:*O*==;=*=*:;*;*=;O*=;*O*;=;=:O;;:*;O;",
";:*;*:O==*:;*=:*;:;=*=*O*;==O*;;;==**;:**;=;O*;;=O;=;*:;O;:;;*=O",
";*:**;O*=;:;*:=*;*;=O=*O;**=.O;;=*=*;*::*=;=;*;=O=;;=*:;O*:;;*;O",
"*;==*;O*=;;;O*=;*;*;O*O.;*=*.O**;*O*;*:*O*;=*O=.O=.*=;*;*O=;*O*O",
"*==*;*O*;*O=O*==*;*;*O*X.;*O..**;*O*:*:*O*;:OO=.O=X.=;**;O*=;*O.",
";=*;*OOO*O;=*O=*O*O*OX*.X;*.o.*X;;O*:;*O==;:.O:o.O=o;O*;*O*O;*O.",
";;O;O.*O.O*=Oo=*O*O*;.X*X;*..*OX;*O;*;O**;:O.O:=.X=.;Oo*O.*O*oOX",
"*O*.XX*X.X*=OX*OO;*O;.XoX;.o.*Xo;O*=*:O*;*O*oO;:X.X.;*XOX.X*OX*o",
".O*X%oOXooX*.X*O*;XOXo.X;*.oXOX.*.O;*=OO;XO*Xo;:;ooO*XoOXX.*OoXO",
"X.O*$@#ooX*OoX*XO*XXoo.o*oX.Xo..OXO=;OXO*..OXoX;O.XO*XoXOoXOXo%o",
"&-&OO++%oXOXoo*oO*oXo.XX*XXXo%.OOX.=;..X**.O.oo;OXoXOoXooXO.ooXX",
"%>%%ooo%%O%o%&.XoO*%oX.*ooXooX.O..X*O.XoO*XoOoXOX.XoO*XoX..X%%oX",
"o&%ooXoo&&-%&%&X%-*-%&>&%o%o%..O.%XOO.oX.O.ooo;Xo..XoO*X..Xo&-%o",
"ooXX.XXoo%%&>%ooX%&*->&%o%o%%X..%%O*..oo.Oo&%%ooXoooX.X....Xo>%o",
"ooXX..XXoo&%%&o%Xo&%>&%%oXX%oXX.oOX..XXoX.*Xo&%ooXo%&ooX..Xoo&-%",
"&oooX..X.oo%&%&%ooX&&%&o%XXXXo&-&-oX...ooXXoXXooXX%&%%oXXoXXo%&%",
"%%&ooX..XXoXo&%ooXXo%&%ooo.Xo-&->-&oo...oXoXooXXXo&%o%Xoo%oo&-&&",
"&->%o.X...XXXoo+@##+ooo%X..o&-->&&-&ooX.XXo%%&%oXo&&ooXo%&%%>&->",
"->-&%ooXX.oo%%+@#,,#%oXo.XX%>>>>->&-%ooXXo%&&%&%XX%%%oXoo%&&>->-",
"-&>-%&XXooo&>&@$,,#@+&%X..oo%&->-->-&%X.o%-&->>-%oo%oXoo&%&-->&-",
"---&&ooXo%&->-+#$#@+--&oo.oo%>&-&&>>-&XX%&>->>>&%&oooX%o%&->->->",
"-&%o&%X.o&->&>&@$@+->->%XXXoo%&&%>&-%oXX%->>>-->&%XoXoo%&->&>-&>",
"&oo&%o..X%-->&>+@+&>->-%oo.X%%%%>%%&&oXo&>->>>-o%ooX.Xo%%&&->&&&",
"oXoXXX.Xoo%&&%>%%&->>&&&%oXXoo%%&&%%XXo%&>>&--%oXoX.X..oo%&&&&%o",
".XXo..XXXooo%&%&%%&-&--%&ooXXoXX%%XXooo&>>&-%-&%ooX.....Xooo%&oo",
"XX.X...oX%%oXo&%oo%&%&%&oX.o%ooooXXo->%->&&%&&%&%oXXoXX..XXo...X",
"XXooXX.o%o&%%XoooXo%%%&ooXooo%%-oo&-&-&%&--&%o&%oX.ooooX.oXX.XXo",
"oo%%oXXoo%%&o%X..Xoo%oooX..o%&->-XX&->-&%&&oooo&XXo-&%oo..XXXo%o",
"%%&&%X.Xoo&%%&X....X.XoXXoXo&%&->%XX&&>%&-%%o%&X.o&---&%XXo%o&-%",
"&&->&ooXXoo&%o.XX%oXoXX.XooXo%-&-&oXoo&%o&&%&&X.o&->>>-%oXo%&-&>",
"--&%%%ooXXooXXXXXo&oXXXXoo%o%o%&&%XX..ooXoo&%o.o->>--&%&%oX&->>-",
"->-&>&o.XooXXo%%o%o%o.oo&&oXooooXoX.oo%&%oooo..o&>-&-%&%%XXX>>->",
"&->>&%oX.XXXo%&&%oo&XX%&->%%%o%oXXXoo---&-&X.XXo%-&->>-&ooXo%->-",
"&&%&%ooX..XXo&>-&%-oX.&>>-&%o%o%.XXo%&>--&-&oX.oo%->&->%@#$XX>&%",
"%-&%%oXX..oo&->&>-&-XXo&->&>&o%&%Xo%&->>->-->.oXo%&-%%+#$$#+X%%o",
"o%%&oX...Xoo->>->->-o.X&%->-&>%&oXo&->>->--&%-oXXoo&%-@,,$$@oXoX",
"XoooX....XXo&-&>&>-oo.Xo&%&&-&&%o+o&>->&->-&-&ooXoXo&+#$,,@.oXoX",
".XXoX.XoX.oo%%-&->&o%oXo%&%%&%o+$@+o%>->&-&-&%%%&%oXoo@@$#@+..XX",
"..X.XXoooX.o%&%->-o%%Xo%&-&ooo+@,$#+o&-&-&%&%oo&&ooXXoo+@++o..Xo",
"X...o%%%oo..X%%&>%&&oX%>->%&%o@,$,#@o%&%&%&%oX&%%XXoo%%%oo%o..o%",
"oX.oo%&&%oX..%&%%&%o.X%&>>-&%%$,,$$+oo%&%%ooXXooXXoo%&&&%&o%X.%%",
"%o.Xo&%-%&%X.X%&%%oX.o->&->-%oo@#$@o%%ooooXXXoXX.o%%&&%&o&%oo.oo",
"o..X&->%&-&%..%%o..Xo&>-->>&-o.+@+o%&&%%oXoXoo%X.o&%&%o%%&%%o.Xo",
"o.Xo&>-&-&>&X.Xo.XX.%%&>&>-&%oXXoo%&%&%o%%XXo%o..Xo&%%%oo%%oXXX.",
".XXo%->-&->-X..Xo.Xo%&--&&>&o%oo.X%%o%&%&%oX&&%&..oXoooo%XXXoooX",
"...o&&->>>-%&XX.XXoo%%>&%o%o%ooX.XXoXXo&%XXo%%%o.oXXX..XXo&%%%oo",
"oX.Xo%&--&--%o..X.oXo%-%&%o%&%XX&o%X....XXoooooo.XXX..Xoo%%-&o%o",
"%oo.Xo%&%-&%oXXXX..Xooo&%%&&%Xo%%%o%oX..Xo%&>-%oXX...oo%%--&>&%&",
"%o%Xoo%%&&%o.ooX....XoXo%&%%.Xo%&o%%o.oo%&&->&&%oXoXXoo&&%->->&%",
"&%&%Xooo%XXoXXoo.oX.X..XXooX.X%&o%&XX>&%%>->-&o&Xo..XX&&>>>->>&>",
">-&%X.X.oX..XXooXXo...Xoo++oX.&&%XX%&-&-&%&->-&ooX.X.Xo%&>->->>-",
"->-&oX....oX&%&oooo..oX+@##+X.XXXo&&>&>>-&oo&&%X.XX.X.o&>-&->>--",
">&%ooXooX.&&-->&%oXX.X+@#,$#oX..o--->-&&&oo&%o...XXo...o%%&%>>%&",
">%&o.X%o&>&->>--&%ooXo+#$,,$+o.o&&>>-&%%ooXoX..XXoXooo.Xoo%&&%>&",
"&%o..&%&%&&>>->>--&%Xo#,,$#@+o.o&%->%&o&ooXoo..o&%%oo%%.Xooo&%&>",
"%oX.X&%%-&>-&>-->-%X.o+@$@#+ooXX%%%&&o%&oX..XXoo%o&%%&%X..Xo%%&%",
"o..o->-&&>>-%&>&-ooXoXo+@++oXX.Xo&%%oo&oXX.XXoXXo%o-%%ooX..Xo%%%"
};
