/* XPM */
static char *iron_ore[] = {
/* columns rows colors chars-per-pixel */
"64 64 8 1 ",
"  c #686868",
". c #747474",
"X c gray50",
"o c #AF8E77",
"O c gray56",
"+ c #BC9980",
"@ c #D8AF93",
"# c #E2C0AA",
/* pixels */
"OOOXOXOXX.XXXXXOOX..XXXXX.XX...XX X  .XXX.XXX...X.X.XX..X..XXXXX",
"OXOOXOOOOO...XOOOOO.OOO......OOX.O..  .. X... ...XOOOXOOXX..XOXX",
"XXOOOOXOXXO.X..OXXOO...XXXOXXXOOOXXOO.    .  ..OOOXO.OOXOOOO...X",
"XXXOOXXXXXXXXX.X.X..X.X.XOXX....OOXXXO.. .  ..XXXXX.OO...XOXXOOX",
"X.XXX....X.XXXXX....XXXXOOOOXOXXXX.XXXXX.X.XXXX..X. ..XXX..XXX.X",
"...XXXX...XXOO . OO....XXXOOOXX.X...X...XXXXXX....    . XX..XX.X",
"X.XO.XXXX.OOX .    OXX..X.XOXXXX.X.XXX XX.. ... . .      .XX...X",
"XOX.XX   X..X. @+ X  .XX...XXX...XXX.X.. .   .      @#@.   XX.X.",
"XOO....X    . o+@@      XX... . ... . . .  .XX .  +@###+@ XOXXXO",
"OO..XX... .. . @+@o . .. XX.     .   ... ....X. Xo@##@#@+o XX.OX",
"XXXXX.XX..X  .Oo+++oO...XOO X @+  . ...XX.X.XX..+++@+@@+oOXX..XX",
"X... X..XXX..X.O+ooO..XXO.   #@#@    . .XXXX....oo++++ooXOO.....",
"..  . XX.XX.OXOO.OOOOOXX.X. @#####@+  OO.....X.OOooo+o.OO.X.XX.X",
"X X...XXOX.OOOOOXOXXOXOOXX.X+@##@@++oO XO.XXXXX.OOoooXOX...XXXX.",
"XXXX.OOOOOOOXX..OX.OXXXOOXO.Oo+@#+ooO.X..X..X..XOOOXOOXO.XXX..XX",
"XXXXXXOO.XO.XXX... XXXOXOOXOOO++ooOOOO.X......X.OXOO..OO .X..X.X",
"X.X.XX..XO.XOXX .  .  ..OX.XXOOOOOXOXOOOXX.XXXOXXOXO..     XX...",
"...X..X..XXOOO.X .   .  O ..X..OXX..XXOXOOXXOOXXOOOX.   X X.XXX.",
".XX..X.XX..X...   .X X.  XX..XX....XX..XOX O   X X.  . .XXOOXXXX",
"XXXXXXXX.....XX.X.  X   X  X X XX. X..XXX X      X ....XXO.OOOXO",
"X.XX..XOOXX.XX.XX     #@#@    ..   .X. X   .#+oo   X.X......XOOX",
"OXO.O.OOXOXXXXXX X   @#####@   O .  XX.  .##@@@+o ..XX .  . .XO.",
"XOOOOOXX.XX.XX. X  @@####+@++o  XXX.    .+@####@++ .  .  .XX...X",
"XXOX....XX.X..   +@@####@@+@++o  OXX. X +@+##@@+oo  .. .XX.XX.XX",
"XXXXXX.XXOOOXXO +o++@+@@+@@++o+o  .OX..o++#@@@+o+o ...XX....XXXX",
"X.XXX.XXX.XOOO ooo+o++++@@++o+oo .OOXX.o++@+@++oo.OOX...O.OXX.X.",
"XX.X....XX.XXOXOooo++o+++++ooooOOX ...OOoo+o++ooOOOXOOOOOOX....X",
"XX...X X . .XXXOOOooo+o+ooooOOOO.O..XXO.OX++ooOOOXXX OXOXX.XX..X",
"X.X X X    . .  .OOOOooooOOO..O  ..XX..OOOOXOOOXOO  .XX...X.XX..",
"....      .    .. XO.OOOOOO.O.. .XXX..OXO.OO.OX.X. .X..XXX.....X",
".X    +@#@  .. . .   .OO.O.. ...X X. .XXXX.XOX....X.XX.X...X.XXX",
"X... +####@   ......  .OOXXX..X .    O X XX...XXX.XX......XXXXXX",
"..  @+@#@@#+  .  ..  .X.X.X.. XX  +@o   OX XOOOXOX...XX.XX.X.XX.",
".XOX+@#@#++o .  ......XX...XOX  ++@++@o      XOOXXXXX..XXX......",
"XXOOOo++oooXOX...XXOXOX...XOO  +@##@#@#@@  .X..XXXXOX..O.XX..XXX",
"XOOXOOooOOO.XOX.X OOOOOXXX. O +@####@@@##@  O.XXXXOOOXOOO...O.OO",
"OOXXXOOOO.OOOOO  OX. .X..XXX o+#@#@@+###@@oo OOXXOXOOOXOXOXOOOOX",
"XXO.XX.OXOOO. .O    .   OOOXOo@@o@@o++o+oooOOOXOXOOX.OOXXOOO.OX.",
".X....X...O..   . ++  .OOXOOOXoo+o++ooooXOO.OXOOOOX. .OOOOOXXX..",
"...XX..XXX. X.   +@@+X  X.XOXOOOXooo+XOOOO.O..XOOXXX.X.XOXX....X",
" ...XX..XXXX  +o#@##@o  . .. O.OOXXOOO.XXXOXX..XX..X. .   ... ..",
"  . . ...X.X oo+@##@+o X..   .. OOO O.OOXO.... .XX .    .. .  ..",
"..   .X.X . X.oo@+#ooXO.  . .  ..  ..OOXXOX  .X     ... .XX  .  ",
" .. ..XX..    OO+oooOO   ... .  ... XXOOOO .X    .    XX XO.X.. ",
"XX.XOOOXXO..OO.OOOX.OOX..X....XXXXXXXOX      @++o  .  .  ..OXXXX",
"X...XXOOOOOO.OO.XOOOXO.X..OXXXXOXXO OO X   ++@@@+oo   . .XOOOXOX",
".XX..OOXO...OXO.OO.OOXXOXXXOOOOOOOO      +@@###@#@@++  O. XXOOOO",
"XXXXOXXX..XX..XX..XXOOOOOOOO.XXOOX.X  ++@@#########@+o O   XXOXO",
"OXXX...XXX.XX . .XO XOXOOXX.X.X.X  o++@@###@#+@@++@+++o .O. .XXX",
"OOXOO...XXX  .     XXXO.X..  ..   ++@@###@@+@@+++o+o+oo. O   ..X",
"..OOXX.XXX... ++. .  OX..   .    ++@####@++o+++ooo++ooO.OX..XXX.",
"X...X.XXX..  +#@+.  X X..X..  .. +@##@#@+@oo++ooo+ooXOXOX.X.XX..",
"OXX..XXXOOX +####@#+   .OOOX.    Oo+@@@++++oooooOOOOOXO..X....X.",
"XOXOOXOOXO Xo+@#@@+oo OOOOXXXXOOOO.o+@+++oo+ooOOXOOOOOX....X.XXX",
"XOOOXOO...O.Oo+o@+oo  OXOXXXXXOOO.O.ooo+++oooOO.OOXOO.X.X.XOOX.X",
"OXOXOO..X..OO.++oo.OXXOXXOOXOXOXOOXOOXoo+oOOXOOO.OX..O.XXXXXOOO.",
"XOXXX.XXXXXXO..OXXOOO...OOOOOOX..XOOOOOOOOOOXXOOXX.OOXX.XXX.XXOO",
"XX..XX....XXXOO.OOOXX.O..XOO....X...OXXO.XXOOXXOOOXXOOOO....OXOX",
"X......XX..X..XOOOXXOOX.....OX.XXO.XX.XXXOOO..XXXOOOOO..OOOOOOXX",
"..XX..XX....XXOXXX.XOX.XXXOOXOXOOXXXOXOXOOXXX...XX.O...XX.XOOXXX",
"XX.OXXXOOX...XXX..X.X.XX..XXOOOXOO...OOOOXXXXOXX..XXX.   ...X  X",
"OOOXXXOOXXXX...XX.XX..X.....XX......OOXXOXOXOOXOO..X...   ..  X.",
"OXOOXOOXOOX.XX...OO....OXXO.....XX...XXOXXOOOXOOXX.... .X.  .. X",
"XXXOOOXXXOOXXXXXO..OXOXXX.XX..XXX.XX..OXOOXXOOXXX....XX..XXX.X.X"
};
