/* XPM */
static char *iron_block[] = {
/* columns rows colors chars-per-pixel */
"64 64 21 1 ",
"  c #8B8A8A",
". c gray57",
"X c #979797",
"o c #A3A2A2",
"O c #A4A2A2",
"+ c #B1B0B0",
"@ c #B9B9B9",
"# c #C1C1C1",
"$ c #C6C6C6",
"% c #C9C8C8",
"& c gray80",
"* c #D1CFCF",
"= c #D0D0D0",
"- c gray84",
"; c gray86",
": c gainsboro",
"> c gray88",
", c #E6E6E6",
"< c #EEEBEB",
"1 c #ECECEC",
"2 c gray95",
/* pixels */
"<<;;;;;;;;<<<<<<<<<<<<<<<;;;;;<<<<<;;;;<<<<<;;;;;;;;;;;;;;;;;;<*",
"<**###**********************####**###***************#######****O",
"<#22222222222211111111111111,,,,,,,,,,,,,,,,,,,,,,,,,,,,,,,,,,#O",
"<#111111111111,,,,,,,,,,,,,,,,,,,,,,,,,,,,,,,,,,,,,,,,,,,,,,,,#O",
"<#,,,,,,,,,,,,,,,,,,,,,,,,,,,,,,,,,,,,,,,,,,,,,,,,,,,,,,,,,,,,@X",
";#,,,,,,,,,,,,,,,,,,,,,,,,,,,,,,,,,,,,,,,,,,,,,,,,,,,,,,,,,,,,@.",
"%+:::::::::::::::::::::>>>>>>>>>>>>>>>>>>>>>>-----------------+ ",
"%o&&&&&&&&&&&&&&&&&&&&&&&&================$$$$$$$$$$$$$$$$$$$$o ",
";#222222222222222222222211111111,,,,,,,,,,,,,,,,,,,,,,,,,,,,,,@.",
";#1111111111111111111111,,,,,,,,,,,,,,,,,,,,,,,,,,,,,,,,,,,,,,@.",
";#,,,,,,,,,,,,,,,,,,,,,,,,,,,,,,,,,,,,,,,,,,,,,,,,,,,,,,,,,,,,@.",
";#,,,,,,,,,,,,,,,,,,,,,,,,,,,,,,,,,,,,,,,,,,,,,,,,,,,,,,,,,,,,@.",
"%+::::::::::::::::>>>>>>>>>>>>>>>>>>>-------------------------+ ",
"%o&&&&&&&&&&&&&&&&&&==============$$$$$$$$$$$$$$$$$$$$$$$$$$$$o ",
";#22221111111111,,,,,,,,,,,,,,,,,,,,,,,,,,,,,,,,,,,,,,,,,,,,,,@.",
";#1111,,,,,,,,,,,,,,,,,,,,,,,,,,,,,,,,,,,,,,,,,,,,,,,,,,,,,,,,@.",
";#,,,,,,,,,,,,,,,,,,,,,,,,,,,,,,,,,,,,,,,,,,,,,,,,,,,,,,,,,,,,@.",
";#,,,,,,,,,,,,,,,,,,,,,,,,,,,,,,,,,,,,,,,,,,,,,,,,,,,,,,,,,,,,@.",
"%+:::::::::::::::::::::::>>>>>>>>>>>>>>>>>>>>-----------------+ ",
"%o&&&&&&&&&&&&&&&&&&&&&&&&&&==============$$$$$$$$$$$$$$$$$$$$o ",
";#222222222222221111111111,,,,,,,,,,,,,,,,,,,,,,,,,,,,,,,,,,,,@.",
";#11111111111111,,,,,,,,,,,,,,,,,,,,,,,,,,,,,,,,,,,,,,,,,,,,,,@.",
";#,,,,,,,,,,,,,,,,,,,,,,,,,,,,,,,,,,,,,,,,,,,,,,,,,,,,,,,,,,,,@.",
";#,,,,,,,,,,,,,,,,,,,,,,,,,,,,,,,,,,,,,,,,,,,,,,,,,,,,,,,,,,,,@.",
"%+:::::::::::::::::::::::::>>>>>>>>>>>>>>>>>------------------+ ",
"%o&&&&&&&&&&&&&&&&&&&&&&================$$$$$$$$$$$$$$$$$$$$$$o ",
";#2222222222222222222222222211111111,,,,,,,,,,,,,,,,,,,,,,,,,,@.",
";#11111111111111111111111111,,,,,,,,,,,,,,,,,,,,,,,,,,,,,,,,,,@.",
";#,,,,,,,,,,,,,,,,,,,,,,,,,,,,,,,,,,,,,,,,,,,,,,,,,,,,,,,,,,,,@.",
";#,,,,,,,,,,,,,,,,,,,,,,,,,,,,,,,,,,,,,,,,,,,,,,,,,,,,,,,,,,,,@.",
"%+::::::::::::::::::::::::::>>>>>>>>>>>>>---------------------+ ",
"%o&&&&&&&&&&&&&&&&&&&&&&&&&&&&&&==============$$$$$$$$$$$$$$$$o ",
";#22222211111111111111111111,,,,,,,,,,,,,,,,,,,,,,,,,,,,,,,,,,@.",
";#111111,,,,,,,,,,,,,,,,,,,,,,,,,,,,,,,,,,,,,,,,,,,,,,,,,,,,,,@.",
";#,,,,,,,,,,,,,,,,,,,,,,,,,,,,,,,,,,,,,,,,,,,,,,,,,,,,,,,,,,,,@.",
";#,,,,,,,,,,,,,,,,,,,,,,,,,,,,,,,,,,,,,,,,,,,,,,,,,,,,,,,,,,,,@.",
"%+::::::::::::::::::::::>>>>>>>>>>>>>>>---------------------::+ ",
"%o&&&&&&&&&&&&&&&&&&&&&&&&&=========$$$$$$$$$$$$$$$$$$$$$$$$&&o ",
";#222222222222111111111111111111,,,,,,,,,,,,,,,,,,,,,,,,,,,,,,@.",
";#111111111111,,,,,,,,,,,,,,,,,,,,,,,,,,,,,,,,,,,,,,,,,,,,,,,,@.",
";#,,,,,,,,,,,,,,,,,,,,,,,,,,,,,,,,,,,,,,,,,,,,,,,,,,,,,,,,,,,,@.",
";#,,,,,,,,,,,,,,,,,,,,,,,,,,,,,,,,,,,,,,,,,,,,,,,,,,,,,,,,,,,,@.",
"%+:::::::::::::::::::::::::>>>>>>>>>>>>>>>>-------------------+ ",
"%o&&&&&&&&&&&&&&&&&&&&&&&&&&&&================$$$$$$$$$$$$$$$$o ",
";#222222222222222222111111111111,,,,,,,,,,,,,,,,,,,,,,,,,,,,,,@.",
";#,,,,,,,,,,,,,,,,,,,,,,,,,,,,,,,,,,,,,,,,,,,,,,,,,,,,,,,,,,,,@.",
";#,,,,,,,,,,,,,,,,,,,,,,,,,,,,,,,,,,,,,,,,,,,,,,,,,,,,,,,,,,,,@.",
";#,,,,,,,,,,,,,,,,,,,,,,,,,,,,,,,,,,,,,,,,,,,,,,,,,,,,,,,,,,,,@.",
"%+::::::::::::::::::::::::>>>>>>>>>>>>>-----------------------+ ",
"%o&&&&&&&&&&&&&&&&&&&&&&============$$$$$$$$$$$$$$$$$$$$$$$$$$o ",
";#2222111111111111,,,,,,,,,,,,,,,,,,,,,,,,,,,,,,,,,,,,,,,,,,,,@.",
";#1111,,,,,,,,,,,,,,,,,,,,,,,,,,,,,,,,,,,,,,,,,,,,,,,,,,,,,,,,@.",
";#,,,,,,,,,,,,,,,,,,,,,,,,,,,,,,,,,,,,,,,,,,,,,,,,,,,,,,,,,,,,@.",
";#,,,,,,,,,,,,,,,,,,,,,,,,,,,,,,,,,,,,,,,,,,,,,,,,,,,,,,,,,,,,@.",
"%+::::::::::::::::::::::::::::::>>>>>>>>>>>>>>----------------+ ",
"%o&&&&&&&&&&&&&&&&&&&&&&&&&&&&&&==============$$$$$$$$$$$$$$$$o ",
";#222222221111111111,,,,,,,,,,,,,,,,,,,,,,,,,,,,,,,,,,,,,,,,,,@.",
";#11111111,,,,,,,,,,,,,,,,,,,,,,,,,,,,,,,,,,,,,,,,,,,,,,,,,,,,@.",
";#,,,,,,,,,,,,,,,,,,,,,,,,,,,,,,,,,,,,,,,,,,,,,,,,,,,,,,,,,,,,@.",
";#,,,,,,,,,,,,,,,,,,,,,,,,,,,,,,,,,,,,,,,,,,,,,,,,,,,,,,,,,,,,@.",
"%+::::::::::::::::::::::::::::::>>>>>>>>>>--------------------+ ",
"%o&&&&&&&&&&&&&&&&&&&&&&&&&&&&================$$$$$$$$$$$$$$$$o ",
";#######################@@@@@@#####@@@@@@@@@@@@@@@@@@@@@@@@@@@@.",
"#XXXXXXXXXXXXXXXXXX.........XXXX................................"
};
