/* XPM */
static char *lapis_ore[] = {
/* columns rows colors chars-per-pixel */
"64 64 10 1 ",
"  c #686868",
". c #747474",
"X c gray50",
"o c #10349C",
"O c #1034BD",
"+ c #16448D",
"@ c #20598B",
"# c #1044AC",
"$ c #1855BD",
"% c gray56",
/* pixels */
"%%%X%X%XX.XXXXX%%X..XXXXX.XX...XX X  .XXX.XXX...X.X.XX..X..XXXXX",
"%X%%X%%%%%...X%%%%%.%%%......%%X.%..  .. X... ...X%%%X%%XX..X%XX",
"XX%%%%X%XX%.X..%XX%%...XXX%XXX%%%XX%%.    .  ..%%%X%.%%X%%%%...X",
"XXX%%XXXXXX X .X X. X.X X XX....%%XXX%.. .  ..XXXXX.%%...X%XX%%X",
"X.XXX...  .X      .    X%%%%X%XXXX.XXXXX.X.XXXX..X. ..XXX..XXX.X",
"...XXXX.. XX%  .   ##OO  X  %XX.X...X...XXXXXX..     ..XXX..XX.X",
"X.X%. X X.% X   @@#$#$#O . %XXX .X  XX XX.. ...  ...+@#@ .XX...X",
"X%X.XX   X    @$@$##$$$#@  X X..      .. .   . .. .+#O@@#%.XX.X.",
"X%%....X   +@@O#$$$$$$#O#@  . . . @@@@  .  .XXX...+#O@O#@+X%XXX%",
"%%..XX.. ++#$$#@#O$+#o$OO@ .     @O#@o@  ....X.XX+#O$#O#+o%XX.%X",
"XXXXX.X ++$$$#$#OO+O++o+O#%%X.  o##OOOoOX.X.XX..$$$$Oo+#+.XX..XX",
"X... X .+$$$##$$#OOo+oo##OX%%X #O#O$oo#@ XXX...@O$OoOOo+XX......",
"..  . X .++$$%%%++#+oo+o+%.%X O#@$$#++O@.....X@O@Oo+o++XX.X.XX.X",
"X X...X %%XX%X%X%X++@o@@%X%X o@$$O#oOo+%% XXXX@Ooooo++XX...XXXX.",
"XXXX.%%%%%%%XX%%%%%%+@%%%X%.#$$$ooO#O+%%.X..X..@OOooX.X..XXX..XX",
"XXXXXX%%.X%.X%%.%% %%X%X%%X%o#$o#ooO%%%X......X.@@...... .X..X.X",
"X.X.XX..X%.X%XX%.  X%%..%X.XXo##@o%XX%%%XX.XX%XXX%X%..     XX...",
"...X..X..XX%%%.X .   .  X...X%@@X%..XX%X%%XX%X%%%%%X.   X X.XXX.",
".XX..X.XX..X.....X.X  .XX  . .X....XX..X%X%%%%X%XX.  . .XX%%XXXX",
"XXXXXXXX.....XX.X. .X     . XX XX. X..XXXX %  .X.X.....XX%.%%%X%",
"X.XX..X%%XX.XX.XX %   @##OO   ..   .X.  X  +@@   .XX.X......X%%X",
"%X%.%.%%X%XXXXX     @##$#$#OO  %X.  XX.  +$##@+ XX..XX .  . .X%.",
"X%%%%%XX.XX.XX..  oo#$$$$#O#O# X XX.    #O$$@#$+   .  .  .XX...X",
"XX%X....X  X..X.@@##$$#$#o#o#O@ %%XX. XOO$#O#$++% . .. .XX.XX.XX",
"XXXXXX.  .  X %Oo##$####$#oo#oO%.%.%X.O#$##OoO$+%.....XX....XXXX",
"X.XXX X .    %%O#O###Oo#OOo#o#oo..%%X%##$+OoO$+@.%%%X...%.%XX.X.",
"XX.X.  .@@+oX X@O#O#O#OO#ooOooO#%X ...X@+#o@oo@%%%XX%%%%%%X....X",
"XX.  . #++O+O  XOO#+##O#oOOO#oOo% ..XX%%%+oo@@X% X%X %X%XX.XX..X",
"X.X.  #O$+$O$@  %%+@++@@XXo#O#o% ..XX..X%%%X%%% %   .XX...X.XX..",
"...X O#$#$$$#@ .. %%+o%%%%% @@%%.%XX... .. %%% . . .X..XXX.....X",
". X #+$##O$O+O%. . %%%%%%X%%%..%%.X.X  X   XXX....X.XX.X...X.XXX",
"X...O##oOoO$#o%%..%%%.%..%XX %%X          @@  XX .XX......XXXXXX",
".. X@#OO++oOO%%. %.  .X.X.X. @# X .X  $+$+#$$ % %X...XX.XX.X.XX.",
".XXX@###ooOo@% %......XX..  @##@##  @@$$+#$$#$ %XXXXX..XXX......",
"XX%%%XOooOO@%%.%.XX%X%X... @###$$OOO#$++++@$+#+ XXX%X.  .  %.XXX",
"X%%X%%X%O@@.X%X.X.%%%%%XXX.@$#$#$$O$O$$++O$++++  X%%%X   . .%.%%",
"%%X%X.%%%%%%%%%X%%X.%.X..XXX#$$#O$$$#O#$#+OO@+@ X%X%%%X ##@ %%%X",
"XX%.XX%.X%%%.%.%%X......%%%X@###$O##O++O#o@O+o% X%%X.  @##O@.%X.",
".X....X...%...     .%%.%%X%%%@#$##O#+O##oOOoo@%%%%X  .##O$OOo...",
"...XX..XXX.X   .@@  %X%%X.X%%@#O#OooO#ooOOoo@X%%%XX   ##$O#oo%.X",
" ...XX..XXXX  o@O$$#  ... ..%%O#OOOO##oOOo@o%%.XX.. .O#$O#o#@%..",
"  . . .    @@o#O$#O+@ XX..   %%@OO###Oooo+%%%% .XX  @#$Ooo#o%%..",
"..   . +@O#OO#$$OOo#+X..  . %% .@@ .oo++%%XX%.X    @O$$oOOoo %. ",
" .. . OOO+O$#$$#Oo#+@    ... .%%%%% %%%%%%%.XXXX   @#$#o#+#o%.. ",
"XX.X% +O+OO#O#OOo#++  X..X....XXXXX%X% %XXX%%X%X  O#$$$oO@o%%.XX",
"X...X  +OO###Ooooo.%%%.X..%XXXX%XX%%%%%     .X%. X##$###O+@%%X%X",
".XX..%%X++O#oOo@%%%%%XX%XXX%%%%%%%%X%  ##$    .  @O$##OO+o@X%%%%",
"XXXX%X%X.%++oo%%%.X     %%%%.XX%% .   #$$+O@% X %OO###+Ooo%XX%X%",
"%XXX...%%%%%%X..%%  X    XX.X.X.XX  #+$$O+++@%% OOo#OO+o+X% .XXX",
"%%X%%...XXXX%%%%X %   ##@    ...  .##$$OO#O+@%% #oO#oOoo+%%% ..X",
"..%%XX.XXX...    X  #OO$#O. .    X#$$#Oo##+@ %.X.#OoOooO%%%%XXX.",
"X...X.XXX..X .  . @@#O$OO#O.   .O#$@#OoO+Oo %...  @ooOo%%.%.XX..",
"%XX..XXX%%X%XX . ##$$$$#+++.. #O#@@#OooO++%%%. . %%%@@%%.X....X.",
"X%X%%X%%X%%XXX.% #$$#O#++#+@.X@O@@##oOoo %%X.   . %%%%%%...X.XXX",
"X%%%X%%...X.XXX%o##oo#o+#+Oo%X%##O#O++%%%   ..X...XX..X.X.X%%X.X",
"%X%X%%..X......%oo#+oo+OOOoo%X%X@@O#%%%%%%%  ..X.XX..%.XXXXX%%%.",
"X%XXX.XXXXXX.%%%X++oOOo+oOo%%%X.%%%%%%%X...XXX%%XX.%%XX.XXX.XX%%",
"XX..XX....XXXX%%%X+o@@OOoo+%....X....XX..XX%%XX%%%XX%%%%....%X%X",
"X......XX..X..XX%%%@oO+oo+%%%X.XX%.XX.XXX%%%..XXX%%%%%..%%%%%%XX",
"..XX..XX....XX%%%%%%@oooX%X%X%X%%XXX%X%X%%XXX...XX.%...XX.X%%XXX",
"XX.%XXX%%X...XXX%XX%%%%%%%%XX%%X%%...%%%%XXXX%XX..XXX.   ...X  X",
"%%%XXX%%XXXX...XXXXX..X.....XX......%%XX%X%X%%X%%..X...   ..  X.",
"%X%%X%%X%%X.XX...%%....%XX%.....XX...XX%XX%%%X%%XX.... .X.  .. X",
"XXX%%%XXX%%XXXXX%..%X%XXX.XX..XXX.XX..%X%%XX%%XXX....XX..XXX.X.X"
};
