/* XPM */
static char *pink_concrete[] = {
/* columns rows colors chars-per-pixel */
"64 64 8 1 ",
"  c #D5668F",
". c #D56690",
"X c #D56790",
"o c #D56791",
"O c #D56891",
"+ c #D66892",
"@ c #D66992",
"# c #D66993",
/* pixels */
"++X+O O O .O .O.O.O.O.O.#.....#++++OOOO+..##..####....O....O ..#",
"+++++O OO+.O.O.+.O.#.O.#...##.#+.O O++ O#....#...#.#.O.O.O.O.O..",
"XX+XO O O O...#.O.O.O...O#.#+#. O OO+ O+.OO...O. O.OO.O+O.O.....",
"XX+X O O+ .+..#.#.#O.O.###.O.. O+O +OOO+O#.O#..#O.O..O+O+O.#...O",
"+X+X+OO  + +..#.#.O..OO..X.##.O ..O.O O+O.O.O+O O#O O+O.OO+O.+..",
"XX+XOO O++OO.#..O..OO.##.#.+#. OOO.O+O O.O.O O O.O O OO+.+  .+..",
"++X+OOO O+ ++..+.O.O.O.O.O#O..#..OO.+ +OO.O O O+O#O.OOO O. OO++O",
"+X++OOO+ +OO.+++O.O.O.#.O.#.#.+O#.+OOO+O.O O O+OO.+O ++O.OO O O.",
"OOO# O OO O.O##O.+O O..#..#OO+ O..O.O#.O#.## O+++O+O... O+.#O.O.",
"++..++OO O.O.+ O++ O.OO...##O.O..O.O.OO..O.#O++ + O.O.OOO#O.##.O",
"O .OOO++O O.O+O +O+OO.OOO.O...#OO.O#O.O #OO.OOO.O++O#.+O.O.O.OO#",
"O+O O++O+O+O O.+#.O..O#.#...O....O.# O O..O##+ O+O#.#..OO O.O##.",
"O O..+O+O.#.O.O.++OO+...O..#O O.#O#O++++#..#.#OO+ O #O.#O.O.  +O",
"+O.OO.O...#O.O.O OO +.###....O.##..OO. OO.#.O#.OO+ O.OO..O.O.O.O",
"O+#O.OO.O.O.O.O.O O +...O##.O.OOOO.#+O++.O.O.#..OOO+O..OO.O.O O.",
"O.O+O#.O.O.O.O O O+O.O#.#..#.O...#O..++ O.O.###O + O#.O.O#.O.O.O",
"+OO +.O..O.O.O.#O..O#O.#.##.#O.+.OO+ OO+.O#OO.+.++OOO.O.#.O#.O.O",
"O .O.O.OO.O..#O..OO..#.O.#...#O.O.O O  .O.#..OOOO+O+.O.OO...O.#.",
"..####O..O..O#.OOO.OO#O.O##..O#..O O O+ .O#OO.+OOO OO.O..#.#O..#",
"O#O+O#.OOOOO.OO..##...#O.O..O..##.OO+ O+#..O.O+O+#+..O.OO..#.#O.",
"#+..#+O..O##.#.OO..#OOO..O...O.OO .O+++.O.O#.#O O #.O.#...#.O...",
"+O##.O+O.##...O..O#O OOOO.O#O.O..O+ +.++#.##O..O.OO..O.##.#O.###",
"O+.++.O+.###O#.OO.O.O.O....O.O O#.O.++++#...OO.OO.OOO.#.#.#.#...",
"OOO+OO.O.#.#O.O..O.O.O OOO+ O.O....+..+#..##+O+ .O.#.OO#...O...#",
"+.#.#.#O...OO#.OO.O.O + OOO.O.O..++ O .+.O.O.+OO... #O.O#..#..#.",
"+.O#.#O.O##......OO#O+OO.+#O.O+O.+ O O...#O+OO+ O..O..O##..O#.#.",
"+OO .O.O..#..O.O O.OO..O.O.OO.O +..O +++#... +OO.OO .O#...O.#ooo",
".+ O..O.##..O.O.O.O++O#.O.O. O.O...+OO++O#O.O O O..O#..#.O.#oooo",
".#+.O..##.#O#..O O#.#+#O.O#.O.O.++OO O +#..... o..#o.O..#..#o#.O",
"O....OO##...#OO#O.+O+O.OO.#OO#.O+.+#O O+#.OOO.. O.ooO.#.OO#.O.O.",
"O.+OO.#...##.O.. O.+O O...O##O#++O+++OO O##...oooooo.O.O.O.##.#.",
" ....O#.#O#.O.O#+#+O O O#O.##..OO  O  O+#..... oooo O.O.OO..#O.O",
"O +.....O++O.O O+.#.O++O#.O##..O.O++O.O O+.O.O.O.O.O O +OOO+++O ",
" OOO#.+O+.O.O+OOOO#OO O .O..#O#.#.O O O..+O+O..O..#.O O O+ +++ O",
"O O+O.++O .O.O.+O+O.+O O#O#.O.#O#O O.O O.OO...O.#....O+O+O O+OO+",
"+O.OO+OOO+OO+.O+ O+O.#OOO.O.#O.OO.O O O..O.O#..OO.##O+..O O+O+ O",
"OOO. O O.O O.O+OOOO+#O.+.#O..O.. O.O.O.O+O+ OOO .O#.O#++O + O +O",
".++OO+++O+O OOO. + O.OO O..OO.#OO.O#O.#.O+OO++ O#..##..# OOO+OO+",
"O.O.++ OO++ .+O+O+O+OOOO#.#O#..# OO.O.O.O.O+O ++O.O.#o##+O+OO++O",
".O.O +O +++OO+.+.O O.#O.OO#..O..O .O.O.O##.O+O +.O.#o#..O+O+ O+O",
"O+O.O.O.+++O.O+O+OO.O+O##O..O..O.O.O..##.#.#O +O.O.##.O.+OO.O#.#",
".O.O.OO.+.O.++.OOO+O.OO..OO##OO.O.#.#....#....O O#....#O+O.O.O.O",
"O O..O.O.++O+.++#.O..#.OO.OO.O.OO.O+.O.OO##..O...O.#.#O.O + .##O",
".O OO.O.#..#O.++.O.O..O..O +O.O..O+OO.O.#.#.+.#.#.O.O... OOO..O.",
"+O#...O.O.O..OO.O.O.##..O.O.O..O+O+#OO.O.##.#.##...O..O.#..O##..",
".##O.O.OOO.O#.###O.O...OO+ O.#O.+O.O+.O.O..#.#.#.#O..##...O##..O",
".OO..O####.O#.#..OO.O.O.O O.O #.O ++OO.O##....##.O.O....O#O.O.O.",
"O..O#.#OO OO.OO.O..O.O.OO+ OOO#.+OOOO.O...#.#O..O...O.O..#.O.O.O",
".O O#.#..+++O+O+ooo#.#.#OOOOO.#OO..OO.O.O++O++++...O.O.O.O.O.O.O",
"O +....#++ ++ O+o#O.#..#.O.O.OO...#..O.#O O++O++#OO.O.O.O.O.O.O.",
"OO#O##.#+O.O.O O#o..O.#..O#O.#.OO..OO..O+OOOOO+OOO.OO#.#..OO....",
"++O+..#.O.O O.O...##.#.##O.OO.O..OO.O.O.+ + O+.OO.O..O#OO#..O#.O",
"O+#.O..+##O#.O.OO.O##O##O.+O+OOOO.#..O.OOO+OO++..OO.O.O.O...###O",
".O.O.OO#.#..O.O..O#.....OO.O+O#+###.O.O.O++ +O++. .O.O.O.O##..O.",
"OOO.O.O+.##O.O.OO.O.O.#.O O+O O O#O..O.O OOO++OO.O.OO.O.O....O.O",
"++ O.O+..O..#.O..O.O.O.O.OOO+O+O..##O.O.O O O++.O..#.O.O.O#.O.O.",
"##O..OooO...OO.#O.OO.O...O+O+ O O#O#.+O..o##.o.OO.+.#.O.O.OO#.O.",
".#.#OoooO.#..#.O#.#.O.#.O O OO OO.#.#OO#.#o.o#O..OOOO##O###.O..O",
"#..O.Ooo..##.O#O.O.O#.#O+O OO + .#.##+.O.o#.#.O#O..O.O.#O#OOO.O.",
"#.O.O.oo#.....O.O.O..O..+ O+O+O+O.#OO.O+#......O.O#.++##O.#.OO.O",
".#ooooo O..OO.O. O...O.OOO.O+.......O O..#.#O....O.#.O.OO.O+O#.#",
"O.ooo oo..#..OO.O .OO.O.O.##.#++####.O.O#.#..O.#O...O#O..O++.O.O",
"oooooooo###....O O.O.O#OOO.OO.#.O..#...O###.O.....#.O.O+++.##.OO",
"ooooooooo##.O.O.O.O.O..O.#+.###O.OO.OO..#..O.##O#.#..O.OOO#...#O"
};
