/* XPM */
static char *purple_wool[] = {
/* columns rows colors chars-per-pixel */
"64 64 53 1 ",
"  c #5F1D97",
". c #601E98",
"X c #621E99",
"o c #621F99",
"O c #641F9A",
"+ c #641F9C",
"@ c #65209B",
"# c #65209D",
"$ c #66219D",
"% c #67209E",
"& c #68219F",
"* c #69229F",
"= c #6A22A0",
"- c #6B22A0",
"; c #6C23A0",
": c #6C22A1",
"> c #6C23A2",
", c #6D24A1",
"< c #6F24A4",
"1 c #7025A4",
"2 c #7124A5",
"3 c #7225A5",
"4 c #7226A6",
"5 c #7426A7",
"6 c #7427A7",
"7 c #7526A8",
"8 c #7627A8",
"9 c #7727A9",
"0 c #7728A9",
"q c #7828AA",
"w c #7A29AB",
"e c #792AAB",
"r c #7B29AC",
"t c #7A2AAC",
"y c #7D2AAD",
"u c #7C2BAE",
"i c #7E2DAF",
"p c #7F2DB0",
"a c #802CB0",
"s c #822DB1",
"d c #802EB1",
"f c #822DB2",
"g c #842FB3",
"h c #832FB4",
"j c #852FB4",
"k c #8630B5",
"l c #8730B5",
"z c #8831B7",
"x c #8733B9",
"c c #8932B8",
"v c #8D36BC",
"b c #9240CA",
"n c #9743CD",
/* pixels */
"$-@$4y$&ys+;88+X-4--8p$-pp+-55+X$-$+4t-$pp+;88+X;2--8p+&ys$-55$X",
"40bb;+jy--tg++q<5tnb-+p0--8p Xq848bb=$jt;-tj++r<5ynb;+s8--8p X08",
"ip;8cjt5pgpsvbt8pp;<hp8;tpttxbyyps,8cjq8ajpsvbt8sa;<gpq;tpttxbty",
"q4sl448j-0jj84ns5-yj54<p$<ppt4nj84sl54qj;8jl82np4;tx444a$<ppq<nl",
"y8;qssX ts4+ss-+t0-tss$ 0p--ss;+y8;8ssX qs;+ha;+t8;taa+X8p<-hs-$",
"-+t8$Xt8+X24-<-4-$pt<$pt<+45$4-4-$t8$Xt5$X45+4;4-+py2+at;+24$<-4",
"bb-+888tpbt4nnptbb-#055uhnq,nnstbb;$888qib88nnptbb-+8q8tjn8<nnst",
"--bb$4js+&tppyss--bb$-lp+$ps80jj--bb+4ls$&ysaysi--bb+;jp$-yptqjj",
"pt$-sq&;&5<-44@@tq$-p0$-=54X4;+OptX-pq$--4<$0<$Oiq@&iq&&$84X4<$X",
"<44tXX;8;ynb<qbb-,5t X<0-ynn8tbb<85t X<8,ynb<0bb&,6iXX1q-ynn50bb",
"ps$-bsaqsi;804@4ss$;bl00si48q4+4ps+-bssqsp,004+4ik@*bstqsp4004$4",
"$$005;sa;&-8X@&0$$88--ttO$-8XX;y$$0024ss-$$0XX-8@@qq&&yt$$-8XX&q",
"44X$jc++qgrrnni&42++jl+$qh0snnr+<4$+jc$+0s8snny-,4$+jc++qsqsnny&",
"ypvn;4y5O5sg44lnsyvn-4y5+8sj88jnpyvn;4q5$0pj88jniivn;5y5O5sg66ln",
"hs88jtysng53rs1*cc8;ltyjns<-ta4;hhq5jtygnh<4ts2-cc5;gqrsng3;ag4&",
"X$s8O5gv92rl**gzX$p8+;jv44sj;;pjX$p8+4jv8<yj-;jjX$s8&;gvq2ag**rz",
"<-$@4y==yp$-tt+X$;O$4t$-pp+;85+O,$$$4y$&yp$-qt++$-$+4y&&ys+-85++",
"qtnn$$p4$-tpXXq<58bb-$at--tj++q2qynn-+s8+-tpXOq<40bb;+pt;&tj+-0<",
"pp><sst5ts8txnp8pp;5xj88pjppvnptps,<hpy4tsttxnp8ip,4cjy8ajasvnsy",
"5-pp>46l;4sj82nj44sj54tj-8jjy2nj4-yp;4qj;<sj84nj44sj428j;8jj54nj",
"82<8ss-#yp<$jy-+p8;qas+$ts4-yp;X0<;0hs++tp<-ss-$y5&qgs++tp;-yy--",
"++py,$pq-$44+4;4++at;$ay-+--X+<4-$st;$sy<+24$<-5&$sy<Osq<$-,@$-4",
"nb4;850tpb82nnptbb-+428ypb8<bnsybb4-888qpb8<nnstbb-+445ypbt<bnpt",
"--bb-4pp+-yjsyss;;bb-4jg$-yppyjj--bb-4si$&yjyyss;-bb-4jj+$tsyyjj",
"tq+-p8$--,-$4-+OarO<jy<4<4<$05;Xtt+-p0$--,-X4<@Opq+;ks*4444$85&O",
"-<8tXX<8-ynb4tbb&qra+-8t-ynn6sbb--8t X<0-ynb40bb-8ys@@6r-ynn8pbb",
"jj-4njpyll48y8+8aa;2njsyjp4ty5-qjj-4njpyjj4tt8+4ps;4ngiijs5qs8&q",
"-<tt44sp-,<y$+4t&+8y<4sp+$-8$X,t-<yt44sp--4y$$4y+$5y44ss+&&0XX&s",
"22+$jhX$8stpnny-42+-hhO 4y5tbby@4<+$jjX$8stpnny$44+-ls@X5r9qbbtO",
"ppxb$-0, <pl88jniyvb+-8; 4qs,4pbppxb+-8, 5yl88jnyyvb&*6* 59g4,sb",
"lj4<pt8ybp-<tp4;cc4;styybp&&8s4-cs8<pt0tbp-<tp5-cl4<srrybiO*5s4&",
"X+s8-4jv<-0p+-slX&p8-4jv<-ig-,slX$p8-4lv<-8s+-jjX$p8*1zv1&sz**gz",
"$-+$4y$=yp+-48$+;4--8t$-yp$-48++$-$+4t-=yp+-88$X;4--8p+$pa$-55$X",
"40bb;Xht--yj+O8<8tnb-$p8--8p Oq848bb-$jq--yj++8<8ynb;+s8--8p $05",
"ps-0cjt8sjppvbt8pp,4hs8-tpttxbtypp;8xjq8sjysvbt8ps-4hp8-tsq0xbty",
"84sj848j<8ll84ns5-tj444p$<ps84nj84sl540l;8jh84np5-tj444s+<pj0<nl",
"y4-qssXXtp<+ss-+t8-qhs+X8p<-ss;$y8;qssX ta<-ha;+t8-taa+O8s<-hs-$",
"=$y0OXt8+X28$4-4-+pt;$sy<+<4&,;5;+t8$Xt8$ 24+<;4-$pt<+at-+<5$<-5",
"bb-+qq88ib88nnstbb-+8888jn8<nnstbb;$888qpb88nnstbb-$8q8tjn8<nnpt",
",-bb+5ji$-ypyysp;-bb$-lp$-ypq8jj--bb+4jp$-ysayss--bb+;jp$=yptqjj",
"ptX&s0$&;42+q2@OttX-p0$-;42X4;$OatX-p8$-$8<$8;+Oi0@-pq$-=<<X4<$$",
"440tX@,0;tnb4qbb-<8t $,0;ynn8tbb<88tXX<8,ynb4qbb-,4tXX<8,ynn50bb",
"isO&bps0fa;88<+4ps+-bpt0as4t84+4ps+-bss0sp;0q4+2il$-bptqsp50q,@4",
"+&8q44sp;+&qXX;0+$00--tt++-8XX;8$$8844ss;$$0XX;q@@00--yt$$=0@@&0",
"44$+jc&+rprpnny$44$=lx=#8stpnny$4<$+jc$+0stpnnp+<4#+jc++qsqsnny-",
"pyvn-4t4+8pj88jnytvn-506+8pj88jnpyvn-4q5$8pj88jnupvn;4y5Oqyg44ln",
"hs08zqysbj<<yp4;cc4,l0tsnj<4tp4-hj04jtyhnj<<tp2;cc4>ztysnj11is<>",
"X$s8O4jv84pj;;jjX$p0$>lv82yj;-sjX-p8+4jv8<yj;;jjX$s6+;jv84rk**yl",
"<-+$4p$&ys$-tt+X$;++4y$-ta+;88+X,$#$5y+$yp$-qt++$-$#4y+&ys+;qq++",
"8ynn-+p5+-ts Xq<48bb;+s8;-yj++q20inn-+s8+-tpXOq<40bb;+st--tj++82",
"ps;4jst5tpttxns0pa;2cjt8ajppvnsyps-<jpt8tsqyxnp8is,4cjt8pjpavnsy",
"4-ts;28c-<pj84nj42jj54qj;8jjt2nj4-pp-5qj-<sjq2nj44sg828l;8jjq2nj",
"0<&yss++ys-=ss-+y8<8js++ya<-tp;+0<-0hs++tp<-ss;$t4&qss++tp<-yi-$",
"$$st<Ost-+24$4;4-+pt;+ar<+-<X$-4=$pt;$sy>$44$<;8-$sy,$at;+-;X&-4",
"bb4-888tpbt<nnatbb;+228tpb8;bnstbb4;8888ib8<nnsqbb-+428tpb8<bnat",
"--bb-4pp+-tjsysa--bb;4jj+-ysptjj--bb-4si$-yjyyss--bb;4jj+&yspyjj",
"y0X-p0$---&X4,$XpqO<jy-4242+84;+tt+-p8$;-;-X4<XOa8+<hs;4444$88=X",
"$<8tXX<8;ynb40bb-5tp+$8y;ynn8pbb-<8t X28;ynb48bb-8tp+$8t;ynn8pbb",
"ll-4nlpylh4ty0O5ss-4njsyjp4ty8-thj;2njpyjj4ttq+4ps-4njsyls40p8-8",
"-,yt4<sp;<<y+$4y+$8t44hp++-q+X;t--pt24sp;;2y$+8y+$8y44sp+&-8XX-p",
"44++hjX$0sqpnny+44+$ll@X5y8tbbyX4<$+jjX$8stsnny$42+&ls@ 4y5qbbtX",
"pycb$,8,X<sj8qlnpyvb@-4,O;ts<<sbppxb+;8; 4yj88jnpyvb@,5,@4qs4<sb",
"xl5<s80tby$4ys4;cc4<ptyybi$-8p4;xh8<pt0tbp&<tp4;cz4<sqyybi+&4s4&",
"X$p5=4lv4-8s+;jjX$p8-<lv,&il;;jjX+p8-5lv<;qs+;jjX$p8$4lv4$sl;;lj"
};
