/* XPM */
static char *spruce_log[] = {
/* columns rows colors chars-per-pixel */
"64 64 16 1 ",
"  c #2E1608",
". c #2E1C0A",
"X c #311E0B",
"o c #3B2713",
"O c #4D3317",
"+ c #553A1F",
"@ c black",
"# c black",
"$ c black",
"% c black",
"& c black",
"* c black",
"= c black",
"- c black",
"; c black",
": c black",
/* pixels */
"OoXoooX ooXooXooXoXoXoooXOoooXooooO+Xoo XoXoXOoXooXXOoooO+ooX oX",
"OoXoooX oXXoooXoXoX XXoXXO+oo oXOo+oXoX XoXo+OoXooX +OXo+Ooo XoX",
"++XooX ooXoXOoXoXX XoXoX++Ooo oXoO+XXo XXoXoX+OXoX X+OXO+oooXoXo",
"O+Xoo  ooXoXOoXXXoXXooXoo+OOoX Xo+oXXX X+oXXX+OooX oo+X+Ooo+XoXo",
"O+Ooo XoOXo+OXX ooo XoXooO+XXXoX++OXo Xo+OXoXoO+o  Xo+O+OoXO+XXo",
"oOXoX XXOoO+XoXXXoX XXoXo+OoX oo+oXoX ooO+oXoOO+o XXoXO+XXXOoXo ",
"XoOX XoX+XoOXoX XXXo XoXO+ooX XoXoXO  ooO+oXoo+OXXoXXo+OoXo+o X ",
"XXOX XXX+OoOXoX oX+o XooO+oooX oXX+OX Xoo+oXoo+OO oXoX+XXoO+oXX ",
"oXoXXXXOooo+oX  oX+O XooOOOooO XXXO+XXXoOO+XoXoOX oXXo+XoXX+Xo X",
"oXoXXXo+Oo++oX Xoo+O XXo+Ooo+O  oXO+X XooO+XoXoOXXo+XXOoXoXOXo o",
"OXoXXXO+oo+OoX XooX+  XoO+XX+OX oO+XoXoXoo+oXXoXo o+XoOXXoX+oXXo",
"+OoXXX+XXo+OooX XoO+X XoOXXXOo X+O+Xo oXooOOXXoXX +OoXoXXXO+oXXo",
"++OX XoooXO+XXX  oX+XXXo+oXXO+ XXOoXX XXo+OX XoXX OooXoXXXO++XoX",
"oOOX  oXo X+XXX oooOX XXooXXX+ oX+XoX X X+Oo XoX  OXoXoXoXOOXXo ",
"Xo+OX XoX oO+XoXoooXO XXoooX+OoXX+XoXX XXO+oX oX XoXoXoXXX+OXoX ",
"Xo++X Xo ooX+XXXooXO  XXoXoooOoXO+XoXXoXXOoo  XXXXXXoXXXoXO+XX X",
"Xo+OOX XoXoXOOoXX+oOX XoXXooX+oX++XXXOX X+ooXXX XoXoXXXoX++OXX X",
"ooOoOo XoXooOXoXXOoooX XoXooXooo+oXXoO+o +ooXo  XoXXoXXoXO+OXXoX",
"oO+oXoX oXooXOXoO++oXo XooXoXooX+oXXoo+O XoXooX XX XoXoooo+OoXoX",
"oO+oXoo o+XoXOXoO+oooX  XooXXoXo+OOXXXOOoXXXOoX ooX XXooooX+ooXX",
"o+OoXoXXO+oXoXXoX+OoXoX XoXOXXoOO+oXXXX+OXXX+XX Xoo XoooXoXOooXo",
"O+O+XoXo+OXXXXXXXO+oooXXXXOOo XoO+ooXoX+OOXX+OXXXoo XXooXoXOo XX",
"O+o+XOX+OoXoooXXXo+OoXX ooXOXXooOXooXoXX+XXXO+ooOooX XoXooXooO o",
"+OXO+Oo+Oo XXo ooXOooXX oooo oXoOOoooX o+oXXo+Oo+ooX XoXoo ooOXX",
"OoXo+OoOoXo XX XoO+XXX XooXX oXXo+Xoo  X+XXXOO+oOooX XXXoX oOOXX",
"OoXoX++OoXX XoX oO+oX  XoooXXoXoo+OXoX oOoXoXO+o+ooXoXXXX oo+XXX",
"ooXooXO+oXXoOoX O+oXoo XooooooXXoO++o Xo+OoXO+oX+OXoXXoX  o+OXoX",
"XooXoXo+oX oOoXX+OooXoXXXooXOXooXO+oX oXO+oXO+oX++XX XXXX o+OXoo",
"XooXoXooX XXO+XX+OXooXXoXXoXOOXoooO+X oXO+o++XoX+OOo XoX XoOoXoO",
"oXoXXXooX XXO+XX+oXoXoo+XoXXOXXXooO+X ooX+O+XXooo+OoX oX Xo+ooo+",
"XoXoXXooXXXoX+X+XoXoXX+Ooo X+oooo oO XXoXO+OX oXo+OoXX X Xo+OoO+",
"XoXoX oX XXoXOO+XoXXOX+XXo o+OooX oO XXXoX+OoX  XoOOXX  oXO+oo+O",
"XooXX XX XoXoX+OXXXXO+OXX XO+OXo X+OX oXoX+OXo XXX+OXoX oX++oX+o",
"XooXX oX XXXXX+OooXoo+OXX X+o+oooXXOo XooOO+XoXooX+OXXX oX+OoXOo",
"OXXX X X  XXoOOoXXoo++XXXX XXOOXo X+XX XXXO+o XXoX+XXo X ooO Xoo",
"OOoXXX o  oXoOXoX oo+XoXXXXXoOXX XOoXX  Xoo+o  ooO+OooXX oOO Xoo",
"OooXoXXoX oXXoXoXXoX+XoXXXXXo+OX oOXoXX XXO+X Xoo+OXooXX  oOX o+",
"OXoXooXoX oXXoXoX  XOooX XXoXoOXXX+oXXXXXo+O XXXO+OXooX XoooXoo+",
"OOXoooXOXX OXXXoXo oXoooX XXXoOXoO+OoXo XoOX  oOo+oXoXoXX XoXXO+",
"oOXoooXOXX OXoXXXXXXX+ooX XooooXoo+OXOoXXXO+ XOO+ooXoXooX Xoo+Oo",
"oOXoXoOOXo X+XXXXXXoX+ooXX  ooXoXoX+X+Xoo+OXX oO+XoooXoXX oooO+o",
"oOXooXOXXo X+XoXXXXoXO+ooXX ooXoXoXo++Ooo+OoX XO+XoOXooXX o+oO+X",
"ooXooXXXXXX +OoXXXoXo+OXoXX XoXoOXooO+oXO+XoX XoOO+OXoOXXXo+oOXo",
"oXoXo XoXXXX+OoXoXoXooO oXXX oXoOXooXOoX+OXooX XoO+oXo+XXXo++OoX",
"OXoXo XoXoXXO+Xoo+XXooX oXXX oXo+XXoXOo++OoXoo XXo+OXX+oXXX+O+oo",
"OoXXoX oXoXXX+XXoOoXXoXX XXo  Xo+XooXOXo+XoXoXXoXXO+Xo+OoXXoO+oX",
"OoooX XoXoXXo+ooo+ooXX o XoXX X ++ooXoXo+XoXoo XXoX+XoO+OoXoO+Xo",
"OXooXXXooOoooOXoXOXXO  oXX+XoXX o+XoXoXoO+XoXo  oXX+XXo+ooXXOXXo",
"+OooXX oOoXoXXoXXOXX+X ooX+OoX XoO+oXoXoo+OoXo XoXX+oXX+o XXXoXX",
"O+XoOX XOoXooXoo+OXOX ooo+OOXX  oO+oXo+ooX++oo XooXOooXO XoXXooX",
"O+XoOOX oooooXXo++O+X  ooX+oXo Xoo+OXo+OoX+Ooo XXoXooXXooXooXOXX",
"OOXoOX  ooXooooO+OXoX ooXX+oXo ooo++ ooO+oo+oX X XoXoXoOo oXoOXo",
"O+XOOXX oo oXoooO+XooXXoooOXoXXoXOO+ o++Ooo+o XXoXoOoXo+O oXoX X",
"XOooOXX oX oXoo+OooXooXoXoooooXoXoO+ Xo+OoooX oXoXo+Xoo+XXOXoX X",
"XOo+XoXXo XoXoo+OOoX+oXoOooXooooX+OoX ooO+oo Xo XXoO+o+OoX++o  o",
"X+O+oXX oXoXooX+oXoo+oo O+ooooXoX+OXX ooX++o oo XXoO+X+ooO+XXo X",
"X+OooXXXo oXooOooXoXOo  X+ooXo XXOoXo XoX+oX oo XoXo++OoooO+o XX",
"XO+ooXoXX oXooOooXXXO+X X++X o o+OoXoX XoOoXXoo XoXOO+OXoXX+o XX",
"oXO+oXoXXXoXoO+X XOX+OoXo+OXX XoO+oXoo XooX  XoX XoXO+o oXo+o oX",
"oXO+oXoXXXXoOO+Oo +OXOoXoo+Oo oXOooXoo  oXX oXoX XoXo+XXoXoO XoX",
"oX+O+XooXXXooO+XX +OXooooo+X  Xo+ooXoX Xoo oooXo  oXXO oXooo oXo",
"oXoOoXooXXXo+OooXooO+oooo+OX XXo+Xoooo Xoo o+oXo  ooXOX XoooXXXo",
"XXOOoXooXXooO+ooXoo+OOooO+OXXoXooXOXooXXoooo+OooX XoXXo Xooo ooX",
"oXoOoXoooXooOoooXoo+OoXooOoXXoXooo+ooooXooooo+oooX ooXoXooooXooX"
};
