/* XPM */
static char *sugar_cane[] = {
/* columns rows colors chars-per-pixel */
"64 64 16 1 ",
"  c None",
". c #75C128",
"X c #698747",
"o c #70904C",
"O c #91EF32",
"+ c #81A558",
"@ c #82A859",
"# c #91BE60",
"$ c #87CD41",
"% c #96C166",
"& c #9ACD65",
"* c #AADB74",
"= c #AACD83",
"- c #BDEB8B",
"; c #D2E4BD",
": c #E5EFDA",
/* pixels */
"    -**&&&#@        -&&&&##@        -**#&##@        -**&&##@    ",
"    -**&#&#@        -&*#&&#@        -**#&##@        -*&*&##@    ",
"    -*&*###@        -&*#&&#@        -**#&#&@        -*&*#&#@    ",
"    :**&#&#%        -&&#&##@        -**###&@        -*&&#&#@    ",
"    @:;;==%X        -*&*###@        -*&&#&&@        :**&&&#%    ",
"    -@@++oX@        -**&#&#@        -*&##&#@     $  @:;;==%X    ",
"    -*&&###@        -**&#&#@        -*&#&&#@   OO$  -@@++oX@    ",
"    -**&&##@        -*&*&&#@        -*&#&#&@OOO..$  -**&&##@    ",
"    -*&&#&#@     $  -*&#&##@        -**&##&@...$$   -&**&##@    ",
"    -*&*#&#@   OO$  -&&#&##@        -**&##&@O$$$    -&**#&#@    ",
"    -*&*&&#@OOO..$  -*&*###@        -*&*#&&@$$      -&&*#&#@    ",
"    -*&#&##@...$$   -**&#&#@   $    -*&*#&#@        -*&&###@    ",
"    -**#&##@O$$$    -**&#&#@  O$    -*&*#&#@        -**&&##@    ",
"    -*&####@$$      -*&*&&#@ OO$    -*&*&##@        -**&&##@    ",
"    -*&&###@        -*&#&##@OO.$    -*&&&##@        -*&*#&#@    ",
"    -&&&&##@        -**#&##@..$     -*&&*&#@        -*&*&&#@    ",
"    -&*#&&#@        -*&#&&#@O$$     -**&*&#@        -*&#&##@    ",
"    -&*#&&#@        -*&&#&#@$$      -**&*&#@        -**#&##@    ",
"    -&&#&##@        :*&&#&#%        -*&&*&#@        -*&####@    ",
"    -*&*###@        @:;;==%X        -*&*&##@        -*&&###@    ",
"    -**&#&#@        -@@++oX@        :*&*&##%        -&&&&##@    ",
"    -**&#&#@        -**&&##@        @:;;==%X        -&*#&&#@    ",
"    -*&*&&#@        -*&*#&#@        -@@++oX@        -&*#&&#@    ",
"    -*&#&##@        -*&*&&#@        -*&*&##@        -&&#&##@   $",
"    -*&#&##@        -*&#&##@        -*&*&##@        -*&*###@  O$",
"    -*&&###@        -**#&##@        -**&&##@        -**&#&#@ OO$",
"    -**&###@        -*&####@        -*&*#&#@        -**&#&#@OO.$",
"    -***###@        -*&&###@        -*&*&&#@        -*&*&&#@..$ ",
"    -***&##@        -&&&&##@        -*&#&##@        -*&#&##@O$$ ",
"    -*&&&##@        -&*#&&#@        -**#&##@        -**#&##@$$  ",
"    -**&###@        -&*#&&#@        -*&##&#@        -*&&&##@    ",
"    -*&####@        -&&#&##@        -*#*#&#@        -*&&#&#@    ",
"    -*&####@        -*&*###@        -*#*#&#@        -*&*#&#@    ",
"    -**#&##@        -**&#&#@        -*#&&&#@        -*&*#&#@    ",
"O   :*&&&##%        -**&#&#@        -*#&#&#@        -*&*#&#@    ",
"$O  @:;;==%X        -*&*&&#@        -*&&#&#@        -***&&#@    ",
"$.OO-@@++oX@        -*&#&##@        -*&&###@        -*&*&##@    ",
" $..-**&###@        -**&&##@        -&&&&##@        -*&*&##@    ",
"  $$-***&##@        -*&&###@        -&*#&&#@        :**&&##%    ",
"    -*&*&##@        -*&&###@  $     -&*#&##@        @:;;==%X    ",
"    -*&&&##@        -*&*###@  $OO   -&&#&##@        -@@++oX@    ",
"    -*&#&##@        -***&##@  $..OOO-*&*###@        -*&&&##@    ",
"    -**#&##@    O   :**&&##%   $$...-*&&#&#@        -*&&###@    ",
"    -*&#&##@    $O  @:;;==%X    $$$O-**&#&#@        -**&#&#@    ",
"    -*&*###@    $.OO-@@++oX@      $$-*&*&&#@        -**&#&#@    ",
"    -&&&#&#@     $..-&*#&##@        -*&#&##@        -*&&#&#@    ",
"    -&&&#&#@      $$-&*#&##@        -&*#&&#@        -*&&#&#@    ",
"    -&*&#&#@        -&*#&##@        -&*#&&#@        -*&*&&#@    ",
"    -&*&&##@        -&&*#&#@        -&&#&##@        -*&*&##@    ",
"    -&*&###@        -*&*#&#@        -*&*###@    $   -***###@    ",
"    -*&&###@        -*&####@        -**&#&#@    $O  -&*&#&#@    ",
"    -*&&###@        -**#&##@        -**&#&#@    $OO -&#&#&#@    ",
"    -**&#&#@        -*&#&##@        -*&*&&#@    $.OO-&#&#&#@    ",
"    -*&&&##@        -*&&&##@        -*&#&##@     $..-*&&&##@    ",
"    -*&*&##@        -&&#&##@        :**&&##%     $$O-*&#&##@    ",
"    -*&*&##@        -&*#&&#@        @:;;==%X      $$-*&####@    ",
"    -&&*###@        -&*#&&#@        -@@++oX@        -*&##&#@    ",
"    -&*&###@        -&&#&##@        -&*&&##@        -**#&##@    ",
"    -&*&#&#@        -*&*###@        -**&###@        -**&&&#@    ",
"    -&*&#&#@        -**&#&#@        -*&&#&#@        -**&#&#@    ",
"    -***&##@        -**&#&#@        -*&&#&#@        -*#&#&#@    ",
"    -*&*&##@        -*&*&&#@        -*&*&&#@        -*#&###@    ",
"    -**&###@        -*&#&##@        -*&*&##@        -*&#&##@    ",
"    -*&&###@        -**&&##@        -**&###@        -*&#&##@    "
};
