/* XPM */
static char *turtle_egg_very_cracked[] = {
/* columns rows colors chars-per-pixel */
"64 64 29 1 ",
"  c None",
". c #347967",
"X c #887D54",
"o c #3A8772",
"O c #379D82",
"+ c #48A78E",
"@ c #49B38E",
"# c #C1B484",
"$ c #97C590",
"% c #BACEB3",
"& c #F2E2A9",
"* c #F2E2AB",
"= c #F2E3B0",
"- c #F2E4B4",
"; c #F2E4B5",
": c #F3E5B5",
"> c #F2E6BC",
", c #F4E8BE",
"< c #F4E9BF",
"1 c #F2E7C1",
"2 c #F4EAC2",
"3 c #F3E9C6",
"4 c #F2E9C7",
"5 c #F4EAC4",
"6 c #F5ECC9",
"7 c #F5EDCD",
"8 c #F5EDD0",
"9 c #F6EFD5",
"0 c #F7F1D9",
/* pixels */
"118900000X919111    446696696644                                ",
"9990$%#0X9191811    446609699664                                ",
"899$+@%#00099111    640000990646                                ",
"199%@+$#09989880    446000%$0966                                ",
"9809%$X900900114    64600%+@$964                                ",
"899909X009%$4948    44000$@+%464                                ",
"89#98X0#0%@+$988    440000$%44XX                                ",
"998#X8000$+@%909    49%$0000##66                                ",
"9898908000$%9999    0%@+$00X06#6                                ",
"89800X00000#089#    4$+@%0000666                                ",
"808009XX#0#9899#    44$%6460666&                                ",
"90080000##8888#8    006666066664                                ",
"8900%$099#88X#0#                4400044X4444                    ",
"800%o.$99#XX0011                4000004X9049                    ",
"810$.o%99#990061                4049#0X00009                    ",
"1110$%99X9990611                49000#00$%00                    ",
"    448899999#664044            X9990X0$+@%0                    ",
"    4400#080#0866044            #9#00X0%@+$4                    ",
"    04909#00X0800644            4#0000#0%$04                    ",
"    46060#9#X0069644            4X0400000004                    ",
"    696990#90#060904            44#444040004                    ",
"    460990$%00#09094            4444%$440444                    ",
"    49096$+@%00#0909            4-4%@+$40940                    ",
"    9#699%@+$09#0900            4#-$+@%44944                    ",
"    90##0X%$00009909            #11-$%&&9440                    ",
"    4940XX9990909994            #11---&&-4--                    ",
"    49900#999900999#            1&1--1&11&4-                    ",
"    090000#99009090X            -1-1-&1--444                    ",
"    000000X#000900X4    407-&757#666654&                        ",
"    0900000##00#%$#4    0777-&-5#6746664                        ",
"    9900600X0X#%o.$4    00660--66#566664                        ",
"    000666#X06X$.o%#    7700-&006#656544                        ",
"    000009X0000#$%94    7000060X#6#55654                        ",
"    49#000#06699#999    07000,X&&,X55445                        ",
"    400#0#000090#944    4770660,-66X66##                        ",
"    090#0#9000099#94    77222266666X6#,,                        ",
"    0000#90000500954    666662X266#6#5,4                        ",
"    9-%$#9000:000444    22766X622#66#564                        ",
"    -%Oo$5-0,00-0044    #777X77222666X2-                        ",
"    #$oO%---13-31540    #226X67262626X2:                        ",
"    4#$%-&-#33-0-944    4#7X2276226#62#:4444494044044,44        ",
"    4X4---#&370-9944    24#6677622#22:449099049490%$,,4,        ",
"    -&#&-X-&-&795-54    242#666262X22224944090449%@+$00,        ",
"    4--#X---&3>--4-4    ,26#67664#222222444000000$+@%,,,        ",
"#44>#>>-#--&&5>25,-4444#4407#622        49007000X0$%,&0&        ",
"#4$%>#-#&&>&>,,11,,444X44470#477        440#00000X0:5:,,        ",
"4$+@%>#&>44>>>,:,:>,,#4X444#6474        974#70000#0:#,&,        ",
"4%@+$4#-4>#4>,,,214,444#44$%4444        44#90000#007:#&,        ",
"44%$444X4>#>>>&>:2>,,,4,#$+@%444        4#7X000#90:5&&X&        ",
"4044444X4#44>>:---,4,#4,#%@+$444        447X$%0#9795,&X&        ",
"44X44444X4>>*--->4,,,#,44#%$4>44        4,#$.o%X7#4,&&&#        ",
"&44X444>>#>-*>**--$%,4#4#>>4>4>>        4,#%o.$7#49,::,,        ",
"&&4&#4>>#***---&=$+@%4,#444>&>>4        4,4#%$,4#,,4,:,,        ",
"&4444#%$#4*&-&-**%@+$4,#>>>>>X>4        ,,,,#444,4:,,,,,        ",
"&#&4#%@+$=-&&-&&>=%$>>XX4&4>&4X#        #,,,X4#,,4:4,#:,        ",
"#&44#$+@%4*---****4,>X,X&>&&>>#4        #:4X4X,,,,,X#::,        ",
">X&&X&$%4==***4=***,,X,4X>&#&X44        ,X4#4,#,,##:,:&:        ",
"4X>X&X&&4*******4*>*,44,#>#&X>>*        4,#44,#,#,,#,::,        ",
"4&#4>#&>&===***=***444>>>X>>**44        4:::,,,X,,,#:,,:        ",
">>#>>>>>&====**=4444444>>X>>>444        ::4::,,,&&:&#&&&        ",
"                                                                ",
"                                                                ",
"                                                                ",
"                                                                "
};
