/* XPM */
static char *turtle_egg_slightly_cracked[] = {
/* columns rows colors chars-per-pixel */
"64 64 29 1 ",
"  c None",
". c #347967",
"X c #887D54",
"o c #3A8772",
"O c #379D82",
"+ c #48A78E",
"@ c #49B38E",
"# c #C1B484",
"$ c #97C590",
"% c #BACEB3",
"& c #F2E2A9",
"* c #F2E2AB",
"= c #F2E3B0",
"- c #F2E4B4",
"; c #F2E4B5",
": c #F3E5B5",
"> c #F2E6BC",
", c #F4E8BE",
"< c #F4E9BF",
"1 c #F2E7C1",
"2 c #F4EAC2",
"3 c #F3E9C6",
"4 c #F2E9C7",
"5 c #F4EAC4",
"6 c #F5ECC9",
"7 c #F5EDCD",
"8 c #F5EDD0",
"9 c #F6EFD5",
"0 c #F7F1D9",
/* pixels */
"1189000000919111    446696696644                                ",
"9990$%9009191811    446609699664                                ",
"899$+@%000099111    640000990646                                ",
"199%@+$909989880    446000%$0966                                ",
"9809%$0900900114    64600%+@$964                                ",
"8999090009%$4948    44000$@+%464                                ",
"899980000%@+$988    440000$%44XX                                ",
"998808000$+@%909    49%$0000##66                                ",
"9898908000$%9999    0%@+$00X06#6                                ",
"89800X00000#0894    4$+@%0000666                                ",
"808009XX#0#98998    44$%6460666&                                ",
"90080000##8888#8    006666066664                                ",
"8900%$099#88X#06                4400044X4444                    ",
"800%o.$99#XX0011                4000004X9049                    ",
"810$.o%99#990061                4049#0X00009                    ",
"1110$%99X9990611                49000#00$%00                    ",
"    448899999#664044            X9990X0$+@%0                    ",
"    44009080#0866044            #9#00X0%@+$4                    ",
"    04909000X0800644            4#0000#0%$04                    ",
"    46060#9#X0069644            4X0400000004                    ",
"    696990#90#060904            44#444040004                    ",
"    460990$%00009094            4444%$440444                    ",
"    49096$+@%0000909            4-4%@+$40940                    ",
"    99690%@+$0990900            4#-$+@%44944                    ",
"    90690X%$00009909            #11-$%&&9440                    ",
"    49400X9990909994            #11---&&-4--                    ",
"    49900#9999009994            1&1--1&11&4-                    ",
"    090000#990090900            -1-1-&1--444                    ",
"    000000X#00090044    407-&757#666654&                        ",
"    0900000##00#%$94    0777-&-5#6746664                        ",
"    9900600X0X#%o.$4    00660--66#566664                        ",
"    000666#X06X$.o%#    7700-&006#656544                        ",
"    000009X0000#$%94    7000060X#6#55654                        ",
"    49#000#06699#999    07000,X&&,X55445                        ",
"    400#0#000090#944    4770660,-66X66##                        ",
"    090#0#9000099#94    77222266666X6#,,                        ",
"    0000#90000500954    6666626266#6#5,4                        ",
"    9-%$#9000:000444    227666622#66#564                        ",
"    -%Oo$5-0,00-0044    6777677222666X2-                        ",
"    4$oO%---13-31540    2226767262626X2:                        ",
"    46$%-&--33-0-944    42762276226662#:4444494044044,44        ",
"    444----&370-9944    2426677622622:449099049490%$,,4,        ",
"    -&-&-&-&-&795-54    2426666262222224944090449%@+$00,        ",
"    4--&4---&3>--4-4    ,267676642222222444000000$+@%,,,        ",
"#44>#>>----&&5>25,-4444444074622        4900700000$%,&0&        ",
"#4$%>#--&&>&>,,11,,4444444704477        44040000000:5:,,        ",
"4$+@%>#->44>>>,:,:>,,,4#44446474        974970000#0:5,&,        ",
"4%@+$4#-4>#4>,,,214,444#44$%4444        44#90000#007:&&,        ",
"44%$444X4>#>>>&>:2>,,,4,#$+@%444        447X000#90:5&&&&        ",
"4044444X4#44>>----,4,#4,#%@+$444        447X$%0#9795,&,&        ",
"44444444X4>>===->4,,,#,44#%$4>44        4,#$.o%X774,&&&,        ",
"&444444>>#>-*>**--$%,4#4#>>4>4>>        4,#%o.$7749,::,,        ",
"&&4&44>>#***=;=*=$+@%4,#444>&>>4        4,4#%$,44,,4,:,,        ",
"&4444&%$#4**-*=**%@+$4,#>>>>>>>4        ,,,,#444,4:,,,,,        ",
"&4&4&%@+$==**=**>=%$>>,X4&4>&444        4,,,X4,,,4:4,::,        ",
"&&44#$+@%4*;;;****4,>,,X&>&&>>>4        4:4X4X,,,,,,,::,        ",
">4&&X&$%4==***4=***,,*,4X>&>&>44        ,,4#4,#,,,,:,:&:        ",
"4&>&&X&&4*******4*>*,44,#>#&&>>*        4,#44,#,,,,,,::,        ",
"4&44>#&>*===***=***444>>>X>>**44        4:::,,,X,,,,:,,:        ",
">>4>>>>>&====**=4444444>>X>>>444        ::4::,,,&&:&:&&&        ",
"                                                                ",
"                                                                ",
"                                                                ",
"                                                                "
};
