/* XPM */
static char *wither_rose[] = {
/* columns rows colors chars-per-pixel */
"64 64 11 1 ",
"  c None",
". c #171210",
"X c #1A1310",
"o c #211A16",
"O c #2A1F19",
"+ c #0F2108",
"@ c #13280B",
"# c #252E12",
"$ c #2C3517",
"% c #42352E",
"& c #38451A",
/* pixels */
"                                                                ",
"                                                                ",
"                                                                ",
"                                                                ",
"                                                                ",
"                                                                ",
"                                                                ",
"                                                                ",
"                                                                ",
"                                                                ",
"                                                                ",
"                                                                ",
"                                                                ",
"                                                                ",
"                                                                ",
"                                                                ",
"                                                                ",
"                                                                ",
"                                                                ",
"                            OOOOOOOO                            ",
"                          OO%%OOOO%%OO                          ",
"                        OO%%OO%%%%OO%%OO                        ",
"                       O%%%Oo%%%%%%oO%%%O                       ",
"                      O%%%ooO%%%%%%Ooo%%%O                      ",
"                      %%%%.o%%%%%%%%o.%%%%                      ",
"                      %%%O..O%%%%%%O..O%%%                      ",
"                      O%%O...O%%%%o...O%%O                      ",
"                      XO%%O...O%%o...O%%OX                      ",
"                       XO%%OoooooooO%%%OX                       ",
"                       XoOO%%OOoooO%%%OoX                       ",
"                        XoOOXXXXXXXooooX                        ",
"                        XOoOOooOOOXXXoXX                        ",
"                         XOOoOooOoOoXXX                         ",
"                         XoOOoooooOOoXX                         ",
"                          XXoOOooOOoXX                          ",
"                           XXXooXXXXX                           ",
"                            +@@@@@@+                            ",
"                              +@@+                              ",
"                               #@                               ",
"                               $#                               ",
"                               #$                               ",
"                               ###  $&&$                        ",
"                               $#@#$&&&&&$                      ",
"                               ##@$&&&&&&&$                     ",
"                        $&&$   #$@$$&&&&&$&$                    ",
"                      $&$$&&$ #$#@#$$&&$$&&&$                   ",
"                     $$$&&&$&$@$##@#    #$$&&                   ",
"                    $&$&$&&&&#@#$$#       #$&$                  ",
"                   $&&&&&&&&$@#$#$         #$&                  ",
"                   &&&&&$$&$$@$#$#          #&                  ",
"                  &$&&$$##$$#@###            $                  ",
"                  $&$#   @@#@#$##            #                  ",
"                  $#       @@$$$@                               ",
"                  #         @$$#@                               ",
"                             #$#                                ",
"                             @#$                                ",
"                              @#                                ",
"                              $#                                ",
"                              $#@                               ",
"                             #$$#                               ",
"                             $$###                              ",
"                            ##@@#@                              ",
"                            @##@@+                              ",
"                           @@+@++++                             "
};
