/* XPM */
static char *anvil_top_damaged_2[] = {
/* columns rows colors chars-per-pixel */
"16 16 55 1 ",
"  c None",
". c #282626",
"X c #292727",
"o c #2B2828",
"O c #2D2929",
"+ c #2D2A2A",
"@ c #2E2B2B",
"# c #2F2C2C",
"$ c #302D2C",
"% c #302D2D",
"& c #322F2F",
"* c #323030",
"= c #353232",
"- c #373434",
"; c #383434",
": c #383535",
"> c #3A3737",
", c #3B3737",
"< c #3C3838",
"1 c #3D3939",
"2 c #3E3A3A",
"3 c #3F3B3B",
"4 c #403C3B",
"5 c #403C3C",
"6 c #413D3D",
"7 c #423E3E",
"8 c #433F3F",
"9 c #443F40",
"0 c #444040",
"q c #464242",
"w c #474343",
"e c #484444",
"r c #484545",
"t c #494545",
"y c #4A4646",
"u c #4A4747",
"i c #4B4747",
"p c #4D4949",
"a c #4E494A",
"s c #4E4A4A",
"d c #4E4B4B",
"f c #4F4B4C",
"g c #4F4C4C",
"h c #504D4C",
"j c #504D4D",
"k c #514E4D",
"l c #514E4E",
"z c #545050",
"x c #545151",
"c c #555151",
"v c #575353",
"b c #585454",
"n c #595555",
"m c #5A5656",
"M c #5B5757",
/* pixels */
"   530ti>t053   ",
"   t::555itt:   ",
"   3pl#3:%055   ",
"   *0>c-cc433   ",
"   l%5#l3%-tt   ",
"   0*4#35oc9@   ",
"   5%@-t0c&&m   ",
"   @lll@3op@3   ",
"   t0@5c%Mr=r   ",
"   :#l35o55d@   ",
"   3d=03o@0rm   ",
"   53%%#mb%%3   ",
"   3@dpp=0pp3   ",
"   =c053p@X@3   ",
"   p@3,,%lcb%   ",
"   3iw05l533p   "
};
