/* XPM */
static char *bed_feet_top[] = {
/* columns rows colors chars-per-pixel */
"16 16 113 2 ",
"   c #7B0504",
".  c #7A0904",
"X  c #7B0709",
"o  c #7E0409",
"O  c #7F090A",
"+  c #7E130D",
"@  c #7D0C10",
"#  c #7F0D13",
"$  c #7F1210",
"%  c #7F1416",
"&  c #860705",
"*  c #810B07",
"=  c #810C07",
"-  c #8B0A07",
";  c #800609",
":  c #85060C",
">  c #820808",
",  c #840A09",
"<  c #860D09",
"1  c #820B0D",
"2  c #840B0D",
"3  c #800E0C",
"4  c #880A0C",
"5  c #8B0D0E",
"6  c #890E0F",
"7  c #920E0E",
"8  c #80100D",
"9  c #87130F",
"0  c #87160E",
"q  c #8B100D",
"w  c #8E140F",
"e  c #91110F",
"r  c #820E12",
"t  c #860D12",
"y  c #830F15",
"u  c #880E12",
"i  c #890F12",
"p  c #930F11",
"a  c #950E11",
"s  c #821111",
"d  c #871212",
"f  c #831611",
"g  c #871612",
"h  c #871314",
"j  c #841216",
"k  c #871217",
"l  c #881212",
"z  c #8F1110",
"x  c #8B1412",
"c  c #891613",
"v  c #8B1215",
"b  c #8B1516",
"n  c #8C1414",
"m  c #8D1617",
"M  c #821912",
"N  c #8D1A15",
"B  c #851518",
"V  c #8A1418",
"C  c #881718",
"Z  c #881719",
"A  c #8D1518",
"S  c #8F1919",
"D  c #921011",
"F  c #941510",
"G  c #941115",
"H  c #911514",
"J  c #971416",
"K  c #971616",
"L  c #921A17",
"P  c #911719",
"I  c #9C1319",
"U  c #9A1519",
"Y  c #91191B",
"T  c #951E1A",
"R  c #93191C",
"E  c #9B1D1A",
"W  c #991A1E",
"Q  c #991E1E",
"!  c #A3171B",
"~  c #A01A1C",
"^  c #A01E1D",
"/  c #98201D",
"(  c #9C1D22",
")  c #9A2122",
"_  c #9D2224",
"`  c #9E2525",
"'  c #9B2628",
"]  c #9D2C2A",
"[  c #A32928",
"{  c #A52828",
"}  c #A62928",
"|  c #A72829",
" . c #A42B2E",
".. c #A92B2F",
"X. c #A92F2D",
"o. c #AB2F2C",
"O. c #A9302F",
"+. c #AC2F31",
"@. c #AD3333",
"#. c #AD3632",
"$. c #AD3337",
"%. c #AE3635",
"&. c #AD3737",
"*. c #B03231",
"=. c #B13334",
"-. c #B23536",
";. c #B23637",
":. c #B03935",
">. c #B2383A",
",. c #B63C38",
"<. c #B63A3D",
"1. c #B6383F",
"2. c #B63E3F",
/* pixels */
"> > u q : ; 6 6 5 , ; ; > u u 6 ",
"> > z K F K K U K a 2 U ~ ^ ! ^ ",
"> 6 ..;.$.@.:.=.+.[ { o.;.<.1.2.",
"> p O.%.%.&.#.%.@.+.o.| +.*.;.;.",
"= I +.o._ } o. .o.[ [ Q ( ) ` ' ",
"2 E ,.>.( ) Q R S b t 0 M l Z H ",
"< G :.] R L P b u q g s q x b l ",
"> D ) b 0 x q g Z b b S A A A b ",
"> a / b b b b L b b g S b b N l ",
"1 e _ Y b b b B b x x b x w F b ",
"& z ` Y u f k d q S b Z b b H Z ",
"* z W b s k % O # O t d t k + r ",
"O 7 T x g s O + $ $ # % O r O j ",
": - b d b S % j j O O $ g $ O j ",
"; * o * > = + t $ % f X   = O > ",
"8 = ; 1 . 1 1 > 1 > & O & > O > "
};
