/* XPM */
static char *bed_head_end[] = {
/* columns rows colors chars-per-pixel */
"16 16 113 2 ",
"   c None",
".  c #553C1B",
"X  c #573C1A",
"o  c #553E1B",
"O  c #543C1C",
"+  c #59391A",
"@  c #5B3B1D",
"#  c #583C1C",
"$  c #5A3C1C",
"%  c #63451D",
"&  c #6A431C",
"*  c #69411F",
"=  c #6A401F",
"-  c #68431F",
";  c #69431F",
":  c #6C401D",
">  c #664020",
",  c #6B4021",
"<  c #6A4223",
"1  c #6C4021",
"2  c #876631",
"3  c #866733",
"4  c #886431",
"5  c #8D6733",
"6  c #8A6B31",
"7  c #8B6836",
"8  c #8D6835",
"9  c #8F6D37",
"0  c #8F6E39",
"q  c #8F6D3B",
"w  c #906D35",
"e  c #916C36",
"r  c #916D36",
"t  c #916939",
"y  c #946D38",
"u  c #946D39",
"i  c #916D3C",
"p  c #916E3C",
"a  c #917037",
"s  c #947539",
"d  c #92703E",
"f  c #9A7846",
"g  c #A98A46",
"h  c #A88E47",
"j  c #AA9045",
"k  c #AC9049",
"l  c #AC9548",
"z  c #B2994F",
"x  c #B09752",
"c  c #B49752",
"v  c #B5B3B1",
"b  c #B5B3B5",
"n  c #B3B6B6",
"m  c #B7B4B4",
"M  c #B6B6B4",
"N  c #B6B6B5",
"B  c #B6B7B5",
"V  c #B4B5B7",
"C  c #B7B5B6",
"Z  c #B8B3B5",
"A  c #BBB3B6",
"S  c #BBB7B4",
"D  c #B6B8B6",
"F  c #B7B9B6",
"G  c #BAB9B3",
"H  c #B9B8B4",
"J  c #B7B6B8",
"K  c #BBB7BC",
"L  c #B5B8B9",
"P  c #B6B8B8",
"I  c #B6B8B9",
"U  c #B7B9B9",
"Y  c #B9BABA",
"T  c #CBC6CB",
"R  c gray79",
"E  c #CACBC8",
"W  c #CDCAC9",
"Q  c #CDCDCB",
"!  c #CFCBCD",
"~  c #CBCCCC",
"^  c #CECFCF",
"/  c gray81",
"(  c #CED2CF",
")  c #D4D0CF",
"_  c #CFCDD1",
"`  c #CCCFD2",
"'  c #D0CFD1",
"]  c #CED0D1",
"[  c #CED3D2",
"{  c #EBEEEB",
"}  c #EDEAEC",
"|  c #EFEBEF",
" . c #EFECEE",
".. c #EEEFEE",
"X. c #EFEFEE",
"o. c #F0EDE9",
"O. c #F1EFEB",
"+. c #F3EBEF",
"@. c #F0ECEF",
"#. c #F1EEEE",
"$. c #ECF0EC",
"%. c #EFF0EE",
"&. c #E8EEF3",
"*. c #EDEEF0",
"=. c #EBF2F2",
"-. c #F7F7F6",
";. c #FAF7F7",
":. c #F7F8F6",
">. c #FAF6F8",
",. c #F9FBF8",
"<. c #FAFAF8",
"1. c #F8F8FA",
"2. c #F8FAFA",
/* pixels */
"                                ",
"                                ",
"                                ",
"                                ",
"                                ",
"                                ",
"                                ",
"A ( / R P G v A N ] ` Q S K N D ",
"n / | #.,.1.,.-.>.>.%.#.=.| ` S ",
"N ) &.*. .{ ..#.,.#.$.:.%.#.] v ",
"b D ! T E M N N J Y ` W ~ M P I ",
"l t 3 y y w 7 5 s p 4 6 w 5 f $ ",
"z 4 = < % > ; : X $ ; = + f 9 @ ",
"k 8 O                     g w X ",
"c 0 X                     x 0 , ",
"h a =                     h p < "
};
