/* XPM */
static char *cake_bottom[] = {
/* columns rows colors chars-per-pixel */
"16 16 3 1 ",
"  c None",
". c #A75320",
"X c #B85D27",
/* pixels */
"                ",
" .............. ",
" .X.XXXXXXXX.X. ",
" .XX.XX.XX.XXX. ",
" .XXXXXX.XXXXX. ",
" .X.XXXXXXX.XX. ",
" .XXX.XXXXXXX.. ",
" .XXXXXX.XXXXX. ",
" .XX.X.XXXX.XX. ",
" ..XXXXXXXXXX.. ",
" .XXXXXXXX.XXX. ",
" .XXXX.X.XXX.X. ",
" .X.X.XXXXXXXX. ",
" .XXXXX.XX.XXX. ",
" .............. ",
"                "
};
