/* XPM */
static char *carrots_stage_2[] = {
/* columns rows colors chars-per-pixel */
"16 16 10 1 ",
"  c None",
". c #056B05",
"X c #028B0D",
"o c #02950E",
"O c #029A0C",
"+ c #00AD17",
"@ c #00B817",
"# c #00BC16",
"$ c #00C617",
"% c #00E210",
/* pixels */
"                ",
"                ",
"                ",
"                ",
"                ",
"                ",
"     %          ",
" %% %           ",
"  #$    %% %  % ",
" $%%  % %  % %% ",
" %$    %$   %$  ",
"  o    $    $   ",
"  X   @o %  %   ",
" o#   o@ %  $o  ",
"  .O  %+X   $.  ",
" o#.  o.%  $Xo  "
};
