/* XPM */
static char *cauldron_bottom[] = {
/* columns rows colors chars-per-pixel */
"16 16 3 1 ",
"  c None",
". c #2C2C2C",
"X c #2D2D2D",
/* pixels */
"....X      ....X",
"....X      ...XX",
"XX..X      ..XXX",
"XX.          XXX",
"XXX          XXX",
"                ",
"                ",
"                ",
"                ",
"                ",
"                ",
"...          ..X",
"...          X.X",
"..XXX      XXXXX",
"XXXXX      XXXXX",
"XXXXX      XXXXX"
};
