/* XPM */
static char *chorus_flower[] = {
/* columns rows colors chars-per-pixel */
"16 16 71 1 ",
"  c #401A40",
". c #441E44",
"X c #472047",
"o c #4A224A",
"O c #4B254B",
"+ c #4C254C",
"@ c #4F284F",
"# c #4F2B4F",
"$ c #532B53",
"% c #532C53",
"& c #552D55",
"* c #572E57",
"= c #553255",
"- c #573557",
"; c #5B335B",
": c #5D345D",
"> c #5C3A5C",
", c #5E3D5E",
"< c #633963",
"1 c #603E60",
"2 c #643964",
"3 c #644264",
"4 c #644364",
"5 c #654365",
"6 c #664766",
"7 c #6A496A",
"8 c #6E4C6E",
"9 c #6F4E6F",
"0 c #6F506F",
"q c #704E70",
"w c #715071",
"e c #755575",
"r c #775877",
"t c #7E5F7E",
"y c #7B617B",
"u c #7C627C",
"i c #7F647F",
"p c #806280",
"a c #826782",
"s c #876087",
"d c #856F85",
"f c #896B89",
"g c #8E6F8E",
"h c #877287",
"j c #906B90",
"k c #966B96",
"l c #947894",
"z c #997099",
"x c #9B789B",
"c c #A178A1",
"v c #A17EA1",
"b c #A583A5",
"n c #AB8AAB",
"m c #AD8CAD",
"M c #B38DB3",
"N c #B797B7",
"B c #B898B8",
"V c #B99CB9",
"C c #B9A3B9",
"Z c #BEA0BE",
"A c #C8B4C8",
"S c #CAB7CA",
"D c #CFB9CF",
"F c #D0C0D0",
"G c #D7C3D7",
"H c #D5C7D5",
"J c #DECDDE",
"K c #E1D7E1",
"L c #F7F4F7",
"P c #FCFAFC",
"I c #FEFEFE",
/* pixels */
"a&+o:&&iei<$yfhi",
"&d;O.o:&q+,=$+$<",
"&f+7=5V5%6ng-  $",
"%6=n0nGN>Dnb+= $",
"i$>lHDSKKK>>,5+i",
"&@cnqHLHHSSFVmOf",
":@=nHHHPHLKJVn5$",
"p558CHLPPHVVn@5r",
"%7mSHLPIHA,,-=O$",
"i%nLZHHHLHHJnsO<",
"%$nB7gLSHLHDns;y",
"%$@;,LMatHHw>=$i",
"%.@knLM61VJnx-2<",
"&$.>nnz>>jx>-6>;",
";&&=w&$$6$$O@$<e",
"yhf;&dy;7;&&;;;e"
};
