/* XPM */
static char *command_block_side[] = {
/* columns rows colors chars-per-pixel */
"16 64 43 1 ",
"  c #372417",
". c #3F291A",
"X c #4D3526",
"o c #573722",
"O c #594132",
"+ c #5A483C",
"@ c #4E6C32",
"# c #822523",
"$ c #A42E2B",
"% c #A22E2C",
"& c #CD3A36",
"* c #805436",
"= c #9B6C32",
"- c #9A633F",
"; c #864341",
": c #A84B49",
"> c #A85451",
", c #A96C43",
"< c #B17147",
"1 c #BC774A",
"2 c #B27B57",
"3 c #AC6967",
"4 c #C85452",
"5 c #C77E4F",
"6 c #F3605C",
"7 c #CE7A77",
"8 c #62873E",
"9 c #749258",
"0 c #C2873E",
"q c #B59179",
"w c #C98D66",
"e c #CC9674",
"r c #E8AD64",
"t c #777480",
"y c #918F99",
"u c #9F9DA7",
"i c #A8A5AF",
"p c #B3B0B9",
"a c #CFA68B",
"s c #C5C2CD",
"d c #CDCAD5",
"f c #D2CFDA",
"g c #D5D2DD",
/* pixels */
"555-*w55555-*w55",
"55-*a*1555-*a*15",
"5-*aaa*1o-*aaa*1",
"-*aaaaa d aaaaa*",
"*aaaaa+fps+aaaae",
"w*aaa+gppps+aae*",
"55*a+gpp#ppu+e*w",
"555 fpppppppy w5",
"555.dp0p7p6ptX55",
"55- dpppppppt 15",
"5-*+sp:p>p8pt+*1",
"-*a+spppppppt+a*",
"*aa+siuyttttt+ae",
"w*aq++O X +++qe*",
"51*aae*2<,*aae*w",
"551*e*w5551*e*w5",
"555-*w55555-*w55",
"55-*a*1555-*a*15",
"5-*aaa*1o-*aaa*1",
"-*aaaaa d aaaaa*",
"*aaaaa+fps+aaaae",
"w*aaa+gppps+aae*",
"55*a+gpp:ppu+e*w",
"555 fpppppppy w5",
"555.dp=p>p&ptX55",
"55- dpppppppt 15",
"5-*+sp%p7p@pt+*1",
"-*a+spppppppt+a*",
"*aa+siuyttttt+ae",
"w*aq++O X +++qe*",
"51*aae*2<,*aae*w",
"551*e*w5551*e*w5",
"555-*w55555-*w55",
"55-*a*1555-*a*15",
"5-*aaa*1o-*aaa*1",
"-*aaaaa d aaaaa*",
"*aaaaa+fps+aaaae",
"w*aaa+gppps+aae*",
"55*a+gpp4ppu+e*w",
"555 fpppppppy w5",
"555.dprp;p$ptX55",
"55- dpppppppt 15",
"5-*+sp%p7p@pt+*1",
"-*a+spppppppt+a*",
"*aa+siuyttttt+ae",
"w*aq++O X +++qe*",
"51*aae*2<,*aae*w",
"551*e*w5551*e*w5",
"555-*w55555-*w55",
"55-*a*1555-*a*15",
"5-*aaa*1o-*aaa*1",
"-*aaaaa d aaaaa*",
"*aaaaa+fps+aaaae",
"w*aaa+gppps+aae*",
"55*a+gpp:ppu+e*w",
"555 fpppppppy w5",
"555.dp0p3p&ptX55",
"55- dpppppppt 15",
"5-*+sp#p>p9pt+*1",
"-*a+spppppppt+a*",
"*aa+siuyttttt+ae",
"w*aq++O X +++qe*",
"51*aae*2<,*aae*w",
"551*e*w5551*e*w5"
};
