/* XPM */
static char *dispenser_front_horizontal[] = {
/* columns rows colors chars-per-pixel */
"16 16 34 1 ",
"  c black",
". c #101010",
"X c #232323",
"o c gray14",
"O c gray16",
"+ c #2D2D2D",
"@ c gray20",
"# c #353535",
"$ c gray22",
"% c #3F3F3F",
"& c #444444",
"* c gray28",
"= c #4B4B4B",
"- c gray30",
"; c gray32",
": c #555555",
"> c #5A5A5A",
", c #5F5F5F",
"< c gray38",
"1 c #656565",
"2 c #686868",
"3 c #6C6C6C",
"4 c #727272",
"5 c gray47",
"6 c #7E7E7E",
"7 c #848484",
"8 c #8B8B8B",
"9 c #8E8E8E",
"0 c #9D9D9D",
"q c gray64",
"w c gray66",
"e c gray69",
"r c #C5C5C5",
"t c #C8C8C8",
/* pixels */
"$##@@+++X$$#+o#@",
"$3><*:44-<<,>*:@",
"O;5:<,,51;77,5-@",
"+-,,rr;443rt,82O",
"$49ree4;77ree54X",
"O>6r1rw4;re5r2$o",
"@<6r5rwrree7r8<X",
"+,reree00wetwe;$",
"+*reee0oX0eeee5$",
"=9rwe0X  Xteee9*",
"=5eew0X..Xte0w5@",
"-6weeeq..twewq4@",
"=7weewettwwwwe7+",
"=4eeewewwwwqew4@",
"-66554445544556+",
"%@@OOO@@+@OOO@+@"
};
