/* XPM */
static char *dispenser_front_vertical[] = {
/* columns rows colors chars-per-pixel */
"16 16 32 1 ",
"  c black",
". c gray8",
"X c gray13",
"o c gray14",
"O c gray16",
"+ c #2D2D2D",
"@ c gray20",
"# c #353535",
"$ c gray22",
"% c gray23",
"& c gray28",
"* c #4C4C4C",
"= c #515151",
"- c #555555",
"; c #5A5A5A",
": c gray37",
"> c gray38",
", c #656565",
"< c DimGray",
"1 c #6C6C6C",
"2 c gray45",
"3 c #777777",
"4 c gray47",
"5 c gray50",
"6 c gray51",
"7 c gray53",
"8 c #888888",
"9 c gray56",
"0 c #909090",
"q c gray58",
"w c #989898",
"e c #9D9D9D",
/* pixels */
"$##@@++Oo$$#+o##",
"$1;>&;22*>,>-&-@",
"O=4->004,=75:3=@",
"+=:1w,87>1;;<9<o",
"$23<944;;8qq272X",
"O;5155:XX:564<$o",
"@>522;X..X:567>X",
"+:;,:X.  .X97;-$",
"+&29>X.  .X8:*4$",
"O=906;X..X9<<w=@",
"+*443->XX95;<<<O",
"$2842;4094-,9<2o",
"+;;-;-14>;0844$o",
"@>3000<;1e8464>o",
"$1;>&-23*>,>-&;@",
"$##@@+++o$$#+o#@"
};
