/* XPM */
static char *door_birch_upper[] = {
/* columns rows colors chars-per-pixel */
"16 16 58 1 ",
"  c #442E17",
". c #5B3E1F",
"X c #8E7E54",
"o c #8F7F55",
"O c #958559",
"+ c #98875A",
"@ c #99885B",
"# c #9A895C",
"$ c #9D8C5D",
"% c #B6A874",
"& c #B6A876",
"* c #B7A976",
"= c #B7AA77",
"- c #B8AA78",
"; c #B9AB7A",
": c #CBBF7B",
"> c #C0B486",
", c #CEC282",
"< c #CFC385",
"1 c #CFC487",
"2 c #D0C68A",
"3 c #D2C78C",
"4 c #D3C88A",
"5 c #D2C88E",
"6 c #D3C991",
"7 c #D7CD94",
"8 c #D8CF99",
"9 c #DCD29A",
"0 c #D9D09C",
"q c #DBD29F",
"w c #DBD2A1",
"e c #DED5A2",
"r c #E1D8A9",
"t c #E1D9AB",
"y c #E4DCB2",
"u c #DEDACB",
"i c #DFDBCD",
"p c #E2DFD1",
"a c #E5E2D2",
"s c #E7E3D3",
"d c #E7E4D3",
"f c #E6E3D4",
"g c #E7E4D4",
"h c #E8E4D5",
"j c #EAE6D6",
"k c #EAE7D7",
"l c #EBE8D8",
"z c #EDEAD9",
"x c #F2EEDC",
"c c #F3EFDD",
"v c #F4F0DE",
"b c #F5F1DF",
"n c #F6F2E0",
"m c #F8F4E2",
"M c #FAF6E3",
"N c #FAF6E4",
"B c #FBF7E4",
"V c #FDF9E6",
/* pixels */
"ww40wwqw00q700q>",
"w<125256<<2:<<6@",
"w<-=*--=-**-=>6O",
"w:-nnnxuixbMM96@",
" <-nbbxiuxbbM92O",
".<=aadappakka92o",
"01=nnkMMmMkMby<X",
"8<-nMkNMbbaMMy6X",
"7<*ajjMxbbaajt6O",
"0<-MBjbzcbammt6O",
"w,*MBzBxbbkmbr6#",
"w,&kszjaajkasw6#",
"w4-bcjBccMkVBr<#",
"w6=xxkBccMjVBr4@",
"w2-ppkbcbBskjy #",
" 2-xbsBbbMsBbr.@"
};
