/* XPM */
static char *fern[] = {
/* columns rows colors chars-per-pixel */
"16 16 4 1 ",
"  c None",
". c gray38",
"X c #7E7E7E",
"o c gray71",
/* pixels */
"                ",
"       o        ",
"      .oXX      ",
"      XoX       ",
"     ..X..      ",
"    .XXoXX      ",
"     ..X..X     ",
"    .XXoXX.     ",
"    X..X..X     ",
"   X.XXoXX..    ",
"     ..o..X     ",
"   X.XXoXX..    ",
"    X..o..XX    ",
"   X   X.   X   ",
"       X.       ",
"       X.       "
};
