/* XPM */
static char *glass_pane_top_purple[] = {
/* columns rows colors chars-per-pixel */
"16 16 5 1 ",
"  c None",
". c #763BA5",
"X c #7A3DAA",
"o c #7C3EAD",
"O c #7F3FB1",
/* pixels */
"       OX       ",
"       O.       ",
"       OX       ",
"       XX       ",
"       XO       ",
"       O.       ",
"       X.       ",
"       X.       ",
"       O.       ",
"       X.       ",
"       OX       ",
"       O.       ",
"       OX       ",
"       OX       ",
"       O.       ",
"       Oo       "
};
