/* XPM */
static char *hay_block_top[] = {
/* columns rows colors chars-per-pixel */
"16 16 95 2 ",
"   c #7B7317",
".  c #846C0E",
"X  c #8C700E",
"o  c #90760E",
"O  c #93780F",
"+  c #957A0F",
"@  c #957D0F",
"#  c #9B7F0F",
"$  c #826714",
"%  c #816A11",
"&  c #856B11",
"*  c #816E13",
"=  c #896E11",
"-  c #857311",
";  c #857413",
":  c #8B7311",
">  c #887312",
",  c #8D7411",
"<  c #8C7114",
"1  c #837A17",
"2  c #8F7C11",
"3  c #917711",
"4  c #937911",
"5  c #937F13",
"6  c #987D10",
"7  c #9D7E13",
"8  c #9A7C14",
"9  c #92751A",
"0  c #9D810F",
"q  c #9F850F",
"w  c #8F8515",
"e  c #978613",
"r  c #9E8212",
"t  c #9B8613",
"y  c #9C8A12",
"u  c #A2840E",
"i  c #A3850F",
"p  c #A5870F",
"a  c #AB8C0F",
"s  c #AE920E",
"d  c #B2910E",
"f  c #B6940E",
"g  c #B8960E",
"h  c #B99B0F",
"j  c #BE9B0E",
"k  c #BB9D0F",
"l  c #BF9C0F",
"z  c #A08310",
"x  c #A18711",
"c  c #A78511",
"v  c #A58711",
"b  c #A28514",
"n  c #A18813",
"m  c #A58B13",
"M  c #A68C12",
"N  c #A78D13",
"B  c #A78A15",
"V  c #A88A12",
"C  c #AB8C11",
"Z  c #AB8C13",
"A  c #AC8D12",
"S  c #A48118",
"D  c #A88818",
"F  c #AA8D18",
"G  c #A79413",
"H  c #A89110",
"J  c #AB9311",
"K  c #AD9111",
"L  c #AF9711",
"P  c #B39211",
"I  c #B79611",
"U  c #B59413",
"Y  c #B99711",
"T  c #B39A11",
"R  c #B59811",
"E  c #B19C11",
"W  c #BA9810",
"Q  c #BC9A12",
"!  c #B89E10",
"~  c #BCA50E",
"^  c #BAA010",
"/  c #C19D0F",
"(  c #C29E0E",
")  c #C49F0E",
"_  c #C1A20F",
"`  c #C5A00F",
"'  c #C5A40D",
"]  c #C8A30E",
"[  c #CAA40E",
"{  c #C8A70E",
"}  c #CBAA0F",
"|  c #CDAB0F",
" . c #D2AF0E",
".. c #C3A311",
"X. c #CDAC11",
/* pixels */
"Z m P # V $ d c m i d 8 j m A 7 ",
"9 _ W _ a ~ 1 P > P m T D A i h ",
"P + T 2 f i / + Y s ( l ) o d 4 ",
"& f i _ . f # ..n f . e P f . V ",
"V . t i ) 0 / . K . m d V n g u ",
"< ( = L i Y . H : @ , ' i g X d ",
"I K 6  .( y ( M ( 3 ` x o x Y i ",
"f ..B 3 H L t m 4 X.x ! g 3 S I ",
"N } 7 ~ _ d _ y 5 x ( 0 ' T ..4 ",
"W r k N q X = | I  ., Y 6 X.K T ",
"Z @ ; H O k V 5 n 4 r 5 f 4 ! , ",
"& ( . l @ f 0 f X l ~ ' f / u ( ",
"P d f 4 W 0 s . g . m r ~ ; ~ z ",
"* f ; k 4 [ , V 0 g i W P } # C ",
"N M k r T y X.G g l [ N Q e  .c ",
"d f M Z   P b U - P x T B C % C "
};
