/* XPM */
static char *log_big_oak_top[] = {
/* columns rows colors chars-per-pixel */
"16 16 23 1 ",
"  c #1E170E",
". c #251E13",
"X c #312717",
"o c #342918",
"O c #342A1A",
"+ c #362C1C",
"@ c #392F1F",
"# c #4C3E29",
"$ c #4F412B",
"% c #4F412C",
"& c #50412C",
"* c #53442D",
"= c #55442E",
"- c #5A472F",
"; c #594730",
": c #5B4830",
"> c #5E4A30",
", c #5E4A31",
"< c #604C32",
"1 c #614C32",
"2 c #634D32",
"3 c #644F33",
"4 c #6D5435",
/* pixels */
"OO OOo   OO +OO+",
"O:;:,----;;,<<-X",
" ,$%&#&&=&&&&&-O",
"O:*,<<<<<,<<2&- ",
".;$<;<<-:<-<<&-O",
" ,$<,&=&&&#-<&-O",
" -&<,$<<2<&<,&- ",
" :&4-&<;<<&=<&-@",
"O;;<:#<<:<&,1&,+",
"O1#<<#<<<2#:2&;O",
"O:=<-#&&##=1<&-O",
" :#<:<;<<;<:<&-X",
" :#2<<<<<<2<<&, ",
" ;=#&$#&&&&=;&: ",
".;:<>>==,-&:-;:O",
"O@ OOo OOOOO   O"
};
