/* XPM */
static char *log_jungle_top[] = {
/* columns rows colors chars-per-pixel */
"16 16 53 1 ",
"  c #3A2A13",
". c #382C13",
"X c #3B2D13",
"o c #3C2D13",
"O c #3D2F13",
"+ c #3E3013",
"@ c #463713",
"# c #413414",
"$ c #413A13",
"% c #533F19",
"& c #564016",
"* c #534717",
"= c #504219",
"- c #564719",
"; c #584218",
": c #584519",
"> c #5B471C",
", c #544C19",
"< c #59481B",
"1 c #5C491D",
"2 c #674E20",
"3 c #684E20",
"4 c #775722",
"5 c #7B5924",
"6 c #7C5A26",
"7 c #7D5E27",
"8 c #776726",
"9 c #977C45",
"0 c #997E47",
"q c #9A7F48",
"w c #AD7F53",
"e c #9B8049",
"r c #9D824B",
"t c #9E834C",
"y c #9F844D",
"u c #A0854E",
"i c #A28750",
"p c #AE8054",
"a c #A38851",
"s c #A78C55",
"d c #B18357",
"f c #B38559",
"g c #B4865A",
"h c #B6885C",
"j c #B7895D",
"k c #B98B5F",
"l c #AC915A",
"z c #BA8C60",
"x c #BC8E62",
"c c #BD8F63",
"v c #BE9064",
"b c #BF9165",
"n c #C99B6F",
/* pixels */
"XX&675OOOOOX+@@3",
"7gdgggggwdggkzg2",
"-jrtu9rrstutyagX",
"$gajxxxxxkxkzyf8",
"-grxgkggfjfzcyf:",
">grxgtaayyygzeg1",
"4gukjrkxbcygzyg6",
"&gunfuxgfzywzig3",
" glcfizggctfztj+",
":gtcdqzxzbyfbtf=",
"-diggttuuyyzbyf,",
".fucgggggggzzaf.",
"2fybczzxxznxzij2",
">fqyitutqtqisad7",
"=gffgzwdfgwfgff;",
"=16 o#::1-111 + "
};
