/* XPM */
static char *piston_bottom[] = {
/* columns rows colors chars-per-pixel */
"16 16 32 1 ",
"  c #232323",
". c #272727",
"X c gray17",
"o c #2D2D2D",
"O c gray20",
"+ c #353535",
"@ c gray22",
"# c gray23",
"$ c #444444",
"% c #4B4B4B",
"& c #4C4C4C",
"* c #515151",
"= c #555555",
"- c #5A5A5A",
"; c #5D5D5D",
": c gray38",
"> c #656565",
", c #6A6A6A",
"< c #6C6C6C",
"1 c #727272",
"2 c #747474",
"3 c gray47",
"4 c #7E7E7E",
"5 c #808080",
"6 c #868686",
"7 c #888888",
"8 c gray56",
"9 c #909090",
"0 c #979797",
"q c #989898",
"w c #9D9D9D",
"e c gray64",
/* pixels */
"@++OoOXo @++o.+O",
"@<-:%=11&:>:-$=O",
"X*3=:893>*65:3*o",
"o*;<0,77:<--,7,X",
"@13,833;,700161 ",
"X-4<443-99353,+.",
"O:412=,3168457: ",
"o;->88,:,;-47-*@",
"O$17e1<q961>;%3@",
".*8q4;9<045,,0*O",
"o&333=96344-<,,X",
"@2732-3453-:8,< ",
"o-=---<3:-9734@.",
"O:2960,-<w7353; ",
"@<-:$=11&:>:=$=O",
"@+++OoooX@@+oX+O"
};
