/* XPM */
static char *pumpkin_face_off[] = {
/* columns rows colors chars-per-pixel */
"16 16 6 1 ",
"  c #2D0003",
". c #441300",
"X c #A05A0B",
"o c #D07C14",
"O c #E3901D",
"+ c #E3A64B",
/* pixels */
"XXoXXooXXoXXooXX",
"X+OXoOOoXOOXoOOX",
"XoOX  OOX+ XOOOX",
"XoOX . +X   XOoX",
"XoX ...XX .. XoX",
"X+X ...XX ...XoX",
"X+X ...XX ....XX",
"XOOX..XXXX....XX",
"XOOOXXXoXXXXXXoX",
"XoX X XX XX X oX",
"Xo    .  .  . XX",
"XX ............X",
"XXX .X..X...X..X",
"XXX XO.XXOO.X+XX",
"XoOoXOOXX+OXXOOX",
"XXooXXoXXoXXooXX"
};
