/* XPM */
static char *purpur_pillar[] = {
/* columns rows colors chars-per-pixel */
"16 16 44 1 ",
"  c #8D628D",
". c #8E638E",
"X c #906590",
"o c #916791",
"O c #946794",
"+ c #976C97",
"@ c #986998",
"# c #996E99",
"$ c #9E6F9E",
"% c #997199",
"& c #A06FA0",
"* c #A072A0",
"= c #A477A4",
"- c #A776A7",
"; c #A678A6",
": c #A875A8",
"> c #AA7AAA",
", c #AB7DAB",
"< c #AC7BAC",
"1 c #AF7EAF",
"2 c #AB85AB",
"3 c #AF80AF",
"4 c #B080B0",
"5 c #B487B4",
"6 c #B38CB3",
"7 c #B78BB7",
"8 c #B58CB5",
"9 c #B593B5",
"0 c #B794B7",
"q c #B993B9",
"w c #BB91BB",
"e c #B996B9",
"r c #BC95BC",
"t c #BD95BD",
"y c #BF9BBF",
"u c #BE9DBE",
"i c #C29EC2",
"p c #C39EC3",
"a c #C2A0C2",
"s c #C5A0C5",
"d c #C6A2C6",
"f c #C7A8C7",
"g c #C9A9C9",
"h c #CDADCD",
/* pixels */
"g41Ogsi#giy-f,, ",
"i<- q31&q--@a-:.",
"0>>o2:>-544#u;;+",
"r11o@@O+@$%@9->+",
"g41+gii-hsi$f,,+",
"i>-o6*#:r11%a-; ",
"r>>o2--$8:%#u-;+",
"811+:@++@@##0--o",
"f11Ohsi-hsi-f,>o",
"0>- 8*1-r1:+i-=+",
"u11 2=-$71-@u;-o",
"811+:+#@$$#-a;-O",
"f11ogpp$hsp:g1>o",
"u1,O7:>#q11&a;; ",
"9>>Ow1>@2:-$i>,+",
"7,1+$**++#+#0>>+"
};
