/* XPM */
static char *rail_detector_powered[] = {
/* columns rows colors chars-per-pixel */
"16 16 35 1 ",
"  c None",
". c #413625",
"X c #453B27",
"o c #4C3D25",
"O c #5B4625",
"+ c #524328",
"@ c #5C4D30",
"# c #644F2A",
"$ c #6D532F",
"% c #685538",
"& c #6C593C",
"* c #715D35",
"= c #784849",
"- c #686868",
"; c #A00002",
": c #AB0301",
"> c #843233",
", c #D40102",
"< c #8E733C",
"1 c #BA4943",
"2 c #B84D46",
"3 c #BC4E48",
"4 c #BC504A",
"5 c #816740",
"6 c #876D45",
"7 c #B36863",
"8 c #B56A66",
"9 c #BC726E",
"0 c #C65B55",
"q c #CD5E58",
"w c #CD625C",
"e c #A4804A",
"r c #AC8852",
"t c #A4A4A4",
"y c gray66",
/* pixels */
"  t-        -t  ",
" 5t-@*eerr6%-t5 ",
" +t-X+####o.-t+ ",
"  t-        -t  ",
"  t=        =t  ",
" 5t=&,,;::;&=t5 ",
" +t=.;q9w3,.=t+ ",
"  t> :wyy8; =t  ",
"  t> ;0yy2; >t  ",
" 5t=&,3741;%=t5 ",
" +t=.;;;;;,X>t+ ",
"  t=        >t  ",
"  t-        =t  ",
" 5t-@6r<rr<%=t5 ",
" +t-.o$O###.=t+ ",
"  t-        -t  "
};
