/* XPM */
static char *rail_activator[] = {
/* columns rows colors chars-per-pixel */
"16 16 19 1 ",
"  c None",
". c #160000",
"X c #280000",
"o c #390000",
"O c #4B0000",
"+ c #540200",
"@ c #4C3D25",
"# c #5B4625",
"$ c #524328",
"% c #644F2A",
"& c #6D532F",
"* c #715D35",
"= c #686868",
"- c #8E733C",
"; c #816740",
": c #876D45",
"> c #A4804A",
", c #AC8852",
"< c #A4A4A4",
/* pixels */
"  <=        =<  ",
" ;<=oO*>,:Oo=<; ",
" $<=.X$%%@X.=<$ ",
"  <=   XO   =<  ",
"  <=   XO   =<  ",
" ;<=oO:,-%Oo=<; ",
" $<=.X@#%#X.=<$ ",
"  <=   XO   =<  ",
"  <=   OX   =<  ",
" ;<=o+:-->Oo=<; ",
" $<=.X@#%%X.=<$ ",
"  <=   OX   =<  ",
"  <=   XX   =<  ",
" ;<=oO:,,-Oo=<; ",
" $<=.X@&%%X.=<$ ",
"  <=        =<  "
};
