/* XPM */
static char *red_sandstone_top[] = {
/* columns rows colors chars-per-pixel */
"16 16 27 1 ",
"  c #9A4F1A",
". c #9B4F1B",
"X c #9C501B",
"o c #9E501C",
"O c #9E511C",
"+ c #9E501D",
"@ c #A2531C",
"# c #A3531D",
"$ c #A4531C",
"% c #A2541C",
"& c #A3541C",
"* c #A6541D",
"= c #A6551D",
"- c #A7561D",
"; c #A5541E",
": c #A8541E",
"> c #AA561F",
", c #AC571F",
"< c #AB581E",
"1 c #AE591F",
"2 c #AB5820",
"3 c #AC5820",
"4 c #AE5820",
"5 c #B05A20",
"6 c #B15A20",
"7 c #B45C22",
"8 c #B65C22",
/* pixels */
"4,#;3**#22#>>*46",
">>>>*...***1>664",
";;>;.#.O###,1111",
"1;>;#*:>#*.21;>%",
"*#;#;;>>%;;;1<>%",
"#*;XX%18>$;;;;;;",
"#*>%;%%6;;1;;;>>",
">#>X;$O@>>1>;>>;",
"*#2**,2>>$;6111;",
"X###>,:.1$;;1<>;",
".2***24;;>$O181O",
">>*>#*4.$;%%<;;;",
">>>*22;XO%;XO;5;",
">>;>%2X;%$;$;$<1",
"<<;1;4;X%;;;<4<<",
"1<><%2<$;;;4;1;%"
};
