/* XPM */
static char *reeds[] = {
/* columns rows colors chars-per-pixel */
"16 16 8 1 ",
"  c None",
". c #75C128",
"X c #698747",
"o c #91EF32",
"O c #82A859",
"+ c #96C166",
"@ c #AADB74",
"# c #E5EFDA",
/* pixels */
" #+  @O  @O  @O ",
" OX  @O  @O  #+ ",
" @Oo @O  @O. OX ",
" @O. @Oo @O  @O ",
" @O  #+. @O  @O ",
" @O  OX  #+  @O ",
" @O  @O  OX  @Oo",
" @O  @O  @O  @O.",
"o#+  @O  @O  @O ",
".OX  @O  @O  #+ ",
" @O .#+ o@O  OX ",
" @O  OX .@O  @O ",
" @O  @O  @O  @O ",
" @O  @O  #+ .@O ",
" @O  @O  OX  @O ",
" @O  @O  @O  @O "
};
