/* XPM */
static char *sandstone_carved[] = {
/* columns rows colors chars-per-pixel */
"16 16 74 1 ",
"  c #BDB56F",
". c #BFB771",
"X c #C2BA72",
"o c #C4BC73",
"O c #C1B976",
"+ c #C3BB79",
"@ c #C1BA7D",
"# c #C4BC7C",
"$ c #C5BD7D",
"% c #C7BF7E",
"& c #C7C07E",
"* c #C8C07E",
"= c #CAC47F",
"- c #C6BF81",
"; c #C4BF83",
": c #C7BF82",
"> c #C2BD8B",
", c #C5C086",
"< c #C9C082",
"1 c #C9C382",
"2 c #C9C186",
"3 c #CBC286",
"4 c #CAC589",
"5 c #CDC58B",
"6 c #CDC78D",
"7 c #CEC88C",
"8 c #CCC590",
"9 c #CDC996",
"0 c #D2CB92",
"q c #D5CD93",
"w c #D4CD96",
"e c #D3CE9B",
"r c #D5CE9A",
"t c #D2CA9D",
"y c #D5CD9C",
"u c #D8CF9B",
"i c #D6D09F",
"p c #D9D29A",
"a c #D8D19F",
"s c #DBD49F",
"d c #D7CCA2",
"f c #DBD2A1",
"g c #D8D2A3",
"h c #DCD4A0",
"j c #DDD4A5",
"k c #DFD7A4",
"l c #DAD3A8",
"z c #DCD4AC",
"x c #DDD6AC",
"c c #DDD8AB",
"v c #DFD8AB",
"b c #E0D8A5",
"n c #E5DBA9",
"m c #E0D8AC",
"M c #E3DCAE",
"N c #E4DDB3",
"B c #E6DDB2",
"V c #E5DDB5",
"C c #E7DFB4",
"Z c #E4DEB6",
"A c #E8DFB1",
"S c #E9E0B0",
"D c #E9E0B3",
"F c #E9E0B5",
"G c #EBE2B6",
"H c #ECE3B4",
"J c #EDE4B5",
"K c #E5E0BB",
"L c #E8E0BB",
"P c #EFE6B8",
"I c #EDE5BD",
"U c #F2E9BA",
"Y c #F2ECC2",
"T c #F1EAC4",
/* pixels */
"AGGBvmUGVUDHGUUG",
"ndfffdt6yyafeMVM",
",e0-<,5-,*+X69>@",
"YYVHGTTUKUUUZGU.",
"YfDpr-%bp$,aaBr.",
"YrDaG<5Bb@+Hajx@",
"U67prGB-3aMccgx.",
"UDaaaA5#q3jjjjj+",
"UDfffG+jH3jjjjjo",
".1....4X= .44<5o",
"TIJUHTYPPDPTTPPo",
"Uhf$rB55pjq<@&Po",
"Uf5eO0H+55.lj0Ko",
"U.j@jji7lz2wj+vo",
"Kpprp&rpiliiiip=",
"1@1.==<@= ..=.o."
};
