/* XPM */
static char *sandstone_smooth[] = {
/* columns rows colors chars-per-pixel */
"16 16 61 1 ",
"  c #C2BA72",
". c #C4BC73",
"X c #C0BA78",
"o c #C3BA7A",
"O c #C1BA7D",
"+ c #CAC47F",
"@ c #C6BF81",
"# c #C2BD8B",
"$ c #C5C086",
"% c #C9C382",
"& c #CDC787",
"* c #CAC589",
"= c #D2CB8F",
"- c #CCC590",
"; c #CDC996",
": c #D4CF9B",
"> c #D2CA9D",
", c #D5CD9C",
"< c #D6CE9D",
"1 c #D8CF9B",
"2 c #D6D09F",
"3 c #D8D199",
"4 c #DAD19E",
"5 c #DAD19F",
"6 c #DBD49F",
"7 c #D7CCA2",
"8 c #D6CDA3",
"9 c #DBD2A1",
"0 c #DDD5A0",
"q c #DDD4A5",
"w c #DED7A5",
"e c #DAD3A8",
"r c #DDD7A8",
"t c #DCD4AC",
"y c #DDD6AC",
"u c #DDD8AB",
"i c #E0D7A6",
"p c #E2DAA7",
"a c #E0D7AC",
"s c #E1D8A8",
"d c #E5DBA9",
"f c #E5DDA8",
"g c #E0D8AC",
"h c #E1DBAE",
"j c #E3DCAE",
"k c #E2DCB3",
"l c #E6DDB2",
"z c #E5DDB5",
"x c #E7DFB4",
"c c #E4DEB6",
"v c #E8DFB1",
"b c #E9E0B0",
"n c #E9E0B3",
"m c #EBE2B6",
"M c #ECE3B4",
"N c #E5E0BB",
"B c #EAE3B9",
"V c #EDE5BD",
"C c #F2E9BA",
"Z c #F2ECC2",
"A c #F1EAC4",
/* pixels */
"vmmlagCBxCnmmCCm",
"d79998>-::89:jzj",
"$:=@%@*@@%o &;#O",
"ZZzmmAACzCCCzlCX",
"Zwn::nfi39326k:o",
"C0n6nnqlwl:m4wto",
"Cn31inkk11ygy7rX",
"Clrp4nwql4qwww0X",
"Cl449vqqm:qqq1q.",
"Cqq9qqqmi0w4:wq.",
"Awl3qqlqwqzllwq.",
"C944:lqq1qBBwsV.",
"C9q:qvmmqqewqlc.",
"C1q19i1iqe,:qka.",
"l::::+,:,eg2:::%",
"%o+o+++X+X X+o ."
};
