/* XPM */
static char *sponge_wet[] = {
/* columns rows colors chars-per-pixel */
"16 16 162 2 ",
"   c #555F4E",
".  c #525C50",
"X  c #545E50",
"o  c #5E6747",
"O  c #56604F",
"+  c #5B6348",
"@  c #59624A",
"#  c #59614E",
"$  c #5D664E",
"%  c #576150",
"&  c #5D6650",
"*  c #5E6950",
"=  c #646C4D",
"-  c #656C4F",
";  c #606A52",
":  c #606B5A",
">  c #687050",
",  c #697653",
"<  c #6C7657",
"1  c #6E7853",
"2  c #677159",
"3  c #758154",
"4  c #768359",
"5  c #7A865B",
"6  c #858423",
"7  c #828126",
"8  c #8A872E",
"9  c #8A8B2B",
"0  c #8D8A2B",
"q  c #918E2B",
"w  c #938D2E",
"e  c #959129",
"r  c #95922F",
"t  c #9A942A",
"y  c #999829",
"u  c #9E9A2A",
"i  c #9C982E",
"p  c #868330",
"a  c #878433",
"s  c #898432",
"d  c #8D8A31",
"f  c #8F8D32",
"g  c #928F30",
"h  c #939031",
"j  c #939033",
"k  c #979333",
"l  c #979631",
"z  c #959733",
"x  c #959237",
"c  c #9B9333",
"v  c #999631",
"b  c #9B9733",
"n  c #9A9236",
"m  c #999535",
"M  c #9A9736",
"N  c #9B9A31",
"B  c #9B9A33",
"V  c #9E9A32",
"C  c #9F9B33",
"Z  c #9C9934",
"A  c #96933A",
"S  c #9F973A",
"D  c #9B9A3C",
"F  c #9E9B3E",
"G  c #A29D2A",
"H  c #A59E2B",
"J  c #A39F2D",
"K  c #A19D2E",
"L  c #A09A30",
"P  c #A09C30",
"I  c #A19D35",
"U  c #A39C36",
"Y  c #A0983A",
"T  c #A39D39",
"R  c #A09D3A",
"E  c #A39F3D",
"W  c #A5A02D",
"Q  c #A6A02F",
"!  c #AAA62E",
"~  c #B3AE2F",
"^  c #A4A034",
"/  c #A7A335",
"(  c #A8A432",
")  c #ABA735",
"_  c #A8A537",
"`  c #AEA736",
"'  c #AEAA32",
"]  c #ADA935",
"[  c #A2A03A",
"{  c #A5A13A",
"}  c #A2A13E",
"|  c #A7A23D",
" . c #A8A43A",
".. c #ABA23F",
"X. c #A8A63D",
"o. c #ABA93E",
"O. c #ADAA3D",
"+. c #B3AE33",
"@. c #B0AB39",
"#. c #B2AE38",
"$. c #B0AF3F",
"%. c #BDB131",
"&. c #BFB733",
"*. c #B1B33A",
"=. c #B4B239",
"-. c #B7B239",
";. c #B6B53F",
":. c #B9B63E",
">. c #C4C035",
",. c #CCC833",
"<. c #818B58",
"1. c #A2A140",
"2. c #ADA841",
"3. c #ACAA42",
"4. c #ACAD46",
"5. c #AEAF4B",
"6. c #B1AB45",
"7. c #B0B045",
"8. c #B7B246",
"9. c #B6B445",
"0. c #B8B740",
"q. c #B9B741",
"w. c #B8B846",
"e. c #B2B14B",
"r. c #B5B449",
"t. c #B7B14E",
"y. c #B7B74C",
"u. c #B6B74E",
"i. c #B8B64A",
"p. c #BAB44E",
"a. c #BBBB4A",
"s. c #BDBC4A",
"d. c #BBBB4E",
"f. c #BEBE4F",
"g. c #B8B751",
"h. c #B9B851",
"j. c #BEB852",
"k. c #BFBF50",
"l. c #BABB55",
"z. c #BCBE55",
"x. c #BDBC56",
"c. c #C1BD41",
"v. c #C0BF45",
"b. c #C1BC57",
"n. c #BFC255",
"m. c #C1C146",
"M. c #C4C444",
"N. c #CDCC43",
"B. c #CDCA47",
"V. c #C7C64A",
"C. c #C2C252",
"Z. c #C6C653",
"A. c #C9C853",
"S. c #CCCC51",
"D. c #C3C65D",
"F. c #CECB5C",
"G. c #D2CF50",
"H. c #D2CE53",
"J. c #D0D055",
"K. c #D7D658",
"L. c #D5D55E",
"P. c #DBDA58",
/* pixels */
"z.h.4.k.z m.y.r.z.e.; C.D.p.M.z.",
"u.< G.5.2.m.* f !  .| ..9.n.: x.",
"n.c.e.2.^ K 8 0 Q n e  .* X.P.b.",
"f.5.o.# p P  .# Q B j O 6 i 2.C.",
"e.=.Y q - i e h z d t u ^ V ,.t.",
"i.m i b I h G L   N m B o Y 1.3 ",
"j.& V ` @ m Z m ( L c 9 %.] Z 6.",
"$.- &.P ( R h G t M Y R 7 P { *.",
"r.#.H G I b r # ] p % n 0 B O.e.",
":.X.K   Q m } A M + 8 b ( % > } ",
"d.4.V ~ h G   I =.Z +.' b >.j q.",
"2 q.[ *.B l V I L j c X I F v.f.",
"3 K.2.* s b V #.  s Z b I <.1 A.",
"S.N.p.} j ] b $ w } s R ;.g.f.g.",
"n.h.4 [ V.D 8...6.} s.q., G.f.r.",
"F.s.6.w.4 j.a.f.L.S.B.Z.A.g.f.5 "
};
