/* XPM */
static char *trapdoor[] = {
/* columns rows colors chars-per-pixel */
"16 16 23 1 ",
"  c None",
". c #493518",
"X c #523919",
"o c #573C1B",
"O c #5B3C1C",
"+ c #6A431F",
"@ c #634721",
"# c #674A22",
"$ c #724520",
"% c #754622",
"& c #785327",
"* c #765729",
"= c #7A5B2B",
"- c #80572A",
"; c #82592C",
": c #896832",
"> c #8F6B35",
", c #906D35",
"< c #916D38",
"1 c #947338",
"2 c #A08340",
"3 c #A58845",
"4 c #A78A49",
/* pixels */
"ooOXXOXoooX.XXoo",
"+<:::>>><<<>=<<+",
"o*@###=<<##@@*=o",
"%:&   2=:;   3>%",
"+:#   2><-   2:+",
"%<;   2:=&   4<%",
"o:=4442<:<3222:o",
"+<<<<:<=<<>><<<+",
"+<<<<:<><<>><<<+",
"+:&&&->:*&&#;::+",
"+>-   2<:&   3>+",
"o*#   1=:#   ,*o",
"%<;   2<<&   1<%",
"$:=4442:=<3222:$",
"%<:::<<><<:><<<%",
"oooOXXOXoooX.XXo"
};
