/* XPM */
static char *acacia_door_bottom[] = {
/* columns rows colors chars-per-pixel */
"32 32 215 2 ",
"   c None",
".  c #353535",
"X  c gray24",
"o  c #64351D",
"O  c #65361E",
"+  c #66371E",
"@  c #66371F",
"#  c #68381F",
"$  c #69381F",
"%  c #6A391F",
"&  c #693820",
"*  c #693920",
"=  c #6A3920",
"-  c #6B3920",
";  c #6B3A20",
":  c #6C3A21",
">  c #6E3B20",
",  c #6E3C20",
"<  c #6F3C20",
"1  c #703C20",
"2  c #703D21",
"3  c #743F22",
"4  c #753F22",
"5  c #773F23",
"6  c #783F24",
"7  c #764022",
"8  c #774022",
"9  c #774023",
"0  c #774226",
"q  c #784024",
"w  c #794024",
"e  c #7A4024",
"r  c #7A4124",
"t  c #784326",
"y  c #7E4225",
"u  c #7E4325",
"i  c #7F4326",
"p  c #794427",
"a  c #7A4427",
"s  c #7B4527",
"d  c #7C4528",
"f  c #7D4628",
"g  c #7E4628",
"h  c #7F4728",
"j  c #515151",
"k  c #6F6F6F",
"l  c #727272",
"z  c #804426",
"x  c #814426",
"c  c #824527",
"v  c #834527",
"b  c #804729",
"n  c #874728",
"m  c #814829",
"M  c #894928",
"N  c #8A4928",
"B  c #894A29",
"V  c #8A4A29",
"C  c #8C4A29",
"Z  c #8E4B2A",
"A  c #8D4C2A",
"S  c #8F4C2A",
"D  c #8F4D2B",
"F  c #914D2B",
"G  c #944E2B",
"H  c #95502B",
"J  c #96512B",
"K  c #94502C",
"L  c #97502C",
"P  c #97512C",
"I  c #96512D",
"U  c #99512D",
"Y  c #98522C",
"T  c #99522C",
"R  c #9A532D",
"E  c #9B532D",
"W  c #99522E",
"Q  c #9B542D",
"!  c #9C542D",
"~  c #9D542D",
"^  c #9D552D",
"/  c #9C542F",
"(  c #9E552E",
")  c #9F552E",
"_  c #9F562E",
"`  c #A0552F",
"'  c #A1562E",
"]  c #A1572F",
"[  c #A2572F",
"{  c #A3582F",
"}  c #A4582F",
"|  c #A15630",
" . c #A25630",
".. c #A35730",
"X. c #A45731",
"o. c #A05933",
"O. c #A05A33",
"+. c #A15A33",
"@. c #A25B33",
"#. c #A55930",
"$. c #A55831",
"%. c #A65930",
"&. c #A65831",
"*. c #A65931",
"=. c #A75931",
"-. c #A75A30",
";. c #A35B34",
":. c #A45C34",
">. c #A55C34",
",. c #A65D35",
"<. c #A75D35",
"1. c #A85A30",
"2. c #A85A31",
"3. c #A95B31",
"4. c #AA5B31",
"5. c #A85932",
"6. c #A85A32",
"7. c #A95A32",
"8. c #AA5A32",
"9. c #AB5B32",
"0. c #AB5B33",
"q. c #AA5C31",
"w. c #AC5C33",
"e. c #AD5C33",
"r. c #AE5C33",
"t. c #A85E35",
"y. c #A95F36",
"u. c #AA5F36",
"i. c #AB5F36",
"p. c #AE5D34",
"a. c #AF5D34",
"s. c #B05E34",
"d. c #B15E34",
"f. c #B25F35",
"g. c #B35F35",
"h. c #AB6036",
"j. c #AC6037",
"k. c #AD6137",
"l. c #AE6137",
"z. c #AF6238",
"x. c #B36035",
"c. c #B56035",
"v. c #B66136",
"b. c #B76136",
"n. c #B06238",
"m. c #B16338",
"M. c #B26438",
"N. c #B36439",
"B. c #B46539",
"V. c #B56539",
"C. c #B6663A",
"Z. c #B7663A",
"A. c #B8673A",
"S. c #975D41",
"D. c #986042",
"F. c #9D6144",
"G. c #9E6345",
"H. c #A16443",
"J. c #A16345",
"K. c #A16445",
"L. c #A26444",
"P. c #A26544",
"I. c #A26446",
"U. c #A36446",
"Y. c #A36546",
"T. c #A26647",
"R. c #A56645",
"E. c #A46546",
"W. c #A56647",
"Q. c #A46747",
"!. c #A66747",
"~. c #A96746",
"^. c #AA6847",
"/. c #AB6847",
"(. c #AA6947",
"). c #AA6A47",
"_. c #A76748",
"`. c #A56848",
"'. c #A86848",
"]. c #AB6A48",
"[. c #AC6A48",
"{. c #AE6A48",
"}. c #AF6B49",
"|. c #AE6C49",
" X c #AF6C49",
".X c #AF6D49",
"XX c #AC6D4A",
"oX c #AD6E4A",
"OX c #AE6E4B",
"+X c #AE6F4B",
"@X c #B16C4A",
"#X c #B06D4A",
"$X c #B26D4A",
"%X c #B36D4A",
"&X c #B26E4B",
"*X c #B56F4B",
"=X c #B66F4C",
"-X c #B0704C",
";X c #B1704C",
":X c #B7704C",
">X c #B4724D",
",X c #B5734E",
"<X c #B6744E",
"1X c #B7744F",
"2X c #B8704C",
"3X c #B8704D",
"4X c #BB724E",
"5X c #BC734E",
"6X c #BD734E",
"7X c #BE744F",
"8X c #BB7750",
"9X c #BB7751",
"0X c #BC7851",
"qX c #BE7952",
"wX c #868686",
/* pixels */
"wXk v.v.Z.Z.*.B.K Z.} n.*.w.l.l.D e.w.i.^ <.Q J A J 0 X j l J t ",
"k k v.Z.Z.> 0 o 0 , ' n.} 2 s + t t R i.^ 9 u ; h 9 w.s X j J t ",
"'.A.q.Z.Z.>         ~.} s.1         +X<.<.*         :XK <.+.J 0 ",
"'.Z.4.Z.4.,         ~.} s.1         -X<.<.9         :XJ +.+.+., ",
"`.q.Z.R *.5         ~.{ e.2         {.i.<.y         =XR +.J ' , ",
"_.q.Z.Z.4.5         /.{ z.2         +X<.Q y         =XK @.J ^ , ",
"_.4.v.Z.4.5         '.' l.t         -Xi.Q u         3XR +.J | > ",
"_.4.v.Z.} 5         /.K v.6         -X<.R y         P.K +.J V > ",
"_.4.v.Z.} q         /.{ z.t         OXi.E y         3XJ +.J ' > ",
"_.4.g.B.*.5         G.{ e.t         &X*.R z         3X+.+.G ^ > ",
"!.Z.Z.} B.9         H.' z.t         @XR *.z         +X+.+.G | t ",
"!.Z.Z.} B.9         H.' i.s         @XR <.z         {.| +.G | 0 ",
"!.Z.} v.B.0         S.e.j.*         $XR :.9         Q.' O.| G t ",
"Q.B.m.v.m.0         P.e.h.d         $X*.:.9         +XJ O.^ G 6 ",
"Q.v.*.v.m.s         P.4.h.s         G.X.:.9         +XG o.| J 5 ",
"Q.Z.} *.m.%         P.w.h.d         $XF :.q         $XG o.^ J 5 ",
"Q.n.Z.} n.2         ].i.h.d         '.R <.u         3Xo.o.| G , ",
"Q.B.B.*.n.,         OXi.4.f         /.R ;.u         8XO.o.V J > ",
"Q.N.K *.B.%         +X^ 4.d         /.Y ;.v         9XJ O.O.G 0 ",
"U.N.g.*.v.t         {.o.*.d         /.D ;.v         `.J o.O.J 0 ",
". . s.} z.t         {.^ *.f         '.R @.v         4XJ o.| G t ",
"wXwXs.} z.5         {.^ i.h         /.R ;.v         4XJ o.E G t ",
"wXk } } z.&         {.^ <.*         ].J @.v         4XG o.| | t ",
"k k } s.f.t         {.^ <.5         +X' @.v         4XV o.' G t ",
"U.v.{ w.v.q         @X*.<.5         <X} +.b         7X| +.o.K t ",
"P.n.*.e.O.%         {.4.i.2         3X+.+.n         4X| | o.G 0 ",
"I.n.*.l.' J +XS.+XQ.+X4.<.K <XG.<X<X3X@.+.U 8XP.qX$XqX| O.J | 0 ",
"P.z.| z.' w.^ l.D i.E *.<.R X.>.V o.K *.G ` G O.n +.J ^ O.G | 0 ",
"P.n.} w.' K ' i.D <.^ *.<.R *.<.V ;.K ;.J ' G +.V o.G ^ O.G ' 0 ",
"J.n.e.' w.w.^ i.Z <.R <.*.R | o.N *.| ;.G | K +.n o.K O.o.G | 0 ",
"J.z.r.' i.i.^ i.Z i.E <.X.R <.+.N +.| +.K ' G o.n +.F O.o.F O.0 ",
"G b z 5 b y 5 f $ * > * * $ # # + 0 0 0 , 5 > 0 o + & + & + & + "
};
