/* XPM */
static char *acacia_door_top[] = {
/* columns rows colors chars-per-pixel */
"32 32 216 2 ",
"   c None",
".  c #353535",
"X  c gray24",
"o  c #67371F",
"O  c #6C3A20",
"+  c #703C21",
"@  c #713D21",
"#  c #723D21",
"$  c #723E21",
"%  c #733E21",
"&  c #713D22",
"*  c #733E23",
"=  c #743F22",
"-  c #753F22",
";  c #764022",
":  c #774022",
">  c #774023",
",  c #784123",
"<  c #7A4223",
"1  c #7B4124",
"2  c #7B4125",
"3  c #7B4224",
"4  c #7B4324",
"5  c #784326",
"6  c #794326",
"7  c #7C4324",
"8  c #7D4324",
"9  c #7C4225",
"0  c #7D4225",
"q  c #7E4225",
"w  c #7F4326",
"e  c #794427",
"r  c #7A4427",
"t  c #7B4527",
"y  c #7D4424",
"u  c #7E4424",
"i  c #7E4425",
"p  c #7C4528",
"a  c #7E4628",
"s  c #7F4728",
"d  c gray26",
"f  c gray28",
"g  c #515151",
"h  c #626262",
"j  c #6A6A6A",
"k  c #6F6F6F",
"l  c #727272",
"z  c #804426",
"x  c #814426",
"c  c #824527",
"v  c #804729",
"b  c #864728",
"n  c #874728",
"m  c #814829",
"M  c #824829",
"N  c #82492A",
"B  c #83492A",
"V  c #874828",
"C  c #84492A",
"Z  c #844A2A",
"A  c #854A2A",
"S  c #864B2B",
"D  c #884829",
"F  c #894829",
"G  c #8F4D2B",
"H  c #924D2B",
"J  c #944E2B",
"K  c #924E2C",
"L  c #954F2C",
"P  c #97502C",
"I  c #97512C",
"U  c #96512D",
"Y  c #99512D",
"T  c #9A512D",
"R  c #98522C",
"E  c #99522C",
"W  c #9A532D",
"Q  c #9B532D",
"!  c #9D532E",
"~  c #9B542D",
"^  c #9C542D",
"/  c #9D542D",
"(  c #9D552D",
")  c #9D552F",
"_  c #9E552E",
"`  c #9F552E",
"'  c #9E552F",
"]  c #9F562E",
"[  c #A0562E",
"{  c #A1562E",
"}  c #A1572F",
"|  c #A2572F",
" . c #A3582F",
".. c #A4582F",
"X. c #A05630",
"o. c #A35730",
"O. c #A45731",
"+. c #A25B33",
"@. c #A55930",
"#. c #A55831",
"$. c #A65930",
"%. c #A65831",
"&. c #A75931",
"*. c #A75A30",
"=. c #A35B34",
"-. c #A45C34",
";. c #A55C34",
":. c #A65D35",
">. c #A75D35",
",. c #A85A30",
"<. c #A85A31",
"1. c #A95B31",
"2. c #AA5B31",
"3. c #A85932",
"4. c #A85A32",
"5. c #A95A32",
"6. c #AA5A32",
"7. c #AB5B32",
"8. c #AA5C31",
"9. c #AB5C31",
"0. c #AC5C32",
"q. c #AC5D32",
"w. c #AD5D32",
"e. c #AC5C33",
"r. c #AD5C33",
"t. c #AE5C33",
"y. c #A85E35",
"u. c #A95F36",
"i. c #AA5F36",
"p. c #AB5F36",
"a. c #B05E34",
"s. c #B15E34",
"d. c #B25F35",
"f. c #B35F35",
"g. c #AB6036",
"h. c #AC6037",
"j. c #AD6137",
"k. c #AE6137",
"l. c #AF6238",
"z. c #B36035",
"x. c #B46035",
"c. c #B56035",
"v. c #B66136",
"b. c #B76136",
"n. c #B86236",
"m. c #B96237",
"M. c #B96337",
"N. c #BA6337",
"B. c #B06238",
"V. c #B16338",
"C. c #B26438",
"Z. c #B36439",
"A. c #B46539",
"S. c #B56539",
"D. c #B6663A",
"F. c #B7663A",
"G. c #B8673A",
"H. c #B9673B",
"J. c #B9683B",
"K. c #BA683B",
"L. c #A16445",
"P. c #A26646",
"I. c #A66747",
"U. c #AA6947",
"Y. c #A76748",
"T. c #A86949",
"R. c #A96949",
"E. c #AA6949",
"W. c #AB6A48",
"Q. c #A96A4A",
"!. c #AB6B4A",
"~. c #AC6A48",
"^. c #AC6B48",
"/. c #AD6B48",
"(. c #AE6C49",
"). c #AF6C49",
"_. c #AF6D49",
"`. c #AC6C4B",
"'. c #AC6D4B",
"]. c #B16C4A",
"[. c #B26D4A",
"{. c #B36D4A",
"}. c #B16E4A",
"|. c #B26E4B",
" X c #B36F4B",
".X c #B46E4B",
"XX c #B46F4B",
"oX c #B56F4B",
"OX c #B4704B",
"+X c #B5704C",
"@X c #B7724D",
"#X c #B5734E",
"$X c #B7744F",
"%X c #B9714D",
"&X c #BA714D",
"*X c #B8724D",
"=X c #BB724E",
"-X c #BD734E",
";X c #B8754F",
":X c #BE744F",
">X c #BF754F",
",X c #B97650",
"<X c #BA7650",
"1X c #BB7750",
"2X c #BB7751",
"3X c #BC7851",
"4X c #BE7952",
"5X c #BF7A52",
"6X c #C07550",
"7X c #C17650",
"8X c #C37751",
"9X c #C07A53",
"0X c #C17B53",
"qX c #C27C54",
"wX c #C37C54",
"eX c #868686",
/* pixels */
"E.wX8X8XwXwX*XwXE.wX@XwX@X8X0X0XY.9X1X9X}.1X}.1XL.;X).@X@X}.E.p.",
"E.K.N.K.K.K.w.K.! K.w.K.9.b.H.S.Y S.v.b.&.A.&.l.U l.| j.h.h._ a ",
"E.K.w.K.K.N.w.K.! K.M.w.M.H.H.2.Y D.&.A.A.z.&.A.K l.| | l.g._ a ",
"E.K.w.K.w.N.w.K.! K.M.9.M.D.) 2.Y S.&.A.A.t.@.z.J l.w.| g.g.p.; ",
"E.w.K.X.w.N.w.K.! K.N.w.N.w.v.2.Y 9.2.Z.Z.s...A.J l.7.| h._ 2.= ",
"E.w.K.K.w.w v O M M  .9.H., A + A w v.Z.&.+ + = + + 2.| g._ 2.= ",
"E.w.N.K.w.w         _.2.S.7         1XA.&.+         }.X.t._ 5.* ",
"E.w.N.K.w.;         )._ H.7         E.S...+         }.) h._ K = ",
". . N.K.w.,         ].9.S.w         >XA.&.+         }.) t.) &.; ",
"eXeXN.K.w.-         _.9.H.t         1Xz...+         }.h.h.) 4.+ ",
"eXk K.w.K.,         ;X9.S.*         7X..z.+         {.t.g._ &.p ",
"k k K.w.H.,         1X9.S.w         7X..V.;         {.2.>._ &.p ",
"E.K.w.N.K.;         -XN.S.b         8X..l.w         ].2.g.&.) p ",
"E.N.K.N.K.,         *Xv.S.b         7Xs.Z.,         OX_ >.&.) , ",
"E.N.K.N.K.x         1Xv.D.b         7Xs.j.w         {._ >.2.Y , ",
"E.w.K.w.w.v         3Xv.D.b         E... .w         ].) p.&.Y w ",
").K.H.w.K.z         3XS.S.n         8X .j.w         OX>.p.&.Y + ",
"R.K.H.w.K.v         3XS.f.F         7X .j.w         U.p.>.G ) + ",
"R.H.| 7.K.M         -X2.v.n         @X| j.w         )._ >.>.E t ",
"E.H.H.9.K.A         -X,.v.V         @XU j.w         U.Y -.4.R t ",
"E.w.N.w.K.+         >X2.s.t         `.| j.a         P.E g.@.U p ",
"E.w.N.w.H.A         >X&.S.u         @X| j.a         ^.) -.@.U p ",
"E.M.w.9.H.M         T...A.t         *X| p.a         _.Y >.&.@.5 ",
"E.M.w.M.H.A         >X2.b.t         *Xw.h.=         E.G -.&.U e ",
"E.H.9.M.D.S         @Xz.A.b         8Xt.g.;         ;XX.>.-.U t ",
"E.K.t.M.w.M         OXz.z.A         wX9.g.;         ;X&.>.=.U , ",
"E.K.9.K.9.A         @Xs.A.F         wXl.p.;         ;X@.4.E &.5 ",
"E.K.9.D.9.A         ].z.A.b         E.j._ z         1X&.-.U | 5 ",
"U.H.2.N.9.A         @Xs.Z.F         8Xg._ w         *X=.-.U  .5 ",
"E.H.N.9.v.A         {.A.s.F         8Xp._ x         *X-.-.U @.5 ",
". . v.2.S.Y OXY.OX>XOXA.s.Y wXE.0X@X8Xp._ U ,Xf g g h k j U @.e ",
"eXeXH.9.S.v.&.A.U &.&.z...| X.X.K l.2.p.! 2.U X X d f h k j U O "
};
