/* XPM */
static char *acacia_leaves[] = {
/* columns rows colors chars-per-pixel */
"32 32 5 1 ",
"  c None",
". c #6D696D",
"X c #848484",
"o c #A0A0A0",
"O c #BEC1BE",
/* pixels */
"X.   oO         .         . XoXo",
"X   oOoOo      XX.    OO  XXo.Xo",
"   .XoOoOo  ooX.  .X oOOO  .X.oX",
".X . Xooo  ooXoX    .oOoOo  .X..",
" ..       XoXoX.     XoOoX   .  ",
"  X.X     oooX.       XX..  .   ",
"oX  .Xo   oXX.  OOX.     ...   O",
"XOX XoOOo X.   OoXXXX. X..    Oo",
"Oo. .oooOo    OoOOo.  .. XX  OoO",
"X.   XoOoO    oooX.  X. XoX oOOo",
"      XoOOo          .  Xo. oOoX",
"        oo   ooX    X  O .   o  ",
"   oo       oooooX    OOo       ",
"  ooXo       oXXooX   OoX    Oo ",
"  oXoX   o   XooXo.  OoO.   OoOX",
"  oXX  oOOo   XooX.  oXo.   OOoO",
"X Xo. OOoOX    .X..  XX.    oOXO",
". .X oOoOoX       X.  X      oXo",
"  .  XoOo.         .  OOo    XoX",
" .X.  X..          . OooOo    X.",
".  X...      OOoX X.XoXOo  oo  X",
"    . X.    OooOoX.X XX.  oXoX  ",
"    .      oOOOoX. .      XoX   ",
"  ooX    .  XoX..  .X    ..X    ",
" oOXoX  .XX         . XX..    o ",
" OOoO. oX  X         XooX    OOo",
" oOOo Xoo.  .oOO     oXoo   OoOo",
"  oo  oXoX  XOoOO   oXooX   oOXo",
"      XoXo  .oOoOo  XoXX.   XOo.",
"       XoX   .oOOo   X.  .   X. ",
"X       X     XoOo       .X   Xo",
"oX             Xo         .  ooo"
};
