/* XPM */
static char *activator_rail[] = {
/* columns rows colors chars-per-pixel */
"32 32 13 1 ",
"  c None",
". c #310000",
"X c #4A0303",
"o c #620202",
"O c #513D24",
"+ c #67502C",
"@ c #7E6237",
"# c #686868",
"$ c #72796E",
"% c #967441",
"& c #A6824D",
"* c gray61",
"= c #ABACAB",
/* pixels */
"    =**#                #***    ",
"    =**#                #***    ",
"  %%=**#XXXX%%%&@@@@XXXX$**=%%  ",
"  &&=**#.ooX&&&%%%%%Xoo.$**=&&  ",
"  @&=**$.ooX@@@&&&&@Xoo.$**=@&  ",
"  OO***$...X++++++++X...#**=OO  ",
"    ***$      ..XX      #**=    ",
"    =**$      .ooX      #**=    ",
"    =**$      X.oX      #**=    ",
"    =**#      XXXX      $**=    ",
"  &&=**#XXXX@@@@@@&&XXXX$**=&&  ",
"  %%=**#Xoo.&&&&%%%%XooX$**=%&  ",
"  &&=**#Xoo.@%%%&&&&XooX$**=@%  ",
"  OO=**#X...++O+++++....$**=OO  ",
"    =**#      XX..      $**=    ",
"    =**#      Xoo.      $**=    ",
"    =**#      Xo.X      $**=    ",
"    =**#      XXXX      #***    ",
"  %%***#XXXX&&@@%%&&XXXX#***@@  ",
"  &&***$XooX%%%%@@@@.ooX#**=%%  ",
"  %&=**$XooX@@@@%%%%.ooX#**=&&  ",
"  OO=**$....++++++++...X#**=OO  ",
"    =**$      ..XX      #**=    ",
"    =**$      .ooX      $**=    ",
"    =**#      X.oX      $**=    ",
"    =**#      XXXX      $**=    ",
"  %&=**#XXXX&&&&&&&&XXXX$**=@@  ",
"  %%=**$Xoo.%%%@@@%%XooX$**=&&  ",
"  &&=**$Xoo.@@&&&&@@XooX$**=%%  ",
"  OO=**$X...++++++++....#**=OO  ",
"    ***#                #***    ",
"    ***#                #***    "
};
