/* XPM */
static char *azalea_top[] = {
/* columns rows colors chars-per-pixel */
"32 32 5 1 ",
"  c #495E27",
". c #50692C",
"X c #647233",
"o c #70922D",
"O c #6C8031",
/* pixels */
".o.OOo....OOooOXoOXXXoXXoXXo..X.",
"..ooXOo.XO.XoOXXOoOXoOXOoOXXoX..",
"X.XoOOOXOOXOOXXXOOooOOX.OOXOOOOX",
".OoXOXXXXOXXOOooOOOOOX..oOOXXOXO",
"XXOOXXXXOXO.OoOOoOXOoX.oOOOXXXOO",
"XXOXOOXX...OoXOOOoXXOoo.OOXXXXOo",
"ooXOOXX.XXooOOXXXoXOOOOX.OOXOOo.",
"OOOXOO.XoOXOXXXXXoXXOOXXXOOOXO..",
"XOXX.O.XOXXXOOX.O..OOXoooOXOOOOX",
"OX..X.XoOOOXOX..OO..XOXXOoOXOOXX",
"oOOOXX.XoOXOXX.X.OXX.XXXOOXOXOOO",
"XXOXOXO.OoooXXX.O.XXXXXXXOOOXXOO",
"XX.OOOooOOXXXX.OXX..OooXOXOXooXO",
"XX..OOXoOXXXXX..OXX.XOOoOOXOOXoo",
"oOoOOOOOOoOOoOXX.X..XXXOoOXXOOXX",
"XOXOoOOOXoOXooOX..XXXXOOoOXXOXOX",
"XXOOoXOXXoOXO..OXXOXOOXoOXXOOOOO",
"XXXOOoXXoOXX....XXXOoooXXXXXOOXo",
"XXOOOOooOXOOO.XO.XXXOOXXOXOXX..X",
"oooXOOXOXXXO.OXXO.XXXXXXXOOO..XX",
"OXOOXoOXXXoXXXXOXooXXXOoOOXXOOXo",
"OOXXoOOOXXoOXXOOXXOOOXXoOXXOXOOX",
"XXXoXOXXO.oOXOXoXXoOXOOoXO.OXXXO",
"OXXoOXXX..OoOOoXXXXoOOoOOOX.XXOO",
".XOOoXXXOOOOooXXXOXOoo.oOoOOXOXO",
"..XOOoXXOX..OXXXOXXXOO..oOXOOXoo",
"OXOXXXOOX.XO.XoOXOXO.OXXOOOX.OOO",
"OXXXXOOo.XOXX.XOOXXXo.XOOOXXO.OO",
"XOOXOXoO.XOXX.OXXXXOXOOXOoOXXo O",
"oXOOOOoo.OXOO.OOXXOXXXOOoXoXOX X",
".o..OXoXXXXoXXoOXOXoOXOX.OOoX XO",
"..XOXXXoXXoXXXoXOOXoOOX.O... XOX"
};
