/* XPM */
static char *bamboo_stage0[] = {
/* columns rows colors chars-per-pixel */
"32 32 19 1 ",
"  c None",
". c #36220F",
"X c #372210",
"o c #372310",
"O c #452910",
"+ c #472B10",
"@ c #563F1F",
"# c #573F1F",
"$ c #3A690F",
"% c #3B6A10",
"& c #57401F",
"* c #655C1E",
"= c #7C743A",
"- c #7D753B",
"; c #4E940D",
": c #69A535",
"> c #978F54",
", c #979055",
"< c #989055",
/* pixels */
"                                ",
"                                ",
"                                ",
"                                ",
"               $                ",
"               ;                ",
"              $:                ",
"              ;: %              ",
"              ::%%              ",
"              :;:%              ",
"             $:>%;              ",
"             %;>*%              ",
"             %>*@O%             ",
"             ;-O@O;             ",
"             ;O@O-;             ",
"            %;OO>*;$            ",
"            %$.<*&+$            ",
"            %-<*@O+$            ",
"            %*+@@++o            ",
"            %+@@+@+o            ",
"            ++++#++o            ",
"            .++@++o-            ",
"           *=.++.->*            ",
"           +*>*-<*@O            ",
"           +**>>+@+.-           ",
"           o&&*->+.-*           ",
"           o+&&*-=<*+           ",
"          o+&&+&=>*O.           ",
"          .+++&@>*+++.          ",
"          .++#&>*++@+.          ",
"          ..++*>+&@++o          ",
"          ..+*-*+&++.o          "
};
