/* XPM */
static char *bamboo_small_leaves[] = {
/* columns rows colors chars-per-pixel */
"32 32 7 1 ",
"  c None",
". c #2B3E16",
"X c #2F4517",
"o c #375A15",
"O c #457616",
"+ c #528919",
"@ c #67A124",
/* pixels */
"                                ",
"                    @@+@+@      ",
"                   +O++@@@@     ",
"                   @@+++@@@@    ",
"         XX...    +@+@@O +@@    ",
"       .XX..X.X.  +@@ @  O @    ",
"       X  .X XX.Xo@ @ @    +    ",
"          X  .oXo.+   @         ",
"             . oooo   +         ",
"      @@@+O  X  XoX.  O         ",
"     @@+++@+@   X.XX.           ",
"     +O@+@@@+@   o  XX          ",
"    @+ +@+@ +@   .   .          ",
"    +  +@ +  +                  ",
"    +   @    +      X X.        ",
"        +    +      ..XXX.      ",
"        O         X..X. ...     ",
"       .X.X X      Xo X  X.     ",
"     .X...X.       o  X   o     ",
"    XX..XX..XX        o         ",
"    Xo oX ...    @@+O           ",
"    o   o  o.X @++@@@O          ",
"        X   Xo@@+@+@@@+         ",
"        o   Xo@+@@+@@@+         ",
"            o @+ +@@+ +         ",
"              +  O@@  O         ",
"              O  O +  O         ",
"                   +            ",
"                   O            ",
"                                ",
"                                ",
"                                "
};
