/* XPM */
static char *barrel_bottom[] = {
/* columns rows colors chars-per-pixel */
"32 32 6 1 ",
"  c #553A1F",
". c #664D28",
"X c #6B5332",
"o c #785836",
"O c #805E36",
"+ c #8B673C",
/* pixels */
"OOOOOOOO++++++++OOOO++++OO++++++",
"O XXXXXX  ..XXooooooX XXoooooX +",
"+X+++++OOO++++OO+OOOOOOOOOOOOOX+",
"+X+O++++++++++++++++++OOOOOOOOo+",
"+X++++++++O+OOO++O+++OOOOOooOOoO",
"+X++++OO++++++++++OO+++OoOOOooXO",
"+ +++++++++++OO+OOOOOOOOOOOOOOX+",
"+ ..........    ....   .    .. +",
"+XooOO++++++++O.+++OOO++++OOooX+",
"+X++ooOOO++OOO+.+++++++OOOoooOX+",
"Oo++++++OOO++++.ooOOOO+++++OOooO",
"Oo++++OOooOOooO.O++++++OO+OooOoO",
"Oo+OOO+++++++++.++OO+++++OOOoooO",
"Oo++++OOOO+O+++.++++OOOOOOooOOoO",
"OX+++++++++++++.+++++++OOOOoooX+",
"O ....  .......  ............. +",
"OX++oOOOO+++++++++++++OOO+++++X+",
"OX++++++OOO+++OOo+O+++++++++OOo+",
"+o+++++++++OO+++++++++++OOOOoooO",
"+o+OO+++O++++OooooOOOOoo++++OoXO",
"+o++++++++OOO++++++++++++++O++XO",
"+o++OOOO++++++++OooO++++OO++++oO",
"+X+++++++++++++++++++++++++++OXO",
"+         ..  .......... .     O",
"OXOOO+++++++OOO.OOO++++++++.o+X+",
"OX+++++++++++++.OooOOOoOO+O+++o+",
"OX+OO++++++oOoo.oOO+++++++++OOo+",
"Oo++++O+ooOOOOO.ooOOO++O+OOOooX+",
"Oo++OO+++++++++.oO++++++++++OOoO",
"OX+++++++++++++.ooO+++++++OOOoXO",
"O XooooooooXX.  .XXXooooooooXX O",
"OO++++++OOOOOOOOOO++++++OOOOOOOO"
};
