/* XPM */
static char *bee_nest_bottom[] = {
/* columns rows colors chars-per-pixel */
"32 32 5 1 ",
"  c #6F533A",
". c #7A5737",
"X c #A28166",
"o c #BC986D",
"O c #C8A671",
/* pixels */
"    ..    ....        ....      ",
" OOOOOOOooXooOOOOOoXooooOOOOOOO ",
" OooooooooXooooooooXooooooooooO ",
" OooooooooXooooooooXooooooooooO ",
" OooooooooXooooooooXooooooooooO.",
" OoooOOOOOoOOOOOOOOoOOOOOOOoooo.",
" OoooO .....      ....... Ooooo.",
" ooooO.oooOOOOOooOooooooo.Ooooo.",
" ooooO.oOOOOOOOOOOOOOOOOo.oXXXX ",
" OoooO.oOOOOOOOOOOOOOOOOo.Ooooo ",
".OoooO.oOOOOOOOOOOOOOOOOO OoooO ",
".ooooO.oOOOOOOOOOOOOOOOOO OoooO ",
".XXXXo.oOOOO ...... OOOOO OoooO.",
".ooooO.OOOOO.OOOOOo.OOOOO OoooO.",
" OoooO OOOOO.OOOOOO.OOOOO OoooO.",
" OoooO oOOOO.OOOOOo.OOOOO Ooooo.",
" OoooO OOOOO.OOOOOo.OOOOo.oXXXX ",
" OoooO OOOOO.OOOOoo.OOOOo.Ooooo ",
".OoooO OOOOO.oOoooo.OOOOo.OoooO ",
".OoooO OOOOO ...... OOOOo.OoooO ",
".ooooO.OOOOOOOOOOOOOOOOOo.OoooO.",
".XXXXo.OOOOOOOOOOOOOOOOOo.OoooO.",
".ooooO.oOOOOOOOOOOOOOOOOo.Ooooo.",
".ooooO.oOOOOOOOOOOOOOOOOo.Ooooo.",
" OoooO.oooooOOOOOOoOooooo.oXXXX ",
" OoooO  ................. Ooooo ",
" OoooOOOOOOoOOOOOOOOoOOOOOOoooo ",
" OoooooooooXooooooooXoooooooooO ",
" OoooooooooXooooooooXoooooooooO ",
" OoooooooooXooooooooXoooooooooO ",
" OOOOooooooXooOOOOooXoOOOOOOOOO.",
"      ....      ....    ..    .."
};
