/* XPM */
static char *bee_nest_front_honey[] = {
/* columns rows colors chars-per-pixel */
"32 32 28 1 ",
"  c #704C2E",
". c #7C512B",
"X c #624831",
"o c #6F5238",
"O c #6F533A",
"+ c #A06A34",
"@ c #B5793E",
"# c #896445",
"$ c #EA8E16",
"% c #EAA616",
"& c #FABF29",
"* c #FADE29",
"= c #A28166",
"- c #BC986D",
"; c #C88644",
": c #D1954C",
"> c #C28F59",
", c #C8965B",
"< c #D9A453",
"1 c #E8B94D",
"2 c #DEB463",
"3 c #C8A671",
"4 c #F7CE46",
"5 c #F9D55D",
"6 c #FAD869",
"7 c #E4C474",
"8 c #FBDC75",
"9 c #FFF9CF",
/* pixels */
"88845888888888888888888888558888",
"88544888588888888888885885455888",
"88544585445888888885884854455858",
"854444844454888885458545;;454548",
"84544454444888885444544;44;44545",
"5444654458888884845444;4454;4444",
"<<<<<<<<<44444<<<<<<<;<<<<<<;<<;",
"+........+++++......+OXO    #...",
"444444448888848444444 $%%%%%#444",
"14414444448844441<<14=%%%&%%=414",
"<4<1<<1444444411<<<<4=&%&*%%=<<1",
"<1<<<<<14144411<<<<<<=*%*&%&=1<1",
"<<<<<<<<1<<14<1<<<<<1=*&**%*=<<<",
"<;;<<<<<<<<<1<<<<<<;;=****&*=<<<",
";;;;;<;;<;;;1;<<;<;;;#&****&3;;;",
"......++++++++........&33933;...",
"<<<277772<<<<<<<277777777772<<<<",
"<<<<277<<<<<<<<<<<<<<277772<<<<<",
"<<<<<<2<<<:<<<<<<<<<<<<<77<<<<<<",
"<<<<<<<<<<<;;;:<<<<<<<<<<2<:<<<<",
"<:<<<<<<:;;;;;;;;:<<<<<<:;;;;:<<",
"<<::<<:;;;;;;;;;;;;;;;;;;;;;;;;:",
"@@@@@@@@@@@@@@@@@@@@@@@@@@@@@@@@",
"...OXO    #.....................",
";,; $$$%%%#;;;;;;;;,3;;,,;,;;;;;",
"33,=$&%&%&=;;;>;;;,33;33,,33;;;;",
"-3-=%&&*&*=;-;--3;333,3--333,;,;",
"---=&*&***=-->---333-------33,3;",
"---=&***9*=------3-----------33,",
"---=*****9=-------------------3-",
"-==#33*3**3-=====-=-===--=-==-==",
"OOOOOOOOOOOOOOOOOOOOOOOOOOOOOOOO"
};
