/* XPM */
static char *bee_nest_front[] = {
/* columns rows colors chars-per-pixel */
"32 32 24 1 ",
"  c #50331B",
". c #704C2E",
"X c #7C512B",
"o c #624831",
"O c #6F5238",
"+ c #6F533A",
"@ c #A06A34",
"# c #B5793E",
"$ c #896445",
"% c #A28166",
"& c #BC986D",
"* c #C88644",
"= c #D1954C",
"- c #C28F59",
"; c #C8965B",
": c #D9A453",
"> c #E8B94D",
", c #DEB463",
"< c #C8A671",
"1 c #F7CE46",
"2 c #F9D55D",
"3 c #FAD869",
"4 c #E4C474",
"5 c #FBDC75",
/* pixels */
"55512555555555555555555555225555",
"55211555255555555555552552122555",
"55211252112555555552551521122525",
"521111511121555552125212**121215",
"51211121111555552111211*11*11212",
"2111321125555551512111*1121*1111",
":::::::::11111:::::::*::::::*::*",
"@XXXXXXXX@@@@@XXXXXX@+o+....$XXX",
"111111115555515111111.      $111",
">11>111111551111>::>1%oooooo%1>1",
":1:>::>1111111>>::::1%oooooo%::>",
":>:::::>1>111>>::::::%oooooo%>:>",
"::::::::>::>1:>:::::>%+oooo+%:::",
":**:::::::::>::::::**%++++++%:::",
"*****:**:***>*::*:***$<<****<***",
"XXXXXX@@@@@@@@XXXXXXXX<<<<<<*XXX",
":::,4444,:::::::,4444444444,::::",
"::::,44::::::::::::::,4444,:::::",
"::::::,:::=:::::::::::::44::::::",
":::::::::::***=::::::::::,:=::::",
":=::::::=********=::::::=****=::",
"::==::=************************=",
"################################",
"XXX+o+....$XXXXXXXXXXXXXXXXXXXXX",
"*;*.      $********;<**;;*;*****",
"<<;%oooooo%***-***;<<*<<;;<<****",
"&<&%oooooo%*&*&&<*<<<;<&&<<<;*;*",
"&&&%oooooo%&&-&&&<<<&&&&&&&<<;<*",
"&&&%+oooo+%&&&&&&<&&&&&&&&&&&<<;",
"&&&%++++++%&&&&&&&&&&&&&&&&&&&<&",
"&%%$<<****<&%%%%%&%&%%%&&%&%%&%%",
"++++++++++++++++++++++++++++++++"
};
