/* XPM */
static char *beehive_side[] = {
/* columns rows colors chars-per-pixel */
"32 32 8 1 ",
"  c #67502C",
". c #7E6237",
"X c #8A6938",
"o c #987E47",
"O c #AF8F55",
"+ c #B8945F",
"@ c #C29D62",
"# c #8B8B8A",
/* pixels */
"++@@@@@@@@@@@@@@@@@@@@@@@@@@@@++",
"++++++++++++++++++++++++++++++++",
"X+++OO+@@@@OO++@@@+OOO+++OOO+++X",
"X+@@@+OOOO++OOOOOO++@@OOO++OOO+X",
"XOOOOO++++OO++++@@@@+O@@@@@@+++X",
"X@@@@@OOOO+@@+OOOOO+OOOO+OOOO@@X",
"X+++++@@@@@+OOO+++@@@@+++@@@@++ ",
"    ..      ....    ....        ",
" XXXXXXXXXXXXXXXXXXXXXXXXXXXXXX ",
" XXXXXXXXXXXXXXXXXXXXXXXXXXXXXX ",
" XXXXXXOOOOOOOOXOOOOOOOOXXXXXXX ",
" XOOOOOOOOO++OOX+++++OOOOOOOOOX ",
".O#OOO+++++OO++XOOOOO++++++OO#O.",
".OOOOOOOOOOO++OXOO+++OOOOOO++OO.",
".OO+++++++++OOOoOOOOOOO++++OOOO.",
".oooooooooooooooooooooooooooooo.",
".++@@@@X++@@@OOOO++@@@@@@o@@@++.",
".+OOOOOXO+++O++++OOOOO+++o++OO+.",
" O+@+++o++OO++OOOOO+@@@@@oOOO++ ",
" +#O+@@oO++OOO+@@+@+OOOOOo+@@#O ",
".@++OOOo+OO+++OO@@OOO@@@+oOOO++ ",
".+OOO@+oOOOOO@@+++++@OOO@o+++O+ ",
".+@@@++o++@@@++OO@@@+++@@o+OO+O.",
".XXXooooooooooooooooooooooooXXX.",
".+++@@@@@@@@@@@o@@@@@@@@@@@@+++.",
".+OOOOO+@@+++++o+++OOOOOOO++OO@.",
" ++@@++OOO+@@OOoOO+@@@@@@+OO+@+ ",
" +#++OO++@@OO++o+@@+OOOOO@@+O#+ ",
".+OOOO++OO++@@@X++OOO++++OO+++O.",
".OO+++@@++@@+++X@@@++OOO@@@OOOO.",
" ++OOOO+@@++OOOX++OOO++OOOO@@@+ ",
"    ..  ....        ....  ..    "
};
