/* XPM */
static char *birch_log[] = {
/* columns rows colors chars-per-pixel */
"32 32 8 1 ",
"  c #36342A",
". c #605E54",
"X c #BEBEAE",
"o c #D8D8CE",
"O c #DED3D5",
"+ c #F0EEEB",
"@ c #EEF1EA",
"# c white",
/* pixels */
"++#++Ooo++++++++ooOO++#+++oo++++",
"+#OOOOOooo++#++++ooOOO++oooo##+#",
"ooOO+++#+OOoo#####++oooOoOOoo##+",
"oO+++##o++++##+++##++++OOOOOoo++",
"#++#++++OOo++++##+++#o++oooo++##",
"++####OOoooo+###+++#+++++o++##++",
"##+#ooXX..  o .oo+++++###++#++##",
"###++oooX..    .oo++##+++###oo+#",
"o++oo+++oX...   ..o#++##++++.oXO",
"oo++oo+ooXX. .  ooooo##+++oo .XX",
"X. .oooo++oooOooo+++ooooooo..  X",
". .Xo++ooooOOOOOoo+++o++oo..    ",
"..XO++oo+oOOOOO++###++#+++@+oXX.",
".XXOO+++oooO+++##++###+o@@oooooX",
"oOOOo##++#ooo##o+###oOO@oooo@+oo",
"ooOooo###+++#++###ooo+oO@@@@@o+o",
"+#++ooo++###+###@@@##+++#@@oo@##",
"###+++ooo++###@o@@##@@+####@##++",
"+++#+oOOOOO@@@@@##@@#+##o++ooo+#",
"###+oo+O@@@@oo##@@##+#++++oo++++",
"o++o+++#+###+oO####++ooOOOO###++",
"ooo++##+#++##++O++++ooOO@##+#+#+",
"oo++##+o+###+##++++##o@@#++#+++o",
"oOo+++####++++##+###+#@@@####+oo",
"OOOOoo+++++oo+++##++#@#@@oooX ++",
"OOoo+#++oooooo++++##@@@@ooXX...+",
".X++++#o###o##++++ooOOooo. ..   ",
"..XX#++++##++##+ooOOOOOo. .     ",
"   ..ooo+++##+o##++oO.. ooXX.. .",
"+ . ..oooooo++####++.. oooooX..+",
"+ooooo..#++###++#++OOooo+++oooo+",
"++ooo++.++#++++#++OOoo++++ooo+++"
};
