/* XPM */
static char *black_concrete[] = {
/* columns rows colors chars-per-pixel */
"32 32 3 1 ",
"  c #080A0F",
". c #080A10",
"X c #080B10",
/* pixels */
".. .  .  ... ............ .  .  ",
" . ..  .... ... .. .... . ..  ..",
"..... .  . . ... ..  . ..... .  ",
"..  .  .. ..... ....   ..  .  ..",
"............... ..  . ..........",
". .... ....  . . .. .... .... ..",
".. . ..  . ... ..... .... . ..  ",
"...  . .  . . . .... . ...  . . ",
". .. .... ........ ..... .. ....",
"..... . .. . .  . ... ...... . .",
"........... .  .  ..... ... . . ",
". .. .... . ..  ....... . ......",
".. ..  . ..... .  . ... . .  ...",
". ....   ..  .  .. ... .  .... .",
". ..  . ........... ..  .  .....",
" . .. .... ....... ...  . .. .. ",
" ..... .... ... .. . . . .  ... ",
". .... . ...  ..  . . ..... ....",
".... ..... .. . . ....  .... ...",
"  . ... .........  ..... .. ....",
".. ...... .....  .. . ....... ..",
"   ...... . ......  .....  . .. ",
". ... ... . . . ..... .   . ....",
" . . ... .  .... ........ ... . ",
" .. .... ...... .   ....  ..  ..",
".....   ........  .....  ...  ..",
".. ..  . . ....... ........ ... ",
".. ..... ..  .. .... ..   .  ...",
"...  .... . ... ....... ......  ",
".. ......  .. .........  .......",
".  ..    .. .. . .  ..    .  .. ",
"   .. ..   ...... ........ ... ."
};
