/* XPM */
static char *bone_block_side[] = {
/* columns rows colors chars-per-pixel */
"32 32 92 1 ",
"  c #D6D0B6",
". c #D7D1B8",
"X c #D7D2B8",
"o c #D8D2B9",
"O c #D8D2BA",
"+ c #D8D3BA",
"@ c #D8D3BB",
"# c #D9D3BB",
"$ c #D9D4BB",
"% c #D9D4BC",
"& c #D9D5BC",
"* c #D9D4BD",
"= c #D9D5BD",
"- c #DAD5BD",
"; c #DAD5BE",
": c #DAD6BE",
"> c #DAD6BF",
", c #DBD6BF",
"< c #DBD6C0",
"1 c #DBD7C0",
"2 c #DBD7C1",
"3 c #DCD7C1",
"4 c #DCD8C1",
"5 c #DCD8C2",
"6 c #DCD8C3",
"7 c #DDD8C3",
"8 c #DDD9C3",
"9 c #DDD9C4",
"0 c #DDD9C5",
"q c #DED9C4",
"w c #DED9C5",
"e c #DDDAC4",
"r c #DEDAC4",
"t c #DEDAC5",
"y c #DEDAC6",
"u c #DFDAC6",
"i c #DFDBC6",
"p c #DEDAC7",
"a c #DEDBC7",
"s c #DFDBC7",
"d c #DFDBC8",
"f c #E0DBC8",
"g c #E0DCC8",
"h c #E1DDC8",
"j c #E0DCC9",
"k c #E0DDC9",
"l c #E1DDC9",
"z c #E0DCCA",
"x c #E0DDCA",
"c c #E1DDCA",
"v c #E1DDCB",
"b c #E1DECA",
"n c #E1DECB",
"m c #E2DECA",
"M c #E2DFCA",
"N c #E3DFCA",
"B c #E2DECB",
"V c #E2DFCB",
"C c #E3DFCB",
"Z c #E1DDCC",
"A c #E2DECC",
"S c #E2DFCC",
"D c #E3DFCC",
"F c #E2DECD",
"G c #E2DFCD",
"H c #E3DFCD",
"J c #E3E0CC",
"K c #E3E0CD",
"L c #E3E0CE",
"P c #E4E0CC",
"I c #E4E0CD",
"U c #E4E1CD",
"Y c #E4E0CE",
"T c #E4E1CE",
"R c #E5E1CE",
"E c #E4E1CF",
"W c #E5E1CF",
"Q c #E5E2CF",
"! c #E5E1D0",
"~ c #E5E2D0",
"^ c #E5E2D1",
"/ c #E6E2D0",
"( c #E6E3D0",
") c #E6E2D1",
"_ c #E6E3D1",
"` c #E6E3D2",
"' c #E7E3D2",
"] c #E7E4D2",
"[ c #E7E4D3",
"{ c #E8E5D3",
"} c #E8E5D4",
"| c #E9E6D5",
/* pixels */
";;44tdkkFFddF`^]]]^]]KKKdddtt12;",
";;44tskAdAdA^^]]]]]^!!Kdtdtdt1;;",
";;:4ttkkAAdA!^[]]]]^]KKdtdst44;;",
";;;,tzzAFFdt^[[[]]^]KJtdtdst4;;-",
"--;,7zzkAddAA}]]]]^Y]d1ttdttt1;;",
"--;,ztzkAAdAk^[]]]]]YKs1tttst4;;",
"-X.o,4kzAAkA^][[]]^^]Kstttsss,;;",
"--.-3ffzAAAA^[}}[[]YKKd16t4s4,,-",
"-XXo;1t4kAK!]}}}]^]Y^Nff16t24;;;",
"+- ;;tttAYA^^]}}]]^]YYkzt;2343;;",
";o-;14t4kAK^}}}}[[^Y^Ykz2762;---",
"-;X-;1ttKKY^}}}}[]]Y^Yzk7222;---",
"- Xo1ttdAA^Y}}}}[[]^^YYft4t4;;--",
"--+;44tdkKK^}}}}}}]^^Hkzft44;;--",
"o;-;14tdkA!^}}}||[^]^YAAtt44;---",
";;-;tttdAAK^{}||}]]Y^HAkz4r,----",
"----43ttkk^^}}}}|]]]^YAkkkt23---",
"---;2t4zHkY^}}}}}}]]^HAAzzt3;;--",
"--;;t2ttAA^{}}}}]]^]^^Akzf44----",
"--;234ttzA^^}[[}[]J]^AAAkft3;---",
"----432tkk^^]{][}}YYPQAAktt1;---",
"---;4;2tfHY^^]]]]^kNYQAAAk44;;--",
"----3234fkY^^^}[]^PJPYKAAd4t,---",
"-;;;3,;44kkY^]][]^YJJJkkktt44---",
"--44:t1t4k^^]^[]{QYNHzkzkzt4,3,;",
";;:44ttttkkY^{[[{{{YNfHzkzt444;;",
"-;4t1ttt4k^^^{]]]]{PHkZZkfft44;;",
"-;44tt1ttkYK^{]]]]{YHkAkkf44t,;;",
";;;tt4tttkAK^]]]]{YYkkkNktN4442;",
";21t1tt1tkAKY^]]^^{YAAHkkd4444;;",
";:44t14tNkkJY]{]{{PPAAAAzdN24,;-",
";;214ttttkkJY{{{QYYNYHAAkdt4t4;-"
};
