/* XPM */
static char *bubble_coral[] = {
/* columns rows colors chars-per-pixel */
"32 32 6 1 ",
"  c None",
". c #670570",
"X c #7E0987",
"o c #A51DA5",
"O c #C819BA",
"+ c #CD45BF",
/* pixels */
"                                ",
"                                ",
"                                ",
"                                ",
"                                ",
"                                ",
"                                ",
"                                ",
"                                ",
"                                ",
"        Xo o      X             ",
"       ooooX    Xoo             ",
"       XooX o X oXoX            ",
"        XoXoX  oXooXX           ",
"        oX.XX oX.oX    o Xo     ",
"   o  o   X.oXoXOXO++  .oXX.    ",
"  O+OoO+  OXoXXO++OOOO XXXXXX   ",
"   oO+O+oO+o.XXo+OO+O+.XXX.Xo   ",
"    O+++OoOooXXo+++++o.X.XX.    ",
"   O+O+OO+ooXXXXoO++OXX..X.     ",
"     oOOOooOoXXXX+oOXX+o. .     ",
"       .oo+OXXXXXXXXO+O+o       ",
"  OO+ ooXooXXOOXXXX+OOO++.   o  ",
" oO+OO+OoXXXOOOOooXO+O+OOO ooO  ",
"   +OO+OOoXOOoO+OXoX++OOOXO+Ooo ",
"  oO+OoOOOoX+O++o+ooO+OOXooO++o ",
"     oooOOXXOOOO+OOoo+oXOoOoOo  ",
"     oO+ooooXO++O++oooXoO+ooo   ",
"    +++++++oo++OO+O+ooXO+o+     ",
"  oo+O++O+oo+O+++OOooXX++++o    ",
"    ooo+Oo   O+OO+  OoOOOo      ",
"       oo     O+XO   XoOo       "
};
