/* XPM */
static char *cake_top[] = {
/* columns rows colors chars-per-pixel */
"32 32 8 1 ",
"  c None",
". c #B02132",
"X c #D3212D",
"o c #E83535",
"O c #F0735A",
"+ c #F6E8CB",
"@ c #FDF4D8",
"# c #FFFDFE",
/* pixels */
"                                ",
"                                ",
"  ++++@@################@@++++  ",
"  +++######################+++  ",
"  ++#########@@+X.@#########++  ",
"  +#########@@+#.O+@#########+  ",
"  @#######@@++####@+@########@  ",
"  @#####..@+#######@+@#######@  ",
"  ######XX@##########++#######  ",
"  ######@+############@OX#####  ",
"  #####@@@#############..#####  ",
"  #####@+@#####@@######+@#####  ",
"  #####@+@####@@@@@####@+#####  ",
"  #####@+@###@XXX#@@####+@####  ",
"  ##.X#@+@@##XOOoX#@####@+####  ",
"  ##O.#@@+@##XOoX.#######+####  ",
"  ##+@##@@+@#XoX..#######+####  ",
"  ##@+###@@@+#X..@@@####X.####  ",
"  ###+#####@@@#@@@++####.O####  ",
"  ###+@#####@@@@++@#####@@####  ",
"  ###@+#######@@######@@+#####  ",
"  ###@+##############@@+######  ",
"  ####+@#############@+@######  ",
"  #####+@#########O.@+@#######  ",
"  @####OX@#####@@+..+########@  ",
"  @####X.+@##@+++@###########@  ",
"  +######@+@++@##############+  ",
"  ++########################@+  ",
"  +++######################@++  ",
"  ++++@@################@@@+++  ",
"                                ",
"                                "
};
