/* XPM */
static char *cake_side[] = {
/* columns rows colors chars-per-pixel */
"32 32 10 1 ",
"  c None",
". c #7F3A1D",
"X c #BB581D",
"o c #8D4324",
"O c #A74B24",
"+ c #C76124",
"@ c #E0D3B8",
"# c #F6E8CB",
"$ c #FDF4D8",
"% c #FFFDFE",
/* pixels */
"                                ",
"                                ",
"                                ",
"                                ",
"                                ",
"                                ",
"                                ",
"                                ",
"                                ",
"                                ",
"                                ",
"                                ",
"                                ",
"                                ",
"                                ",
"                                ",
"  #$%%%%%%%%%%%%%%%%%%%%%%%%$#  ",
"  #$%%%%%%%%%%%%%%%%%%%%%%%%$#  ",
"  #$%%%%%%%%%%%%%%%%%%%%%%%%$#  ",
"  #$%%%%%%%%%%%%%%%%%%%%%%%%$#  ",
"  #$%%%%%%%%%%%%%%%%%%%%%%%%$#  ",
"  #$$%###$%%%%$##$%%%%##$$%$$#  ",
"  ##$#ooOO$###ooOO$%%#OooO#$##  ",
"  @#$O.XXXoOO#OX+.o##OXXX.o$#@  ",
"  .OOXXOX++OXoX+++XOoXXX+X.Oo.  ",
"  .OXX+++++XXXX++++XOXX+++XXo.  ",
"  .oX+++++++XX++++++XX+++++XO.  ",
"  .OX++++++++X++++++X++++++XO.  ",
"  .oXX++++++++++++++++++++XXO.  ",
"  .oXX+++++++++++++++++++XXXo.  ",
"  .OOXXXo+++XXX++XXXOo+XXXXOO.  ",
"  ...oooooooooooooooooooooo...  "
};
