/* XPM */
static char *calcite[] = {
/* columns rows colors chars-per-pixel */
"32 32 6 1 ",
"  c gray70",
". c #C9C9C4",
"X c #D9DBD7",
"o c #EDECE6",
"O c #F0F5F4",
"+ c white",
/* pixels */
"OOooooXo.XoooooXX.  .XOOOX.XooOO",
"OoooXooXX. oooXX.  OXO++OOX.XooO",
"ooooXXX.  XooXX.. oX++OooooX.XoO",
"oXoXX.X  .o .XX. XO++OoooooXXoXo",
"ooXXXX     .XX.XXO++ooooooXoXXXo",
"oXX.X.    ..XXX.XoOooooooooXoXXX",
"X..X.    . X.X.Xo+OOooooooooXX.X",
"..X.    . X..XoooooOOOOOooooX.X.",
"X...    ....XooooooOOooOOOoX.. .",
".X.  . ...XXooXXoooOOooooOOX. ..",
"XX .. ...XXoXXXXXoooOoooooX.   .",
"XX.. ...X.XXX.X.XXooOoooXX. .  X",
"XO+X..XXXXXX.X.XXoooOOoXoX .  X.",
"O+++oo.XX.X...XXXooXXoOo.X.. ..o",
"oo+O+ooX.X.....XooXXoXX.... X.+O",
"ooooOOooXOOOX...XoXXXX...XXO++OO",
"oooOXXoOO+++Oo...XOX.X..XXO+OOoo",
"oooXXO+OooOO+OX.XX.+O..XXo+Ooooo",
"XoX.X+Ooooooo+OX..XX++XXO+Oooooo",
"oX.X+OoooooooO+..XXooOX++Ooooooo",
"X.X+ooooooooooO.XXOooXO+OooooooX",
"..XoXooooooooX.XOOoooo++ooooXoXX",
".XXXooooooooXXO+OoooooO+oooXoXX.",
".oXoooooXoooXO+OoooooooOOooXX...",
".ooooooXooooO+oooooooooXOoXX. . ",
"oXoooo.XoooO+oooooooXoXXXOX. .  ",
"XoXoooX.XoO+OooooooXoX.X. .    .",
".X.O+OO..XO+ooooooXXX.X. .    .X",
"..++OooX.o+Ooooooo.X...     .XXo",
"X+Oooooo.o+oooooo.X...     .XooX",
"+OooooooXXOoooooOX...   .X.Xoooo",
"OooooooXo.XOoooOX.X. . .X.XXoXoo"
};
