/* XPM */
static char *campfire_log[] = {
/* columns rows colors chars-per-pixel */
"32 32 15 1 ",
"  c None",
". c #191B1E",
"X c #1F2329",
"o c #4C3D26",
"O c #5F4A2B",
"+ c #745A36",
"@ c #2C3543",
"# c #3A485F",
"$ c #566378",
"% c #917142",
"& c #967441",
"* c #987849",
"= c #9F844D",
"- c #B8945F",
"; c #C29D62",
/* pixels */
"**%****+OOOOO*%%****O++**+*%%%%%",
"*O+%%%***+**%++++%**%%**%%%+OO%*",
"%%%%+%%%%%%++%%%**%++***+Ooooo+%",
"+++OooooOO%*****%%++*%%%%%+%%%%*",
"*%%%%%%*%%*%**++OOOOOO+%%%%**O+%",
"+*****+%***%+*%%+++++%*%+*O%%***",
"*%%%%%++%++Ooo+%*%%%%+OOoooooooo",
"oooo+++%%%%%%+****+++**%O%%*%OOO",
"---;;---                        ",
"-;=&==;-                        ",
"-=&&&&=-                        ",
";&&=&==;                        ",
"-=&=&&&=                        ",
";==&&&==                        ",
";-==&=-=                        ",
"=;;-====                        ",
"#@XXXX#@X##@##@#@.X#@@@@##.###@.",
"@##@XX#X#@#$$$#..XXX@@##XX.X@.X.",
"###@X.X##@@##@#@.X@@@@##@XX.X#@X",
"#@@@@XX@####@X#XX#@@$@$##@#X#@@X",
"######XX@$#@X#X@@@@@@@@@@#XX#X#@",
"@@########@@X@@#@@##@@#@$####@#@",
"@@$@#@##@#@#X@X@@#X#@@@###XX#@@@",
"##@##@X####@@XX#@XXXXX###X$#X@@@",
"#@@###X@@#@#$$@@@XXX#X#@@$@X@X@@",
"@##X#XXX@X@##X@@@.#XX@##@##XX@XX",
"@@@X##..X@@##@$X.####@#@#@@X@XX.",
"####X.X.XX@@@@#.X@@$@@$##XX##X.X",
"##@XX#.#@@#XX@##X@X@$@$@#@XXX##X",
"#####X#X@$#X#X##@@@@$$$##X##X@@X",
"#@#@###X$##X#@##@#@#@@@##X@X@@@@",
"@@###XX$$$###@@X@@###@@@####@@@@"
};
