/* XPM */
static char *cartography_table_side1[] = {
/* columns rows colors chars-per-pixel */
"32 32 20 1 ",
"  c #291A0C",
". c #301E0E",
"X c #3A2411",
"o c #3E2912",
"O c #462D15",
"+ c #4F3218",
"@ c #583618",
"# c #752802",
"$ c #005500",
"% c #006800",
"& c #007A00",
"* c #6F4520",
"= c #DC9613",
"- c #ABA171",
"; c #FDF55F",
": c #2C2CB0",
"> c #3636D8",
", c #3F3FFA",
"< c #D1C589",
"1 c #F2E4A0",
/* pixels */
"$$,,,,>>>::X**@@******@@*******@",
"$%,-,,,,>>:X+++ +++O+++ +++O+++ ",
"%&<<--,,,>>.+++ o++O+++ ++OO+++ ",
"&&&<<,,,,,>.+++ o++O+++ +o+O+++ ",
"%%&&11<,,,>XO++.o++++@+ +++O+++ ",
",%$&&1<<,,,XO++.o++++@+ +++O+O+ ",
",,$$<<<-,,,X+++ O++++@+ +O+++O+ ",
",,$,&<-,,,,X+++ O++@+@+ +O+++OO ",
",,,,,<,,,,:.+++.O++@+@+ +O+o++O.",
">,,,,,,,,::.+O+.+O++@@+ +++o++O.",
">>,,,,,,::..+O+.+O+O@++.+++o++O.",
"  #;;==   .*+O+.+O+O@++.++o+++O.",
"*******@***++O+.@+O+@++ ++O++O+X",
"OOOOOOOX++++O++.@+O++@+ ++O++O+X",
"@+++OOO ++++O++ @@O++@+ ++OO+O+X",
"@+@++OO XXXXXX  XXXXXX  XXXXooXX",
"++@++OOXoooooooooooooooX@@@o@@@X",
"++@++OOXoooo++@@@ooooXoX@@+o@@@X",
"@+@++OO.o++++@@@@@@++XX.@@+++@@.",
"@+@+@OO.++++@@@@@@@@XXX.@O++O@@.",
"@++O@+O ***++@@@@@@@oXo +O++O+@.",
"@++O@+O @***+@@@@@@@+oo +OO+++@.",
"+++O+@O.@@**++@@@@@++XX.X+O++O@.",
"++O@+@O.@@*+++@@@@++OOX.X++++O@.",
"+++@+@O.O@+++++++++Oooo.+O+++O@ ",
"++++@+O.OO++++++++OOooo.+O++O+@ ",
"+@++@+O.OOOOOOOOOOOOOoo.++o+O+@.",
"+@+++@O.XXXXXXXXXXXXooo.++o+O+@.",
"+@o++@OX@@@@@@@@@@+++++X+o+++O@ ",
"++@++@OX@@++++++@@@@@++X+o+++O@ ",
"++@+++O +++++++++++++++ ++++++@ ",
"......  ..............  ......  "
};
