/* XPM */
static char *chipped_anvil_top[] = {
/* columns rows colors chars-per-pixel */
"32 32 8 1 ",
"  c None",
". c gray22",
"X c gray24",
"o c gray26",
"O c gray29",
"+ c gray32",
"@ c #5A5A5A",
"# c #727070",
/* pixels */
"      XooooooooooXXXXXoXXo      ",
"      oooOO+O++OoooXXo+ooo      ",
"      ooO+OO++++OOooOOOOoo      ",
"      oO+O++++O+++++O+OOOo      ",
"      XO.OO+++o++.+O+OOOOO      ",
"      XX@.+OOO++.@++O++OOO      ",
"      .oo@.OO++.#ooooO++Oo      ",
"      .ooo@.++.@OOooooOOoo      ",
"      .ooO+@..#++++.+ooooX      ",
"      .oOOO+.++++o+.OOoooX      ",
"      XXoooO.O+++OO.OOOoXX      ",
"      XXXXoo.OOO+++.OoO+XX      ",
"      XXXo..+++++++@....XX      ",
"      Xo..@.+O+++++o.@@.oX      ",
"      X.#@O@XX+OOoo.#o+@.o      ",
"      X@O+++@@..OO.o@OO+@.      ",
"      .o+O++++@#..#@OOooo@      ",
"      .o++OOO+o@.@+OO+Oooo      ",
"      XoO++OOO++@.++OOOOoo      ",
"      Xo+OOO+OO++.+O+OOOOo      ",
"      XXOOoooOOO+X++OOOOOX      ",
"      XXOooooooOXOOO++OOOX      ",
"      XXo@...@oX#oOOO+O+OX      ",
"      XXooO@@.X#@++OOO+OOX      ",
"      XooooOO@#@o++++OOOOX      ",
"      Xoo+OOOO+++O++++OOXX      ",
"      ooOOOO+++++++OOOooXX      ",
"      ooOO+++O+o++OOooooXX      ",
"      oooOO++OOOOOOoooooX.      ",
"      ooooOOOOOOoooooooXX.      ",
"      .ooooO+OoooXXoooXX..      ",
"      .XooooooooXXXXXXX...      "
};
