/* XPM */
static char *chiseled_stone_bricks[] = {
/* columns rows colors chars-per-pixel */
"32 32 9 1 ",
"  c #555455",
". c #5A595A",
"X c #626062",
"o c gray39",
"O c #6A6D6A",
"+ c #787678",
"@ c gray50",
"# c #8B898B",
"$ c #9C999C",
/* pixels */
"$$$$$$$$$$$@@$#$$$$$$#$$#$$$#$$O",
"$#########@########@#######@###.",
"$##@###@@@#@@##@@#@###@@#@@##@#.",
"##@#@@@+++@+@@@++@@@#@#@@##@#O+.",
"###@@++++OOOO++++++@OOOO@@@#@+O.",
"##@#@ooo.o........o.ooooooO@@#+.",
"##@#@o$$$$$$###$#$$$$$##$$o@#@#.",
"###@+.$######@##@#####@@#Oo@#@@.",
"##@@@o$#@#@##@@##@@#####@Oo#@#@.",
"#@@#+.$##@#@+#@@@+@@#@#@#Oo##@+.",
"$#@@+.$###@@+++++@##@#@@#+o#@@+.",
"$@#@+.$#@#@+OOOOO++@+@@#@+o#@#@.",
"$@#O+.###@@+        ###@+O.@@+#.",
"$##+O.$###++ ..X..X.$#@@@Oo$#++.",
"@#@+@.###@++ .o..X..$@#@++.$##+.",
"@#@++.$#@#@O .oXXXXX$@@+++.$#@O.",
"##@@+.$##@@O .XXXX..$#@@+O.$@+O.",
"#@#@O.###@O+ XX.XXX.$@#+@O.$@++.",
"##@#O.$#@#O+ ..X.X..$##++O.$@@+.",
"$#@+Oo$##@#+ ...X..X##@@+O.$@#+.",
"$@#+Oo$#@@#+#$$$$$$###@#@O.$#@+.",
"$@#@+o$##@@########@#@@#@O.$@#+.",
"$#@#+o$#@#@##@#@#@@@@#@@+Oo$@#+.",
"$#@@@o#@##+@@@@#@@##@@+#+O.#@#@.",
"$##@+o$@@+@##+O+##@@+++++Oo##++.",
"$##@@o$++++OO++OO++OOOOOOOo#@@+.",
"####@Oooooo.oo.o......o.ooo#@++.",
"###@#$$$$$###$$$$$$$$####@#@#@+.",
"@#######@###@##@@@####@@##@+@++.",
"+@@#+#@@@@###@@##@###@#+@@++@+O.",
"+++@+@@++O+@@##@@#++++OOO++OOOO.",
"O..............................."
};
