/* XPM */
static char *chiseled_quartz_block[] = {
/* columns rows colors chars-per-pixel */
"32 32 6 1 ",
"  c #DDD9CB",
". c #E2DED0",
"X c #EAE2DA",
"o c #EEE6DE",
"O c #EEEAE6",
"+ c #F2EFED",
/* pixels */
"O +OOOOOOOO +OOOOOoo.+XXXXXoOO +",
"O +oOOOOOOO +ooooooo +XXXoOOOO +",
"o +OOOOoooo.+ooXXXXX +ooOOOOOO +",
"o +OoooXXoo XXXXXXXX +OOOOoOOO +",
"o +oXXXooXX. ..     .+OOooOOOo +",
"o +ooXXXXXXXXo.++ ++++OOOOOooo +",
"X.+XXXXXXXXXXX +O +OOOOOoooooo.+",
"X +oXXXXXXoooo +O +ooOOoooooXX.+",
"o.+XXoooOOOooo oX.XoOooooXXXXX.+",
"X.+ooXX ..... .  .... .  oXXXX +",
"o.+oXXo.++++++++++++++++ +XXXX.+",
"o +ooXX +XXXoooOOooXXXXX +XXoo +",
"o oXXoo +oOOOOOOoXXXXXXX ooooX o",
"  . ..  +OOOO. .   XXooo.  ..   ",
"+++++++++OOOO.++++ oooXXo+++++++",
"OOOOOoOOOOOoo.+OOo XXXoooooOOOOO",
"OOOooOOooooXX +Xoo.oooOOOOOOOOOO",
"OOOOoooooXXXX oooo OOOOOOOOOOOOO",
"  .   ..XXXoo  .. .OOOOo.. .  ..",
"+ +++++ ooooOOooOOOOOOOO.+++++.+",
"o +ooOO ooOOOOOOOOOOOOoo +XXXX.+",
"o +OOOO OOOOOOOOOOOooXXX +XXXX +",
"O +ooOO.  ...    .....   +XXoo +",
"O +OOOOO++++++ ++.++++++++oOOO.+",
"O.+OOOOOOooooX +o +XXXooOOOOOO +",
"O.+OooooooooXX +o +ooOOOooOOOO +",
"o.+XXXooXXXXoo oX OOOOOoOOOOOo +",
"o.+ooooXXXX. .     . OOOOOOooO +",
"X +XoXXXXoo.++++++++ +oooooooo +",
"X +oooooOOO.+oOOOOOO +ooXXooXX +",
"X.+OOOOOOOo.+OOOOOOO.+oXooXXXX.+",
"O.+OOOOOOOO +OOOOOOO.+ooXXXXXX +"
};
