/* XPM */
static char *chiseled_sandstone[] = {
/* columns rows colors chars-per-pixel */
"32 32 7 1 ",
"  c #C6AE71",
". c #D1BA8A",
"X c #D5C496",
"o c #DAD2A3",
"O c #E3DBB0",
"+ c #E7E4BB",
"@ c #EDEBCB",
/* pixels */
"O++++++OOOO+++O+OO++OOO++++++++O",
"OOOOOOOOoooO+OOOO++OOooOO+++++OX",
"OOoooooooooooX.XoXoXooooXoXOOOXX",
"OooXooooooooXXoX.oXoXooooXOOOOoX",
"OXXXXXX.XX.XXX..X.X.....XXXoXXXX",
"....XX.. .....X .. .     .XXX...",
"@@+@OOO+++@+@+@++++++@+++O+O++X ",
"@++++OOOOOO++O++oOO+++++OOOOO+. ",
"@+Oo+OOooX    OoXO    OoOoOOOo. ",
"@OooOOoXX+....O+oo .X.oooOoOoo. ",
"++OooOoo+O X.XOOOo. .XoOoooooo. ",
"++OoO+OoOo .XXOO+O .XXO+OooOoO. ",
"++OO+OoXoO+O+o  . ooO+oOOOooOoX ",
"++oOOXooOO+OOo ...oOooOoOOoooo. ",
"+OOOoOXooOoO   .... oOooooOoooX.",
"++O+OooOooO+ .XXXX..OooOoooooXX.",
"++OOOOooooOO XOO+O.XoooooooooX. ",
"+OOoooooXooO .o+OO.XOoooooooXo. ",
"o..... ....XX.. X. .XX..XX..... ",
"   ..   ..  .. .. ...        .  ",
"@@@+++++++@@@++++O+O++@+@+++++. ",
"@+++++++++++++O++OOOOO+++++O+O. ",
"@+OooOooXoooOOoOoOoO+OO+ooOO++. ",
"+OoXooo.  OO+  .ooOo+o++    X+. ",
"++oOoX   ..+Oo...ooooXXO.....+. ",
"++Ooo .oo .X++O ..  . ooooo..O. ",
"+Ooo .oOo .+ooO  XX... XoOO .O. ",
"++o .ooo .oooOo..OoXo .ooo+ .oX ",
"+Oo .oo .ooooooX.oooOo oXoO .OX.",
"+oXooXoooXoXXoXoXoXooOoXoXoooX. ",
"oXX.X....X.......X.......X... . ",
"..   ..   ...  ....      ..     "
};
