/* XPM */
static char *chorus_flower_dead[] = {
/* columns rows colors chars-per-pixel */
"32 32 13 1 ",
"  c #3A143A",
". c #401A40",
"X c #472147",
"o c #562E56",
"O c #5B345B",
"+ c #634561",
"@ c #7C5B7C",
"# c #867658",
"$ c #998E5F",
"% c #A49D7E",
"& c #8F718F",
"* c #C9C5B0",
"= c #E2DDBC",
/* pixels */
"@OOOOOOooOOOOOO@+O@+OOO+&&+O+&@@",
"+@OOOOoXXoooOOOO+OO@+O+&OO&&&OO+",
"O+@OOOo...XoOooo@OOO@@&OOOOooOOO",
"OO+@Oo....XXoooo+@OOOOOOOooooooO",
"OOO&oo.   XooooOO@OOooXooooXXooo",
"OO+&oX   XoooOOOO&OoXXXXXXXXXXoo",
"OO&oo.  ..ooo@&O&+oXX.....  .XXO",
"O+&oX.  ..X+@+O@+OoX.  ..    XXO",
"+&OoXX. ...XOO@+OOoX    ..  .XoO",
"@OoXXXX.....oO@+Oooo.   ...XXoo@",
"OOoXXXX.....oOO@oooooXXXXXoooo@+",
"OOooXX..XX.XOO####@@OooooOOoO+@O",
"OOOooXXXooOoO$%$$$#+@OOOOO+&@@OO",
"+OOooooooOOO$%*=*%$#+&OOO+@O+OOO",
"@+OOooooOO@&#%=*=*%$O@&&&@OO@+@@",
"O@@+OoOO@&+O$%*=**%#oOO+OOOoO@++",
"OOO@+OO&+OOO#%%**%$#ooOOOOoooOOO",
"+O@+@&&+OOOOo#%%%$#ooooOOooooooO",
"@@+OOOOOOooooo####OooXoooooXXooO",
"OOOOOoooXXXXXooOO&OoXX.XooX.XXoO",
"OOOOoooX...XXXoO@&OOX...XX...XoO",
"OOOooXX.....XoOO&+Oo....X...XXo@",
"OOooX.   ..XXOO&@OO...  ..XXXoO@",
"OOoX..    XXXoO&+OoX.   ..XXoO@+",
"OOoXXX.  .X.oO&+OOo.     .XoO@+O",
"OooXXXXX.X.X+@O@+Oo.    .XXoO&OO",
"OoooXXXXXXoooOO+@OoX. ..Xo@@O&OO",
"OOOoooXXooooooOO+@Oo...Xo@o+@&+O",
"OOOOOOO@&&OOoooOO+@ooXXo+ooooO&O",
"OOOOOO&+O+@OooooO+@OoooooooooO&+",
"O@&&&@+OOO+@OOooO@+OOOOOooOOOOO@",
"@+OOOOOOOOO+@OoO@+OOOOOOOOOOOOO@"
};
