/* XPM */
static char *cocoa_stage2[] = {
/* columns rows colors chars-per-pixel */
"32 32 8 1 ",
"  c None",
". c #531A09",
"X c #652F0B",
"o c #823C0E",
"O c #96571A",
"+ c #B97335",
"@ c #CB8E53",
"# c #E2B17C",
/* pixels */
".XXoooXXXXoXo.                ##",
"oOO+++++++OOOX              ##@@",
"XO++@@@@@@++OX             #@@OO",
"oO+@@@@@@@@++o            #@@OXX",
"X+@@@@@@@@@@+X           #@@OX  ",
"X+@@@@##@@@@+X           #@OX   ",
"X+@@@####@@@+X          #@OX    ",
"X+@@@####@@@+X          #@O.    ",
"X+@@@@##@@@@+X..XXXXXXXXXXXX..  ",
"X+@@@@@@@@@@+X.#@#@O+OO+O@#@#.  ",
"o++@@@@@@@@+OoX#+#+++O++OO#+#X  ",
"oO++@@@@@@++OXX#+@+@@O@+O+@+#X  ",
"XOOO+++++++OOoX#++@@###@O+++@X  ",
".XXoXXXXoXXXo.X@++@###@@@++++X  ",
"              X++@#####@O+++@X  ",
"              X++@#####@O+++@X  ",
"              X++@####@@@+++@o  ",
"              X++@@####@O+++@o  ",
"              o+++@@####@+++@o  ",
"              o+++@#####@+++@o  ",
"              o++++@###@@+++@o  ",
"              o++++@##@@++++@o  ",
"              o+++++@@++O++@#o  ",
"              o@++O+++++OO+@#o  ",
"              .#@@OO++O+O@@##.  ",
"              ..oooooooooooo..  ",
"                                ",
"                                ",
"                                ",
"                                ",
"                                ",
"                                "
};
