/* XPM */
static char *comparator_on[] = {
/* columns rows colors chars-per-pixel */
"32 32 29 1 ",
"  c gray47",
". c #AB0301",
"X c #B10300",
"o c #B10002",
"O c #D60000",
"+ c #D40102",
"@ c #D70304",
"# c #DB0207",
"$ c #FD0300",
"% c #FB0006",
"& c #F1756F",
"* c #808080",
"= c gray51",
"- c gray53",
"; c gray54",
": c #8D8D8D",
"> c #909090",
", c #929292",
"< c gray58",
"1 c #9D9D9D",
"2 c gray64",
"3 c gray66",
"4 c gray69",
"5 c #E99A91",
"6 c #D3C7B9",
"7 c #DBCCBF",
"8 c #C5C5C5",
"9 c #CDCDCD",
"0 c #E2D6CB",
/* pixels */
"--*******;;;>><   ><;- *******;-",
"->:::::::>:><<<<<;><>>:>;:;>>;:-",
"*>3334444444442222244444113332;*",
"*;3333444444444422444444412333>*",
"-:3222222224222444223333444443>;",
"-;3122222212222243423233344433:-",
"->3443333111332433322222222422;;",
"*<4443233331332333322242422222> ",
"->44442222222><>><<44444444424; ",
"->3344222222>*    =84444444424; ",
"*:222232222<*66666668342222211>-",
"*:423333332>*67777768333224423>*",
"-<24333333>*607777776934444411;-",
"****>33332<*600077776933444<    ",
"---;*3223>*6675&00777692222 -;--",
"->>>*3224<*67775&5070692242 -;>>",
">-;>*441<*677760&&507769444*->><",
"<>--8441< 677775&5&07769444*-><>",
"8888422<*677770&50&5077692448888",
"->32222>*67770&&00&&0776922243>-",
"->3344>*66770&&070&50777692333>-",
"->3334<*60705&0005&07777693333>-",
" ;333<*%$%$OO$OOOO#$$##@@@9444; ",
" ;313>*%%$OOO$$OOO$$$$O@@@9444<>",
"*>222>4O%O+..@@ooo###X#ooo8223>;",
"->222224OO....@@ooo#Xooo982222:>",
">>4222224477077777777799333333<<",
";>3442221144388888889922333344<>",
";>3332222222222222444444332222>;",
"->3333322222222233334443222223>-",
"*:::::::;;<<<<>>>>>>>>:>:::::>>-",
"******** <><><>>------******--**"
};
