/* XPM */
static char *comparator[] = {
/* columns rows colors chars-per-pixel */
"32 32 34 1 ",
"  c #260003",
". c #2A0002",
"X c #2C0300",
"o c #3E0101",
"O c #3D0301",
"+ c #400000",
"@ c #470102",
"# c #490100",
"$ c #4E0200",
"% c #4B0501",
"& c #550000",
"* c #540200",
"= c #560600",
"- c #580101",
"; c #5A0003",
": c gray47",
"> c #808080",
", c gray51",
"< c gray53",
"1 c gray54",
"2 c #8D8D8D",
"3 c #909090",
"4 c #929292",
"5 c gray58",
"6 c #9D9D9D",
"7 c gray64",
"8 c gray66",
"9 c gray69",
"0 c #D3C7B9",
"q c #DBCCBF",
"w c #C5C5C5",
"e c #CDCDCD",
"r c #E2D6CB",
"t c #E8E2D9",
/* pixels */
"<<>>>>>>>111335:::351<:>>>>>>>1<",
"<322222223235555513533231213312<",
">388899999999977777999996688871>",
">188889999999999779999999678883>",
"<2877777777977799977888899999831",
"<186777777677777989787888999882<",
"<3899888866688798887777777797711",
">599987888868878888777979777773:",
"<399997777777353355999999999791:",
"<388997777773>::::,w99999999791:",
">27777877775>0000000w8977777663<",
">29788888873>0qqqqq0w8887799783>",
"<5798888883>0rqqqqqq0e899999661<",
">>>>3888875>0rrrqqqq0e889995::::",
"<<<1>87783>00qttrrqqq0e7777:<1<<",
"<333>87795>0qqqtttrqr0e7797:<133",
"5<<3>9963>0qqqqrtttrqq0e999><335",
"33<1w9963>0qqqqrtttrqq0e999><253",
"wwww9775>0qqqqrttrttrqq0e799wwww",
"<3877773>0qqqrttrrttrqq0e7779821",
"<388993>00qqrttrqrttrrqq0e788831",
"<388895>0rqrttrqrttrq00r0e88882<",
":18883>===****--;-*--*----e9991:",
":18683>=$$**$#$#*%%%*##@#+e99953",
">277739+%+OOOOOOOo+++++o  w77831",
"<3777779 ... .XX. ....  ew777723",
"5397777799qqqqqqqqqqr0ee88888855",
"<389977766999wwwwwwwee7788889953",
"<3888777777777777799999988777731",
"<388888777777777888899987777783<",
">222222211555533333333232222233<",
">>>>>>>>:5353533<<<<<<>>>>>><<>>"
};
