/* XPM */
static char *crimson_fungus[] = {
/* columns rows colors chars-per-pixel */
"32 32 16 1 ",
"  c None",
". c #480000",
"X c #521810",
"o c #501B1B",
"O c #730408",
"+ c #49372C",
"@ c #723232",
"# c #5B4538",
"$ c #796152",
"% c #941818",
"& c #A42429",
"* c #C22B04",
"= c #C53439",
"- c #FF6500",
"; c #854242",
": c #FFA468",
/* pixels */
"                                ",
"                                ",
"                                ",
"                                ",
"                                ",
"                                ",
"                                ",
"                                ",
"            ====&&::            ",
"           ======&&-:           ",
"           ::=====&&&           ",
"          :-::====&&&%          ",
"          --:-===-:%&%          ",
"          %--===::-:%%          ",
"         OO%&===---:O%O         ",
"        O&=O%%%&O-*O%OO*        ",
"      X&======&%OOOOXX-**O      ",
"      XO&===&&&XXOXXXO**OX      ",
"      .XOO&&=OOOOXXOOOOOX.      ",
"      ..XXOOOOOOXX.XOXXOX.      ",
"       .X...XXX..X..XXXX.       ",
"        ..XX.X....X..X..        ",
"              ooo+              ",
"              o@+@              ",
"              #o+@              ",
"              @#@@              ",
"              ;@#@              ",
"              @;$@              ",
"              ;$@;              ",
"              $@;;              ",
"              ;$@;              ",
"              @;@@              "
};
