/* XPM */
static char *crimson_roots[] = {
/* columns rows colors chars-per-pixel */
"32 32 5 1 ",
"  c None",
". c #50062A",
"X c #660627",
"o c #AD101C",
"O c #920636",
/* pixels */
"                                ",
"                                ",
"                                ",
"                                ",
"                                ",
"                                ",
"                                ",
"          o                     ",
"        O oX                    ",
"        OooXX  X                ",
"         oO X  XX   X           ",
"        oo  XX  X   XX X        ",
"      ..oOOOXX  O    XXX        ",
"   X XX oOXoOX  X    OX X       ",
"   XXX. OoXXoX  O X  OX XX X    ",
"    X.   oOXoO  OXX  OX  OXX    ",
"    X.   OO.oO. OX  OXX  XOX    ",
"    .X. OOX.oO.XOX  OX  X oX    ",
" X   .OXOOXXOOXOOX  OX OXXoO    ",
" X X .XOOXOXOX XOX XOXOX XooX   ",
" OOX  XoX OoO. XOXOXoOO.  OoO X ",
"OOX   oO. OoX   OOX oOX    OOXX ",
"OX    oX   OX X oOX oO      oO  ",
"OX    oX   OO.X oO  oX    X oX  ",
"XO X  oO    OX  oO XOX   . XoX  ",
" OXX  oO X  OX  OO XOXX  . XO.  ",
" XOX  OoX   O. XOX  OXO ..XOX   ",
"  XO.  OX  .X. XXX XOXOX.XoX.   ",
"   OX  OX .XX.XX.  OX.OoOoO.    ",
"   XX. XOX.X. X..  X..XOooX     ",
"    X.  OX..  ... .X. .XOX.     ",
"    ... XXX.. ... ... ..X.      "
};
