/* XPM */
static char *crimson_trapdoor[] = {
/* columns rows colors chars-per-pixel */
"32 32 7 1 ",
"  c None",
". c #4B2737",
"X c #5C3042",
"o c #6A344B",
"O c #7E3A56",
"+ c #863E5A",
"@ c #924160",
/* pixels */
"XX........XX......XX....XX......",
"XO@@@@@@@@@@OOOOOOOO@OOOOOoo@@O.",
".@++OO@@OO++@@++@@@@@@@@++OO++@X",
".++O@@@@@@@@OOO@@@@@@@@OOO@@O++X",
".+OOXXXXooXXXXXXXXooooXXXXooOO+.",
".OOoX                      ooOO.",
"XO+@X                      X@+O.",
"X++OX                      XO++.",
".+++.                      .+++X",
".++O..XXXXooXX........XXXX..O++X",
".+OOO@@@@@@@@@OOOOOOOOOO@@@@OO+X",
".OOOO@@OO++@@++@@@@@@@@++OO++@OX",
".O@O..XXXX........XXooXXXX..O@O.",
".@@@.                      .@@@.",
"X@@OX                      XO@@.",
"X@@OX                      XO@@.",
".@++X                      X++@.",
".++OX                      XO++.",
".++O.                      .O++X",
".++O......XX..XXooooXXXX....O++X",
"X+OOOOO@@@@@@OOOOOOOOOOOOooOOO+.",
"XOOOO@@OO++@@++@@@@@@@@++OO++@O.",
".OO@..XXXXXXooXX....XX......@OO.",
".OO@.                      .@OO.",
".O+OX                      XO+OX",
".++OX                      XO++X",
".++OX                      XO++X",
".++OXXXXooXXXXooooooXXooXXXXO++X",
"XO@@@@@@@@@@OOOOOOOO@OOOOOoo@@OX",
"X@++OO@@OO++@@++@@@@@@@@++OO++@X",
"X++O@@@@@@@@OOO@@@@@@@@OOO@@O++.",
"XX........XXXX..XX......XXXXXX.."
};
