/* XPM */
static char *crimson_stem[] = {
/* columns rows colors chars-per-pixel */
"32 160 8 1 ",
"  c #521810",
". c #7B0000",
"X c #442131",
"o c #4B2737",
"O c #562C3E",
"+ c #890F0F",
"@ c #961515",
"# c #B12727",
/* pixels */
"ooXoX  # oo . XX @ X  XoXX + XXo",
"ooooXX # ooX . X @ XXXooX + XXoo",
"oooXX  @ Xoo .  @ XXoXooX . XoXo",
"oXX   @ XXooX + @ XooOoXoX . XXo",
"oX +. @ XoXooX + XXXOooXXXX + XX",
"X +  . XXXXoXX + XXoOOXXX XX + X",
" # Xo . XXXXXXo + XoOOoX . X @  ",
"# XooX . XXoXoX + XXoOOo . X @@@",
"  XoOoO . XXooXX . XooOOX + @@  ",
" XoOOOo . XoooOo . XXoOooX +@ X ",
"XoooOOoo . XOoOXX .  XoooXX + XX",
"XX OOOoO . XoOoOoX .. XoXoX + XX",
"X . OOOoo . ooOOooX .  XXX + XoX",
"X . OOoOX . oOoOOooX .. X + Xooo",
" + ooOOoX . XoooOOooX  . . XoooO",
"+  ooOoXX  .XXoOoOOOoXX .. oOoOo",
"+ XXooXX  X .  oXoOoOoXX . XoOOo",
" + XoXX  XoX .. oXoooXoX . XoOOO",
"X # XX + XooX  . XXoXXX . XoOOoO",
"XX @ X+ XoOooXX . XXoX . XooOooo",
"XX ##@ XoOoOOooX . XX  . XoOoOoX",
"X @#   XooOOOOoOX .   .. Xoooooo",
"X #  XXoXoooOOOoX . .. +. XoooXX",
" @ XXoXX XoOOOOOoX .  X + XXoXoX",
" +XoooX . XoOoOoOX . XoX @ XoXX ",
"+ XooX .   XooOoX . XooX @ XXX  ",
" XoooX +  . XooX + XXXooX # XX +",
" XooX + X . oXoX + XoXXoXo #  + ",
"Xooo  + XX . XXo # XXooooX @#@ X",
"XXoX + XXo . XXXX @ XXooooX @ Xo",
"XXXX @ XoX .. XXX ##   XoX + XoX",
"XoXXX . ooX . XX @# @@  XX + Xoo",
"ooXoX  + oo . XX @ X  XoXX + XXo",
"ooooXX + ooX . X @ XXXooX + XXoo",
"oooXX  . Xoo .  @ XXoXooX @ XoXo",
"oXX   . XXooX . @ XooOoXoX @ XXo",
"oX .. . XoXooX . XXXOooXXXX # XX",
"X .  . XXXXoXX . XXoOOXXX XX # X",
" + Xo . XXXXXXo + XoOOoX . X @  ",
"+ XooX . XXoXoX + XXoOOo . X @@@",
"  XoOoO . XXooXX . XooOOX + ++  ",
" XoOOOo . XoooOo . XXoOooX ++ X ",
"XoooOOoo . XOoOXX .  XoooXX + XX",
"XX OOOoO . XoOoOoX .. XoXoX + XX",
"X # OOOoo . ooOOooX .  XXX . XoX",
"X # OOoOX . oOoOOooX .. X . Xooo",
" @ ooOOoX . XoooOOooX  . . XoooO",
"@  ooOoXX  .XXoOoOOOoXX .. oOoOo",
"@ XXooXX  X .  oXoOoOoXX + XoOOo",
" @ XoXX  XoX .. oXoooXoX + XoOOO",
"X + XX . XooX  . XXoXXX + XoOOoO",
"XX + X. XoOooXX . XXoX + XooOooo",
"XX +.. XoOoOOooX . XX  @ XoOoOoX",
"X +.   XooOOOOoOX .   @@ Xoooooo",
"X +  XXoXoooOOOoX . ++ #@ XoooXX",
" . XXoXX XoOOOOOoX .  X # XXoXoX",
" .XoooX + XoOoOoOX + XoX @ XoXX ",
". XooX +   XooOoX + XooX @ XXX .",
" XoooX @  . XooX @ XXXooX @ XX +",
" XooX @ X . oXoX @ XoXXoXo @  . ",
"Xooo  @ XX . XXo + XXooooX +.+ X",
"XXoX # XXo . XXXX @ XXooooX + Xo",
"XXXX @ XoX .. XXX @#   XoX . XoX",
"XoXXX @ ooX . XX .# @@  XX . Xoo",
"ooXoX  + oo . XX . X  XoXX @ XXo",
"ooooXX + ooX . X . XXXooX @ XXoo",
"oooXX  . Xoo .  . XXoXooX # XoXo",
"oXX   . XXooX . . XooOoXoX # XXo",
"oX .. . XoXooX . XXXOooXXXX @ XX",
"X .  . XXXXoXX . XXoOOXXX XX @ X",
" . Xo . XXXXXXo . XoOOoX . X @  ",
". XooX . XXoXoX . XXoOOo . X @++",
"  XoOoO . XXooXX . XooOOX . ++  ",
" XoOOOo . XoooOo . XXoOooX .+ X ",
"XoooOOoo . XOoOXX +  XoooXX . XX",
"XX OOOoO . XoOoOoX ++ XoXoX . XX",
"X . OOOoo + ooOOooX @  XXX + XoX",
"X . OOoOX + oOoOOooX @@ X + Xooo",
" . ooOOoX @ XoooOOooX  @ # XoooO",
".  ooOoXX  @XXoOoOOOoXX ## oOoOo",
". XXooXX  X @  oXoOoOoXX @ XoOOo",
" . XoXX  XoX @# oXoooXoX @ XoOOO",
"X . XX . XooX  # XXoXXX @ XoOOoO",
"XX . X. XoOooXX @ XXoX + XooOooo",
"XX ... XoOoOOooX @ XX  + XoOoOoX",
"X ..   XooOOOOoOX @   +@ Xoooooo",
"X .  XXoXoooOOOoX + ++ +@ XoooXX",
" . XXoXX XoOOOOOoX +  X + XXoXoX",
" .XoooX + XoOoOoOX + XoX . XoXX ",
". XooX @   XooOoX + XooX . XXX .",
" XoooX @  . XooX . XXXooX . XX .",
" XooX @ X . oXoX . XoXXoXo .  . ",
"Xooo  + XX . XXo . XXooooX ... X",
"XXoX @ XXo . XXXX . XXooooX . Xo",
"XXXX + XoX .. XXX ..   XoX . XoX",
"XoXXX + ooX . XX .. ..  XX . Xoo",
"ooXoX  . oo . XX . X  XoXX . XXo",
"ooooXX . ooX . X . XXXooX . XXoo",
"oooXX  . Xoo .  + XXoXooX . XoXo",
"oXX   . XXooX . + XooOoXoX . XXo",
"oX .. . XoXooX + XXXOooXXXX . XX",
"X .  . XXXXoXX + XXoOOXXX XX . X",
" . Xo . XXXXXXo @ XoOOoX . X .  ",
". XooX . XXoXoX @ XXoOOo . X ...",
"  XoOoO . XXooXX @ XooOOX . ..  ",
" XoOOOo . XoooOo @ XXoOooX .. X ",
"XoooOOoo + XOoOXX #  XoooXX . XX",
"XX OOOoO + XoOoOoX #@ XoXoX . XX",
"X . OOOoo @ ooOOooX #  XXX . XoX",
"X . OOoOX @ oOoOOooX @@ X . Xooo",
" . ooOOoX # XoooOOooX  + . XoooO",
".  ooOoXX  #XXoOoOOOoXX .. oOoOo",
". XXooXX  X @  oXoOoOoXX . XoOOo",
" . XoXX  XoX @+ oXoooXoX . XoOOO",
"X . XX . XooX  @ XXoXXX . XoOOoO",
"XX . X. XoOooXX + XXoX . XooOooo",
"XX ... XoOoOOooX + XX  . XoOoOoX",
"X ..   XooOOOOoOX +   .. Xoooooo",
"X .  XXoXoooOOOoX . .. .. XoooXX",
" . XXoXX XoOOOOOoX .  X . XXoXoX",
" .XoooX @ XoOoOoOX . XoX . XoXX ",
". XooX @   XooOoX . XooX . XXX .",
" XoooX +  . XooX . XXXooX . XX .",
" XooX + X . oXoX . XoXXoXo .  . ",
"Xooo  + XX . XXo . XXooooX ... X",
"XXoX + XXo . XXXX . XXooooX . Xo",
"XXXX . XoX .. XXX ..   XoX . XoX",
"XoXXX . ooX . XX .. ..  XX . Xoo",
"ooXoX  + oo . XX @ X  XoXX @ XXo",
"ooooXX + ooX . X @ XXXooX @ XXoo",
"oooXX  + Xoo .  @ XXoXooX + XoXo",
"oXX   + XXooX . @ XooOoXoX + XXo",
"oX +@ + XoXooX @ XXXOooXXXX + XX",
"X +  @ XXXXoXX @ XXoOOXXX XX + X",
" . Xo # XXXXXXo @ XoOOoX . X .  ",
". XooX # XXoXoX @ XXoOOo . X ...",
"  XoOoO @ XXooXX + XooOOX . ..  ",
" XoOOOo @ XoooOo + XXoOooX .. X ",
"XoooOOoo @ XOoOXX +  XoooXX . XX",
"XX OOOoO @ XoOoOoX +. XoXoX . XX",
"X . OOOoo @ ooOOooX +  XXX . XoX",
"X . OOoOX @ oOoOOooX .. X . Xooo",
" . ooOOoX + XoooOOooX  . . XoooO",
".  ooOoXX  +XXoOoOOOoXX .. oOoOo",
"+ XXooXX  X .  oXoOoOoXX . XoOOo",
" + XoXX  XoX .. oXoooXoX . XoOOO",
"X + XX . XooX  . XXoXXX . XoOOoO",
"XX @ X. XoOooXX . XXoX . XooOooo",
"XX @++ XoOoOOooX . XX  . XoOoOoX",
"X @+   XooOOOOoOX .   .. Xoooooo",
"X @  XXoXoooOOOoX . .. .. XoooXX",
" # XXoXX XoOOOOOoX .  X . XXoXoX",
" @XoooX . XoOoOoOX . XoX + XoXX ",
"@ XooX .   XooOoX . XooX + XXX @",
" XoooX .  . XooX . XXXooX @ XX @",
" XooX . X . oXoX . XoXXoXo @  # ",
"Xooo  . XX . XXo . XXooooX @@# X",
"XXoX . XXo . XXXX . XXooooX # Xo",
"XXXX . XoX .. XXX .+   XoX @ XoX",
"XoXXX . ooX . XX .+ ..  XX @ Xoo"
};
