/* XPM */
static char *cut_sandstone[] = {
/* columns rows colors chars-per-pixel */
"32 32 7 1 ",
"  c #C6AE71",
". c #D1BA8A",
"X c #D5C496",
"o c #DAD2A3",
"O c #E3DBB0",
"+ c #E7E4BB",
"@ c #EDEBCB",
/* pixels */
"O++++++OOOO+++O+OO++OOO++++++++O",
"OOOOOOOOoooO+OOOO++OOooOO+++++OX",
"OOoooooooooooX.XoXoXooooXoXOOOXX",
"OooXooooooooXXoX.oXoXooooXOOOOoX",
"OXXXXXX.XX.XXX..X.X.....XXXoXXXX",
"....XX.. .....X .. .     .XXX...",
"@++@OOO+++@+@+@++++++@+++O+O+++X",
"@++++OOOOOO++++++O++++++OOOOO+o ",
"@+Oo+OoooX+OOOooXoXoXoXooooOoo. ",
"@OooOOoXX+OOOoooooooXooXoOoOoo. ",
"++oooOoo+O+ooo++ooOooXoOoooooo. ",
"++ooO+ooOoO+oOOO+oOOOoO+oooOoO. ",
"++oO+OXooo+OOoOOoooXOOOOOoooOoX ",
"++oOOooXoOOO+oOOoXooooOooOoooo. ",
"++OOooXOooo+oOooOOoooOooooooooX.",
"++O+oOooooO+Ooooo+XoooooooooooX.",
"++OOooooooOOoooO+OooooooooooooX ",
"++OooooooooOoooO+OoooooOoooXooX ",
"++oOooooooooooOOOoOooooooooooo. ",
"@+ooooXooooOoo++ooooooooOOoooo. ",
"@+ooo+ooooooo+OooOooooOOOooooO. ",
"@+ooOoooooooOOooooooo+OO+oooO+. ",
"++oooOoooXoOO+oooooo+O++OoOO++. ",
"++oooooXXo+O+oooXooo+o++ooO+++. ",
"++oooXXoooO++o++oXXoooo+ooOO++. ",
"+OoooooXoOOO+O+oOooooooooooO+O. ",
"++ooooooooo+oooOoooooooXooOOOo. ",
"++XoooooooooooOooooooXXoooOoOOX ",
"+OoXXoXXoo.oXXoooooXOO+XoXOXooX.",
"+OoXoXooXXo..oXoXXoooOooooXoXo. ",
"+oX..X..XX......XX.......X..... ",
"X.    .   ...  .. .      ..     "
};
