/* XPM */
static char *cyan_stained_glass_pane_top[] = {
/* columns rows colors chars-per-pixel */
"32 32 4 1 ",
"  c None",
". c #47768E",
"X c #497A92",
"o c #4C7F98",
/* pixels */
"              ooXX              ",
"              ooX.              ",
"              oo..              ",
"              oo..              ",
"              oX.X              ",
"              oXXX              ",
"              XXXo              ",
"              XXXo              ",
"              XXoo              ",
"              Xoo.              ",
"              oo..              ",
"              oXX.              ",
"              oXX.              ",
"              XXX.              ",
"              XXX.              ",
"              XX..              ",
"              oX..              ",
"              oo..              ",
"              Xo.X              ",
"              XX.X              ",
"              XoXX              ",
"              ooXX              ",
"              ooX.              ",
"              oX..              ",
"              oX..              ",
"              oXX.              ",
"              oXXX              ",
"              ooXX              ",
"              ooX.              ",
"              oo..              ",
"              Xo..              ",
"              Xo..              "
};
