/* XPM */
static char *dark_oak_sapling[] = {
/* columns rows colors chars-per-pixel */
"32 32 9 1 ",
"  c None",
". c #4C3214",
"X c #5A3F1E",
"o c #105210",
"O c #1F6519",
"+ c #70532E",
"@ c #7F6139",
"# c #408F2F",
"$ c #57AD3F",
/* pixels */
"                                ",
"                                ",
"                                ",
"                                ",
"                      ##O       ",
"                     O$$#O      ",
"       O####OO       O#OO Oo    ",
"      O##O####O     ooOO O#o    ",
"       oO#$#O#oo##$##Ooo#O#O    ",
"        #$$$#Ooo#$#$OOOo$##o    ",
"      O#O#...oO#$$OOOo..#$Oo    ",
"     O##O.XX..oO$O#Oo.XO$#o     ",
"     ooO...oOO#$##Ooo.#$#o      ",
"       o .oOOoO#OOoo.OO#Oo.     ",
"          oOoOooooOOOo.Oo.X     ",
"          OOOooooOOOoOo..X..    ",
"        O#oOooo.OoOOOooX..OO    ",
"       O##Oooo.XXoOOoo.X.o$#$   ",
"      oOOoo .XX+X.oo..X.o##$#O  ",
"       oo   X+X++XX.X..oO#OOo   ",
"          oO###OXXX.X.oooo      ",
"         #$$O#OOX+XXX.          ",
"        #$$#OOo+XX+X..          ",
"        O#OOoo+X+X+X..          ",
"         o.X+X@X@+++.X          ",
"           .+@@+++X+X.          ",
"            X+@@+XX+X.          ",
"            X++@+X+X..+         ",
"            XX+@XX++X.+         ",
"           X+X@+.XX+X.X         ",
"           +X++XX.X.XX.X        ",
"          XX.X+X.....X.X        "
};
