/* XPM */
static char *dead_horn_coral_block[] = {
/* columns rows colors chars-per-pixel */
"32 32 6 1 ",
"  c #5D5A59",
". c #686463",
"X c #746A66",
"o c #867B77",
"O c #99938D",
"+ c #A4A09C",
/* pixels */
"XX..++++OOooo++++++Xooo+++++oo++",
"+..o++++OOooo+++++XXooo+++++o+++",
"+ooo+++OOoooOO++++XXXooo+++.++++",
"+oooo++OOoo++OO++X++XXooo+ .++++",
"+XXooOOOoo+++OOOX+++++ooo X.++++",
"  XXXOOooo++OOOOX+++++oo  Xoo+++",
"o  XXXXOOooOOOooOO++++.. Xoooooo",
"ooo   XXXooooooOOOO++.... oooooo",
"ooXXXO  XXoooooOOOOo..ooXXoOOooo",
"oXXXO++oXXXoooooOOoXX.ooXXO++Ooo",
"XXOO++OooXXXXoooooXXXoooXoO+++oo",
"XoOO++OoooXXXXooooXXoooXXooO+OOX",
"ooOOOOoooOoXXX.oooXXooXO+oooOOOO",
"oooOOOOoO++OXX...XXXXoO+++oooOOO",
"oX.OOOOo+++OoXX....XXXO+++OoooOO",
"X...OOOOXOO.ooXX....XXoOOOOOoooO",
"X++.XXOXX ..oooX..  ooooOOOOoX..",
"++++..XX  ..oooX . XoooooOOoXX..",
"++++OO XXX ++ooo   XXooooooo  oo",
"++++Oo  XO++++oXX oXXooooooo ooo",
" OOOooXXOO++++XXXXooXXooo   Xoo ",
"ooooooXXoOO++XXXXooXXXoo  XXXX  ",
"oooooXXoooooXXX  ooO+  oXX OOXX ",
"ooooXXXoooooXX o  O++O  X O++OXo",
"oooOOXXooooo+++oo O++O. .O+++OXo",
"ooO++OXXoooo++++o.O+OOo.OOO+OXoo",
"oO+++OX..XXo++ooo.O+OOo.OOOOoooo",
"OOO+O..X..XX++oo.X.OOooOOOOooooo",
"OOOO..oo.XXXoooX  XoooOOOooooooo",
"oOO..oooo..ooo X X XOOOOOooooooo",
"ooo.oooOOooooo ++o  oooO++oooooo",
"oo..ooOOOOooo ++++o ooo++++ooooo"
};
