/* XPM */
static char *dead_tube_coral_fan[] = {
/* columns rows colors chars-per-pixel */
"32 32 6 1 ",
"  c None",
". c #5D5A59",
"X c #686463",
"o c #746A66",
"O c #99938D",
"+ c #A4A09C",
/* pixels */
"                                ",
"                                ",
"                                ",
"                                ",
"                                ",
"                                ",
"                                ",
"                                ",
"                                ",
"                                ",
"                                ",
"                                ",
"                                ",
"                                ",
"                                ",
"                o               ",
"               OO .             ",
"             . oOOo             ",
"              o o+Oo.  .        ",
"        + . .+Oo+oOo   Oo+      ",
"        +.+ o +O+oO  o O+       ",
"     O O O+ +ooO+O++  Oo+o O.   ",
"    Oo  oO++ +oOO+ O+OoooO o    ",
"    +++ Oo O+o+++o oOOO+o oO o  ",
"  O ++ooO+oo+o+oO+oOOoo  OO+o   ",
"  ++oo+OOo.X+ooOo+oo+O+ooOoo+.  ",
" o o++ooO.X.oo+Oo+oOOo+o.o...+  ",
" ++++o++OoXX.+Oooo+oOo....X.ooo ",
" .+.o++OoO.+.oOOo+o.O+o+OX.o++  ",
"  .o++OoooOoooOoo+.oOo+Oo+.o++  ",
"  .o++oo ooO+O Oo..ooo+oOOo.o+  ",
"  X.+.     OO    O+o +    OO.oO "
};
