/* XPM */
static char *dead_bubble_coral_fan[] = {
/* columns rows colors chars-per-pixel */
"32 32 5 1 ",
"  c None",
". c #5D5A59",
"X c #746A66",
"o c #99938D",
"O c #A4A09C",
/* pixels */
"                                ",
"                                ",
"                                ",
"                                ",
"                                ",
"                                ",
"                                ",
"                                ",
"                                ",
"                                ",
"                                ",
"                                ",
"                                ",
"         o          o           ",
"         X .       .oo          ",
"       XoXOo   o o oXo          ",
"      .oXXX     .XoXXoo         ",
"       XOoXo    oXXOXoX  O      ",
"   .  OXOOXo X   OOXoX  oX X    ",
"  OX    OXOXO     OO.o  oOX     ",
"   oX o oOoX.O o oXO.  XoXX     ",
" XXoOoX  oOXX. ooXO.O XOXXo   o ",
"  ooXo  OOOoO.ooXO.XO OoXO  o . ",
" XoXXOoOoOoX.XoXooXOoXXOXo   OX ",
"  XOXXXoXOXXOXoXoXooOXOOo X .XX ",
"  oXOXoOXXOOooX.ooXoXOXoO O.Xoo ",
"    OoXXoXXOOoXo.OXoXOoXo O.oX  ",
" X XoXoXXOXOoXoX.OoXOXXOXO.OXo  ",
" oXXooOo.ooOOXOXOX.XoXoXOoXXo   ",
"  o oXXoX.ooOOXOo.XoXooooXoXXo  ",
"   oXooXo.oXoOXOX.ooXXooXXOo    ",
"    oXoXoo.OXoOo.XoXXoXoXOo     "
};
