/* XPM */
static char *dirt_path_top[] = {
/* columns rows colors chars-per-pixel */
"32 32 7 1 ",
"  c #856B3A",
". c #886E3C",
"X c #8B703D",
"o c #907540",
"O c #998043",
"+ c #9E8245",
"@ c #AA8D4A",
/* pixels */
"ooOO@o.oo@OOoo@OXXo@.o.ooO@O oo@",
"oOo@ooo.@Oooo.o@oo@oo .Oo@+@X.oO",
"OOo@oXo.O+o..oOOo@ooo oO@O@@oo o",
"OooO@oooOOoo@@.@OO@o o@o@OXo@+ o",
"ooXooo+@O@OXoO@.O.@O .O+o@OooXo@",
"oXoo++oooO@XoOooO.oOoo.@ooOoXX@O",
"oooo  ooOoXo+oOo.O ooo@..ooXXOOo",
"oo @oooXOoooo+OOo@ ooo@@OoooOooX",
"o OO@O@XO@ooo +oOoo oOo+@o oOooX",
"ooOo@oX@@oOo o@o@ooOOoooOoo O@Xo",
"@ooOOooo++oO ooO@O.@OooXoOoo OOo",
".@XoOO+@oooOooX@OoOo@oo ooOO ooo",
"o.OoooooooOooXoo @+oOO oooXoO oo",
"oo.@oOoXXO@ooXoo@O+oO@ oo@XoXO+o",
"oOOo@@Oooo@Oooo Oo@OoO@XoO@OO@oO",
"oO@OoOOoooo@  oOo@oo.oOXXoOXo@oO",
"OooXO@oOooXOoo o@OOooo@oooXO@OOo",
"OoXoO@oOoXoOo.OO+ooOOooXoooOOOoo",
"oXOo@oo+OXOo.oooooO .OooXXooOoXo",
"oXO@OOo@OoOo.ooX OOo.OooooXoooOo",
"ooOOOO@ooOo@XXXoO@o.ooOoo.o.@+O@",
"OO.@Oo@oOoOOo.OOo@ooooO..o+@.ooO",
"@@oOoO@OoooOoOXoXO@oOXoo@Ooo.oO@",
"OoOOooO@.oXoOo.oX+OOooXXO@OOooXO",
".OooOoo@oXo.@OXoXo@@ooooXOoooXoO",
"oOoOO.OoXoo@ooOO@@oo@+Oooo@OooOo",
"oo@@.oOoXo.o  o@OoXoOOoo @OoOOoo",
"oX+@oOoXoo+oo@@XOo.Ooo  OOoOoOoo",
"Xo@OoOOoo@OOo..OX.OOo oo@.OoXoOo",
"XoOo@@OOOoooOOOOX.OoOo.@XoOooXoO",
"oooXXO@o+...oOOoXooooOOXoOoooXoo",
"ooXoooOOooooOoOXoo...oooooooooXo"
};
