/* XPM */
static char *emerald_ore[] = {
/* columns rows colors chars-per-pixel */
"32 32 17 1 ",
"  c #007B18",
". c #676767",
"X c #686868",
"o c DimGray",
"O c gray45",
"+ c #747474",
"@ c gray46",
"# c #7E7E7E",
"$ c gray50",
"% c #00AA2C",
"& c #17DD62",
"* c #808080",
"= c #818181",
"- c #8E8E8E",
"; c gray56",
": c #909090",
"> c #D9FFEB",
/* pixels */
"-::-:$$$$O$@O+$$@O.O$@+O$$$$$$$$",
"$-:$$-$@$$+@$XXO+$OXX@+$$+$O@$@$",
"O$$$O$$$+@$$X&>X$$$$$$$OXX+$$@$+",
"$$@$$@$@+$$X&>& -$$@OX+XX@.O$$O+",
"-$$@XXXXO@XO%& %-X++X+$$$$----$-",
"$$$$O$X@$@O$:%&-X@@$$$@@$@X-$@O$",
"$@X*:-::$$--$$-$-$--$$$$@X>@@O@O",
"$$*---*@XX$:-$$$$::$*OO$X>& -$$$",
"@@$O$$-X>&.O$$+XX$$-;$;;X% %;$$@",
"O$$$@$@%&% $$@X>&X+$:;;-$-&:$:-$",
"$*-:$$$-% &-*X>>>&XO+$@O+$-X.O$;",
"$--*$$@@:%-$X&&>&% $OXX+X@XX+$+$",
"@$$$O$$-:-:-*%&&% %$$@XX@+O$$$$$",
"$O@$$@:*$:-$@-   &-+@+@@$$--$$$$",
"@O$$OX.X@$X@@$-%&-+O+$@+X+$$$O$$",
"@OO@XXX@@.X.@+@-;+$$+@$O+$$@+$$$",
"@$;-$+X.OO@X@$$-$$::$$+@$$$$$O+@",
"$;:-;;$O$X&>$$;$::$$$X+;$-$;@@@$",
"-$$@$:$$X&>& -;:;-:$X>&%:;;$--$-",
"O+@$$$$$$%& %-;$+$@X&>> ;$$;:$$$",
".@$O$@$$OO &-XX.X@+$%& %$@XX@@.+",
"XX+$@X.$$$;-XO@XOO$-- &;+X>&$$+X",
"$+$;--$O$@+$$$+@X;:;$;;;X>& ;;;$",
"$$-$@$$$$$----X>&+::-$$$-% %;$;:",
"-$@+XXO@$-$-;X%& %$$$$$:$;-X+X@$",
"O$X&>>+XO$-$$+$ %-O@$@X@XX@@$O$O",
";X&>>& +XO+$-$+-;@$O+$@XX@$+@++$",
"*-%&  %-+O$$$$$-@+O$$+@$@$@@@$;;",
"-$$ %&;@$$@@$;-$$$$$$$$-:$-;$@*-",
"$$+O;;$--$$$$$$$$$$--$+@:;;$;;;$",
"$$$$$O+$$$$$OO$@O@-:$-:$@$@X.@$$",
"$--$$$$$O@$$$@O@$$+$;-$$$@@O$$$$"
};
