/* XPM */
static char *enchanting_table_top[] = {
/* columns rows colors chars-per-pixel */
"32 32 15 1 ",
"  c #58162C",
". c #6B002F",
"X c #7F0728",
"o c #741D32",
"O c #951C29",
"+ c #86212F",
"@ c #9D2429",
"# c #A22929",
"$ c #2CCDB1",
"% c #4AEDD1",
"& c #80F3DF",
"* c #A2F6E7",
"= c #AFF7EA",
"- c #C3FBF1",
"; c white",
/* pixels */
";------$................$------;",
"-&&&&&&%XOOOOOOOOOOOOOOX%&&&&&&-",
"-&****=%XO############OX%=****&-",
"-&****=%XO############OX%=****&-",
"-&****=%XO############OX%=****&-",
"-&****=%X@############@X%=****&-",
"-=====%XO##############OX%=====-",
"$%%%%%XO#####+oooo+#####OX%%%%%$",
".XXXXXO####+o      o+####OXXXXX.",
".OOOO@####o          o####@OOOO.",
".O#######o            o#######O.",
".O######+              +######O.",
".O######o              o######O.",
".O#####+                +#####O.",
".O#####o                o#####O.",
".O#####o                o#####O.",
".O#####o                o#####O.",
".O#####o                o#####O.",
".O#####+                +#####O.",
".O######o              o######O.",
".O######+              +######O.",
".O#######o            o#######O.",
".OOOO@####o          o####@OOOO.",
".XXXXXO####+o      o+####OXXXXX.",
"$%%%%%XO#####+oooo+#####OX%%%%%$",
"-=====%XO##############OX%=====-",
"-&****=%X@############@X%=****&-",
"-&****=%XO############OX%=****&-",
"-&****=%XO############OX%=****&-",
"-&****=%XO############OX%=****&-",
"-&&&&&&%XOOOOOOOOOOOOOOX%&&&&&&-",
";------$................$------;"
};
