/* XPM */
static char *end_stone_bricks[] = {
/* columns rows colors chars-per-pixel */
"32 32 8 1 ",
"  c #A9A274",
". c #C2BB88",
"X c #CECE96",
"o c #D6D695",
"O c #DDE4A5",
"+ c #ECFBAF",
"@ c #E8F4B2",
"# c #EEF6C9",
/* pixels */
"O####+####+++###+######+##++@OXX",
"##@O#@@##@@@@#@##@@#@##@##@#@@X.",
"+#@@O@@OO@@O@@O@O@OO@OOO@@O@@XX ",
"+@O+@@O@@OO@@@@@@O++O@@@OO@OOOX.",
"#@XOOO@@@@@@OO++@oO@++@@@OO@@Oo.",
"#@+@@@@@O@@@++@@OO@@@@@OO@@O@OX.",
"##@@+@oO@OO@@@@@@++@@@OO@@OOOOo ",
"#@+@@+@@@@@@@OOo@O@+OO@@O@@@@OX.",
"#@@@@@OO+@@OO@+OO@OO@++@@OO@O@o ",
"+@@++OO@@OOO++@@@@@OO@+++@@OOoX ",
"##O@@@@@+@@@OO@++OOOOO@@@OooOo. ",
"#@X@@ooO@@OOOoo@O@@OooOOOOOOoo. ",
"#OOOoo@+@@@o@@OOOOooOooOOOOooo. ",
"OXO@OOooOoOOoOoOooOooOooooooo.. ",
"ooXXoXX.XXXX...XXooXooX...XX..  ",
"o.. ..   .        .         .   ",
"#+#+###+##+#OO. .#####+#+#@@####",
"#@#@@@##@#@@@XX ##@@@@@@#@#@@@##",
"O@O@OO@@@@@#@@X.@#@@@+@@@@@@@@@@",
"@@@+@@@@OO@@@@X O#OO@@OO@@++@@@@",
"@@@O@OO@+@+OO@. O#@OO@@@++@O@OO@",
"@O@@@@+@@O@+@@. #@++@O@@@@@@++@@",
"@@+@+@@OO++O@@X.##@@++@@OO@++@+@",
"O@O+OO++@@@@@OX.O@@@@OOOO@+@@@@@",
"@OOO@@O@OO@@OOX @#@OO@O@@OO@@@@O",
"@@@++@@@@@OooOX.##O@OO@@O@@@@OO@",
"O@+@OO@O@OooOoX @@OO@@OO@OO@OooO",
"OOO@@OOoooOooo. O#@OO@@@O@OOoOoo",
"oO@OOOOoOOoOoo. O@O@OOoo@OooooOO",
"OooOOooOOooooX. OOOOoooOooOooOoo",
"XX.XXXX..XXX..  .OXXX.....XX.XXX",
".   .    .      .   ..   ....  ."
};
