/* XPM */
static char *fletching_table_side[] = {
/* columns rows colors chars-per-pixel */
"32 32 38 1 ",
"  c #1B160D",
". c #281E0B",
"X c #382116",
"o c #4B2B18",
"O c #742303",
"+ c #594319",
"@ c #9B221A",
"# c #BF2529",
"$ c #9E8B61",
"% c #A59467",
"& c #AE9F76",
"* c #B8A875",
"= c #C8B77A",
"- c gray59",
"; c #D7C185",
": c #E4CD8E",
"> c #C6C6C6",
", c #D1D7D8",
"< c #D6DBDC",
"1 c #D7DCDD",
"2 c #D8D8D8",
"3 c #D9DEDF",
"4 c #DBE0E1",
"5 c #DCE1E1",
"6 c gray88",
"7 c #E0E4E4",
"8 c #E1E4E5",
"9 c #E3E6E7",
"0 c #E6E9EA",
"q c #E8EBEB",
"w c #E9ECEC",
"e c #EBEEEE",
"r c #EFF1F2",
"t c #F3F4F5",
"y c #F5F7F7",
"u c #F8F9F9",
"i c gray98",
"p c #FDFDFD",
/* pixels */
"&:::::::&:::::::&:::::::&:::::::",
"%=;;=;;;%;;;;;;;%=;;;;=;%;;;;;;;",
"$=;;=;*;$;:;;;;*$=;;;;=;%;;;;;==",
"$=;;==;;$;;:;*;*$=;;;;;=%;;;=;=;",
"$;=;;=;;$;;:;;*;%;=;;;=*%;;;==;;",
"$;=;;;;;$;::;;*;%;==;;**%;;;;=;;",
"%;;;;;;;%;;;;;;;&;=;;;;*$;;;=;;;",
"%%&&&&%%%%$$%%&&&&%%$$$p$$$$$$%%",
"%=====;:11qqwqyy&=;;=;2p2:;;;=;;",
"%;;;:;771133wyyyu5===;2p2:;;==;=",
"%;:;;w77@@##@@@O779=;=-.-:;=*;=;",
"%;:;;w7O@#####@@O79=;=;+%:;=*;=;",
"&;::uuO@@7q0ppi@@@99;*:+%:;:;*;:",
"&:;:wu@@979pppii@@u9;;:+%:;:;*::",
" XXXww@@9yq#O0u7#@upooooXXXXXXX ",
"%;;;rw@@uy##@O77#@uu;:;.%:;;;;;:",
"&;:;et@@y4O#@@y6##i,;;;+%:=;;;;:",
"&::;t4@@440O@0yy#@,,*;;+%:=;;;;;",
"%:;:<<@@4iiqu55,@@7,=;;+%:=;;=;:",
"%:;:1i@@@5iu44,@@O77;=;+%:;=;=;:",
"%;;;;p8O@@@####@O7e;;=;+%:;:=;:;",
"%;:;;p85O@###@@@7ee;=;=+%:::=;:;",
"%;;:;:8pppptttttii=;=;6>6:;:=;;;",
"%;;:;:;;ppppttui%;;==;6>6:;;==;;",
"$$&&%%%%$$$$%%$$$$%%%66>66%%$$$$",
"$:::::::$:::::::$::::66:66&&&&::",
"%;;;;;=;&;;=;;;;&;;=;6=;&6&;;;;;",
"%;;;;;;=$;=;;*;;&;;;=;=;&&&&*;;;",
"$;;=;*;=$;=;*;=;&;=;=;;=$&&&**;&",
"$;;=;=;=$=;;*;=;&;=;=;*=$&=&**;&",
"$;;==;;=$=;*&*&;%;=;;;=;$==*=*&;",
"$;;;=;=;$=;*&&&&%%;=;;=;$====*&;"
};
