/* XPM */
static char *gilded_blackstone[] = {
/* columns rows colors chars-per-pixel */
"32 32 10 1 ",
"  c #160F10",
". c #1F121B",
"X c #27221C",
"o c #312C36",
"O c #451B03",
"+ c #7E450E",
"@ c #3C3947",
"# c #4E4B54",
"$ c #DA910F",
"% c #FCEE4B",
/* pixels */
"XXXXXoXXXXXX   .Xooooooooo++OXoX",
"XXoooX.OO..O   XoooXXoo@@oO++OoX",
"ooX.O+++OOO   .o@ooXoo@o@@oO+OXo",
"XX+$$$+O+O    X@@o++O@@@#@oXOO.X",
".+$$+O.XX... .X@++$%%$+@@oXX.O .",
"O$++OXoooooX. oOXo++$%%$oXXXX.  ",
"++.XoXoooo@oX.XXo@o@+$%%+...X.. ",
"+OXoXoo@ooo@X.oo@o@@@++$%....X..",
"O.oooooo@#@oXX@o@@@@##@+%+...X. ",
"Oo@o@o@@@@oXXX@@####@XX.$$...X  ",
"X@@@####@ooX.XoooXXXXXX.+$O.X. .",
"o@@###@@ooXXX.XoXXXXXoXX.+O.X...",
"o@#@@@oooXXX...OooXXXXo..+OX...X",
"Xo@@oooXXXX.XO+O.XoooXXX.OX.. .o",
".XXXXXoXXXXO++OXXX..XoooXO.  .Xo",
"....XXXXXoO++OoooX. ..OO....X.Xo",
".....XXooXO Xo@@oo.O+$$++O.XXXXo",
"X....XooX. .o@o@@oO$$+OOO.X.XXOo",
"oX.XooX.  .Xo@@oXX+$O .....XX. O",
"XooooX. O ..XoX...OO.XooooXX.XO+",
".XXXX.Xo+O++ .. .XoXo@@@@oooo.+$",
"X..XXXooo+$%$+ .Xoo@#@#@o@@oXo$+",
" .XXooo@o@X+%$ X..Xo@###@@#@oo$+",
"..ooXo@@@@@.$%+X....Xo@###@ooO$O",
"Xooo@o@@#@@X+$+X......Xoo@#@o$+X",
"ooo@o@@#@@ooX+$X.......XXo@oO+O.",
"o@@@@###oXXXo+%+XX....XXooO++OXX",
"@o@@###@XX..XO$+..XXXXXXXOOOOX.X",
"@@###@@oX....X+O   .. ..  XXoo..",
"o@@@oooX.....XOO.   ..  OXo@@X.X",
"oooXX........XO  ...XXX.OO@oXXXo",
"XXXXXX......X.  X.XXXoXoX+OX.XXo"
};
