/* XPM */
static char *glowstone[] = {
/* columns rows colors chars-per-pixel */
"32 32 16 1 ",
"  c #6F4522",
". c #734E26",
"X c #855029",
"o c #886839",
"O c #CC8654",
"+ c #FBDA74",
"@ c #FFF0DA",
"# c white",
"$ c black",
"% c black",
"& c black",
"* c black",
"= c black",
"- c black",
"; c black",
": c black",
/* pixels */
"X+@+O XXX +@##@#@+X .X+@#@+O.oo.",
"+@#@+O . XO+@@@@++O .+@###@+O oX",
"O@@#@+Xo..XOO+++OOX .O@##@@@+X.X",
"X+@++O .oo. XOOOOX .o O@@@@+OX .",
" O+OOX oo.o.  XX  .oo.XO+@+OOX o",
". OOX .o.XX .o  .oo.oo. OOOXX .o",
"o.   .XO+OXXX .oo.O+@+O.X    .oo",
"oo.o.O+@@@+OXX .X+@@#@+Oooo..XX.",
" .o.O+@##@@+OX XO@###@@+Xo.XO++O",
"X .X+@####@@+OX +@@#@@+O .O+@@++",
"OX XO@@@#@#@+O XO+@@++O .X+@##@+",
"XX XX+@@@@+++O XXO+OOX .oO@#@@+O",
"X . XX++++++OO  XXX   .o.O+@@+OX",
" .o. XXO++OOOX  XX  XOO.XXO+OOX ",
"+OXoo  XXOOX  .   XO+@+O XXOOXO+",
"#@+O.o    X  .oo.oO+@#@+X.XXX+@@",
"##@+O.oo.  .oo.oo.O@#@#+O o.O@@#",
"###@+X.oo.XO+OX.o.+@##@+OX. +@##",
"@@@++O XO+@+#+O .oO+@#@+O o O+@#",
"@@++O X+@##@+OOX oX+@@+OX o.XO+@",
"++OOX +@#@++OX  o.XO+++OX .o. XO",
"OOOXX O+@+OXX .o.o OO+OX .ooo. X",
"XXXX . OOX  .O+OX . OO  .oo..o. ",
".   .XXXX o.+@#@@+O  .oo.XX.o.oo",
"oo.XOO++O oO@#####@+.o.X+@+O ..o",
"o.O+@@@@+O.O+@###@+O oX+@##@+OX.",
".X+@###@@+ .O+@@@+OX .O@####@+O ",
"XO@####@@+O .XO+OOXX o+@@#@@++OX",
" O@@##@@++OX . XXXX ooO+@@+++OXX",
". +@@@+++OX .o.    .o. XO+++OXX ",
"o..O++++OO .X+@+OX.o.o. XOOXX  .",
".oXX.OOOO X+@##@+OX.o.XX     .oo"
};
