/* XPM */
static char *gold_ore[] = {
/* columns rows colors chars-per-pixel */
"32 32 17 1 ",
"  c #676767",
". c #686868",
"X c DimGray",
"o c gray45",
"O c #747474",
"+ c gray46",
"@ c #7E7E7E",
"# c gray50",
"$ c #F8AF2B",
"% c #FCEE4B",
"& c #808080",
"* c #818181",
"= c #8E8E8E",
"- c gray56",
"; c #909090",
": c #FFFFB5",
"> c white",
/* pixels */
"=;;=;####o#+o+##+o o#++o########",
"#=;##=#+##o+###o+#o  +o##+#o+#o#",
"o###+###++##==#########o..+##+#+",
"##+##+# .######o+##+o.+ .+ o##oo",
"=##+ ..%:+ o##..+.o+ +#+.:>:==#=",
"####o#.+%$=&=+.:.o+###+.:%:%$;o&",
"#+.&==;#=;#=#.:>:%;=####=$$;=o+o",
"###;==#+###;=#;%$==&&oo##;=o+###",
"++#o##;#+. o##o==##==&=;;#+ ###+",
"o###+#o+o+..#+#++#+#+...#+o+#;=#",
"#&=;###+#.:>:.#&#=#o.>:$o##. o#=",
"#==&##o..:>:%:$=;#+.:%>:%+..+#o&",
"+###+#.$%:%%:%%$==+$%::%$=o#####",
"#o+##o#&$%$%$$;=;##+$%$$;&==####",
"+o#..+ .#==;==+ +#ooo#;=.+###o##",
"+o %>..++ ..+++o  ##++#oo##+o###",
"+#%>:%. oo+#o##.%:$.##o+#####oo+",
"#-=$%$#o#=###+.%>>:>:+###=&=+++#",
"=##+;;##+ o#=+$:>:$%$$;==;;&==#=",
"oo+###+..%+##=o$%$%$;=#==.#=;###",
" +#o#+.%>:$=o..+#===+o###o. ++ o",
"..+#+. #%$-. o+ o+#==+...++#&#+.",
"#o#===#o--o###+##;;+ .::%.;+#==&",
"##-#+#####-===###o..::>>::%+.&=;",
"=#+o##o o=#=;#+..%:>>%:%$%$$o.+#",
"o##++o.%..=##o#+%:>:%$%$%$$=#o#o",
";-#=-.%>:%o#=#+o=$:%$$$;=;=++o+#",
"&==##o=%$=#####=+;$$%$==+&+++#;=",
"=##+o#+==#++#;=###=;==&+##=;#+&=",
"##+o++############&==#++;;=#;==&",
"#####oo#####oo#+o+=;&=;#+#+  +&#",
"#==#####o+###+o+##o#==###++o####"
};
