/* XPM */
static char *grass_block_top[] = {
/* columns rows colors chars-per-pixel */
"32 32 16 1 ",
"  c gray44",
". c #808080",
"X c gray55",
"o c gray59",
"O c #A0A0A0",
"+ c #A9A9A9",
"@ c gray75",
"# c #C0C0C0",
"$ c #C3C3C3",
"% c black",
"& c black",
"* c black",
"= c black",
"- c black",
"; c black",
": c black",
/* pixels */
"o+ .$.+.X#o.o.#+Xo.#.X.X.O#. .o#",
".oO$.X.X#+Xo.XX#oX#oX.O+XX+#O .+",
"o+X#OOo+Xoo+ o.X.#oOXOX+$+.X+oX.",
"+o.+$OXo++..##.#X.#oOo$O$+X.X.+X",
"oOXO.+oX #+X.+#.+o#+o.+ X#+ OX.#",
".O.Xoo.oX.#oX .o+oXO+OOXOX+. X#+",
"o OoXXoX+Xo+ .XX.+ooX.+..OX+.O+X",
" .X#OX.o+oXo.X.+ #O..X.$+X XOX.+",
".oO+#+#.O#o.+.XX+X.oX. X$OO.XX+X",
"O. .#OX##OX+.XOO$o +.oXO+X.O+#XX",
"#oXo+ XOOo+X OX+$+o#X.+X .XOX+Oo",
"o#oX .OX++o+OoX$+X+o#X. X OXXoOo",
".o+.oOXo.X+.XX .X#OXo+O.XO+O+ooO",
"+.X#.+oXX+#XO .o#+XO+#.Oo#OXo+XX",
"Xo+o##+oo.#+O.OX+XOOX+#.X+#++#o+",
"o+#+o+ .+X.#.OX+X +X X+X.X+OX.Oo",
"oOo.+#OX. ooXO.O+.oOX.#.X X+#+.o",
"O..o+#XOOX.Oo.Xoo.O+.+XX+.XO++Xo",
".oX.#. X.$X.Oo+X.o+XX.o#OX.+X.o.",
"Oo.#++X+ XOo+XO+X++..o#X .+X.X+.",
"+o.+oo+O. .$. .o+#.+o#o .X.Xoo+#",
"o+o$+.oO.oo+XX++X#..OXX.X.o .oX+",
"#$X+X+#oXo.+.+X.o+#X.X.o#+Xoo.+$",
"+O+X.X+#o.OX+.XX+oXOXOX.+#..Xoo+",
"o+oo.XX#OoXO$oooX.X.+X Xo+O+. oO",
"O+o+O.+XOX.$oO..## XO+X.XO#X+.$o",
".oO#. + . +o..O$+O.X.+oXO#+OoO+$",
". O# +.X+..o.#$.+OX.O Xo++X OX#+",
"O.#+O++.X+oOo.X+.o++oO.X#XoOX#Oo",
"O#O.##.++o+o.o++o+o.+oO#OOXoOX+.",
".OoOX+#XooO.o++X.X@o.++O.XOOo.o+",
"XoO..o+oX+.o+.+X.+@o .OOXX.XXo.o"
};
