/* XPM */
static char *gray_concrete_powder[] = {
/* columns rows colors chars-per-pixel */
"32 32 37 1 ",
"  c #484E52",
". c #4C5256",
"X c #4F5559",
"o c #51575B",
"O c #51585C",
"+ c #52585C",
"@ c #52595D",
"# c #535A5D",
"$ c #545B5F",
"% c #555C60",
"& c #555C61",
"* c #575F63",
"= c #585F63",
"- c #585F64",
"; c #596064",
": c #596065",
"> c #5A6266",
", c #5B6367",
"< c #5C6368",
"1 c #5C6468",
"2 c #5D6469",
"3 c #5D6569",
"4 c #5E666B",
"5 c #5F676B",
"6 c #5F676C",
"7 c #60686C",
"8 c #626A6F",
"9 c #636B6F",
"0 c #636B70",
"q c #646C71",
"w c #666E73",
"e c #676F74",
"r c #6A7378",
"t c #6B747A",
"y c #6E777C",
"u c #717B80",
"i c #778187",
/* pixels */
"33:%3q3e3::oo56@;;%@5$5:7;:51,%;",
"<:3:@y3%91;;;;,:; ,:5:$$:$$.7y:;",
"X=:7:=o;:$5:;73%,;;;::$:::,1:57$",
":-:3:q=7:o5;1q:u66,3$::;1;;;7:5:",
"e3qq:::=;,,79:;;3;:::.:7:,;7$:3:",
"$7:71=33q;$,,;::06@::3i,5,.:%5$;",
"%3;7:773.:e:e;:7;&0,:::@77::5:t:",
"$t:7i:335::3,,13;6u;667,,3e:,:;3",
",:3$;o37;73;:7@:;.4;O>6,67:;:o$3",
"7:37::13eX,:qy3:,;&e;;64:%;:;:3:",
"y37%$37::%:o3:X,;& &;,,;:$y:;;:3",
"%::7:;13:5137,7:;6666&;.:375::r;",
"33::3:113:q1;:3:;6%.;6;,:%;$,;,X",
"u%7::.::33::r:55O,>6,;;,1;o;e;o5",
"30::7e:$q:::,3,;:06e9,5,;;,;;1:1",
":y::oo;::3e3,3:5::6&,;;;,1:,9;;7",
"37:=333t<O<8@6,.3:::$5:,3:17:7$%",
":i3;ot7q<-q>>*;e@:3:,y3,5iq:::::",
":.:3::::7>>>,;;&:,3::,:;:::,:0:%",
"7%337$3w7@8>::6@:0,3:o;::e,y1y5%",
"@,7e<3:=>>7-66;66,:e::;:557%5X::",
"3@::<-3=<-<i*;*057;;,5o55:::,7:%",
"y::e:7-7--->*6;6:::o:7,o:50:5;59",
":%==iq7333-<;;;,:6,:9:;,33$,:;,,",
":@,%<%:%9:;;9:,,@e%6,09,::3,:,%q",
"7:37::e::1;1y1%;6:t66;;;35@$30:3",
"3:7,;@;=15:o:,,,3:*;;65::39:33@$",
"7o:,:::= ;7,9;;,@0w;;33,:,:,u%33",
",,77177::9:5;;::::67%19:X31::37:",
"o,7::7$77$1;t:3::::3$@3;:693%:;7",
";91;::73oq,:$3:y$0:::::9:,@o::;$",
":31:e3:::@$i:53::07%$@$:;,93q3:7"
};
