/* XPM */
static char *gray_terracotta[] = {
/* columns rows colors chars-per-pixel */
"32 32 16 1 ",
"  c #372822",
". c #392921",
"X c #3A2A24",
"o c #3B2D24",
"O c black",
"+ c black",
"@ c black",
"# c black",
"$ c black",
"% c black",
"& c black",
"* c black",
"= c black",
"- c black",
"; c black",
": c black",
/* pixels */
"oooooXXXX.X...XX.. .X...XXXXXXXX",
"XooXXoX.XX..XXX..X.  ..XX.X..X.X",
".XXX.XXX..XXooXXXXXXXXX.  .XX.X.",
"XX.XX.X..XXXXXX..XX.. .  . .XX..",
"oXX.    .. .X.  . .. .XXXXooooXo",
"XXXX.X .X..XooX  ..XXX..XoooX..X",
"X. XooooXXooXXoXoXooXXXXXXXX....",
"XXXoooX.oXXooXXXXooXX..XX....XXX",
"..X.XXoX.  .XX..XXXooXoooX. XXX.",
".XXX.X....XXX.X..X.XooooX...XooX",
"XXooXXXXXXooXXXXXoX..X...XX  .Xo",
"XooXXX..X..X.XoooX.X.  . .  .X.X",
".XXX.XXoooooX.XoooXXX.  ...XXXXX",
"X..XX.oXXooX...XXXX.....XXooXXXX",
"..XX.   .X ..X. .X...X.. .XXX.XX",
"....   ..   ....X.XX..X..XX..XXX",
".XooX.  ...X.XXoXXooXX..XXXXX...",
"XoooooX.XoXXXXoXooXXX.XXXoXo...X",
"oXX.XoXXo..XoooooooXXXoooooXooXo",
"...XXXXXXXXXXooX.X..XXXooXXooXXX",
" .X.X.XX..XX.    ..X..XXX.  .. .",
"  .X.  XXX.  .. ..XooX.X. .XXX. ",
"X.XoooX.X..XXX.XXoooXoXooXo.XooX",
"XXoX.XXXXXooooXXXXoooXXXooX. Xoo",
"oX..XX..XoXooX..XXXXXXXoX.. . .X",
".XX.... .XoXX.X..X..X. .  ..X.X.",
"ooXooXX. ..XoX.. .X..X.  .X....X",
"XooXX.....XXXXXo...XX..X.X...Xoo",
"oXX..X..XX..XooXXXXXXXXooXooX.Xo",
"XX....XooXXXXXXXXXXooX..oooXoooX",
"XXXXX..XXXXX..X...ooXooX.X.  .XX",
"XooXXXXX..XXX...XX.XooXXX...XXXX"
};
