/* XPM */
static char *green_concrete_powder[] = {
/* columns rows colors chars-per-pixel */
"32 32 50 1 ",
"  c #526524",
". c #566A26",
"X c #576A26",
"o c #596E27",
"O c #5A6E27",
"+ c #5B7028",
"@ c #5D7329",
"# c #5E7229",
"$ c #5E7429",
"% c #5F752A",
"& c #60752A",
"* c #62772B",
"= c #63782B",
"- c #63792B",
"; c #637A2C",
": c #647A2C",
"> c #647B2C",
", c #657B2C",
"< c #657D2D",
"1 c #667C2D",
"2 c #677D2D",
"3 c #677F2E",
"4 c #687E2D",
"5 c #687F2E",
"6 c #68802E",
"7 c #6A812E",
"8 c #69822F",
"9 c #6A832F",
"0 c #6B832F",
"q c #6B8430",
"w c #6C8430",
"e c #6D8530",
"r c #6C8630",
"t c #6E8630",
"y c #6F8931",
"u c #708831",
"i c #718931",
"p c #718A32",
"a c #718B32",
"s c #728B32",
"d c #748D33",
"f c #748F34",
"g c #789335",
"h c #799335",
"j c #7B9837",
"k c #7C9937",
"l c #7D9937",
"z c #829E39",
"x c #87A63C",
"c c #88A63C",
/* pixels */
"881@8a9f6;1++rq+;;>+r;11r>;6r6@;",
"1191@j8@yq;;;>q>> 16q6@@>>;oqj>>",
"+;8w11+;1@r;1q6;>;;;1;%3>;6q1rr@",
"1>;8>a19;@r;qf>krr6r%;;;r;@>r16q",
"f8yf1>>>;81ry1>;q;5>%.;r11;r%;r6",
"+y6r6;69y;@r8;>;yq%>>qx6rq.;%q@@",
"@w>r>rr6o;f>f>1r3;yq>16+rq;6rqjq",
"@g>rx>r6r>>66688;qk>wwr666f;;;;6",
"1>q;>@8r@uq;1r@>>Xw>oqq5ry;>>@@r",
"r66r>>88fo8;fk8;5>@f>;qq;@1;>8r1",
"k6r;;8q;>>;@6>oq>* ;>qq*6@j;;;;1",
">;16>;58;w18y1q>;rqqq@>.;qwq61g>",
"66>>q>8881y>>66;>q;.>u>>,*,&11ro",
"k;q>>.>5866;g>rr@q;q5>>q8,&,f1@w",
"8y5>yf>&f>8>186;1yqfu8ww,,8,,5>8",
">k8;o@@8>8f168>r>>w@>>&>>8,5u1>w",
"886>;68j6o89@5>.r>5>*8,18,5t50**",
"6x8;@jry68u,5>5f@;r>,l88ucu*,15,",
"> 616;6>98888,>>>>q;551>,,,55s,*",
"r>6rw@>g9+88,;q@qy3q*&>>,h8z5l5*",
"@8yf68>;8691qw>qq;1f11>5t85,0X5,",
"8+;;6>8>116x;>5uqw11rw@101545t,,",
"j1;f;r69>;>>>w>8111o>qq@50u,055u",
"8@;;xyr668>6;;18>r6;u1;855*55,55",
";+8;,@5@u>1;y>1rOd1t5ut5110455*s",
"98885,d,15>8gq&104h0011,40O*5s10",
"8,98,@>;ww,@51q10111800450i550&&",
"8@18;;8; >85u;;8&ss,,08014,5z144",
">6rr89u1,u,w,,5,*40t*1t4O0551405",
"+8r>>9@y0*0>h,5,1550*o4110t0*140",
">y6>;r9r&t41,55l*t1,,,,i14&O51,*",
"181;f6>>,O,c10515s0*,&*415t5s010"
};
