/* XPM */
static char *iron_ore[] = {
/* columns rows colors chars-per-pixel */
"32 32 17 1 ",
"  c #676767",
". c #686868",
"X c DimGray",
"o c gray45",
"O c #747474",
"+ c gray46",
"@ c #7E7E7E",
"# c gray50",
"$ c #AF8E77",
"% c #808080",
"& c #818181",
"* c #8E8E8E",
"= c gray56",
"- c #909090",
"; c #BC9980",
": c #D8AF93",
"> c #E2C0AA",
/* pixels */
"*--*-####o#+o+##+o o#++o########",
"#*-##*#+##o+###o+#o  +o##+#o+#o#",
"o###+###++##**#########o..+##+#+",
"##+##+# .######o+##+o.+ .+ o##oo",
"*##+ ..;:+ o##..+.o+ +#+.:>:**#*",
"####o#.+;$*%*+.:.o+###+.:;:;$-o%",
"#+.%**-#*-#*#.:>:;-*####*$$-*o+o",
"###-**#+###-*#-;$**%%oo##-*o+###",
"++#o##-#+. o##o**##**%*--#+ ###+",
"o###+#o+o+..#+#++#+#+...#+o+#-*#",
"#%*-###+#.:>:.#%#*#o.>:$o##. o#*",
"#**%##o..:>:;:$*-#+.:;>:;+..+#o%",
"+###+#.$;:;;:;;$**+$;::;$*o#####",
"#o+##o#%$;$;$$-*-##+$;$$-%**####",
"+o#..+ .#**-**+ +#ooo#-*.+###o##",
"+o ;>..++ ..+++o  ##++#oo##+o###",
"+&$>:;  oo+#o##.;:$.##o+#####oo+",
"%--$;$#o#*###+.;>>:>:+###*%*+++#",
"-%#+--##o.o#*+$:>:$;$$-**--%**#*",
"O++###+..;+#%*o$;$;$-*#**.#*-###",
" +#o#+.;>:$*o..+#***+o###o. ++ o",
"..o#+. #;$-. o+ o+#**+...++#%#+.",
"#o#-**#o-*o###+##--+ .::;.-+#**%",
"##=#+####%****###o..::>>::;+.%*-",
"*#oo##oX+*#**%+ .;:>>;:;$;$$o.+#",
"o##oooX;..*##o#+;:>:;$;$;$$*#o#o",
"-*@*=X;>:;o#*#+o*$:;$$$-*-*++o+#",
"$&*@#o=;$*#####*+-$$;$**+%+++#-*",
"=##oo#+=*#++#-*###*-**%+##*-#+%*",
"##oooo############%**#++--*#-**%",
"#####oo#####oo#+o+*-%*-#+#+  +%#",
"#==#####o+###+o+##o#**###++o####"
};
