/* XPM */
static char *jukebox_top[] = {
/* columns rows colors chars-per-pixel */
"32 32 7 1 ",
"  c #181514",
". c #292820",
"X c #352F2B",
"o c #5A3420",
"O c #5A3C29",
"+ c #7B5039",
"@ c #945D41",
/* pixels */
"..XXX.XXXXXX......XX.XXX.X......",
".oOO+O+++++OOOOOOOO++++OO+OOOOo.",
".O+@@@@@@@@@@+@@@@+@@@@@@@@@@+O.",
"XO@++++++++++++++++++++++++++@O.",
"XO@++++++++++++++++++++++++++@O.",
"XO@+++++++++++OOOO+++++++++++@OX",
".O@++++++++++O....O++++++++++@OX",
"XO@++++++++++O.   O++++++++++@OX",
".O@++++++++++O    O++++++++++@+X",
"XO@++++++++++O    O++++++++++@+X",
"XO@++++++++++O    O++++++++++@+X",
"XO@++++++++++O    O++++++++++@+X",
"XO@++++++++++O    O++++++++++@OX",
"X+@++++++++++O    O++++++++++@+X",
".O@++++++++++O    O++++++++++@OX",
".O@++++++++++O    O++++++++++@OX",
".O@++++++++++O    O++++++++++@OX",
".+@++++++++++O    O++++++++++@O.",
"X+@++++++++++O    O++++++++++@O.",
"X+@++++++++++O    O++++++++++@OX",
"X+@++++++++++O    O++++++++++@OX",
"X+@++++++++++O    O++++++++++@+X",
"X+@++++++++++O    O++++++++++@O.",
"XO@++++++++++O    O++++++++++@OX",
"XO@++++++++++O   .O++++++++++@+.",
"X+@++++++++++O....O++++++++++@+.",
"XO@+++++++++++OOOO+++++++++++@+.",
"XO@++++++++++++++++++++++++++@O.",
"XO@++++++++++++++++++++++++++@O.",
"XO+@@@@@@@@@@+@@@@+@@@@@@@@@@+O.",
".oOO+++OOOOO+OOOOOO++O+OOOOOOOo.",
"....XXXXXXXXXXX...XXXXX..X......"
};
