/* XPM */
static char *large_fern_top[] = {
/* columns rows colors chars-per-pixel */
"32 32 5 1 ",
"  c None",
". c #5A5D5A",
"X c #737573",
"o c #949194",
"O c #ACAAAC",
/* pixels */
"                                ",
"                                ",
"                                ",
"                                ",
"                                ",
"                                ",
"                                ",
"                                ",
"      X.X                       ",
"     .X.XX                      ",
"    XXOOXXX.           .XX      ",
"     .X.oo.X          .XXX.     ",
"      .XXXoXX       .X.XOOXX    ",
"       XXXXOX.     XX.ooX.X     ",
"        XXXXOXXX  X.XOXXX.      ",
"         X..XoXXX .XOXXXX       ",
"      XX  XX.oXXXXXO..X         ",
"     .XXX.X.XOXXX..OXX          ",
"    XXooOX.XXXOXXXO..           ",
"   XXOX.XOOXXXOXX.OXX.XX        ",
"   .O.X.XXXoXXXoX.XXoooXX       ",
"   XXO.  ..XoXXoX.OOX.XO.       ",
"    .X   XXXOXXOOoXXX.XXX       ",
"          ..Xo.oX.XX  .X        ",
"          XXXOXOX..X            ",
"        .XX..XooOXX.X.X.        ",
"       XXooXXXOOoo.X.OooX.      ",
"      XXoX.oXXooOOX.OX.XoX      ",
"      XOX.X.OOOOoo.OX. XO.      ",
"      X.OXX.X.ooOOOX.XXOXX      ",
"     X.X.X.X  OOoo..X  XX       ",
"    .X.X.X.X. ooOOXXXXXXXX      "
};
