/* XPM */
static char *lectern_sides[] = {
/* columns rows colors chars-per-pixel */
"32 32 7 1 ",
"  c #67502C",
". c #7E6237",
"X c #967441",
"o c #A6824D",
"O c #B58D50",
"+ c #B8945F",
"@ c #C19F6A",
/* pixels */
".XXXXXooOOoOOOOOooOOOOOOooXXXXX.",
".XXXoooOOooooOOooooOOoooooooXXX.",
".XXXX                      oXXX.",
"..XX                        XX..",
"X..XX                      XX..X",
"XX............................XX",
"XXXXXXXXXXXXXXXXXXXXXXXXXXXXXXXX",
"XXXXXXXXXXXXXXXXXXXXXXXXXXXXXXXX",
"+++++++@+++++++++++++@++++++@@@@",
"OOOOOOO@+OOOOOOOOOOOO@+OOOOOOOO@",
"OOOOOOO+XOOOOOOOOOOOO+XOOOOOOOO+",
"OOOOOOO+XOOOOOOOOOOOO+XOOOOOOOO+",
"OOOOOOO+XOOOOOOOOOOOO+XOOOOOOOO+",
"OOOOOOO+XOOOOOOOOOOOO+XOOOOOOOO+",
"OOOOOOOoXOOOOOOOOOOOOoXOOOOOOOOX",
"XXooooooXXooooooooooooXXooooXXXX",
"    ......XXXXXXooooOOOOOOOOOOOo",
"          ......XXXXXXooooXXXOOo",
"      ......XXXXXXooooOOOOOOXOOo",
"      ......XXXXXXooooOOOOOOXOOo",
"      ......XXXXXXooooOOOOOOoOOo",
"      ......XXXXXXooooOOOOOOoOOo",
"      ......XXXXXXooooOOOOOOoOOo",
"      ......XXXXXXooooOOOOOOoOOo",
"       ......XXXXXXooooOOOOOoOOo",
"       ......XXXXXXooooOOOOOoOOo",
"       ......XXXXXXooooOOOOOoOOo",
"        ......XXXXXXooooOOOOoOOo",
"        ......XXXXXXooooOOOOoOOo",
"        ......XXXXXXooooOOOOoOOo",
"              ......XXXXoooooOOo",
"        ......XXXXXXooooOOOOOOOo"
};
