/* XPM */
static char *lectern_base[] = {
/* columns rows colors chars-per-pixel */
"32 32 16 1 ",
"  c #7E1A1A",
". c #67502C",
"X c #7E6237",
"o c #9A2323",
"O c #967441",
"+ c #9F844D",
"@ c #AF8F55",
"# c #B8945F",
"$ c #C29D62",
"% c black",
"& c black",
"* c black",
"= c black",
"- c black",
"; c black",
": c black",
/* pixels */
"#$$$$$$$##$$$#$$$$$##$#$$#$$$$$O",
"@@@$##@@#@@@####$##@@@#@###$##@+",
"###@@++O++++@@@@#@++++@@@++##@@O",
"@+##@@@@##+@@#+O++##@+++##@@++OO",
"##++###+++@###@@@+++@@##++O++@@+",
"@@@##+@@@#+++@##@@@#+#@@@+@@@##O",
"+++OOOO++++OOOO++O+OOOOO+++OO+O.",
"X.XX.X...XXX..X.X..X..XX.X..XX..",
"$$$$$$##$$$$###+$##$$$$$$##$$$$$",
"##$#@##@##$#@@@+#@@##$@@@@##$@@@",
"##++@#++@@@@@+#O@@#+++++#@++####",
"++@@@@@@++O++@@+##++##++O+#@@@@+",
"#+++O+#+##@@###O####@@##@##+++O+",
"@@@##@@@@#@+@@#O@@@@#+@@@@@##@@@",
"++OOO+O++OOO+++.++O++O++OOOO++OO",
"....X..X..XX.X..X.X.X...X..XXXX.",
"#$#$$$$$$###$$#$#$#$$$$$##$$##$+",
"#@@##+++@##@@@+++++##$##@@##@##O",
"@++++@@@@@@@++####@@#+++O++@@@@+",
"####@++O++++@@@@@@#++@@@@@@++++O",
"#@@@###@@@@++O++##@@@##+++++###O",
"@@#+#@@#+++##@@@@@+##@@@@@@#@@++",
"++OOOOO++OO+OOO+OOOO+OOOO+O++++.",
"..X.X.X...XX.XX...X.X....X.XX.X.",
"#$###$$$$X            .$#$$$$$$$",
"##@@@@@@$.            X##@@@#$##",
"#++++####X   oooooo   .+@@@##+++",
"##@@@+O++. oooooooooo X###@@@@@@",
"+++@##+##XooooooooooooX++++O+###",
"##@+++@@@Xoooooooooooo.@@@@@@@@@",
"+O+OOOO++.oooooooooooo.+OOO+O+++",
"..XXX.X..XooooooooooooX..X......"
};
