/* XPM */
static char *lever[] = {
/* columns rows colors chars-per-pixel */
"32 32 19 1 ",
"  c None",
". c #392E1D",
"X c #3D3120",
"o c #3E3221",
"O c #3F3322",
"+ c #423625",
"@ c #433726",
"# c #4D3F2A",
"$ c #665234",
"% c #7B6240",
"& c #686868",
"* c #747474",
"= c gray50",
"- c #917245",
"; c #937447",
": c #957649",
"> c #96774A",
", c #9D7E50",
"< c gray56",
/* pixels */
"                                ",
"                                ",
"                                ",
"                                ",
"                                ",
"                                ",
"                                ",
"                                ",
"                                ",
"                                ",
"                                ",
"                                ",
"              <=*&              ",
"              <*=&              ",
"              ==*&              ",
"              <==&              ",
"              %%#o              ",
"              %%$o              ",
"              -$oo              ",
"              ;%$o              ",
"              ;%o@              ",
"              ;@$@              ",
"              ,%@o              ",
"              ,%@o              ",
"              >$oo              ",
"              >$$o              ",
"              $%$o              ",
"              $%$+              ",
"              >$oX              ",
"              >$XX              ",
"              $%$$              ",
"              $%.$              "
};
