/* XPM */
static char *lime_concrete_powder[] = {
/* columns rows colors chars-per-pixel */
"32 32 34 1 ",
"  c #64AA21",
". c #69AD23",
"X c #6DAF24",
"o c #6FB125",
"O c #72B226",
"+ c #72B326",
"@ c #73B326",
"# c #74B427",
"$ c #75B528",
"% c #77B628",
"& c #78B628",
"* c #78B729",
"= c #7AB829",
"- c #7BB929",
"; c #7BB92A",
": c #7EBA2A",
"> c #7EBB2B",
", c #7FBB2B",
"< c #80BC2B",
"1 c #81BC2B",
"2 c #81BD2C",
"3 c #83BE2C",
"4 c #84BE2D",
"5 c #84BF2D",
"6 c #87C02E",
"7 c #8AC22F",
"8 c #8CC42F",
"9 c #8DC530",
"0 c #8EC530",
"q c #92C831",
"w c #97CA33",
"e c #98CB33",
"r c #9DCE35",
"t c #A4D337",
/* pixels */
"12-O2720<*<OO<5O*&*O2*>*2::>>>&#",
":-2:Ow1#4<***::*: :-1-*#***.1r--",
"X*:2::o%;O<;:4:&::#*:*#-:::2:22%",
"---2%9*5;O5=:7:r21<5#*:-:*#-2-2:",
"0590----&<<<5<;&2*<&&.:1:2-2-*2:",
"O5*5:%>20=&;<&==55O*:<t:2>.-%:O%",
"$<*2:52<.;0=0=<<<*74#::O22%:2>w:",
"Oq:2t*5<1==<<<<<*1r*451::20-:--:",
"<;<*&O<1;7<&<5O=:.::O:2:29:%:#O>",
"<><<;=;10X<;5r<=::O0-:22%%#-%>1>",
"r:2*&<<;;&=O<=X<%% **2:%:*r:*%-:",
";;<<==<<*<<<5<1;-2522%:.*:1:>:0-",
";<*;1*<<<<5<;=1;:2%.*5*:*$:O>-2o",
"rO<;<.=<;<<*q=54O>-2:*:<<*O*0*O>",
"<5<;50*&0=<*=<<**9209;<>::>>%2->",
";e;;XO*;;<7<<1=1-*5*:*-%::%:9**5",
"<<>:>>:w<O15O;;.<::-&<;;<*<1<1&&",
"<t>$Ow<0<<5&<&<0O*<*;w<<5t5&;==;",
": <::::$<<<<<;<$--::;<<*<*;<*0=&",
"<=><<O>q1X<<;;5O:0:2*O***0<r<q<&",
"O<4q::;&1<1;55>52::0--;;4<<;<.<&",
">O==1;1&1&;t***5>2*::2O><;<;<5;&",
"w*=0&41<;&;;-2-2>>*X>5<O;45;<;<5",
">%*=t0<<<<&<**-<-22*5**<<;&;<&<<",
"=O<*>O;O7---8%->X0*5-05>;;<<;<&5",
"<><<>;0*::-:w:%-4<q52:*%<4X&<7;<",
">><:*O**:1=O--><<***>22<*<5=<<OO",
"<O>>*:4* <1<6-*:O00**2:<;<<<r;<1",
";<45<55<&7;<&;<&$;44#15:X<::*<5;",
"O<5;*5O44&<&q&<=*<;1#o<**55<*&*1",
"&5<&&<4<X7;<*<;wO5*;<&&7;<OO<*;&",
";1;<0<;;;O*t*1<<<71&#O&;;:5:7<:<"
};
