/* XPM */
static char *lime_glazed_terracotta[] = {
/* columns rows colors chars-per-pixel */
"32 32 12 1 ",
"  c #59A017",
". c #5EA918",
"X c #7FCC19",
"o c #EEAA0D",
"O c #F2B015",
"+ c #F3B625",
"@ c #80C71F",
"# c #85CF21",
"$ c #8BD922",
"% c #AAE965",
"& c #FFEC9D",
"* c #FFF3C4",
/* pixels */
"@@@&%...................... O@@@",
"@@&O%...................... o*@@",
"@&O .@%%%%%%%%%%%%%%%%%%%%% o&*@",
"&O ...@@@%@####$##%##%##%##%o&&*",
"%%.....####%@########%##%##%o&OO",
"..@.....#####%@#########%##%o&O ",
"..%@.....######%@##########%O*o ",
"..%@#.....##$####%@########O&O @",
"..%@##.....########%@######O&O @",
"..%%###.....#########%@####O*O @",
"..%@####.....##########%@#O&O @@",
"..%#%####.....#OO###$####%O*O @#",
"..%#@##$##... O**O#######O&O @@#",
"..%##%#####. O*&&&O######O*O @##",
"..%##@######O*&XX*&O####O&O @@##",
"..%$##%####O*&XXXX*&O###O*O @###",
"..%###@####+*&XXXXX*&OOO&O @@##%",
"..%####%####O&*XXXXX*&&*O @@##%%",
"..%%###@#####O&*XXXXXOOO @@###%%",
"..%#####%#####O&*XXXXX  @@####%%",
"..%#####@##$###O&*XXXX@@@######%",
"..%%%####%######O&OXX@@@#######%",
"..%######@######O&O @@@#########",
"..%#######%#####O*O @@####$#####",
"..%%%%####@###OO&O @@####%%####@",
"..%########%OO&*O @@####%%%%##@@",
"..%#######OO&*OO @@####$%%%%#@@ ",
"   %%%%OOO&*OO  @@#######%%#@@ +",
"Oooo+OO&&*OO  @@@##########@@ O*",
"@*&&&&*OOO  @@@###########@@ +&@",
"@@*&o++   @@@####%%%#####@@ O*@@",
"@@@*O  @@@@#####%%%%%%##@@ O&@@@"
};
