/* XPM */
static char *lodestone_side[] = {
/* columns rows colors chars-per-pixel */
"32 32 8 1 ",
"  c #38383F",
". c #4A4A53",
"X c #686868",
"o c #747474",
"O c gray50",
"+ c gray56",
"@ c #A2A4AC",
"# c #ABB1B8",
/* pixels */
"##@#####@@++@@++++++++@@++@#####",
"#@@@@++++++++++++++++++++++@@@@#",
"@@@@@O    .  ........   . O+@@@@",
"#@@+@O .XXXXXXXXoXXoXXoXX.O@@+@#",
"#@+@+X.XXoOOooOOOooXXoOOX.O+O@+@",
"@OXXX .XoOoOXooXXXXooOOoXX.OOOO@",
"@O  ..XoOOoo        OOooXoX.  +@",
"@X.XooXXooOo .XXXX. o+O+oXooX +@",
"@X ooOOoOo+o XoOOoX o++OOOoOo.++",
"@o.oOo+O++OX XXoOOo XOooO+Ooo O@",
"+O.oO+O++Oo XoOXoXOX oOo+++Oo.O@",
"+O.o++ooXX XO+oXXXOOX XXoO+Oo.O+",
"OoXo+O   .XO+X.  .oOoX    OOo.++",
"OX.XOo .XXoOo.    .oO+XXo oOO.O+",
"+X.XoO XoOoX.      .oOO+o o+O.O+",
"Oo.ooo.XooOX    .   X++Oo O+oXO@",
"+oXooO.oO++X.    . .+O++o.oOo.O+",
"+OXooO.oOO+@.. .. ..@+O+o.oOoXO+",
"+O.oOO.XooO+@... ..@+OOoo.O+OXO+",
"OOXoO+....O++@....@+OO....+OoX++",
"OoXoOO@@@@.O+++@@@++o.@@@@++o.++",
"OoXXOo++++@.OO++O++o.@+O+O++O.O+",
"+oXXXo+OO++@.oO++OOX@+ooO++OO.O+",
"OOXoXOO+OO+@.o++OO+X@+OooOo+OXO+",
"+OXXoO+O+++@XoOOOOOX@+O+OooOoXO+",
"+oXoOooO+O+@.XXXXXXX@+++OOoXoXO+",
"+O@##XooO++O@@@@@@@@+O+OOoX##@++",
"+++++@Xo++++O+++++O++OOooX@++++O",
"++++O+XoO+OOoOOOO++OOooOoX@++O+O",
"O+O++OXXXoooXoXXXXXXXXoXXX++O+OO",
"OO++++@##@@@+@@@++++@+@@#@O++OO+",
"OO+OO++++++++++++++++++++++++++O"
};
