/* XPM */
static char *loom_top[] = {
/* columns rows colors chars-per-pixel */
"32 32 11 1 ",
"  c #322718",
". c #524127",
"X c #806337",
"o c #846F64",
"O c #A48048",
"+ c #B38C51",
"@ c #BC935A",
"# c #CAA671",
"$ c #A8958C",
"% c #B5A49D",
"& c #D3C0B4",
/* pixels */
"#%X%X%X%X%X%X%X$X%X%X$X%X$X$X%X#",
"+% % % % % % % % % % $ % % $ % +",
"+%.%.%.$.%.%.$.%.%.$.%.%.%.$.%.+",
"+%.$.%.$.%.%.$.%.%.$.%.$.%.$.$.+",
"+%.$.%.$.%.%.$.%.%.$.%.$.%.$.$.+",
"+%.$.%.%.%.%.%.%.%.$.%.$.%.$.$.+",
"+%.%.%.%.$.$.%.$.%.%.%.%.%.$.%.+",
"+%.%.%.%.%.$.%.$.%.%.$.%.%.%.%.+",
"+%.%.%.$.%.$.%.%.%.%.%.%.%.$.%.+",
"+%.%.%.%.%.%.%.%.%.%.%.%.%.%.%.+",
"+%.%.%.%.&.%.&.%.%.%.&.%.%.&.%.+",
"+& % % % & % & % & % & % % & % +",
"+%.&.%.$.&.&.&.%.&.%.%.%.&.&.%.+",
"+&O&O%O%O&O%O$O%O%O&O$O&O%O%O%O+",
"+&.%.%.$.&.&.$.&.%.&.$.&.&.$.%.+",
"+&.%.&.$.%.&.$.%.$.$.$.%.&.$.&.+",
"+$.%.$.%.%.&.%.%.&.%.$.%.&.$.&.+",
"+$.%.%.%.%.%.%.%.%.%.%.%.$.%.%.+",
"+%.$.%.%.%.$.%.$.%.$.%.%.%.%.&.+",
"+%.$.%.%.%.$.%.%.%.$.%.$.%.%.%.+",
"+%.%.%.%.%.%.%.%.%.%.%.$.%.%.%.+",
"+%.%.%.%.%.%.%.%.%.%.%.%.%.%.%.+",
"+$.$.$.$.$.$.$.$.$.$.$.$.$.$.$.+",
"+o o o o o o o o o o o o o o o +",
"@#################@#@@@@@##@@@#@",
"+o.$.o.$.o.$.o.$.o.$.o.$.o.$.o.+",
"+$.$.$.$.$.$.$.$.$.$.$.$.$.$.$.+",
"+$.$.$.$.$.$.$.$.$.$.$.$.$.$.$.+",
"+$.$.$.$.$.$.$.$.$.$.$.$.$.$.$.+",
"+$.$.$.$.$.$.$.$.$.$.$.$.$.$.$.+",
"+. . . . . . . . . . . . . . . +",
"#@##+#######+@@+@@@++@++++##+###"
};
