/* XPM */
static char *mushroom_stem[] = {
/* columns rows colors chars-per-pixel */
"32 32 4 1 ",
"  c #C2BCAC",
". c #C7C1B4",
"X c #CDC6BD",
"o c #D3CCC4",
/* pixels */
"oooooooooXXXoooooo...XoooooooXXX",
"ooooooo..XXooooooooooooooooooooo",
"XXoooX..XXooooooooooooooXooooooX",
"ooXoX..XXXoooXoooooooooXoXooooXX",
"oooX...XXXXoooooXooooXooXooooXXo",
"ooXX....XXXXooooooooooooooooXXoo",
"..XXX......XXXXooooXXooooooXXXX.",
"XXXoXX........XXooXXXXooooXXX...",
"XooXX.    ..X..XXXXXXXXXXXXX...X",
"XXXX.      ..X..XXXX..XXoXX...XX",
"XX.         ... ..XX  .XXX.    .",
"..    ..        ...    ...      ",
"     .oXX.     ....     .  .X.  ",
"   .ooooXX.   ....      ..XXXX. ",
"XXooooooooXXX.....   ....XXooXXX",
"XooooooooooXXXX... ...XXXXoooooX",
"oooXXXXoooooooXXX...Xooooooooooo",
"oXXXXXXXXooooooooXXXoooXoooooXoo",
"XXX.XXX.XXXoooooooXXXooooooooooX",
"X.XXXX.XXXXXooXoooXXXXXooooXoXX.",
".XXXXXXXXXXXXooooXX.XXXX .ooooXX",
"..XXXXoXXoXXXXooXXXXXX   .XooooX",
"X  ..XXoXXX..XXXXXX.     ..XoooX",
"XX  ...XX...X.XXX..       ..XXXX",
".     .. ....X..    ...    ...XX",
"    ....   ....   .......    ...",
"  .......       ..........      ",
" ...X.X....    ......X..X...    ",
".XX....X.....   ...X...X.......X",
"XXXX......XX...  ........XXX....",
".XXXoo..ooooXX.. ......XXooXXX..",
"X.oooooooooXXoo.. ....XXooooXXXX"
};
