/* XPM */
static char *mycelium_top[] = {
/* columns rows colors chars-per-pixel */
"32 32 7 1 ",
"  c #5A5952",
". c #6A5D62",
"X c #6A656A",
"o c #736162",
"O c #7B6D73",
"+ c #83696A",
"@ c #8B7173",
/* pixels */
"@X.O@  +.XO.o+.Oo .X .+o++.X.oXO",
"X+o@X.  X.@ .o@+ o .. oOo.+.o@.o",
"o.O.O+XX XXOoOoX. +@XO.X+oXo+.@X",
" o. .X+.+O.XO.X@oXo..XOo@.+X+.X+",
"  oO .XoX.@.XO+X@o.@X .Oo@o+.oOo",
"O OX.X+XO@X+.@. +.+o@.X. X+.oO.X",
".O .O OX.+..+.X.oX XoO.X  .+XOXo",
"XO.  O .XXO .O o.OXO.OX.o +X+o@o",
"OX X. o O.+.  o++XO.@oO.X@+.X .@",
".OXXO. o +.O .O.XoXO+@.O@XoOOX@+",
"OX.O Oo.+. Xo .Oo +@.@X.X.Oo.Oo.",
"X.O. .+   OXOo.@ X@ o .oO.X.OoOX",
" ooO. @.@X @.X+o++.o OXO.o.X@.X.",
".+.o @X@ o@.O.@+o@o.+.oO .O.+o.X",
"X.+.OX.Oo+.o.@o.o@+o+X.+XO o .o ",
" +.OX.OXO.Oo+ @o@oo+X.@@.XX .X.o",
"O.X@XOXOOo.O oO +o .+OX.O.oXO+X ",
"oOo@OX.XoO.+oO ..+.X.X+XOO.O. +O",
"X.Oo.Oo+.+OXOX.O+o+ X.XO.XOo+X@O",
"oO. o.o.@.XO.XO+oo +.XO.o.oXX@X.",
".. .O@.@+OX@OO.X.+ Xo+ X +X.X. X",
"oX.O.X@O.O.X@. @ .+ X.  .o+X.X..",
".Xo Xo.@X+X.oO+.X o+@X+. +.XOOoX",
"XO  o+ X+X. .+.o  Xo.Oo+@ o.OXOo",
". O.+X+ +.OO+oX.+X.O.XO o..+X.X ",
"X.oo.@o+.oo.@.o.X+O.X.X. +.+ X O",
"O.X.+o .o+O@.o +.O@OO .X .+.o.. ",
"@XOo+.+@Xo.Oo@O O..+.Oo.@@.o.+o.",
"XO.X  . + XX.OoO@ @.X.X+.X.X .++",
"X.O.Xo +.oO.X+.o.@o@.XoXOoXO. .o",
".X.O.X+. .O .X@X+X.OX.+@o+.XO.o.",
"X@X.@.@ XO . .o+X.O.oO.X@o .oX.o"
};
