/* XPM */
static char *oak_door_bottom[] = {
/* columns rows colors chars-per-pixel */
"32 32 9 1 ",
"  c #513D24",
". c #67502C",
"X c #7E6237",
"o c #6B6F7A",
"O c #967441",
"+ c #A6824D",
"@ c #B58D50",
"# c #B8945F",
"$ c #808B95",
/* pixels */
"oOOOO.OOOOOOXX@OO.OOOOO  X@OOOOX",
"#OOOO.OOOOXXXX@OO.OOOOXXXX@OOOO.",
"+.X..X++@@@@@@+@+X++@@@@@@+@@++.",
"+OOOOOOOOOOOOOOOOOOOOOOOOOOOOOO.",
"+OOO+OOOOOOOOOOOOOOO+OOOOOOOXOO.",
"+OOOOOOOOOOOOOOOXOOOOOOOOOOOOOO.",
"#OO+++++++OOXXOOOOOOOOXXXXXXXOO.",
"#.... ........@++ ........@++++ ",
"#OOOO.OOOOOOOO+OO.OOOOOOOO+OOOOX",
"#OOOO.OOOOOOOO+OO.OOOOOOOO+OOOO.",
"#O+OO.OOOOOOOO@OO.OOOOOOOX@OO+O.",
"#OOOO.OOOOOOOX@OO.OOOOOOOX@OOOO.",
"#OOOO.OOOOOXXX@OO.OOOOOOXX@O+OO.",
"#OO+O.OOOOXXXX@OO.OOOOXXXX@OOOO.",
"#XX..X++@@@@@@++@X++@@@@@@+@@+@.",
"#OOOOOOOOOOOOOOOOOOOOOOOOOOXOOO ",
"+OOOO++O++OOXXXOOO++O+OOXXOXOOOX",
"+OOOOOOOOOOOOOOOOOOOOOOOOOOOOOO.",
"#O.OOOOOOOOOOOOOO.++OOOOOOOOOOO.",
"#.... ........@+@X........@++@+.",
"#OOOO.OOOOOOOO+OO.OOOOOOOO+OOOO.",
"$OOOO.OOOOOOOO+OO.OOOOOOOO+OOOO.",
"oOOOO.OOOOOOXO@OO.OOOOXXOO@OOOO.",
"+O.OO.OOOOOOXX@OO.OOOOOXXO@OOOO ",
"+OOOO.OOOOOXXX@OO.OOOOOOXX@OOOOX",
"+OOOO.OOOOXXXX@OO.OOOOXXXX@OOOO.",
"+.XX.X++@@@@@@+@+X++@@@@@@+@@+@.",
"+OOOOOOOOOOOOOOOOOOOOOOOOOOOOOX.",
"#OOOOOOOOOOOOOOOOOOOOOOOOOOOOXX.",
"#OXXXXOOOOOOOOXXXXOOOOOOOOOOXXX.",
"#XXXXXXO++++OXXXXXXO++++++OXXXX.",
".                               "
};
