/* XPM */
static char *observer_front[] = {
/* columns rows colors chars-per-pixel */
"32 32 20 1 ",
"  c black",
". c #232323",
"X c #292626",
"o c gray16",
"O c #323232",
"+ c #353434",
"@ c gray23",
"# c #3D3C3C",
"$ c #464242",
"% c gray34",
"& c #656565",
"* c #797979",
"= c gray48",
"- c #8E8E8E",
"; c gray56",
": c #9D9D9D",
"> c gray64",
", c #AFAFAF",
"< c gray69",
"1 c #C5C5C5",
/* pixels */
"oooooooooo@@@@@@@@@@oooooooooooo",
"o;=;;;=;=;;;==;;;;==;;;;=;=;;;=o",
"@==============================@",
"@==============================@",
"@==============================@",
"o==============================@",
"o&&&%%%%&%%&%&%%%%&&=====&%%%%%o",
"ooOOOO@O@OOO@@O@OOooOOOO@@@@OOoo",
"....XXXXXXXX............XXXXXXXX",
"++$$$#+++##$$##++#+$$$$$+##+++++",
"#1111111,111,111,1,111,,,,,,,,,#",
"$1,,,,,:>>,:>:>>>::,>:,::>:,:,,#",
"$1,:>>>>:,>,:>>:,>,>,,::>:,>>,,#",
"$1,,:::>,,:>>:>>,>::,>>>,,>:,>:#",
"#1,>>:>:::,>:::,::>>>>::>,,>,,,#",
"#1>>,>,,>:::>::::::>>:,>,,>,>,,$",
"$1,,>>>>,>,:::,:::::,,,,,,,,::;$",
"$&@&&&&&&&&&#<:::::#&&&&&&&&&@&$",
"$*;;;;    ;;>:>,::>>;;    ;;;;=$",
"$*>,>>    1>,>,,>:,:>>    1:>>*$",
"$*,,>,..&&1,,,>>,,:>::..&&1:::*$",
"$*,,,>..&&1,>>,>>,>::>..&&1:::*@",
"@*,,,,1111,,,:,,,:>,>>1111:>::*@",
"@*,,,,,,,,>>::>,:>:>>,>>:::>::=@",
"@=,,,,,,,,,,,>&&&&>>::::::>:::*X",
"@=,,,,,,>,,>>,@@#@,,>,::>:::::=o",
"X=,,,,,,,,,,,>>,>,,:>,>:>,::>:=@",
"o=,,,,,,,,,,,,,>,>>::>:::>:,>>=o",
"@*:,,,,,,,,>,,,>>,,>>>:,:::>,>*@",
"o*::,,,,,,,,,,,,,,>,,>>>:>>,,,*@",
"o&****=***********==******=***&@",
"o@@@@@X@oooo@@ooo@@@@@@@@o@X@@@@"
};
