/* XPM */
static char *orange_concrete_powder[] = {
/* columns rows colors chars-per-pixel */
"32 32 35 1 ",
"  c #DD721E",
". c #DE7720",
"X c #DF7B21",
"o c #E07E21",
"O c #E07F22",
"+ c #E08022",
"@ c #E08122",
"# c #E08222",
"$ c #E28424",
"% c #E28724",
"& c #E28825",
"* c #E38925",
"= c #E38A25",
"- c #E38B26",
"; c #E38C26",
": c #E48D26",
"> c #E48F26",
", c #E48F27",
"< c #E49027",
"1 c #E49127",
"2 c #E59328",
"3 c #E49428",
"4 c #E59528",
"5 c #E69729",
"6 c #E69829",
"7 c #E79A2A",
"8 c #E79C2A",
"9 c #E89E2B",
"0 c #E89F2B",
"q c #E9A32C",
"w c #EAA62D",
"e c #EAA82E",
"r c #EAA92E",
"t c #ECAE2F",
"y c #EEB732",
/* pixels */
"11%@28202=:XX42X=%=X1=,%2%=,-=X=",
":=2=Xr2@32====:==.::::%%=%=X4y==",
"o%:2:=X==X1:=2:%1==%==%===,=,31=",
"===2=6=3=#3=,q=t31:,%%==,%%=1-,=",
"011q=%**=::12,=%1=1=%.:3%,=2%%1=",
"#134:=:26%==,%==31X==2y:2,X=%,@=",
"%,=2=441X=0=q=,2,%72==,X42%=3,w-",
"#q=4y=4:2==:1:,,=2t%213,,2q%,%=1",
":%2%=X22=7,==1@%%.,=X:,,21:%=%@,",
"2:22%=-20X,%7t1-,=%03:12%=====,=",
"t:2%%22==%=O,%X2%% =%=,%=%r=%%=,",
"=%=1-%,2=4:,7=2=%2311=%.=,1,,=q=",
"=2%=2%-,=-11=:4=:1=.,4=,%%=@-,,o",
"t%2-=.==,2:=q=31X2=1-%%,1=@%0%X2",
"=14=70%%q=:=:1==,31q721,-%-,=--2",
"=r==X@%==:81:1=3=%2%-%-%,-%,7==1",
"12:==,,e1X21O,=.2=:=%-,::=,1=1%%",
":y:%@r,7,=7=2=-0#%2%,w:,6y7%=,==",
"=.1:=,,%2:=2,%-%=1:=-,===%=,=7=%",
"3%,,2@=q3X2:,=3@,6:1=@%%=q-t,e,@",
"#:60,2%=,:3=13=11,=q=%%:121%2X==",
":#==,%,=:=:y=%=7,1%=,4#22=,=,1%=",
"r%=q=1=2=%:%=2=1,,=X,2,X=27=,=,7",
"=%%%y032=2=,%==2%3,%7%%,,,===%,,",
"=X1%,@,#3===6==:X0=1,62,==1::1=6",
"1,21==0=::=,e1%%1,q22,=*,1X%:6=1",
",=1,*O%%:3=X==,:2=%=*42%=36=1:X%",
"1%=,*%,= :2,7%=,@70%%2,,::=:t=1:",
"=212,26=%7=2==,%%=13%=4,X2,=%=4:",
"X:3=*4@42%,=w%,==-,3%o,*=331%==1",
":63%=:11@7,=%,,e%3%====6=,%X=%=%",
"=1:=0,,==X%y%2,==72%%X%==:1,02=3"
};
