/* XPM */
static char *pink_glazed_terracotta[] = {
/* columns rows colors chars-per-pixel */
"32 32 7 1 ",
"  c #D6658F",
". c #D97198",
"X c #B4B3A9",
"o c #B8B7AD",
"O c #F38BAA",
"+ c #F497B3",
"@ c #F4B5CB",
/* pixels */
"ooooooX@@@.   @.       O@.    .@",
"oooooX@@@.    @.        O@.    .",
"ooooX@@@.    @.    OOOOOOO@.    ",
"oooX@@@.     @. OOO@@@@@@@@@.   ",
"ooX@@@.     .@OO@@@++@++++++@.  ",
"oX@@@.     .O@@@+@+OO@OOOOO+@@. ",
"X@@@.     .O@@++O@OOO@OOOOO+@O@.",
"@@@.     .O@+@OOO@OOO@O+@OO+@OO@",
"@@.     .O@+O@OOO@OOO@+@+OO+@O O",
"@.     .O@+OO@OOO@OOO@@+OOO+@O  ",
".     .O@@OOO@OOO@OO+@@@@@@@@O  ",
"     .O@+@OOO@OOO@O+@+OOOOO+@O  ",
"     .O@+@OOO@OOO@+@+OOOOOO+@O  ",
"    .O@+O@OOO@OOO@@+OOOOOO+@O   ",
"@@@ .O@+O@OOO@OO+@@@@@@@@@@@O   ",
"...@@O@+O@OOO@O+@+OOOOOOOO+@O   ",
"   ..@+OO@OOO@+@+OOOOOOOO+@O  ..",
"     @+OO@OOO@@+OOOOOOOOO+@O..@@",
"     @+OO@OO+@@@@@@@@@@@@@@@@@  ",
"     @+OO@O+@+OOOOOOOOOO+@O.    ",
"@@@@ @+OO@+@+OOOOOOOOOO+@O.     ",
"OOOO@@+OO@@+OOOOOOOOOO+@O.     .",
"OOOOOO@@O@@@@@@@@@@@@@@O.     .@",
"OOOOOOOO@OOOOOOOOOO++@O.     .@@",
"OOOOOOOOO@OOOOOO+++@@O.     .@@@",
"@@@OOOOOO@++++++@@@OO.     .@@@X",
"...@@OOOOO@@@@@@OOO..     .@@@Xo",
"   ..@OOOO@    .@..      .@@@Xoo",
"    .@OOOOO@   .@       .@@@Xooo",
"     .@OOOO@    .@     .@@@Xoooo",
"     .@OOOO@    .@    .@@@Xooooo",
".    .@OOOO@    .@   .@@@Xoooooo"
};
