/* XPM */
static char *piston_inner[] = {
/* columns rows colors chars-per-pixel */
"32 32 11 1 ",
"  c #2D2D2D",
". c #2F2F2F",
"X c #353535",
"o c #444444",
"O c #535151",
"+ c #686868",
"@ c #777777",
"# c gray52",
"$ c gray57",
"% c #A7A7A7",
"& c gray69",
/* pixels */
"ooooooXoX.....XXXoooooXXoooooXoX",
"oOOOO++@@+@@+OOO+@++OOO+@+@@##@o",
"XOO+@###@#@+@+OO@@@++OO++@@@###o",
"XO+@#@###@+@+OO+@@+@+OOO++@#@##o",
"o+@@###@@@++OO+@#@#@++OOO++@#@#o",
"X+@+@###@+OO+@@+@##@+OOOOOO+@@#o",
"X+O+@@@++O++@#@##@@@OO++++OO+++X",
"X++@+++OOO+@#$$#@#@+O+@@@++OO+Oo",
".O++OOOO++O+@$###@+O+@#@#@@+OOOo",
"XOOOOOO+#@+O+#$#@++O@#$###@+OOOX",
".OOO++@@##@+O+@+++O+@$##@#++OOOX",
".OO@+@##$@#$%&&&%%&&$#$$#@+OO+O.",
".O+@@#@$$#@%........%$$#@++O+@+.",
"XO++@@#$#@#&.....X..&$#@++OO@@+.",
"XO+@+@##@@@%..X.X.XX%#@++OO+@++X",
"oO++@@#@##@&...XXXXX&@++OOOO++O.",
"oOO++@@#@+@&.XXXXXX.&++O+++OOOOX",
"oOOOO+@@+@+&XXX XX..&OO+@@@++OOo",
"o+@@OO++++O&  XX  X.&O+@##@@++Oo",
"o@##@+O+OO+%        %+@###@#++Oo",
"X####@+O++@$&%&&&&&%$@#@####+OOX",
"o@####+OO+@@####@@+O+@###@#@+OOX",
"o@#@##@+OO++@@#@##@+O@@#@#@++OOo",
"o+@##@++O++O+@@##@+OO+@@+@++OOOX",
"o++@+++O@$#+O+@+++OOOO+@@++O++O.",
"oO++++O+#$$#@O++OO+++OO++OO+@@+.",
"oOOOOO+@##$@#+OOO+#@#@OOOO+@##@X",
"XOOO++@#@###@+OO+@@#@#+OO+@##@#X",
"oOO++@@@##@@@++OO+@+##+O++#@##@X",
"XOO++@+@#@@++@+OO++@#@+O+@@@##@o",
"XOOO++@@@#@@++OOOO++@@OOO+@##@@o",
"XX.X..XXXXooXooooXXoooooXXXXoXoo"
};
