/* XPM */
static char *pointed_dripstone_down_tip_merge[] = {
/* columns rows colors chars-per-pixel */
"32 32 5 1 ",
"  c None",
". c #735450",
"X c #836356",
"o c #927965",
"O c #A08D71",
/* pixels */
"        XXoooooX..XX....        ",
"         XXoooXX.......         ",
"         ooooXX..XX....         ",
"         ooooooXXX...XX         ",
"         ooooooooo....          ",
"          oooOOooXX...          ",
"          oOOOooXXoX..          ",
"          OoOOOOooXX..          ",
"          oooooooXX..           ",
"          oXXoooX....           ",
"          ooooooooX.            ",
"          ooooOOoXX.            ",
"          oOOOOooo..            ",
"          ooOOOOOOX.            ",
"          OOOoOOOo..            ",
"          oOoOOooX..            ",
"           oooooXX..            ",
"           oOOooo...            ",
"           OOOOX...             ",
"           oOoOOX..             ",
"           XooooX..             ",
"           XooXX...             ",
"           oOOoXXX.             ",
"           ooOOoXX.             ",
"           XOOooX.              ",
"           .oOOOo.              ",
"            ooooXX              ",
"            oooooX              ",
"            ooOOXX              ",
"            oOOoXX              ",
"            OOOooX              ",
"            oOOOX.              "
};
