/* XPM */
static char *pointed_dripstone_up_middle[] = {
/* columns rows colors chars-per-pixel */
"32 32 6 1 ",
"  c None",
". c #634A47",
"X c #735450",
"o c #836356",
"O c #927965",
"+ c #A08D71",
/* pixels */
"    ++O+++OOoooooX......XXXo    ",
"     ++OOOOOOOOoX.....XX..XX    ",
"     OOOOoooOOOOoooXXXXXXXXX    ",
"     +O++++OOOOoOoXoooXX..XX    ",
"      +OO+++OoooXXXXX....XXX    ",
"      ++++OOOOOoooX........X    ",
"      ++OOO+++OOOOoX....XXXX    ",
"      O++O++OOOOOoXX..XXXX..    ",
"      +OOOOOOOOoXX.......XXX    ",
"      oOOOOOOOoX...........X    ",
"     oOO++++OOOOoX..XX..XXXX    ",
"     O+++++OOOOOOooX.....XX     ",
"     OO++++++O+oooOoXXooooX     ",
"     O+++OOO++OOOOoooXXXooo     ",
"     OO++++OOOOOoX....XooXX     ",
"     OOOOOOOO++OOoXX....XXX     ",
"     O++++OOOOOooX...XXoooX     ",
"    O+++OO++OOooX...XXooXXX     ",
"    OO+++OOoooXXXXX.....XX      ",
"    O++++++OOooooX....XX.X      ",
"    +++OO+++OOOooooX....XX      ",
"    OO+++OOOO++OooooXX...X      ",
"    OOO++++OOOooooXXX.....      ",
"    O++O++OOoooooXX.....XX      ",
"    oOOOOooXXXoooX.....XXXX     ",
"    ooOOOOooooooooXXX...Xoo     ",
"    OO+++OO++OOOoX..XXXXooo     ",
"    OOOO++++++OOooXX......X     ",
"    O+++++++OOoooXX.....XXX     ",
"    ++OO++OOOOoX.....XX..XX     ",
"    OOO+++++oXX.....XoooXooX    ",
"    OO+++++Ooo..XX....XooXXX    "
};
