/* XPM */
static char *pointed_dripstone_down_base[] = {
/* columns rows colors chars-per-pixel */
"32 32 6 1 ",
"  c None",
". c #634A47",
"X c #735450",
"o c #836356",
"O c #927965",
"+ c #A08D71",
/* pixels */
"oOOOOOOO++OOoX.....XXXooooX...XX",
"ooOOOO++++++ooXX.XX..oXXoX...XXX",
"oooooOOO+++OOOOoX..............X",
"oO++O++++++++OoX.X....XXX.....XX",
"OOO+++++++OO++OOooXXXX.XXX....X ",
"+++++OOO++++OooOOoX.........XXX ",
" +++++OOOoooXXXoooXX......X..XX ",
" O++OOooooXXXXoooX.......XXXXXX ",
" OOO++++OOooooooooX....XX...XX  ",
"  OOOO+++OOOOooOoXXXXX..XXXXXX  ",
"  +OO+++++++OOOoXXooX......XXo  ",
"  O++++OO+OOOOooooXXXXX..XX..o  ",
"  OOO++++OOOoooXXXX.........Xo  ",
"  oOOO++OOooXXXXXXXX......XXoo  ",
"  OO++++++OOOoooXX..XoooX..XXo  ",
"  OOOO+++OOOOOoXX..XooXX....Xo  ",
"  OOO+OOooooOooooXX.......XXoo  ",
"  OOOOO+OOOooOOoX......XXXooXX  ",
"  OO+++OOO++OOOOoX.XXXXXoooXXo  ",
"  O+++++++++++OoOooX....XXoooo  ",
"  OO++OO++OOOoooooX.XX.....XXo  ",
"  OOOO+++OooXXooX.........XXoX  ",
"  oOOOOOooooooXXXXX.........X   ",
"  ooOOOOOOOOoooX.......XX..XX   ",
"  oO++OOO+O+++OOooXXXX....Xoo   ",
"   OO+++OO++OOOOOooXXXX.....X   ",
"   ++++++++++OOooXXoX....XXXX   ",
"   O++++++OOOoooooXX....XXXXX   ",
"   OOO+OOOOooOOOoOOoXXX...XX    ",
"    O+++O+OOOOoXXoXXXXXXXXXX    ",
"    OOO++OOOOOOo...XX...XXXX    ",
"    OO++OoOoXXXXX.........XX    "
};
