/* XPM */
static char *purple_concrete[] = {
/* columns rows colors chars-per-pixel */
"32 32 5 1 ",
"  c #66219F",
". c #67219F",
"X c #6721A0",
"o c #6921A1",
"O c #6A22A2",
/* pixels */
"oooo .o. ooo o oooXoo ooooo   ..",
" o  o .oooo ooo oooo ooo  oo.ooo",
"ooXoo oo.o ooooo ooX ooooooo.oo ",
"ooXXoo oo.oooo   oXoo Xoo   o oo",
"o .oo ooooo.o oXooo.oooo.o o ooo",
"oooo o oo .o o oooo o.oXooooo.oo",
"o.o  oo oo.o oXooooo.ooo.oo .oo ",
"ooo.oo o.oooo.o  o.ooo ooo.oo o.",
"o oo o o  o.oooooo.ooooo oo ooo.",
"oooooooooo o...oo.o. o.oooo  o o",
"ooo  oooooooo .o  ooooo  oooooo ",
" Xoooo ooo. oo. ooooo.o o  o..oo",
"oo oo..o oXoXooo. o ooooo.o o.oo",
"o oooo. ooo  o. ooooo. o .ooooo ",
"o oo .oooooo oooooo oo  .. oo oo",
" o oooo.oo oooo .o ooooo.oo ooo ",
"ooooooooooXoooo oo oo.o.ooo oooo",
" o.o o . ooX ooo oo. o ooo oo oo",
"ooo.o ooo  ooooooo.ooo.. oooXXXo",
"XXo ooo ooooo .o.. oo.oooooXoooo",
"oo.ooo ooo oXoo o o.o.ooo.o.X oo",
"  o.ooooo. ooX ooo. oo.o.o.o oo.",
"ooooo ooooo oXoX.o.oo.o.o  .ooo.",
"  oooOo. o..oXooooo..ooOo.oo. o.",
" oooo ooooooooXXoXXXXooo o o o.o",
"o oo oo..ooo oooX oooo o ooo..oo",
"ooooo. . oX ooXooo oXooooo o ooo",
"o o oo.oo ooXooXoXooXXo o o o oo",
"ooo. oo.oo o.oo. oo ooooo.oo o.o",
"oo.o.oooo.o.o.ooooooooo  oo.oo o",
" oo o.  o  ooo...o  ooooo. o ooo",
"o. oOo.o  oooOoooo.oo oo.oo oooo"
};
