/* XPM */
static char *purple_candle[] = {
/* columns rows colors chars-per-pixel */
"32 32 6 1 ",
"  c None",
". c #212034",
"X c #621C9C",
"o c #6A24A4",
"O c #832CB4",
"+ c #8B30BD",
/* pixels */
"                                ",
"                                ",
"                                ",
"                                ",
"                                ",
"                                ",
"                                ",
"                                ",
"                                ",
"                                ",
".                               ",
" .                              ",
"O++O                            ",
"+oo+                            ",
"Ooo+                            ",
"OO+O                            ",
"++++                            ",
"O+O+                            ",
"oOoO                            ",
"ooo+                            ",
"oOoO                            ",
"X+oo                            ",
"Xooo                            ",
"ooXo                            ",
"Xooo                            ",
"XoXo                            ",
"XXXo                            ",
"XXXX                            ",
"XXXX                            ",
"XXXX                            ",
"XXXX                            ",
"XXXX                            "
};
