/* XPM */
static char *purple_concrete_powder[] = {
/* columns rows colors chars-per-pixel */
"32 32 30 1 ",
"  c #6F2EA2",
". c #7431A5",
"X c #7832A8",
"o c #7B34AA",
"O c #7D34AB",
"+ c #7D35AB",
"@ c #7E35AC",
"# c #8036AD",
"$ c #8337AF",
"% c #8338AF",
"& c #8538B1",
"* c #8739B2",
"= c #893AB3",
"- c #8A3BB4",
"; c #8B3BB4",
": c #8C3BB5",
"> c #8E3CB6",
", c #8F3CB7",
"< c #903DB8",
"1 c #913EB8",
"2 c #963FBB",
"3 c #9640BC",
"4 c #9740BC",
"5 c #9A41BE",
"6 c #9C42BF",
"7 c #A144C2",
"8 c #A345C4",
"9 c #A747C6",
"0 c #AC49CA",
"q c #B54DCF",
/* pixels */
">>=@>4>6:=-+O11O&#=+<$:=1&=::=#*",
"-*>*+9:#2-&$&*=== ==:=$#&$*.<0*&",
"X*=1==+**O<-*1:#-&&&=*#====:=11#",
"***>*2*<*O1*=6=0<1=1$&=$-&&&1=:=",
"6:25&**$#::12==&:*=*#.=1=:&,&&1=",
"O2-1-*-<2&#<:&&&2<O=*<q=<:.&#:O&",
"#1=1-11:.=6*6*-1-&2<=&=O<<&=<=9=",
"O7&1q=1::*=:::::&<0&<<2=::6=:**-",
"-&-&&O:1&2:**1O=-.:=+=--<4=&=+#=",
"<-,1=--:6X-*20:&-=#5=-1<$$*$*=:=",
"0-<&&:1-=$=O-=X:## &*-;*=*9=*#=:",
"&&-:&&-:*<:-2=1*=1111#*.==<;:=7*",
"-:**,*--=-2===<--1&.*4%;=#*+==:X",
"0$:-*.*:::-&7*11O--:**==:*+*5*+<",
"=2=&16*#6==:=::#=2154;>:=*>==<=:",
"=9==XO&*=:2:-:=1&&1#=#=*==#=2#=<",
":,===:-9:X:1@:-.<&-&$:==:==1=1@&",
":q:$O912--2=:#=6#&<&=9::2q2=**&=",
"= :-:&=&1-:=:--@=::==:-&==&==6=@",
"<*::<#=71O1===1O=2::&O&&&5=0=9:#",
"#-26-:-&--1=<<-<1-&6==&-1:1@1.=&",
":O=$:&:&:&-q=#&2-1&--1O:1=-=-2=#",
"9==6-1=1=&=&=1->-=&X=1:O=:2=1&:2",
"=#=#q21:::&-=#*:=<:&2*$:::&-&=--",
"=X:#:#:#2***2=-:X6*<=22:=&:==:#5",
"1-:<:&6&=:*=9:#*<=7<<=*%:1O&=5=>",
"-=1-$O&$>1#+*==-;=**=<>==:2*>>o#",
"1@&:==:& -1-2**=+36%*>>=*-=-0%=>",
"=-11:<2=*2*1**=**=<<#=3:X>==%=<=",
"O:1==1#<1#=*7*:=*=;;%X:%=<3>=**<",
"*2==&:<:O2-=$==9#3*=**=3*=#X=**%",
"=:==5:===@#q*1>%;4<+*+#**=2:2:*<"
};
