/* XPM */
static char *purpur_pillar_top[] = {
/* columns rows colors chars-per-pixel */
"32 32 7 1 ",
"  c #906590",
". c #9D6F9C",
"X c #A472A3",
"o c #AC7BAC",
"O c #B286B2",
"+ c #BA95BA",
"@ c #C7A8C7",
/* pixels */
"@@+@++++@@@@++Oo@@+@+++O@@++@@++",
"@OOO+OOO@Oooooo.@oXXXoX.@+OOO+++",
"+O .X.+O+ooooooX+XoXXXX.@O  ..+O",
"+O XXo@O+oXoooX.+ooXoXX.@O.XoX@O",
"@O.oXo@O+XXoXoX.Ooooooo.+O Xoo@O",
"++XooX@+OXXXXXX.OoooXoo.@+.oXo@O",
"+O+@@++OOXXXXXX.OXooXXo @+++@++O",
"++OOOOOOo....   ..   .  +OOOOOOO",
"@++++OOo++++++++OO++OOO.@+@++OO.",
"@oooooo.+oooooooooooooo @oooooo.",
"+oooXoo.+ooooXoooooooXo @oXoooo.",
"@oooXoo.+ooooooooooXoXX @oooXoX.",
"+oooooX.OooooooooooXXXX +oooXXX.",
"+oXoooX.OoXooooXooooXXX +oXoXXX ",
"+oXooXX +oXoooooXoooXXX OoXXXXX ",
"oXXX..  +ooXoooXXXoooXX o.. ..  ",
"@@+OOOo.+ooooooooXXXoXX @+@@++O.",
"@oXXXXX.+oooXooooXoXXXX @oooooo.",
"+XXXXXX +oooXXooooXoXoX @ooXooo.",
"+XoXXoX +ooooXXoXoXXXoX +ooooXo.",
"@ooXooo OoXooXXoXXoXXXX @oooXXX ",
"@oooooX OXXooXXXXXXXXXX +oXoXXX ",
"+XooXoX OXXXooXXXXXXXXX OoXXXXX.",
"oX....  .               o....   ",
"@@@@@@+O@@+@++OO@@@@+++o@@+@@@++",
"@+OO+O+O@oXXXoo.@ooooooX@OO+OO+O",
"+O  .X++OXXXXoX +ooooooX@O   .+O",
"@O XXo@+OoXoXXX +oooXoo.@O .XX@+",
"@O.oXo+O+oooXXo.OooXXoX.+O.Xo.@O",
"@+.XoX@O+ooooXo.OXoXXXX +O.XoX@O",
"+++@@@@OOoooXXX OXXXXXX.@++@@@@O",
"+O+OOO+OXX...   XX..   .++OOO++O"
};
