/* XPM */
static char *red_wool[] = {
/* columns rows colors chars-per-pixel */
"32 32 39 1 ",
"  c #891E1E",
". c #8C1F1E",
"X c #8C201E",
"o c #8F201E",
"O c #90201F",
"+ c #93211F",
"@ c #94221F",
"# c #9A241F",
"$ c #8E2020",
"% c #8F2020",
"& c #902120",
"* c #942220",
"= c #962321",
"- c #972321",
"; c #982321",
": c #992421",
"> c #9B2421",
", c #9F2620",
"< c #9F2621",
"1 c #A12720",
"2 c #A32721",
"3 c #A12722",
"4 c #A32722",
"5 c #A52821",
"6 c #A42822",
"7 c #A72922",
"8 c #A72923",
"9 c #A92A22",
"0 c #A82A23",
"q c #AB2B23",
"w c #AB2B24",
"e c #AC2B24",
"r c #AB2C24",
"t c #AC2C24",
"y c #AD2C24",
"u c #AF2D25",
"i c #AF2E26",
"p c #B4312A",
"a c #B8342C",
/* pixels */
"O@.&#7.O77%*,:..@>O@,7O@77O@##Oo",
"#,pp@Oe0*&3y%o3*:0ap@%7#*&#0 .#1",
"70@,ye3>wy70yp3100*#78,*3031ep77",
",:0y,,#e*:yy,:a0#O7y>,:7&#003:a0",
"3,*,8w  30>O7y*O7#*,w7% ,7>%0e&&",
"&$7,& 3,O *>&:*#&O77*%w3&$>,O**,",
"pp*%,,,,7p3:pa01pp@O3,,3ep##aa73",
"**pp&:w8O&777700@@pp%*w7&*3w3,ee",
"e3 *81&@@,>$#@OO31.@03&.&3, ## .",
"*,#3  ##:3pp#3ppO##5  #,O5aa>,pp",
"00O@p77300>>,:.>00O@p033yw>31#.#",
"OO#3>*w0@O$,o &,OO3#@@w1o&.3  @3",
"#,OOeu&&30,8aaw$#>.Oyy&&,8,7ap0O",
"55ea&,3:.37w>,ea55ua&-7-$,8w1#ya",
"e033e33eae@>3w>&ue1@y848ae*>50:*",
" O0#&>eu1>5w**ww.O03%%wi,>0e**0y",
"*@.O#5OO7wOO33O.OO.O>5OO07&*,,. ",
"35aa@O01 &1w .3*#1pp*&03*O3w$&,>",
"50@#003>77110a7,00@#ee33ww77ya73",
"#@50@>3e:@7w3>ae#:0e>,#e*,ww3>ae",
"3#*3ww$$1w&*ee&$71*300O$30*&77@&",
"OO03*$73*&>3O#*,O.03*&03,&*# O*:",
"pp>*,,130p#*pa53pp@O>#333p,&paw3",
"@@pp@>00.O0y2000@@pp*>0eO&7757ew",
"33.@03O@*** ># O83&*w7*:>>>O1#Oo",
"O#>3  ##*0ap@3pp&>47%%31*3aa>7pp",
"0e*>pe05ee,353.#w7*>py77e0>373*3",
"@>35>>e5***3O&33O$31::07&@O3. @3",
"&,OOe0.&,037aa8&>>.%y0o #2#3pp0 ",
"00ypO*3@ #5e,,ra77ypOO,@ #70,O0p",
"ey>O7515p0&*37:*yy:#0577p7&&,7>*",
"oo03&:ee#*3e&&rroo7,@:0y#O7e**ee"
};
