/* XPM */
static char *red_mushroom[] = {
/* columns rows colors chars-per-pixel */
"32 32 11 1 ",
"  c None",
". c #A9121A",
"X c #E21212",
"o c #C41D26",
"O c #FE2A2A",
"+ c #A9A065",
"@ c #CFC47F",
"# c #96ADAF",
"$ c #D6D0AC",
"% c #9ACCD0",
"& c #EDE8CA",
/* pixels */
"                                ",
"                                ",
"                                ",
"                                ",
"                                ",
"                                ",
"                                ",
"                                ",
"                                ",
"                                ",
"                                ",
"                                ",
"                                ",
"                                ",
"                                ",
"                                ",
"                                ",
"                                ",
"              XXXX              ",
"            XOOOXXXX            ",
"          XOO%OOOOXXXX          ",
"         XOOOOOOOOOXXXX         ",
"         XOOOOOOOOOXXXX         ",
"        oXOOOOOOOOXX#XX.        ",
"        o#XOOOOOXXXXXXo.        ",
"         oXXXXoXoooooo.         ",
"              @++@              ",
"             @+$$+@             ",
"             @ &$ @             ",
"               &$               ",
"               &$               ",
"               &$               "
};
