/* XPM */
static char *redstone_torch[] = {
/* columns rows colors chars-per-pixel */
"32 32 24 1 ",
"  c None",
". c #392E1D",
"X c #3D3120",
"o c #3E3221",
"O c #3F3322",
"+ c #423625",
"@ c #433726",
"# c #665234",
"$ c #7B6240",
"% c #AF0000",
"& c #FD0000",
"* c #FE4700",
"= c #FE6C00",
"- c #917245",
"; c #937447",
": c #957649",
"> c #96774A",
", c #9D7E50",
"< c #FE7F4B",
"1 c #FE7F7F",
"2 c #FF8F00",
"3 c #FFD800",
"4 c #FFFF97",
"5 c white",
/* pixels */
"                                ",
"                                ",
"                                ",
"                                ",
"                                ",
"                                ",
"                                ",
"                                ",
"                                ",
"                                ",
"                                ",
"              &&&&              ",
"             &=32*&             ",
"             &3322&             ",
"             &4455&             ",
"             &<451&             ",
"              &&%%              ",
"              $$#o              ",
"              -#oo              ",
"              ;$#o              ",
"              ;$o@              ",
"              ;@#@              ",
"              ,$@o              ",
"              ,$@o              ",
"              >#oo              ",
"              >##o              ",
"              #$#o              ",
"              #$#+              ",
"              >#oX              ",
"              >#XX              ",
"              #$##              ",
"              #$.#              "
};
