/* XPM */
static char *repeater_on[] = {
/* columns rows colors chars-per-pixel */
"32 32 27 1 ",
"  c gray47",
". c #AB0301",
"X c #B10300",
"o c #B10002",
"O c #D40102",
"+ c #D60002",
"@ c #D70304",
"# c #D60006",
"$ c #DB0207",
"% c #FD0300",
"& c #FF0201",
"* c #FF0003",
"= c #FB0006",
"- c #808080",
"; c gray51",
": c gray53",
"> c gray54",
", c #8D8D8D",
"< c #909090",
"1 c #929292",
"2 c gray58",
"3 c #9D9D9D",
"4 c gray64",
"5 c gray66",
"6 c gray69",
"7 c #C5C5C5",
"8 c #CDCDCD",
/* pixels */
"::------->::<<2   <2::--------::",
":<,,,,,,,<<222222>,2<<,,,>,,,,,:",
"-<5556666666664444466666335554,-",
"->5555666666666644666666634555,-",
":,5444444446444666445555666665<:",
":>5344444434444465645455566655<:",
":<5665555333554655544444444644,:",
"-26665455553554555544464644444,-",
":<66664444444<2<<2<66666666646> ",
":<55664444442-    -76666666636> ",
"-,4444544442-<4444427564444433<:",
"-,645555554<-44444447555446645<-",
":246555555<-42&*=&644866666633>:",
"----<555542-4<&&#+664855666<    ",
":::>-5445<-42<&++.664484444 ::::",
":<<<-54462-4<2++..643484464-::2<",
"<:><-6632-442<++..643348666-:<<2",
"2<:>7663<-43<<&&#.663338666-:<2<",
"7777644<-33342+%##66433484667777",
":<544442-3334<++o#664433844465<:",
":<55662-44334<++oo664444484555<:",
":<5556<-43342<++oo664433385555<:",
" >555<-43334<2+%$o664333348666> ",
" >5352-443342<%%$$6443334486662<",
"-,44<-44434411%%$X643334444745<:",
":<441133333411@%Xo663344447744,2",
"<<644666333311@+$o6633448755552<",
"><566446663341@@oo63348855556622",
"><5554444466444444448866554444<:",
":<5555544444667777776665444445<:",
"-,,,,,,,>>2222<<<<<<<<,<,,,,,<<:",
"-------- 1111111::::::------::--"
};
