/* XPM */
static char *repeating_command_block_side[] = {
/* columns rows colors chars-per-pixel */
"32 128 35 1 ",
"  c #322230",
". c #433246",
"X c #554654",
"o c #822523",
"O c #A22E2C",
"+ c #CD3A36",
"@ c #9B6C32",
"# c #864341",
"$ c #A84B49",
"% c #A85451",
"& c #AC6967",
"* c #CA5451",
"= c #C85452",
"- c #CE7A77",
"; c #62873E",
": c #749258",
"> c #C2873E",
", c #88AD64",
"< c #E8AD64",
"1 c #553B9B",
"2 c #777480",
"3 c #6143C2",
"4 c #6A4FC7",
"5 c #7D66C9",
"6 c #8779B5",
"7 c #918F99",
"8 c #9F9DA7",
"9 c #A8A5AF",
"0 c #B3B0B9",
"q c #9B8BCF",
"w c #A999D6",
"e c #C5C2CD",
"r c #CDCAD5",
"t c #D2CFDA",
"y c #D5D2DD",
/* pixels */
"44444451154444444444445115444444",
"4444451ww15444444444451ww1544444",
"444451wqqw154444444451wqqw154444",
"44451wqqqqw1544444451wqqqqw15444",
"4451wqqqqqqw15455451wqqqqqqw1544",
"451wqqqqqqqqw15XX51wqqqqqqqqw154",
"51wqqqqqqqqqqw rr wqqqqqqqqqqw15",
"1wqqqqqqqqqqq t00e qqqqqqqqqqqw1",
"16qqqqqqqqqqXt0000eXqqqqqqqqqq61",
"316qqqqqqqqXy000000eXqqqqqqqq613",
"4316qqqqqqXy00000000eXqqqqqq6134",
"44316qqqqXy00000000008Xqqqq61344",
"444316qqXy00000OO000008Xqq613444",
"4444316Xy000000OO0000008X6134444",
"444443 t00000000000000008 344444",
"444444.r00000000000000002.444444",
"444444.r000>>00--00++0002.444444",
"444445 r000>>00--00++0002 544444",
"444451Xr00000000000000002X154444",
"44451wXe00000000000000002Xw15444",
"4451wqXe000$$00%%00;;0002Xqw1544",
"451wqqXe000$$00%%00;;0002Xqqw154",
"51wqqqXe00000000000000002Xqqqw15",
"1wqqqqXe00000000000000002Xqqqqw1",
"1qqqqqXe00000000000000002Xqqqqq1",
"31qqqqXe98722222222222222Xqqqq13",
"431qqq6XXXXXXX .. XXXXXXX6qqq134",
"4431qqq666661333333166666qqq1344",
"44431qqqqq613444444316qqqqq13444",
"444431qqq61344444444316qqq134444",
"4444431q6134444444444316q1344444",
"44444431134444444444443113444444",
"44444451154444444444445115444444",
"4444451ww15444444444451ww1544444",
"444451wqqw154444444451wqqw154444",
"44451wqqqqw1544444451wqqqqw15444",
"4451wqqqqqqw15455451wqqqqqqw1544",
"451wqqqqqqqqw15XX51wqqqqqqqqw154",
"51wqqqqqqqqqqw rr wqqqqqqqqqqw15",
"1wqqqqqqqqqqq t00e qqqqqqqqqqqw1",
"16qqqqqqqqqqXt0000eXqqqqqqqqqq61",
"316qqqqqqqqXy000000eXqqqqqqqq613",
"4316qqqqqqXy00000000eXqqqqqq6134",
"44316qqqqXy00000000008Xqqqq61344",
"444316qqXy00000OO000008Xqq613444",
"4444316Xy000000OO0000008X6134444",
"444443 t00000000000000008 344444",
"444444.r00000000000000002.444444",
"444444.r000@@00##00++0002.444444",
"444445 r000@@00##00++0002 544444",
"444451Xr00000000000000002X154444",
"44451wXe00000000000000002Xw15444",
"4451wqXe000==00%%00,,0002Xqw1544",
"451wqqXe000==00%%00,,0002Xqqw154",
"51wqqqXe00000000000000002Xqqqw15",
"1wqqqqXe00000000000000002Xqqqqw1",
"1qqqqqXe00000000000000002Xqqqqq1",
"31qqqqXe98722222222222222Xqqqq13",
"431qqq6XXXXXXX .. XXXXXXX6qqq134",
"4431qqq666661333333166666qqq1344",
"44431qqqqq613444444316qqqqq13444",
"444431qqq61344444444316qqq134444",
"4444431q6134444444444316q1344444",
"44444431134444444444443113444444",
"44444451154444444444445115444444",
"4444451ww15444444444451ww1544444",
"444451wqqw154444444451wqqw154444",
"44451wqqqqw1544444451wqqqqw15444",
"4451wqqqqqqw15455451wqqqqqqw1544",
"451wqqqqqqqqw15XX51wqqqqqqqqw154",
"51wqqqqqqqqqqw rr wqqqqqqqqqqw15",
"1wqqqqqqqqqqq t00e qqqqqqqqqqqw1",
"16qqqqqqqqqqXt0000eXqqqqqqqqqq61",
"316qqqqqqqqXy000000eXqqqqqqqq613",
"4316qqqqqqXy00000000eXqqqqqq6134",
"44316qqqqXy00000000008Xqqqq61344",
"444316qqXy00000OO000008Xqq613444",
"4444316Xy000000OO0000008X6134444",
"444443 t00000000000000008 344444",
"444444.r00000000000000002.444444",
"444444.r000<<00%%00++0002.444444",
"444445 r000<<00%%00++0002 544444",
"444451Xr00000000000000002X154444",
"44451wXe00000000000000002Xw15444",
"4451wqXe000oo00&&00::0002Xqw1544",
"451wqqXe000oo00&&00::0002Xqqw154",
"51wqqqXe00000000000000002Xqqqw15",
"1wqqqqXe00000000000000002Xqqqqw1",
"1qqqqqXe00000000000000002Xqqqqq1",
"31qqqqXe98722222222222222Xqqqq13",
"431qqq6XXXXXXX .. XXXXXXX6qqq134",
"4431qqq666661333333166666qqq1344",
"44431qqqqq613444444316qqqqq13444",
"444431qqq61344444444316qqq134444",
"4444431q6134444444444316q1344444",
"44444431134444444444443113444444",
"44444451154444444444445115444444",
"4444451ww15444444444451ww1544444",
"444451wqqw154444444451wqqw154444",
"44451wqqqqw1544444451wqqqqw15444",
"4451wqqqqqqw15455451wqqqqqqw1544",
"451wqqqqqqqqw15XX51wqqqqqqqqw154",
"51wqqqqqqqqqqw rr wqqqqqqqqqqw15",
"1wqqqqqqqqqqq t00e qqqqqqqqqqqw1",
"16qqqqqqqqqqXt0000eXqqqqqqqqqq61",
"316qqqqqqqqXy000000eXqqqqqqqq613",
"4316qqqqqqXy00000000eXqqqqqq6134",
"44316qqqqXy00000000008Xqqqq61344",
"444316qqXy00000oo000008Xqq613444",
"4444316Xy000000oo0000008X6134444",
"444443 t00000000000000008 344444",
"444444.r00000000000000002.444444",
"444444.r000@@00--00=*000XX444444",
"444445 r000@@00--00=*0007 544444",
"444451Xr00000000000000002X154444",
"44451wXe00000000000000002Xw15444",
"4451wqXe000OO00--00;;0002Xqw1544",
"451wqqXe000OO00--00;;0002Xqqw154",
"51wqqqXe00000000000000002Xqqqw15",
"1wqqqqXe00000000000000002Xqqqqw1",
"1qqqqqXe00000000000000002Xqqqqq1",
"31qqqqXe98722222222222222Xqqqq13",
"431qqq6XXXXXXX .. XXXXXXX6qqq134",
"4431qqq666661333333166666qqq1344",
"44431qqqqq613444444316qqqqq13444",
"444431qqq61344444444316qqq134444",
"4444431q6134444444444316q1344444",
"44444431134444444444443113444444"
};
