/* XPM */
static char *repeating_command_block_back[] = {
/* columns rows colors chars-per-pixel */
"32 128 36 1 ",
"  c #322230",
". c #4E6C32",
"X c #433246",
"o c #554654",
"O c #822523",
"+ c #A22E2C",
"@ c #CD3A36",
"# c #9B6C32",
"$ c #864341",
"% c #A85451",
"& c #AC6967",
"* c #CA5451",
"= c #C85452",
"- c #CE7A77",
"; c #62873E",
": c #749258",
"> c #C2873E",
", c #88AD64",
"< c #E8AD64",
"1 c #553B9B",
"2 c #777480",
"3 c #6143C2",
"4 c #6A4FC7",
"5 c #7D66C9",
"6 c #8779B5",
"7 c #918F99",
"8 c #9F9DA7",
"9 c #A8A5AF",
"0 c #B3B0B9",
"q c #9B8BCF",
"w c #A999D6",
"e c #C5C2CD",
"r c #CDCAD5",
"t c #CECBD6",
"y c #D2CFDA",
"u c #D5D2DD",
/* pixels */
"44444451154444444444445115444444",
"4444451ww15444444444451ww1544444",
"444451wqqw154444444451wqqw154444",
"44451wqqqqw1544444451wqqqqw15444",
"4451wqqqqqqw15444451wqqqqqqw1544",
"451wqqqqqqqqw155551wqqqqqqqqw154",
"51wqqqqooooooo XX oooooooqqqqw15",
"1wqqqqouyyyyyyyrreeeeeeeeoqqqqw1",
"16qqqqou00000000000000009oqqqq71",
"316qqqot00000000000000008oqqq513",
"4316qqot00000000000000007owq5134",
"44316qot000%%00++00..000oowq1344",
"444316or000%%00++00..0002o713444",
"444431oy00000000000000002o134444",
"444443 y00000000000000002 344444",
"444444Xr000>>00--00@@0002X444444",
"444444Xt000>>00--00@@0002X444444",
"444445 t00000000000000002 544444",
"444451ot00000000000000002o154444",
"44451woe000OO00--00&&0002ow15444",
"4451wqoe000OO00--00&&0002oqw1544",
"451wqqoe00000000000000002oqqw154",
"51wqqqoe00000000000000002oqqqw15",
"1wqqqqoe00000000000000002oqqqqw1",
"1qqqqqoe987222222222227o2oqqqqq1",
"31qqqq5ooooooo XX ooooooo5qqqq13",
"431qqqq766666133331585666qqqq134",
"4431qqqqqqq6134444317qqqqqqq1344",
"44431qqqqq613444444316qqqqq13444",
"444431qqq61344444444316qqq134444",
"4444431q6134444444444316q1344444",
"44444431134444444444443113444444",
"44444451154444444444445115444444",
"4444451ww15444444444451ww1544444",
"444451wqqw154444444451wqqw154444",
"44451wqqqqw1544444451wqqqqw15444",
"4451wqqqqqqw15444451wqqqqqqw1544",
"451wqqqqqqqqw155551wqqqqqqqqw154",
"51wqqqqooooooo XX oooooooqqqqw15",
"1wqqqqouyyyyyyutteeeeeeeeoqqqqw1",
"16qqqqoy00000000000000009oqqqq61",
"316qqqot00000000000000008oqqq613",
"4316qqot00000000000000007oqq6134",
"44316qot000--00++00,,0002oq61344",
"444316ot000--00++00,,0002o613444",
"444431oy00000000000000002o134444",
"444443 u00000000000000002 344444",
"444444Xy000##00o$00@@0002X444444",
"444444Xt000##00$$00@@0002X444444",
"444445 t00000000000000002 544444",
"444451Xu00000000000000002o154444",
"44451wor000**00%%00$$0002ow15444",
"4451wqoe000*%00&%00$$0002oqw1544",
"451wqqoe00000000000000002oqqw154",
"51wqqqoe00000000000000002oqqqw15",
"1wqqqqoe00000000000000002oqqqqw1",
"1qqqqqoe987&o722o72222222oqqqqq1",
"31qqqq6ooooooo Xo ooooooo6qqqq13",
"431qqqq666566133331766666qqqq134",
"4431qqqqqqq6134444316qqqqqqq1344",
"44431qqqqq613444444316qqqqq13444",
"444431qqq61344444444316qqq134444",
"4444431q6134444444444316q1344444",
"44444431134444444444443113444444",
"44444451154444444444445115444444",
"4444451ww15444444444451ww1544444",
"444451wqqw154444444451wqqw154444",
"44451wqqqqw1544444451wqqqqw15444",
"4451wqqqqqqw15444451wqqqqqqw1544",
"451wqqqqqqqqw155551wqqqqqqqqw154",
"51wqqqqooooooo XX oooooooqqqqw15",
"1wqqqqouyyyyyyytteeeeeeeeoqqqqw1",
"16qqqqoy00000000000000009oqqqq61",
"316qqqot00000000000000008oqqq613",
"4316qqot00000000000000007oqq6134",
"44316qot000--00++00::0002oq61344",
"444316ot000--00++00::0002o613444",
"444431oy00000000000000002o134444",
"444443 y00000000000000002 344444",
"444444Xt000<<00%%00@@0002X444444",
"444444Xt000<<00%%00@@0002X444444",
"444445 t00000000000000002 544444",
"444451ot00000000000000002o154444",
"44451woe000OO00&&00%%0002ow15444",
"4451wqoe000OO00&&00%%0002oqw1544",
"451wqqoe00000000000000002oqqw154",
"51wqqqoe00000000000000002oqqqw15",
"1wqqqqoe00000000000000002oqqqqw1",
"1qqqqqoe98722222222222222oqqqqq1",
"31qqqq6ooooooo XX ooooooo6qqqq13",
"431qqqq656666133331666666qqqq134",
"4431qqqqqqq6134444316qqqqqqq1344",
"44431qqqqq613444444316qqqqq13444",
"444431qqq61344444444316qqq134444",
"4444431q6134444444444316q1344444",
"44444431134444444444443113444444",
"44444451154444444444445115444444",
"4444451ww15444444444451ww1544444",
"444451wqqw154444444451wqqw154444",
"44451wqqqqw1544444451wqqqqw15444",
"4451wqqqqqqw15444451wqqqqqqw1544",
"451wqqqqqqqqw155551wqqqqqqqqw154",
"51wqqqqooooooo XX oooooooqqqqw15",
"1wqqqqouyyyyyyyrreeeeeeeeoqqqqw1",
"16qqqqoy00000000000000009oqqqq61",
"316qqqot00000000000000008oqqq613",
"4316qqot00000000000000007oqq6134",
"44316qot000--00OO00;;0002oq61344",
"444316or000--00OO00;;0002o613444",
"444431oy00000000000000002o134444",
"444443 y00000000000000002 344444",
"444444Xr000##00--00==0002X444444",
"444444Xr000##00--00==000oo444444",
"444445 r00000000000000007 544444",
"444451or00000000000000002o154444",
"44451woe000++00--00%%0002ow15444",
"4451wqoe000++00--00%%0002oqw1544",
"451wqqoe00000000000000002oqqw154",
"51wqqqoe00000000000000002oqqqw15",
"1wqqqqoe00000000000000002oqqqqw1",
"1qqqqqoe98722222222222222oqqqqq1",
"31qqqq6ooooooo XX ooooooo6qqqq13",
"431qqqq666666133331666666qqqq134",
"4431qqqqqqq6134444316qqqqqqq1344",
"44431qqqqq613444444316qqqqq13444",
"444431qqq61344444444316qqq134444",
"4444431q6134444444444316q1344444",
"44444431134444444444443113444444"
};
