/* XPM */
static char *repeater[] = {
/* columns rows colors chars-per-pixel */
"32 32 26 1 ",
"  c #260003",
". c #280000",
"X c #2A0002",
"o c #2C0300",
"O c #470102",
"+ c #460402",
"@ c #4B0000",
"# c #570000",
"$ c #540200",
"% c #560600",
"& c #580101",
"* c #5A0003",
"= c gray47",
"- c #808080",
"; c gray53",
": c gray54",
"> c #8D8D8D",
", c #909090",
"< c #929292",
"1 c gray58",
"2 c #9D9D9D",
"3 c gray64",
"4 c gray66",
"5 c gray69",
"6 c #C5C5C5",
"7 c #CDCDCD",
/* pixels */
";;-------:;:,,,===,1:;=-------;;",
";,>>>>>>>,>111111>>1,,,>>>>>>>>;",
"-,4445555555553333355555224443>-",
"-:4444555555555533555555523444>-",
";>4333333335333555334444555554,;",
";:4233333323333354534344455544,;",
";,4554444222443544433333333533>;",
"-15554344442443444433353533333>-",
";,555533333331,1,,,55555555535:=",
";,4455333333,-====;65555555525:=",
"->3333433331-13333316453333322,;",
"->534444443,-33333336444335534,-",
";135444444,-31%%&&533755555522:;",
"----,444431-3,%@@+5537445551====",
";;;:-4334,-31,$@++553373333=;:;;",
";,,,-43351-3,1$@++532373353=;:,,",
"<;;<-552<-33<<&@+.532237555-:,,1",
"<<;;6552<-32<<$@+.552227555-;,1,",
"6666533<-2223<&@+o55322373556666",
";,43333<-2223<$@+o553322733354,;",
";,4455<-33223<*@+.553333373444,;",
";,4445<-3223<<*++.553322274444,;",
"=:444<-32223<<@++.553222237555:=",
"=:424<-33223<<@+@.5332223375551,",
"->33<-333233,1@+@.532223333634,:",
";,33<<2222231,@@@.552233336633>,",
"<,5335552222,,@O@ 55223376444411",
";,455335552231OO  5223774444551,",
";,4443333355333333337755443333,:",
";,4444433333556666665554333334,;",
"->>>>>>>::1111,,,,,,,,>,>>>>>,,;",
"--------=1,1,1,1;;;;;;------;;--"
};
