/* XPM */
static char *sculk_sensor_side[] = {
/* columns rows colors chars-per-pixel */
"32 32 9 1 ",
"  c None",
". c #0D1217",
"X c #111B21",
"o c #0B212A",
"O c #062E37",
"+ c #034150",
"@ c #074857",
"# c #009295",
"$ c #29DFEB",
/* pixels */
"                                ",
"                                ",
"                                ",
"                                ",
"                                ",
"                                ",
"                                ",
"                                ",
"                                ",
"                                ",
"                                ",
"                                ",
"                                ",
"                                ",
"                                ",
"                                ",
"++@@@@@@+@@@++@@@@@@+@++++@@+@++",
"+++@@+@+O+@+++++@@@++OO+++O@++++",
"+O+O+@OOOO@@OOO++++OOOOOOOOOO+O+",
"+OOOOOOOOO@OOOOO+OO#OOOOOOOOOOOO",
"OOO+OOOOOOOOOOOoOooooOOOOOO+OOOO",
"OOOOoOooOOoOoOoooooOoooOoOOOooOO",
"XOXoXXXOooooooOXooXXXXooOXooXXoo",
"XXXXXoXX+oOooXXXXXXXXXXoXXXXXXXo",
"X.X.XX.XX..X...XX..XXXXXXX...XXX",
".....XX.......X......XX.X...X.X.",
"....X..X...o.....o.+X.XX.X.o....",
".o...........................$..",
"....o.............o...o.........",
".......o.....#..................",
"................................",
"................................"
};
