/* XPM */
static char *sculk_sensor_tendril_active[] = {
/* columns rows colors chars-per-pixel */
"32 512 7 1 ",
"  c None",
". c #052A32",
"X c #034150",
"o c #086E68",
"O c #009295",
"+ c #1AB4BE",
"@ c #29DFEB",
/* pixels */
"                                ",
"                                ",
"                                ",
"                                ",
"                                ",
"                                ",
"                                ",
"                                ",
"                                ",
"                                ",
"                                ",
"                                ",
"                                ",
"                                ",
"                                ",
"                                ",
"                 O              ",
"                OO              ",
"               OOO              ",
"              OO@O              ",
"             oOOOOo             ",
"             OOOOOO             ",
"            OOOOOOO             ",
"            O@OOOOO             ",
"           OOOOOOOOO            ",
"           OoOOOOO@O            ",
"           OOoOOOOOo            ",
"          O@ooOOOoOo            ",
"          XoXoO@oOooX           ",
"          XXoooOoooXX           ",
"          .XXXoooXooXX          ",
"          ..XXXoooXXX.          ",
"                                ",
"                                ",
"                                ",
"                                ",
"                                ",
"                                ",
"                                ",
"                                ",
"                                ",
"                                ",
"                                ",
"                                ",
"                                ",
"                                ",
"                                ",
"                                ",
"              OO                ",
"             OOOO               ",
"            OOOOo               ",
"           OOO+OO               ",
"           OOOOOOO              ",
"          OOOOOOOO              ",
"          O@OOOOOOo             ",
"           OOOOOOOO             ",
"            OOOO@OOO            ",
"            OOOOOOOO            ",
"           OOoOOOOOo            ",
"           @ooOOOoOo            ",
"          XoXoo@ooooX           ",
"          XXooOoOooXX           ",
"          .XXXoooXooXX          ",
"          ..XXXoooXXX.          ",
"                                ",
"                                ",
"                                ",
"                                ",
"                                ",
"                                ",
"                                ",
"                                ",
"                                ",
"                                ",
"                                ",
"                                ",
"                                ",
"                                ",
"                                ",
"                                ",
"              OO                ",
"             OOOO               ",
"          OOOO+OoO              ",
"         OOoOOOOOO              ",
"        OOOOOOoOO               ",
"        OoOOOOOO                ",
"        OOOOOOOOO               ",
"         +OOOOOOX               ",
"          OOOOOOOO              ",
"          OO@OOOOoO             ",
"           OOOOOOooX            ",
"           @OOOOoOXXX           ",
"          XOXoO@OoooX           ",
"          XXoooOoooXXX          ",
"          .XXXoooXooXX          ",
"          ..XXXoooXXX.          ",
"                                ",
"                                ",
"                                ",
"                                ",
"                                ",
"                                ",
"                                ",
"                                ",
"                                ",
"                                ",
"                                ",
"                                ",
"                                ",
"                                ",
"                                ",
"                                ",
"            OO                  ",
"           OOOO                 ",
"          OOOOoO                ",
"         OOOO@OO                ",
"         OOOOOOoO               ",
"        OoOOOOOOO               ",
"        OOOOOOOOOX              ",
"        OOOOOOOXXX              ",
"        OOOO@OOOXoX             ",
"        OOOOOOOOoXX             ",
"         +OOOOoOooXX            ",
"         OOOOOOOoXXX            ",
"          XOXo@OOoXXX           ",
"          XXoooOoooXXX          ",
"          .XXXoooXooX.          ",
"          ..XXXoooXXX.          ",
"                                ",
"                                ",
"                                ",
"                                ",
"                                ",
"                                ",
"                                ",
"                                ",
"                                ",
"                                ",
"                                ",
"                                ",
"                                ",
"                                ",
"                                ",
"                                ",
"             Oo                 ",
"            OOOo                ",
"           OOooO                ",
"           OO@oo                ",
"          OOOoOoo               ",
"         OOoOOoOo               ",
"        O+OOOOOOoo              ",
"        OOOOOOOooX              ",
"         OOO@OOXoX              ",
"         OOOOOOOXX              ",
"          oOoOoOOXX             ",
"          ooooOOOXX             ",
"          XoXooOO@XXX           ",
"          XXooooOoXX.X          ",
"          .XXXoooXoXX.          ",
"          ..XXXoooXX..          ",
"                                ",
"                                ",
"                                ",
"                                ",
"                                ",
"                                ",
"                                ",
"                                ",
"                                ",
"                                ",
"                                ",
"                                ",
"                                ",
"                                ",
"                                ",
"                                ",
"               O                ",
"              OOO               ",
"              OOOO              ",
"             O+OoO              ",
"            OOOOOO              ",
"           OOoOOOo              ",
"           OOOOOoo              ",
"          O@OOOOooo             ",
"          OOOOOoOoo             ",
"          OOOO@OooX             ",
"          O+OoOOOoXX            ",
"          oOOOOOoXoXX           ",
"          XoooOOOOXXXX          ",
"          XXoXoO@oXX.X          ",
"          .XXooooXoXX.          ",
"          ..XXXoooXX..          ",
"                                ",
"                                ",
"                                ",
"                                ",
"                                ",
"                                ",
"                                ",
"                                ",
"                                ",
"                                ",
"                                ",
"                                ",
"                                ",
"                                ",
"                                ",
"                                ",
"              OO                ",
"             OOOO               ",
"            OO+OoO              ",
"            OOOOOOO             ",
"            OoOOOOO             ",
"             OOOOOoO            ",
"              OOOOOO            ",
"              @OOOOO            ",
"            XXOoOOOO            ",
"           XXOOOOO@X            ",
"           Xo@OOOOoOX           ",
"          XXXoOoOOOOX           ",
"          XXoooOO@OXXX          ",
"          XXoXooOOXX.X          ",
"          .XXooooXoXX.          ",
"          ..XXXoooXX..          ",
"                                ",
"                                ",
"                                ",
"                                ",
"                                ",
"                                ",
"                                ",
"                                ",
"                                ",
"                                ",
"                                ",
"                                ",
"                                ",
"                                ",
"                                ",
"                                ",
"               O                ",
"              OO                ",
"              +OOO              ",
"              OOOOoO            ",
"               OOOOOO           ",
"                OoOOoO          ",
"                OOOOOO          ",
"                O@OOOO          ",
"              OOOOOO@O          ",
"             XOoOOOOO           ",
"            XXO@OoOO            ",
"           XXooOoOOO            ",
"          XXooOoooOOX           ",
"          XXoXoooX@OXX          ",
"          .XXoooooXXX.          ",
"          ..XXoooXXX..          ",
"                                ",
"                                ",
"                                ",
"                                ",
"                                ",
"                                ",
"                                ",
"                                ",
"                                ",
"                                ",
"                                ",
"                                ",
"                                ",
"                                ",
"                                ",
"                                ",
"               O                ",
"              OO                ",
"              +OOO              ",
"              OOOOoO            ",
"               OOOOOO           ",
"                OoOOoO          ",
"                OOO@OO          ",
"               OoOOOOO          ",
"              ooOOOO+O          ",
"             XoOOOOOO           ",
"            XXooOoOOO           ",
"           XXooO@OOO            ",
"          XXooooooOOX           ",
"          X.oXoooXo@XX          ",
"          .XXoooooXXX.          ",
"          ..XXoooXXX..          ",
"                                ",
"                                ",
"                                ",
"                                ",
"                                ",
"                                ",
"                                ",
"                                ",
"                                ",
"                                ",
"                                ",
"                                ",
"                                ",
"                                ",
"                                ",
"                                ",
"                 O              ",
"                OO              ",
"                O@OOoO          ",
"                 OOOOOO         ",
"                  OOOOoO        ",
"                  OoOOOO        ",
"                 OOOO@OO        ",
"                OoOOOOOO        ",
"              ooOOOOOOoO        ",
"             XoOOOOOOOOO        ",
"            XXooOoOOoOO         ",
"           XXoXooOO@OO          ",
"          XXXXoooooOO           ",
"          X.XoooooOo+           ",
"          .XXXooooXoXX          ",
"          ..XXXooXXXX.          ",
"                                ",
"                                ",
"                                ",
"                                ",
"                                ",
"                                ",
"                                ",
"                                ",
"                                ",
"                                ",
"                                ",
"                                ",
"                                ",
"                                ",
"                                ",
"                                ",
"                   O            ",
"                  OO            ",
"                  O+OO          ",
"                   OOOo         ",
"                    OOOO        ",
"                   OOoOO        ",
"                 XOoOOOO        ",
"                XXOOO@OO        ",
"              XXXOOOOOoO        ",
"             XXXOoOOOOO         ",
"            XXXooO@OoOO         ",
"           XXXXXooOOOX          ",
"          XXXXXoooooXX          ",
"          X.XooXoooXoX          ",
"          .XXXoooXoXXX          ",
"          ..XXXooXXXX.          ",
"                                ",
"                                ",
"                                ",
"                                ",
"                                ",
"                                ",
"                                ",
"                                ",
"                                ",
"                                ",
"                                ",
"                                ",
"                                ",
"                                ",
"                                ",
"                                ",
"                   O            ",
"                  OOO           ",
"                  OOOOO         ",
"                  O@OOoO        ",
"                 OOoOOOO        ",
"                 XOOOOOO        ",
"                XOOOOOOO        ",
"               XXX@OOOo         ",
"              XXXOOOOO          ",
"             XXXoOOOOO          ",
"            XXXoO@OOoO          ",
"           XXXoooOOooX          ",
"           XXXXoooooXX          ",
"          XXXoXooXooXX          ",
"          .XXXooooXXX.          ",
"          ..XXXooXXX..          ",
"                                ",
"                                ",
"                                ",
"                                ",
"                                ",
"                                ",
"                                ",
"                                ",
"                                ",
"                                ",
"                                ",
"                                ",
"                                ",
"                                ",
"                                ",
"                                ",
"                  OO            ",
"                   OO           ",
"                   OOO          ",
"                  O@oO          ",
"                 OOOOO          ",
"                OoOOOO          ",
"                OOOOO           ",
"               X@OOOO           ",
"              XOOOOO+           ",
"             XXXOOOOO           ",
"            XXXoO@OOo           ",
"           XXXoXoOoOOO          ",
"          XXXooooooOO+          ",
"          XXoXooooXoOX          ",
"          .XXXoooooXXX          ",
"          ..XXXooXXXX.          ",
"                                ",
"                                ",
"                                ",
"                                ",
"                                ",
"                                ",
"                                ",
"                                ",
"                                ",
"                                ",
"                                ",
"                                ",
"                                ",
"                                ",
"                                ",
"                                ",
"                   O            ",
"                  OO            ",
"                 oOO            ",
"                OO@O            ",
"                OOOOO           ",
"               OOOOOO           ",
"               O@OOOOO          ",
"              OoOOOOoO          ",
"              OOOOOOOO          ",
"              XOOOOO@O          ",
"             Xo@OOOOoO          ",
"           XXXoOoOoOOO          ",
"          XXXoooOO@OXX          ",
"          XXoXooooOOXX          ",
"          .XXooooooXX.          ",
"          ..XXXooXXX..          ",
"                                ",
"                                ",
"                                ",
"                                ",
"                                ",
"                                ",
"                                ",
"                                ",
"                                ",
"                                ",
"                                ",
"                                ",
"                                ",
"                                ",
"                                ",
"                                ",
"                  O             ",
"                 OO             ",
"                OOOO            ",
"                OoOO            ",
"               OOO@O            ",
"               OOOOO            ",
"              OOOOOO            ",
"              O@OOOO            ",
"             OOOOO@Oo           ",
"             OOOOoOoo           ",
"            oOOOOOooo           ",
"           Xo@OoOOoooX          ",
"          XooooO@OoXoX          ",
"          XXoXooOoooXX          ",
"          .XXoooooXXXX          ",
"          ..XXXooXoXX.          ",
"                                ",
"                                ",
"                                ",
"                                ",
"                                ",
"                                ",
"                                ",
"                                ",
"                                ",
"                                ",
"                                ",
"                                ",
"                                ",
"                                ",
"                                ",
"                                ",
"                OO              ",
"               OOO              ",
"              OOOO              ",
"              OOO@O             ",
"             OOOOOO             ",
"             OOOOOOO            ",
"            OOOOOOoO            ",
"            OoO@OOOO            ",
"            OOOOOOOOO           ",
"           oOOOOOO@Oo           ",
"           o@oOOOOOXoX          ",
"           XoOOOOOooXX          ",
"          XXoXoOoOooXX          ",
"          XXXooo@ooXXX          ",
"          .XXXooooXXX.          ",
"          ..XoXooXoX..          "
};
