/* XPM */
static char *smithing_table_bottom[] = {
/* columns rows colors chars-per-pixel */
"32 32 5 1 ",
"  c #1A1B1E",
". c #2F1411",
"X c #421C17",
"o c #4A1F1A",
"O c #52221D",
/* pixels */
"    ooooooXXXXooooXXXXXXooXX    ",
"    XXXXXXXXXXXXXXXXXXXXXXXX    ",
"    ..XX......XX........XX..    ",
"   XXXXXXXXXXXXXXXXXXXXXXXXXX   ",
"oX.XooOOOOOOOOooooOOOOOOooooX.Xo",
"oX.XoXXXXXXXXXXXXXXXXXXXXXXoX.Xo",
"oX.XoXXXXXXXXXXXXXXXXXXXXXXOX.XX",
"oX.XoXXXXXXXXXXXXXXXXXXXXXXOX.XX",
"oXXXOXXXXXXXXXXXXXXXXXXXXXXOX.Xo",
"oXXXOXXXXXXXXXXXXXXXXXXXXXXOX.Xo",
"XX.XOXXXXXXXXXXXXXXXXXXXXXXoXXXo",
"XX.XOXXXXXXXXXXXXXXXXXXXXXXoXXXo",
"XX.XOXXXXXXXXXXXXXXXXXXXXXXOX.XX",
"XX.XOXXXXXXXXXXXXXXXXXXXXXXOX.XX",
"XX.XoXXXXXXXXXXXXXXXXXXXXXXOX.XX",
"XX.XoXXXXXXXXXXXXXXXXXXXXXXOX.XX",
"oX.XoXXXXXXXXXXXXXXXXXXXXXXoXXXo",
"oX.XoXXXXXXXXXXXXXXXXXXXXXXoXXXo",
"oXXXOXXXXXXXXXXXXXXXXXXXXXXoXXXo",
"oXXXOXXXXXXXXXXXXXXXXXXXXXXoXXXo",
"oXXXOXXXXXXXXXXXXXXXXXXXXXXOX.XX",
"oXXXOXXXXXXXXXXXXXXXXXXXXXXOX.XX",
"oX.XOXXXXXXXXXXXXXXXXXXXXXXOX.Xo",
"oX.XOXXXXXXXXXXXXXXXXXXXXXXOX.Xo",
"XX.XOXXXXXXXXXXXXXXXXXXXXXXOXXXo",
"XX.XOXXXXXXXXXXXXXXXXXXXXXXOXXXo",
"XX.XoXXXXXXXXXXXXXXXXXXXXXXoXXXo",
"XX.XooooOOOOOOooooooOOOOooooXXXo",
"   XXXXXXXXXXXXXXXXXXXXXXXXXX   ",
"    ..XXXX........XX..XXXX..    ",
"    XXXXXXXXXXXXXXXXXXXXXXXX    ",
"    XXooooooXXXXooooXXooooXX    "
};
