/* XPM */
static char *soul_campfire[] = {
/* columns rows colors chars-per-pixel */
"32 32 17 1 ",
"  c None",
". c #362B1B",
"X c #4C3D26",
"o c #5F4A2B",
"O c #745A36",
"+ c #917142",
"@ c #967441",
"# c #9F844D",
"$ c #B8945F",
"% c #C29D62",
"& c #088F92",
"* c #13A7AB",
"= c #5BE3E8",
"- c #7CF2F5",
"; c #D4FEFF",
": c #FEFEFB",
"> c white",
/* pixels */
"                                ",
"                                ",
"                                ",
"                &               ",
"              & &               ",
"              &&&               ",
"              &&&& &            ",
"            & &*=*&&            ",
"            &&*===*& &          ",
"            &&*===*&&&          ",
"             &**===*&&          ",
"          & &&=*=*=**&          ",
"          &&&=*=====*&&         ",
"         &&&&**=-===**          ",
"          &*=*==-====&          ",
"         &&*==-=--=*=&&         ",
"         &*===--;-===*&         ",
"        &=*===;->;-===*&        ",
"      XX&&**==->;--=*&*&XX      ",
"     X@%%$$@*--;>--*@%%$$@.     ",
"     X$$##%$&-;:;;-&$$##%$.     ",
"    XX$####$&-;>>;-&$####$..    ",
"   XOo%####%o++++++X%####%o+.   ",
"   X+o$%##%%oOoO+++X$%##%%o+.   ",
"   X+o@%$%%@X++OOO+o@%$%%@o+.   ",
"   XOOooXXXXO++++++OooXXXoOo.   ",
"   X+++Oooo++++++OoooOOO++++.   ",
"   X+++++++++OOoooO+++++++++.   ",
"   ..........................   ",
"                                ",
"                                ",
"                                "
};
