/* XPM */
static char *soul_soil[] = {
/* columns rows colors chars-per-pixel */
"32 32 5 1 ",
"  c #352922",
". c #3D2E25",
"X c #49372C",
"o c #5B4538",
"O c #6A5244",
/* pixels */
"OoXoX.X. .XXXX.....  ..XoOooOOOO",
"OXoX.X. ..XoXX..  ....XoooXOoOOo",
"oXX...  .XoX.X.  .. .XXoXoXooOOO",
"XXX..   .XooX. ...  .XoXXXooooOo",
"XX..   ..ooX. . .  .XooX.XoOoXXo",
".X.. . .XOoXX    . XXoXXXoOOXXoX",
"X.. ...XooXX.   . .X..XXooOooooX",
"......X.XoX. . ...X..XXooOooooXX",
"... . .Xoo.  .XX.XoXXoooXoXooXX.",
" .   .XXoX .X.X.XXXXoooOoXXoXX..",
"  . ..XooX.XXXXXooXXoXoooXoX..X.",
"  ...XoOXo.XoXooXoooXoooXXXXX.. ",
" . .XoOooXXXXooooOOOooXXoXX...  ",
".X.XooXoXXoXoooOOOOooXXoX.XX.  .",
"XXooXXX.XooooXOooOOoXXXXXX.. ..X",
"XXXXX.XXoOoXXoooOOoooX.X.....Xoo",
"..X..XoXooooOoooXooXX.X. ..XXXXX",
"X.. XoXoOoOOoOoooXXXX.. ..XXoXXX",
".. .XooOoOOOOooXXX.X....XoooXX..",
"XX.XoXoOOOOooXXoX..  X.XoXoXX...",
"oXoXXoOOOoooXX.X..  ..XoooX..X.X",
"XoOooOOOoOoXXXX.....XoooXX.  ..o",
"oOoOOOoooXX.X.. ..XoXoXX. . ..Xo",
"OOOOOooXXX... ...XoXoXX. . ..Xoo",
"oOoOooXXX.X....XXoooXX.    .XXoO",
"OoOoXoX.X.. ..X.XooX....  ..XoOO",
"OooooX.X.. .. .XoXooX. .  .XoXOO",
"OOoOXXXX.    .XXoooX..   ..XoOoo",
"OOoo.XX..   .XXoooX..   ..XoooXO",
"OooX..X.  . X.XoXoX. .  .XXoOoOO",
"oXoX.X..   ..XoXXX.    ..XooOOOO",
"ooXXXXX.. .XXXX.X...  ..XooOoOOO"
};
