/* XPM */
static char *spruce_log_top[] = {
/* columns rows colors chars-per-pixel */
"32 32 16 1 ",
"  c #553A1F",
". c #443321",
"X c #5A4424",
"o c #614B2E",
"O c #70522E",
"+ c #7A5A34",
"@ c #82613A",
"# c #886539",
"$ c black",
"% c black",
"& c black",
"* c black",
"= c black",
"- c black",
"; c black",
": c black",
/* pixels */
".X .  XXX .. X .XX   XX .. XX X ",
" X...X  .. ....  .. X. . .. .. X",
"X @###@+@++@O++@#@++@+@###@@#@. ",
" .@XXXXoXoXXooOOOOOOOOOOOOOOo#..",
" .#X+#@@##@+#@@###@+@#+@###@O#. ",
"X.@X#@++@++@OO+++@++++O+@++@O@..",
"X +X#+oooXoooOOOoOOOOOOoOO@#O+ .",
"X @o#OX+#@#+@##+@+@##+@#@O+#o+ X",
". +o@+X#@+OO++@@++++@+O+#OO+O+.X",
"..+X#+o#+oXooXXoooOOOOo+#O+@O@. ",
" .#o+Oo@OXO#@##+@#+#@+O+@o++O@ .",
"X.@o@+o#+X#++@+O+++@+@o@+X+@o+. ",
"X +o#@o+@o#+OoooOOOo++o@#o+#o+. ",
"X.Oo+@o++o@+o@#+#+@O+@X+@O+@o+.X",
". +o@OX@+o+@o#OooO+o@+XO#O+@oO X",
" .+o#+o#+o#+X@oO+o@o@#oO#o+#o+.X",
"X.@o@+O#@o#+X+o+Oo#X+@o+@o+@oO. ",
" .+O@+O@+O@+X+OOoo#X@#o+@o+#oO..",
"..+O+Oo@+O+Oo@+@#+@o+@oO#o+#oO .",
". @o#OO#Oo@+OoXXXooO++O+@O@#o+X ",
" X#O@+O+@O++@@++@O++@#o@#o+@O@. ",
"X.@O++O@+o+@#+@##+@##@O+#oO@o+. ",
"X @O+@O#+OOooOoooOOOOoO+@XO#o@.X",
" .+O#@o@+++O@@@+OO+++@++#o+@O#. ",
"..+O#+O+@#+@#@##@+@##+@##O@+X+ .",
" .+O@+OOOoOooooOoOooXXXoOO+#o@. ",
"X.+o+O+@@+O+@O+@+++@+OOO@++@o#  ",
" .@O#@@+##@#++@##+@#@@@##@##X#. ",
" .#OOoooXXoOOoooooooXXXXooXXo@. ",
". ##+@@+@#@@+O@+#@+@@+@+@#+@##.X",
"X. .. . ... ..  ... X..X ... . X",
"X X. X XX .. X XX .. X  . X XX ."
};
