/* XPM */
static char *spruce_door_top[] = {
/* columns rows colors chars-per-pixel */
"32 32 12 1 ",
"  c #353535",
". c #3F3F3F",
"X c #4D3317",
"o c #553A1F",
"O c #5A4424",
"+ c #664D28",
"@ c #6B5332",
"# c #785836",
"$ c #686868",
"% c #6F6F6F",
"& c #805E36",
"* c #997140",
/* pixels */
"*&****&O*****o*****O*****O*****O",
"&&#&&#@O@#&@#O#@#@&O@#@#@O@##@@X",
"*&##@#@o@#&&#o#&#@&o#@&#@o#@#@#X",
"&&##@#@o@#&#@o@&##@o#@&#@O#@###X",
"*&#&#@@O@&##@o&&@#&o#@#&@o#@#@#X",
"*#&&#@&o#&#&#o&+@#&O&@#&@o##@#@X",
"*#&##@&o&&#&#o&+@#&O&#@#&o@#@#@X",
"*#@#&#@o&@##&o+@#&@o&#@@&O#@##@X",
"*#@#&#@O&@#@&O+@#&@O@#@#&O#@@#@X",
" .$.$.$O .$.$O .$.$o .$.$O .$.$X",
"%&+@#@&O@+@@#o+&@+@o@+@&#o#+@&@X",
"*&+&##&O#+@##o+&@+@O@+@&#O&+@&+X",
"*&+&##&o#+&#+O&+&++o++&##O&#+&+X",
"*&+&#&&O@+&#+O&+&@+o+@&#@O&&+&+X",
"*#@&@&#o@##&+O#@&@+o#@&+@o#&+@+X",
"*#@+@&#o@##&+O#@&&#o#@&+@o#&++#X",
"*#@+&&#o#@#&@O#&@&#o@#@+#o&&@+#X",
"*&@+&#@o#@#&#O#&#&#o@#@+#O&#@+#X",
"&@+#@#@O#@+@#O+&#@#O@#++#o&##+#X",
"*@+#@@#O##+@#O+&#@#O##+@&O#&+#@X",
"&@#@#@#o#+###O+&+##o##+#&o#&+#@X",
"&#@@#+#o#++##O+++#@O#&+#&o#&+##X",
"&#@&+@@O&#+#+o+&+#@O#&@#&O+&+##X",
"*&@&+#@O&#+#+O@&+#&o#&@#&O+&@@#X",
"*&#+##&o&#++#O&&+#&O&#@#@O++#@#X",
"*@&++@#O@&#+#O&@+@&O&@+#@O@+#@#X",
"*@&+#&@O@&#+#o&+@#&O&@++&O++&@#X",
"*@&+@&@O#&@##o@+@#&O&@#+&O@+&@#X",
"*#@@+#&O#@+#@O&+&#&O&@#+&o@+&@#X",
"*#@#+#&O&@+#@o&+&#@O&@&+&O@+&#@X",
"#&@&&&&O&#+#@o@&&&&O#@&#&o@@##@X",
" .$.$.$o .$.$o .$.$O .$.$o .$.$X"
};
