/* XPM */
static char *stonecutter_bottom[] = {
/* columns rows colors chars-per-pixel */
"32 32 16 1 ",
"  c gray32",
". c #6E6D6D",
"X c #767676",
"o c #808080",
"O c #888788",
"+ c black",
"@ c black",
"# c black",
"$ c black",
"% c black",
"& c black",
"* c black",
"= c black",
"- c black",
"; c black",
": c black",
/* pixels */
"                                ",
" OOooOoXooXXoooXXoX..XXooXoXXoX ",
" oooXoooXXooOOoooooooooX..XooXo ",
" oXooXoXXooooooXXooXX.X..X.XooX ",
" ooX....XX.XoX..X.XX.XooooOOOOo ",
" oooXo.XoXXoOOo..XXoooXXoOOOoXX ",
" X.oOOOOooOOooOoOoOOooooooooXXX ",
" ooOOOoXOooOOooooOOooXXooXXXXoo ",
" XoXooOoX..XooXXoooOOoOOOoX.ooo ",
" oooXoXXXXoooXoXXoXoOOOOoXXXoOO ",
" oOOooooooOOoooooOoXXoXXXoo..Xo ",
" OOoooXXoXXoXoOOOoXoX..X.X..XoX ",
" oooXooOOOOOoXoOOOoooX..XXXoooo ",
" XXooXOooOOoXXXooooXXXXXooOOooo ",
" XooX...Xo.XXoX.XoXXXoXX.XoooXo ",
" XXX...XX...XXXXoXooXXoXXooXXoo ",
" oOOoX..XXXoXooOooOOooXXoooooXX ",
" OOOOOoXoOooooOoOOoooXoooOoOXXX ",
" ooXoOooOXXoOOOOOOOoooOOOOOoOOo ",
" XXooooooooooOOoXoXXoooOOooOOoo ",
" XoXoXooXXooX....XXoXXoooX..XX. ",
" .XoX..oooX..XX.XXoOOoXoX.XoooX ",
" XoOOOoXoXXoooXooOOOoOoOOoOXoOO ",
" oOoXoooooOOOOooooOOOoooOOoX.oO ",
" oXXooXXoOoOOoXXoooooooOoXX.X.X ",
" ooXXXX.XoOooXoXXoXXoX.X..XXoXo ",
" OoOOooX.XXoOoXX.XoXXoX..XoXXXX ",
" OOooXXXXXoooooOXXXooXXoXoXXXoO ",
" ooXXoXXooXXoOOooooooooOOoOOoXo ",
" oXXXXoOOooooooooooOOoXXOOOoOOO ",
" ooooXXoooooXXoXXXOOoOOoXoX..Xo ",
"                                "
};
