/* XPM */
static char *stripped_birch_log_top[] = {
/* columns rows colors chars-per-pixel */
"32 32 6 1 ",
"  c #A59467",
". c #AE9F76",
"X c #B8A875",
"o c #C8B77A",
"O c #D7C185",
"+ c #D7CB8D",
/* pixels */
"  .........     ......  ........",
" OO+++OoOooOXooO+OooOoO+++OO+OO.",
" OooOoXooooXXooooooooooOoooXooO.",
" Oo    . .  ..XXX.XXXXXXXXX..o+.",
" +X o+OO++Oo+OO+++OoO+oO+++OXo+.",
" Oo +OooOooOXXoooOooooXoOooOXoOX",
".oo +o... ...XXX.XXXXXX.XXO+XooX",
".Oo.+X o+O+oO++oOoO++oO+OXo+.XoX",
".oo.Oo +OoXXooOOooooOoXo+XXoXooX",
".oX +o.+o. ..  ...XXXX.o+XoOXoOX",
".+o.oX.OX X+O++oO+o+OoXoO.ooXoOX",
".Oo.Oo.+o +ooOoXoooOoO.Oo oO.ooX",
"Xoo.+O.oO.+oX...XXX.oo.O+.o+.Oo.",
"XXo.oO.oo.Oo.O+o+oOXoO oOXoO.Oo.",
"Xoo.OX Oo.oO.+X..Xo.Oo X+XoO.oX.",
"XoX.+o.+o.+o O.Xo.O.O+.X+.o+.Xo.",
"XOX.OoX+O.+o o.oX.+ oO.oO.oO.oX.",
"XooXOoXOoXOo oXX..+ O+.oO.o+.oX.",
"XooXoX.OoXoX.OoO+oO.oO.X+.o+.XX ",
"XOX.+XX+X.OoX.   ..XooXoOXO+.Xo ",
"X+oXOoXoOXooOOooOXooO+.O+.oOXoO ",
".OoXooXOo.oO+oO++oO++OXo+.XO.Oo ",
".OoXoOX+oXX..X...XXXX.XoO X+.OO ",
".ooX+O.OoooXOOOoXXoooOoo+.oOXo+.",
".ooX+oXoO+oO+O++OoO++oO++XOo oo.",
".ooXOoXXX.X....X.X..   .XXo+.oO.",
".oo.oXoOOoXoOXoOoooOoXXXOooO.o+.",
".OoX+OOo++O+ooO++oO+OOO++O++ X+.",
".+oXX...  .XX.......    ..  .oOX",
".+XooooooXooXXoooooooooXoOOooO+X",
"XO++oOOoO+OOooOo+OoOOoOoO+oO+++X",
"XXXXXXXX..................XXXXXX"
};
