/* XPM */
static char *stripped_warped_stem_top[] = {
/* columns rows colors chars-per-pixel */
"32 32 5 1 ",
"  c #1F5752",
". c #2E5F51",
"X c #287067",
"o c #398382",
"O c #3A8E8C",
/* pixels */
"  .........     ......  ........",
" OOOOOOooooooooooOOOOOOOOOooooO.",
" OOOOOOoOooOXooOOOooOoOOOOOOOOO.",
" OO    . .  ..XXXXXXXXXXXXXX.OO.",
" OO oOOOOOOoOOOOOOOoOOoOOOOOXOo.",
" oO OOooOooOXXoooOooooXoOooOXOoX",
".oo Oo... ...XXX.XXXXXX.XXOOXooX",
".oO.OX oOOOoOOOoOoOOOoOOOXoO.ooX",
".oo.Oo OOoXXooOOooooOoXoOXXoXooX",
".oo Oo.Oo. ..  ...XXXX.oOXoOXOoX",
".oO.oX.OX XOOOOoOOoOOoXoO.ooXOoX",
".oO.Oo.Oo OooOoXoooOoO.Oo oO.ooX",
"Xoo.OO.oO.OoX...XXX.oo.OO.oO.oo.",
"XOX.oO.oo.Oo.OOoOoOXoO oOXoO.oo.",
"XOo.OX Oo.oO.OX..Xo.Oo XOXoO.Xo.",
"XOo.Oo.Oo.Oo O.Xo.O.OO.XO.oO.oO.",
"XOO.OoXOO.Oo o.oX.O oO.oO.oO.XO.",
"XOoXOoXOoXOo oXX..O OO.oO.oO.XO.",
"XOoXoX.OoXoX.OoOOoO.oO.XO.oO.XO ",
"XOO.OXXOX.OoX.   ..XooXoOXOO.oO ",
"XOOXOoXoOXooOOooOXooOO.OO.oOXOO ",
".OOXooXOo.oOOoOOOoOOOOXoO.XO.oO ",
".OOXoOXOoXX..X...XXXX.XoO XO.OO ",
".OoXOO.OoooXOOOoXXoooOooO.oOXOO.",
".OoXOoXoOOoOOOOOOoOOOoOOOXOo oO.",
".ooXOoXXX.X....X.X..   .XXoO.OO.",
".oo.oXoOOoXoOXoOoooOoXXXOooO.Oo.",
".oOXOOOoOOOOooOOOoOOOOOOOOOO Oo.",
".oOXX...  .XX.......    ..  .OoX",
".oOOoOOoOOOOoXOoOOoOOoOoOOoOOOoX",
"XoooooooOOOOOOOOOOOOOOOOOOOOoooX",
"XXXXXXXX..................XXXXXX"
};
