/* XPM */
static char *structure_block_load[] = {
/* columns rows colors chars-per-pixel */
"32 32 11 1 ",
"  c #101010",
". c #151316",
"X c #211A24",
"o c #261D2A",
"O c gray20",
"+ c #353635",
"@ c #4E424E",
"# c #967896",
"$ c #C2A0C2",
"% c #D7B3D7",
"& c #D7C2D7",
/* pixels */
"Ooooooooooooooooooooooooooooooo+",
"o                              o",
"o           ########           o",
"o   o     ## o.  .o ##     o   o",
"o  oXo  ##   o.  .o   ##  oXo  o",
"o   o  #@@   o.  .o   @@#  o   o",
"o     #@     o.  .o     @#     o",
"o    #@o     o.  .o     o@#    o",
"o   #@       o.##.o       @#   o",
"o   #@       o#&&#o       @#   o",
"o  #         #&oo&#         #  o",
"o  #        #&o  o&#        #  o",
"o #        #%o    o%#        # o",
"o #ooooooo#$o      o$#ooooooo# o",
"o #......#$o        o$#......# o",
"o #     #$o          o$#     # o",
"o #     #$o          o$#     # o",
"o #......#$o        o$#......# o",
"o #ooooooo#$o      o$#ooooooo# o",
"o #        #%o    o%#        # o",
"o  #        #&o  o&#        #  o",
"o  #         #&oo&#         #  o",
"o   #@       o#&&#o       @#   o",
"o   #@       o.##.o       @#   o",
"o    #@o     o.  .o     o@#    o",
"o     #@     o.  .o     @#     o",
"o   o  #@@   o.  .o   @@#  o   o",
"o  oXo  ##   o.  .o   ##  oXo  o",
"o   o     ## o.  .o ##     o   o",
"o           ########           o",
"o                              o",
"OooooooooooooooooooooooooooooooO"
};
