/* XPM */
static char *sugar_cane[] = {
/* columns rows colors chars-per-pixel */
"32 32 14 1 ",
"  c None",
". c #75C128",
"X c #698747",
"o c #70904C",
"O c #7CA055",
"+ c #91EF32",
"@ c #82A859",
"# c #8CB560",
"$ c #96C166",
"% c #A0CF6E",
"& c #AADB74",
"* c #AACD83",
"= c #D2E4BD",
"- c #E5EFDA",
/* pixels */
"  &%#@    &%#@    &%#@    &%#@  ",
"  -%#$    &%#@    &%#@    &%#@  ",
"  @=*X    &%#@    &%#@    -%#$  ",
"  &Oo@    &%#@    &%#@    @=*X  ",
"  &%#@    &%#@    &%#@..  &Oo@  ",
"  &%#@++  &%#@    &%#@..  &%#@  ",
"  &%#@..  &%#@    &%#@    &%#@  ",
"  &%#@    &%#@++  &%#@    &%#@  ",
"  &%#@    &%#@..  &%#@    &%#@  ",
"  &%#@    -%#$    &%#@    &%#@  ",
"  &%#@    @=*X    -%#$    &%#@  ",
"  &%#@    &Oo@    @=*X    &%#@  ",
"  &%#@    &%#@    &Oo@    &%#@  ",
"  &%#@    &%#@    &%#@    &%#@++",
"  &%#@    &%#@    &%#@    &%#@..",
"  &%#@    &%#@    &%#@    &%#@  ",
"  &%#@    &%#@    &%#@    &%#@  ",
"++-%#$    &%#@    &%#@    &%#@  ",
"..@=*X    &%#@    &%#@    &%#@  ",
"  &Oo@    &%#@    &%#@    -%#$  ",
"  &%#@  ..&%#@    &%#@    @=*X  ",
"  &%#@  ..-%#$  ++&%#@    &Oo@  ",
"  &%#@    @=*X  ..&%#@    &%#@  ",
"  &%#@    &Oo@    &%#@    &%#@  ",
"  &%#@    &%#@    &%#@    &%#@  ",
"  &%#@    &%#@    &%#@    &%#@  ",
"  &%#@    &%#@    &%#@  ..&%#@  ",
"  &%#@    &%#@    -%#$  ..&%#@  ",
"  &%#@    &%#@    @=*X    &%#@  ",
"  &%#@    &%#@    &Oo@    &%#@  ",
"  &%#@    &%#@    &%#@    &%#@  ",
"  &%#@    &%#@    &%#@    &%#@  "
};
