/* XPM */
static char *sweet_berry_bush_stage1[] = {
/* columns rows colors chars-per-pixel */
"32 32 7 1 ",
"  c None",
". c #1D3822",
"X c #294B38",
"o c #295230",
"O c #286240",
"+ c #3C6E42",
"@ c #487F4F",
/* pixels */
"            ++                  ",
"            @++   OO            ",
"        oo  ++@@  O+o+o         ",
"        +o+ +++@@@OO+Ooo        ",
"         o+o +O+Oo  ooo         ",
"     OOO  o+  ++ooO +o+         ",
"    oOoo@+@++++Ooo@@+@    +o    ",
"  OOO@o@@@+o++OOOoO@++   oo@oo  ",
"   O@@@o+ooo.+o+OO@@@@  +++@o   ",
"    @@OOoo+o..+.@Oo+@o +o+@+@   ",
"     @oo++o+oo+oo@OO++o@@@@@    ",
"     @+oo++++o++oooOO+oo+@+@    ",
"    +++@+@++OOo.o.OoooOO@+@o    ",
"    ++@+@@@+Oooo..@OoOoO++ooO   ",
"     +++o++@oOOo@oooOOoo OoOOo  ",
"     o+.oo@@oo.O+@oOo.oO  OOo   ",
"      +o...+@+O.@@@+++..OoOoO   ",
"     @o+o.++++..@O+@@+.oOOoo    ",
"   +@@+ooo.++@++OO..O.OOoOo     ",
"  @+@++o+o..@@+O+O..OO.OO.o     ",
"   +++@ o..O.O@+@+O@+@o..o      ",
"    ++  ..O..O@@++OO@@o.oo  X   ",
"        OOoo..o@.+..oo@o..  XX  ",
"       OOoOoO.oo..o.o.ooo. ..X  ",
"      oOoO  oOoOo.oo o....X.X   ",
"      OOoo oooOOoOoo  .o....X   ",
"        +O++OO.OooOooo oOo.o    ",
"         +O+++..o.OOoO  oo..    ",
"        +O++o.OOoOO.oooOoOo     ",
"        +++OOOo Oo..  ooo       ",
"           oOo  OoO  OoO        ",
"            oo oOO    OO        "
};
