/* XPM */
static char *sweet_berry_bush_stage2[] = {
/* columns rows colors chars-per-pixel */
"32 32 10 1 ",
"  c None",
". c #1D3822",
"X c #691F21",
"o c #294B38",
"O c #295230",
"+ c #286240",
"@ c #3C6E42",
"# c #487F4F",
"$ c #A50700",
"% c #DF467E",
/* pixels */
"            @@                  ",
"            #@@   ++            ",
"        OO  @@##  +@O@O         ",
"       @@O@ @@@###++@+OO        ",
"      @@ O@OXX+@+O  OOO         ",
"     +@+  O@X$@@OO+ @O@         ",
"    O+OO#@#@@@@+OO##@#    @@    ",
"  +++#O###@O@@+++O+#@@   @@#@@  ",
"   +###%%OOO.@O@++####  @@@#@   ",
"    ##%$$$@O..@.#+O@#O @O@#@#   ",
"     #$$$XO@OO@OO#++@@O###+#    ",
"     #@$X@@@@O@@OOO++@OO@+@++   ",
"    @o@#@#@@++O.O.+OOO++#++OO   ",
"    oO#@###@+OOO..#+O+O+@@OO++  ",
"     o@@O@@#O++O#OOO++OO +O++O  ",
"     O@.OO##OO.+@#O+O.O+  ++O   ",
"      @O...@#@+.###@@@..+O+O+   ",
"     #O@O.@@@@..#+@##@.O++OO    ",
"   @##@OOO.%%#@@++..+.+%%+O     ",
"  #@#@@O@O%$$$@+@+..++%$$$O     ",
"   @@@# O.$$$X#@#@+#@#$$$X      ",
"    @@  ..+$X+##@@++##OXXO  o   ",
"        ++OO..O#.@..OO#O...ooo  ",
"       ++O+O+.OO..O.O.OOO.o..o  ",
"      O+O+  O+O@O.OO$X....o.o   ",
"     @++OO OOO@@O+++XX.O....o   ",
"     @@ @##@+@.+@@+OOO O+O.O    ",
"      +  @#@#@..@.@+O+  OO..    ",
"       @@#@@O.+@O++.OOO+O+O     ",
"        +@@+++O +O..  OOO       ",
"           O+O  +O+  +O+        ",
"            OO O++    ++        "
};
