/* XPM */
static char *target_top[] = {
/* columns rows colors chars-per-pixel */
"32 32 16 1 ",
"  c #A43434",
". c #B93232",
"X c #C82F2F",
"o c #D53535",
"O c #DC4A4A",
"+ c #EBD7BA",
"@ c #EFE2D0",
"# c #F3EBDF",
"$ c #FEFEFD",
"% c black",
"& c black",
"* c black",
"= c black",
"- c black",
"; c black",
": c black",
/* pixels */
"+@++#$@++$@++#@$#+@+$##+$@#+#+++",
"+#@@+#@+@++#@+#$@$#@+#@@+@@++@+@",
"++ .o..Oo.o.o. .oOo...X.XO.o. $+",
"+@.o.OoooXo.XOo.oX.X.OoXoOoXXo++",
"@+X.++#@@$#+$+@+@+++#+#+@$#+.X@+",
"+@oX$#+@+@+@@#$++@+#@#+++@+@XO+@",
"@#O.$@#+++@#@+#@@#$@+@#+++@+.o++",
"+@o.+++##@+#+@+@+@+@#++##@++o.#+",
"$@Xo#++@X.ooXO.ooO.ooX.O$#$+OX#@",
"+@.o+@+@ X..oXXo.ooX.oXO++#@oX@@",
"#+X.#+@+ o#$+@@$+@+@+@o.@@+@..#@",
"+@Oo@+++.o$#++@#@#++@$Oo@$@#.O+#",
"@$Xo@++@OX+@@$++@++@#+.o@+++Xo#+",
"+@o.#@$+.o#@++@$#@++#+oo@@+#.X++",
"++.o@$+@oo+#@#o..o+@+#o.++$@..#+",
"#+oo@@+#oX@+$@X.oX++@+o.#@+@oo+#",
"++..@$@+O.#+#@oo..+@++.X+#@#oX@+",
"+#X.+@#@o.@++@ .oX@#+$oo+@++oo#@",
"+@OX@+@@XO++@#$+++#$@#.o+$@@Xo@#",
"@@oX+$+#oO+##@##+@+#++oX@$++.O$+",
"@+oo#+@+.X@+@++@@+++#@Xo#@+#Xo@+",
"+#o.+@+$X.+$$+@++@#@+#oo#@+@oo+$",
"@@.X$+#+o.oo..o.oo.X.X. @+@$o.@$",
"@#oo@@++ .Oo.oOXoX.oO. .+#+@.o+@",
"+$.o+#@$#+@+$##+$@#+#@++@@++XO@+",
"@+oX@+#$@$#@+#@@+@@++@+@+#@@oX@+",
"+@o.+@+@+$+@@++@#$++@#$+++#$o.@$",
"+#o.#$+@+#@#@$+#+$+##@##+@++XO++",
"@$XoOo.o.oooXoXo.OXo.ooo.oX.X #@",
"+@ ..XOoo.oX.Xooo.o.X.Ooo.oX. +@",
"++@+@+#@@#$@+@#+++@+@+##@#$@@@#+",
"#@+++@+@+@+@+++##@+++@+@+@+@+++#"
};
