/* XPM */
static char *tnt_top[] = {
/* columns rows colors chars-per-pixel */
"32 32 8 1 ",
"  c #11111E",
". c #565656",
"X c #777777",
"o c #912D11",
"O c #B11527",
"+ c #DB2F1A",
"@ c #EA4318",
"# c #8E8E8E",
/* pixels */
"O+@@@@+OO+@@@@+OO+@@@@+OO+@@@@+O",
"+@XXXX@O+@XXXX@O+@XXXX@O+@XXXX@O",
"@XX##XXO@XX##XXO@XX##XXO@XX##XXO",
"@X#..#XO@X#..#XO@X#..#XO@X#..#XO",
"@X#. .XO@X#. .      .#XO@X# .#XO",
"+XX## .o+XX#  Xo+X.  .Xo+X .#XXo",
"O+XXXX .O+.  .OoO+ .X .oO .XXXOo",
"OOOOOoo    O. ooOO OOo . .OOOooo",
"O+@@@@+O .@@@ +OO+ @@@+ .+@@@@+O",
"+@XXXX@O+ .XX .O+. XXX  .@XXXX@O",
"@XX##XXO@X .#. O@ .#. .O XX##XXO",
"@X#..#XO@X# .# O@ #. .XO .#..#XO",
"@X#.  .O@X## . o. . .#XO.   .#XO",
"+XX##.    .##  . . .#.    X##XXo",
"O+XXXXOoO.   .        .oO XXXXOo",
"OOOOOoooOOOO.     .OOoooO OOOooo",
"O+@@@@+OO+@.       .@@+OO @@@@+O",
"+@XXXX@O+..       .   .O+ XXXX@O",
"@XX##X.    ## . .  .#.    .##XXO",
"@X#.   .@ ## . .@ # .#XO .  .#XO",
"@X#..#XO@ # .# O@ ## .XO X#..#XO",
"+XX##XXo+ ..#. o+ .## . .XX##XXo",
"O+XXXXOoO  XX .oO. XXX .O+XXXXOo",
"OOOOOooo . .O ooOO OO . .OOOOooo",
"O+@@@@+ .+@  .+OO+   .+O .@@@@+O",
"+@XXXX .+@XX.     . XX@O+ .XXX@O",
"@XX## .O@XX# .XO@XX #XXO@X .#XXO",
"@X#. .XO@X#. #XO@X# .#XO@X# .#XO",
"@X#..#XO@X#..#XO@X#..#XO@X#..#XO",
"+XX##XXo+XX##XXo+XX##XXo+XX##XXo",
"O+XXXXOoO+XXXXOoO+XXXXOoO+XXXXOo",
"OOOOOoooOOOOOoooOOOOOoooOOOOOooo"
};
