/* XPM */
static char *turtle_egg_very_cracked[] = {
/* columns rows colors chars-per-pixel */
"32 32 25 1 ",
"  c None",
". c #347967",
"X c #887D54",
"o c #3A8772",
"O c #48A78E",
"+ c #C1B484",
"@ c #F2E2A9",
"# c #F2E2AB",
"$ c #F2E3B0",
"% c #F2E4B4",
"& c #F2E4B5",
"* c #F3E5B5",
"= c #F2E6BC",
"- c #F4E8BE",
"; c #F4E9BF",
": c #F2E7C1",
"> c #F4EAC2",
", c #F3E9C6",
"< c #F2E9C7",
"1 c #F4EAC4",
"2 c #F5ECC9",
"3 c #F5EDCD",
"4 c #F5EDD0",
"5 c #F6EFD5",
"6 c #F7F1D9",
/* pixels */
":456X45:  222522                ",
"55O+6666  266652                ",
"465X5454  565O62                ",
"5+X66O65  2666+X                ",
"64566X66  5O5X52                ",
"566XX45+  22222@                ",
"4656+XX4        566X55          ",
":4.4X44:        65+666          ",
"  2555X522      +6X5O6          ",
"  56+6X666      X56666          ",
"  525X+652      <+<656          ",
"  565O5+65      %<O<<6          ",
"  5+X56665      +@<%<<          ",
"  666X5255      @%@<@%          ",
"  566+X66+  2332+311            ",
"  566X6X.X  3663X121            ",
"  6X5+56+5  66@X2X11            ",
"  56X666X5  33622X1+            ",
"  56+66665  3>X22>X-            ",
"  +o%>1615  +2X2>>X%            ",
"  X<&+&<%<  >X3>>+>X5666666-    ",
"  @+X1@&@%  >+23+X>@66665O--    ",
"X=+=+@=-6<<+-6+-    <556X6-@    ",
"<O6X6=@=-<+X6+=<    +666+6+-    ",
"=66X+<%=--<<+O6=    +X<+65*X    ",
"<X6<X@%%<-X<X==<    <X.X+<@+    ",
"@@+X<@&#$O<+<<X=    <+X<<<*-    ",
"+<+O#%####-X@=++    +-X+<X+*    ",
"X@X@%####-X-X+X<    *X-X+-*-    ",
"<+<=@###<<<=X==#    *@*X@*@@    ",
"                                ",
"                                "
};
