/* XPM */
static char *warped_nylium_side[] = {
/* columns rows colors chars-per-pixel */
"32 32 13 1 ",
"  c #303C35",
". c #401617",
"X c #4F1C1C",
"o c #501617",
"O c #562122",
"+ c #642829",
"@ c #713233",
"# c #3F4F58",
"$ c #1B615B",
"% c #844243",
"& c #1E7E85",
"* c #1F9A85",
"= c #24B386",
/* pixels */
"&*&*&&***&&$*&==&&&&=**&**&*=*&*",
"$&***&&*&*$$$**===&*=&=*&&*=*=*&",
"&$*&*&*=$&&$*$==&**&*=*==**&*&$&",
"$#&&&*=*&$$&$**=&=*&**&=*=&*&$#*",
"#$&&$$*&*&$&&*&$=#$*&$==&*&$$#$$",
" #&$$&&$&$&$&$*&=#$$&#$=&$#$#$# ",
"# $ #&#$$#$#$ *## #$&#$#$#$ ##  ",
"@ # $$#$# $## #$$  # &# # #  # +",
"++ $@#$  ## #  # #+# $$ $ # + XO",
"O@ @@ #$ #. ## #  %  # X#  %@ OX",
"o+@+ O #$ X@ @# #%@@#  o  +%%@+O",
"XO++@+$## +%@+# @+@+ # X+ @%@%++",
"oO+@++X$ .+@+@% %@+X##X.X+%@%%@@",
"+XO+OX$$.+@+++@@++X## .o+@+@%@%@",
"@.XO.$# #X+@+@+XX+$# +X+@$X+%%@%",
"+@..$# oX#@@@+X+$$# +@+X #$X@%@+",
"+OXX#O+@+XoX+OX #$ +@%%@X+ #+@+@",
"OoXO@#@%%+@.oX.#$@+@%@%%+@o #+@+",
"o O++@%%@%+X..# +X@%@%%@@+Xo# #X",
" O+@++@+%@@+o.#+X+%@%%@+@+XXoo  ",
"O+@+@++@@@++Xo @+@%%@%+@+oX....o",
"OO+X+@%@+X@Xo. +@%%@+@+X+X...ooX",
"+OX+ +@+X++XX..X@+@+@+X+X.OXXoXO",
"O.oXO#+@+X XoO..+X+@+XooOX++OXoX",
".oO+@ ##  O@+o.o.ooXo..O@+@@@+.X",
".X+@%@#+O+@%@X..oXoX..+@+@%@+@.o",
"XO@%@+@@@%%@@Oo.X+X.oO+@@%@%@+X.",
".X+@%%@@%@%@+X.o.Oo.XO@+%@%%@@Oo",
"o.O++@@%%%@+OoOXXX..O+@@%%@%@++O",
"XoX+@+@@%%@OXO@+Xo.oO+%@%@+@@+OO",
"X.XO+O+@%@+XO@+@OXo.X+O%@+@@+@+X",
"oXoXO+++@+OX++@@+OOXoX++@@%@+OXO"
};
