/* XPM */
static char *warped_fungus[] = {
/* columns rows colors chars-per-pixel */
"32 32 12 1 ",
"  c None",
". c #442131",
"X c #4B2737",
"o c #562C3E",
"O c #3E4F58",
"+ c #16615B",
"@ c #E93E0C",
"# c #FF6500",
"$ c #FFA468",
"% c #167E86",
"& c #119B85",
"* c #14B485",
/* pixels */
"                                ",
"                                ",
"                                ",
"                                ",
"                                ",
"                                ",
"                                ",
"                                ",
"                                ",
"                                ",
"                                ",
"                                ",
"                                ",
"                                ",
"         $$#******$$$#*         ",
"       *##$@******#$#$**&       ",
"      &&*@#*&&***&&##**&&*      ",
"      %*&&&&&$@***&&&&***%      ",
"      %***%&@#$@&**%&%&*%%      ",
"      %+*%%&#@#@%&%%%+%&+%      ",
"      +O%+%%%@@%&%%++O+%&+      ",
"       +++O++OOOOO++OOO++       ",
"              ....              ",
"              .o.X              ",
"              oXX.              ",
"              XoXo              ",
"              XooX              ",
"              oXoX              ",
"              Xo.o              ",
"              ..oX              ",
"              o.Xo              ",
"              XXoX              "
};
