/* XPM */
static char *wheat_stage4[] = {
/* columns rows colors chars-per-pixel */
"32 32 10 1 ",
"  c None",
". c #056A05",
"X c #11761F",
"o c #5B6B0F",
"O c #4B7613",
"+ c #8D773D",
"@ c #088806",
"# c #00AE19",
"$ c #15CD2F",
"% c #9F9908",
/* pixels */
"                                ",
"                                ",
"                                ",
"                                ",
"                                ",
"                                ",
"                                ",
"                                ",
"              O                 ",
"              OO                ",
"             O#OO               ",
"             O$#                ",
"              $# #@             ",
"    $        #$$##@             ",
"    ##       #$##@              ",
"    #$$      ##@@               ",
"   ##$  #     #@                ",
"   #$# #@     #                 ",
"    #$#@    # #@        #       ",
"    ##@    #@ @@       $##      ",
"##  #@   @ XX  O      $$@#      ",
" @# #@  .@ X@@ O   #  $#@#      ",
"  @ @   .@  XOO+   @# @@#   @   ",
"  X@@   ..   O+%   @#  @#   @   ",
".  X@X  o.    +%   @#  @   @.   ",
".  OXO  o.    %   .@#  @  @...  ",
".   O    . @  %   .@@. .  ..X@  ",
"..  O    O..  %   OO..X.   X.X  ",
"oOoooO   oOo  %  O.o. XX.   O   ",
" oo +O   oo   %  Oo O  XO   o   ",
" o  +oO oo   o+   o    Oo   o   ",
"oo +++o +o  o+++  oo  Xooo  oo  "
};
