/* XPM */
static char *yellow_wool[] = {
/* columns rows colors chars-per-pixel */
"32 32 44 1 ",
"  c #F1A813",
". c #F1A914",
"X c #F2AB15",
"o c #F2AC16",
"O c #F3AD16",
"+ c #F3AF17",
"@ c #F2B116",
"# c #F3B217",
"$ c #F3B317",
"% c #F4B118",
"& c #F4B219",
"* c #F3B418",
"= c #F5B51B",
"- c #F4B71A",
"; c #F5B61C",
": c #F6B81D",
"> c #F5BA1C",
", c #F6BA1E",
"< c #F6BD1F",
"1 c #F7BD1F",
"2 c #F6BE1F",
"3 c #F7BE20",
"4 c #F8BF21",
"5 c #F7C021",
"6 c #F7C121",
"7 c #F8C323",
"8 c #F8C424",
"9 c #F9C526",
"0 c #FBC627",
"q c #F9C827",
"w c #FBC928",
"e c #FACA29",
"r c #FCCB2B",
"t c #FBCD2C",
"y c #FBCE2D",
"u c #FDCD2E",
"i c #FDD030",
"p c #FED334",
"a c #FED335",
"s c #FDD435",
"d c #FED539",
"f c #FDD639",
"g c #FED73A",
"h c #FED93F",
/* pixels */
"&;+#<r&=tt$><7&.,,=,8t&&tu%>67.+",
"49ff=&s9>#qp#+937ehs>%u8,#8i +95",
"ui,9fsq7tpttfpe9ui,<pi7,qiqwsswe",
"9<us7<7p>7ss9<ht4=rs<<<s=,ui93hi",
"e6>9uu+.9u<=iu,*e7,9up$ 7t<%su>#",
"*%e7*.e3& <<$<=<##u9>#tq>#<8#<><",
"ff=%797euf96hhuqff;&667qih9<hhuq",
";;ff%<pu#=tietuu=;ff#,su&&ui99si",
"ue+=i9=>*6,#7,%+r9+;i8===8,+<,%.",
"<37q..,9,ehf<eff=,79 +,9>ehh7efs",
"ii&=spt9iu,796#<uu&>ppe9uu6991&7",
"&#99<<it,%=9  ,9&=99=;tq%&=9.O=9",
"<<##pf=#7u9thht*<<#$pf*#7i9thhe&",
"trfh,<96#7ts77shtefh,<96#7ts77ph",
"ip86ieeihp,<qt<*ff8,sqtthp,<9t3,",
"+&i8%3sf7<ep>>pp+%u7#=sg6<ep,>up",
",=+#<r&;tu#>9q#+&=+%<t#=tt$><7#+",
"9ehh,&i6%$qu .9<77ff,#uq>#qp#$7>",
"ui,,iuq6qiqesht9ii;1gpq5usttfhtt",
"7=rp,67s><is9<hp44us5<8p>6ss93hp",
"9,>8ui##9t<$iu<$e7,9ii%#9t3;tt=%",
"=#t9>#tq>#36#<=<=+u9>#tq,#&,.;>3",
"ff<,887qus9,hhu9pf;&<<6quf9,fhtq",
"==fs>1uu&=tsetiu=;ff><ss%=eitesp",
"t9+&i0&==,%+,<OOtq+<pt><,7<#9<>+",
"=,8q +<9,ehf19ff><9t#$6q,ehh7tfs",
"ss><hsttpp79e9#7ti,<hiutsu69e9*9",
"=>ee<<ut>>,e&#<e#;9e33it#%=9%.,e",
"<3#Oip+#8iqthhe#<<#$isO 1t99ffr.",
"tuif&,6, <ts69phteff%=9,.<9i3<uf",
"fs7,iq9rfu=<qt3,ff6,uqerfu==6t4,",
"+#u6,<pf<=9u#,ss.;u7,<ph,;ti,,ip"
};
